G04 #@! TF.GenerationSoftware,KiCad,Pcbnew,(5.1.9)-1*
G04 #@! TF.CreationDate,2021-11-23T21:03:05+05:30*
G04 #@! TF.ProjectId,Onyx PCB,4f6e7978-2050-4434-922e-6b696361645f,rev?*
G04 #@! TF.SameCoordinates,Original*
G04 #@! TF.FileFunction,Legend,Top*
G04 #@! TF.FilePolarity,Positive*
%FSLAX46Y46*%
G04 Gerber Fmt 4.6, Leading zero omitted, Abs format (unit mm)*
G04 Created by KiCad (PCBNEW (5.1.9)-1) date 2021-11-23 21:03:05*
%MOMM*%
%LPD*%
G01*
G04 APERTURE LIST*
%ADD10C,0.300000*%
%ADD11C,0.200000*%
%ADD12C,0.120000*%
%ADD13C,0.250000*%
%ADD14C,0.127000*%
%ADD15C,0.010000*%
%ADD16C,0.150000*%
%ADD17C,0.100000*%
%ADD18C,0.300000*%
%ADD19R,1.330000X1.330000*%
%ADD20R,2.000000X0.900000*%
%ADD21R,0.900000X2.000000*%
%ADD22O,1.700000X1.700000*%
%ADD23R,1.700000X1.700000*%
%ADD24O,0.890000X1.550000*%
%ADD25R,1.200000X1.550000*%
%ADD26R,1.500000X1.550000*%
%ADD27O,1.250000X0.950000*%
%ADD28R,0.400000X1.350000*%
%ADD29R,4.500000X2.000000*%
%ADD30R,1.800000X2.500000*%
%ADD31R,2.000000X1.500000*%
%ADD32R,2.000000X3.800000*%
%ADD33R,0.300000X1.600000*%
%ADD34R,0.600000X1.550000*%
%ADD35R,3.100000X2.600000*%
%ADD36C,1.530000*%
%ADD37R,1.530000X1.530000*%
%ADD38R,0.750000X1.000000*%
%ADD39R,0.900000X0.800000*%
%ADD40C,3.000000*%
%ADD41R,3.000000X3.000000*%
%ADD42R,1.200000X2.200000*%
%ADD43R,1.600000X1.400000*%
%ADD44R,0.700000X1.400000*%
%ADD45C,5.600000*%
%ADD46O,2.400000X2.400000*%
%ADD47C,2.400000*%
%ADD48R,0.900000X1.200000*%
%ADD49R,0.600000X0.700000*%
%ADD50R,0.700000X0.600000*%
G04 APERTURE END LIST*
D10*
X192214557Y-141131914D02*
X193128842Y-141131914D01*
X192671700Y-141589057D02*
X192671700Y-140674771D01*
X191820857Y-136293214D02*
X192735142Y-136293214D01*
X192278000Y-136750357D02*
X192278000Y-135836071D01*
X191909757Y-134972414D02*
X192824042Y-134972414D01*
X192366900Y-135429557D02*
X192366900Y-134515271D01*
X192201857Y-128533514D02*
X193116142Y-128533514D01*
X192659000Y-128990657D02*
X192659000Y-128076371D01*
X131864100Y-120258614D02*
X131935528Y-120330042D01*
X131864100Y-120401471D01*
X131792671Y-120330042D01*
X131864100Y-120258614D01*
X131864100Y-120401471D01*
X167360600Y-124970314D02*
X167432028Y-125041742D01*
X167360600Y-125113171D01*
X167289171Y-125041742D01*
X167360600Y-124970314D01*
X167360600Y-125113171D01*
X123799657Y-144268814D02*
X124713942Y-144268814D01*
X124256800Y-144725957D02*
X124256800Y-143811671D01*
X130238571Y-144264842D02*
X131381428Y-144264842D01*
X146723100Y-109793814D02*
X146794528Y-109865242D01*
X146723100Y-109936671D01*
X146651671Y-109865242D01*
X146723100Y-109793814D01*
X146723100Y-109936671D01*
X154813057Y-120075314D02*
X155727342Y-120075314D01*
X155270200Y-120532457D02*
X155270200Y-119618171D01*
X124066357Y-126552314D02*
X124980642Y-126552314D01*
X123774257Y-118983114D02*
X124688542Y-118983114D01*
X124231400Y-119440257D02*
X124231400Y-118525971D01*
X128663757Y-122983614D02*
X129578042Y-122983614D01*
X129120900Y-123440757D02*
X129120900Y-122526471D01*
X128587557Y-120951614D02*
X129501842Y-120951614D01*
X129044700Y-121408757D02*
X129044700Y-120494471D01*
X150114000Y-125757714D02*
X150185428Y-125829142D01*
X150114000Y-125900571D01*
X150042571Y-125829142D01*
X150114000Y-125757714D01*
X150114000Y-125900571D01*
X150114000Y-121947714D02*
X150185428Y-122019142D01*
X150114000Y-122090571D01*
X150042571Y-122019142D01*
X150114000Y-121947714D01*
X150114000Y-122090571D01*
X137083800Y-121668314D02*
X137155228Y-121739742D01*
X137083800Y-121811171D01*
X137012371Y-121739742D01*
X137083800Y-121668314D01*
X137083800Y-121811171D01*
D11*
X127368357Y-110944014D02*
X128282642Y-110944014D01*
X127825500Y-111401157D02*
X127825500Y-110486871D01*
D10*
X170148538Y-114192857D02*
X170362824Y-114264285D01*
X170434252Y-114335714D01*
X170505681Y-114478571D01*
X170505681Y-114692857D01*
X170434252Y-114835714D01*
X170362824Y-114907142D01*
X170219967Y-114978571D01*
X169648538Y-114978571D01*
X169648538Y-113478571D01*
X170148538Y-113478571D01*
X170291395Y-113550000D01*
X170362824Y-113621428D01*
X170434252Y-113764285D01*
X170434252Y-113907142D01*
X170362824Y-114050000D01*
X170291395Y-114121428D01*
X170148538Y-114192857D01*
X169648538Y-114192857D01*
X171005681Y-113978571D02*
X171362824Y-114978571D01*
X171719967Y-113978571D02*
X171362824Y-114978571D01*
X171219967Y-115335714D01*
X171148538Y-115407142D01*
X171005681Y-115478571D01*
X174077109Y-114907142D02*
X173934252Y-114978571D01*
X173648538Y-114978571D01*
X173505681Y-114907142D01*
X173434252Y-114835714D01*
X173362824Y-114692857D01*
X173362824Y-114264285D01*
X173434252Y-114121428D01*
X173505681Y-114050000D01*
X173648538Y-113978571D01*
X173934252Y-113978571D01*
X174077109Y-114050000D01*
X175362824Y-113978571D02*
X175362824Y-114978571D01*
X174719967Y-113978571D02*
X174719967Y-114764285D01*
X174791395Y-114907142D01*
X174934252Y-114978571D01*
X175148538Y-114978571D01*
X175291395Y-114907142D01*
X175362824Y-114835714D01*
X176077109Y-114978571D02*
X176077109Y-113978571D01*
X176077109Y-114264285D02*
X176148538Y-114121428D01*
X176219967Y-114050000D01*
X176362824Y-113978571D01*
X176505681Y-113978571D01*
X177005681Y-114978571D02*
X177005681Y-113978571D01*
X177005681Y-113478571D02*
X176934252Y-113550000D01*
X177005681Y-113621428D01*
X177077109Y-113550000D01*
X177005681Y-113478571D01*
X177005681Y-113621428D01*
X177934252Y-114978571D02*
X177791395Y-114907142D01*
X177719967Y-114835714D01*
X177648538Y-114692857D01*
X177648538Y-114264285D01*
X177719967Y-114121428D01*
X177791395Y-114050000D01*
X177934252Y-113978571D01*
X178148538Y-113978571D01*
X178291395Y-114050000D01*
X178362824Y-114121428D01*
X178434252Y-114264285D01*
X178434252Y-114692857D01*
X178362824Y-114835714D01*
X178291395Y-114907142D01*
X178148538Y-114978571D01*
X177934252Y-114978571D01*
X179719967Y-113978571D02*
X179719967Y-114978571D01*
X179077109Y-113978571D02*
X179077109Y-114764285D01*
X179148538Y-114907142D01*
X179291395Y-114978571D01*
X179505681Y-114978571D01*
X179648538Y-114907142D01*
X179719967Y-114835714D01*
X180362824Y-114907142D02*
X180505681Y-114978571D01*
X180791395Y-114978571D01*
X180934252Y-114907142D01*
X181005681Y-114764285D01*
X181005681Y-114692857D01*
X180934252Y-114550000D01*
X180791395Y-114478571D01*
X180577109Y-114478571D01*
X180434252Y-114407142D01*
X180362824Y-114264285D01*
X180362824Y-114192857D01*
X180434252Y-114050000D01*
X180577109Y-113978571D01*
X180791395Y-113978571D01*
X180934252Y-114050000D01*
X181648538Y-114978571D02*
X181648538Y-113978571D01*
X181648538Y-114121428D02*
X181719967Y-114050000D01*
X181862824Y-113978571D01*
X182077109Y-113978571D01*
X182219967Y-114050000D01*
X182291395Y-114192857D01*
X182291395Y-114978571D01*
X182291395Y-114192857D02*
X182362824Y-114050000D01*
X182505681Y-113978571D01*
X182719967Y-113978571D01*
X182862824Y-114050000D01*
X182934252Y-114192857D01*
X182934252Y-114978571D01*
X183862824Y-114978571D02*
X183719967Y-114907142D01*
X183648538Y-114835714D01*
X183577109Y-114692857D01*
X183577109Y-114264285D01*
X183648538Y-114121428D01*
X183719967Y-114050000D01*
X183862824Y-113978571D01*
X184077109Y-113978571D01*
X184219967Y-114050000D01*
X184291395Y-114121428D01*
X184362824Y-114264285D01*
X184362824Y-114692857D01*
X184291395Y-114835714D01*
X184219967Y-114907142D01*
X184077109Y-114978571D01*
X183862824Y-114978571D01*
X184791395Y-113978571D02*
X185362824Y-113978571D01*
X185005681Y-113478571D02*
X185005681Y-114764285D01*
X185077109Y-114907142D01*
X185219967Y-114978571D01*
X185362824Y-114978571D01*
X186077109Y-114978571D02*
X185934252Y-114907142D01*
X185862824Y-114835714D01*
X185791395Y-114692857D01*
X185791395Y-114264285D01*
X185862824Y-114121428D01*
X185934252Y-114050000D01*
X186077109Y-113978571D01*
X186291395Y-113978571D01*
X186434252Y-114050000D01*
X186505681Y-114121428D01*
X186577109Y-114264285D01*
X186577109Y-114692857D01*
X186505681Y-114835714D01*
X186434252Y-114907142D01*
X186291395Y-114978571D01*
X186077109Y-114978571D01*
X187219967Y-114978571D02*
X187219967Y-113978571D01*
X187219967Y-114264285D02*
X187291395Y-114121428D01*
X187362824Y-114050000D01*
X187505681Y-113978571D01*
X187648538Y-113978571D01*
X188148538Y-114835714D02*
X188219967Y-114907142D01*
X188148538Y-114978571D01*
X188077109Y-114907142D01*
X188148538Y-114835714D01*
X188148538Y-114978571D01*
X189505681Y-114907142D02*
X189362824Y-114978571D01*
X189077109Y-114978571D01*
X188934252Y-114907142D01*
X188862824Y-114835714D01*
X188791395Y-114692857D01*
X188791395Y-114264285D01*
X188862824Y-114121428D01*
X188934252Y-114050000D01*
X189077109Y-113978571D01*
X189362824Y-113978571D01*
X189505681Y-114050000D01*
X190362824Y-114978571D02*
X190219967Y-114907142D01*
X190148538Y-114835714D01*
X190077109Y-114692857D01*
X190077109Y-114264285D01*
X190148538Y-114121428D01*
X190219967Y-114050000D01*
X190362824Y-113978571D01*
X190577109Y-113978571D01*
X190719967Y-114050000D01*
X190791395Y-114121428D01*
X190862824Y-114264285D01*
X190862824Y-114692857D01*
X190791395Y-114835714D01*
X190719967Y-114907142D01*
X190577109Y-114978571D01*
X190362824Y-114978571D01*
X191505681Y-114978571D02*
X191505681Y-113978571D01*
X191505681Y-114121428D02*
X191577109Y-114050000D01*
X191719967Y-113978571D01*
X191934252Y-113978571D01*
X192077109Y-114050000D01*
X192148538Y-114192857D01*
X192148538Y-114978571D01*
X192148538Y-114192857D02*
X192219967Y-114050000D01*
X192362824Y-113978571D01*
X192577109Y-113978571D01*
X192719967Y-114050000D01*
X192791395Y-114192857D01*
X192791395Y-114978571D01*
X138878571Y-93210000D02*
X138878571Y-92281428D01*
X139450000Y-92781428D01*
X139450000Y-92567142D01*
X139521428Y-92424285D01*
X139592857Y-92352857D01*
X139735714Y-92281428D01*
X140092857Y-92281428D01*
X140235714Y-92352857D01*
X140307142Y-92424285D01*
X140378571Y-92567142D01*
X140378571Y-92995714D01*
X140307142Y-93138571D01*
X140235714Y-93210000D01*
D11*
X208223272Y-98504313D02*
X208394701Y-98561456D01*
X208680415Y-98561456D01*
X208794701Y-98504313D01*
X208851844Y-98447170D01*
X208908987Y-98332884D01*
X208908987Y-98218599D01*
X208851844Y-98104313D01*
X208794701Y-98047170D01*
X208680415Y-97990027D01*
X208451844Y-97932884D01*
X208337558Y-97875741D01*
X208280415Y-97818599D01*
X208223272Y-97704313D01*
X208223272Y-97590027D01*
X208280415Y-97475741D01*
X208337558Y-97418599D01*
X208451844Y-97361456D01*
X208737558Y-97361456D01*
X208908987Y-97418599D01*
X209423272Y-98561456D02*
X209423272Y-97361456D01*
X209880415Y-97361456D01*
X209994701Y-97418599D01*
X210051844Y-97475741D01*
X210108987Y-97590027D01*
X210108987Y-97761456D01*
X210051844Y-97875741D01*
X209994701Y-97932884D01*
X209880415Y-97990027D01*
X209423272Y-97990027D01*
X210623272Y-98561456D02*
X210623272Y-97361456D01*
X211194701Y-98561456D02*
X211194701Y-97361456D01*
X211880415Y-98561456D01*
X211880415Y-97361456D01*
X212451844Y-98561456D02*
X212451844Y-97361456D01*
X212737558Y-97361456D01*
X212908987Y-97418599D01*
X213023272Y-97532884D01*
X213080415Y-97647170D01*
X213137558Y-97875741D01*
X213137558Y-98047170D01*
X213080415Y-98275741D01*
X213023272Y-98390027D01*
X212908987Y-98504313D01*
X212737558Y-98561456D01*
X212451844Y-98561456D01*
X214223272Y-98561456D02*
X213651844Y-98561456D01*
X213651844Y-97361456D01*
X214623272Y-97932884D02*
X215023272Y-97932884D01*
X215194701Y-98561456D02*
X214623272Y-98561456D01*
X214623272Y-97361456D01*
X215194701Y-97361456D01*
D10*
X135846428Y-93138571D02*
X135775000Y-93067142D01*
X135703571Y-92924285D01*
X135703571Y-92567142D01*
X135775000Y-92424285D01*
X135846428Y-92352857D01*
X135989285Y-92281428D01*
X136132142Y-92281428D01*
X136346428Y-92352857D01*
X137203571Y-93210000D01*
X137203571Y-92281428D01*
X134028571Y-92281428D02*
X134028571Y-93138571D01*
X134028571Y-92710000D02*
X132528571Y-92710000D01*
X132742857Y-92852857D01*
X132885714Y-92995714D01*
X132957142Y-93138571D01*
X161103571Y-93210000D02*
X161103571Y-92281428D01*
X161675000Y-92781428D01*
X161675000Y-92567142D01*
X161746428Y-92424285D01*
X161817857Y-92352857D01*
X161960714Y-92281428D01*
X162317857Y-92281428D01*
X162460714Y-92352857D01*
X162532142Y-92424285D01*
X162603571Y-92567142D01*
X162603571Y-92995714D01*
X162532142Y-93138571D01*
X162460714Y-93210000D01*
X158071428Y-93138571D02*
X158000000Y-93067142D01*
X157928571Y-92924285D01*
X157928571Y-92567142D01*
X158000000Y-92424285D01*
X158071428Y-92352857D01*
X158214285Y-92281428D01*
X158357142Y-92281428D01*
X158571428Y-92352857D01*
X159428571Y-93210000D01*
X159428571Y-92281428D01*
X156253571Y-92281428D02*
X156253571Y-93138571D01*
X156253571Y-92710000D02*
X154753571Y-92710000D01*
X154967857Y-92852857D01*
X155110714Y-92995714D01*
X155182142Y-93138571D01*
X182693571Y-93210000D02*
X182693571Y-92281428D01*
X183265000Y-92781428D01*
X183265000Y-92567142D01*
X183336428Y-92424285D01*
X183407857Y-92352857D01*
X183550714Y-92281428D01*
X183907857Y-92281428D01*
X184050714Y-92352857D01*
X184122142Y-92424285D01*
X184193571Y-92567142D01*
X184193571Y-92995714D01*
X184122142Y-93138571D01*
X184050714Y-93210000D01*
X179661428Y-93138571D02*
X179590000Y-93067142D01*
X179518571Y-92924285D01*
X179518571Y-92567142D01*
X179590000Y-92424285D01*
X179661428Y-92352857D01*
X179804285Y-92281428D01*
X179947142Y-92281428D01*
X180161428Y-92352857D01*
X181018571Y-93210000D01*
X181018571Y-92281428D01*
X177843571Y-92281428D02*
X177843571Y-93138571D01*
X177843571Y-92710000D02*
X176343571Y-92710000D01*
X176557857Y-92852857D01*
X176700714Y-92995714D01*
X176772142Y-93138571D01*
X204283571Y-93210000D02*
X204283571Y-92281428D01*
X204855000Y-92781428D01*
X204855000Y-92567142D01*
X204926428Y-92424285D01*
X204997857Y-92352857D01*
X205140714Y-92281428D01*
X205497857Y-92281428D01*
X205640714Y-92352857D01*
X205712142Y-92424285D01*
X205783571Y-92567142D01*
X205783571Y-92995714D01*
X205712142Y-93138571D01*
X205640714Y-93210000D01*
X201251428Y-93138571D02*
X201180000Y-93067142D01*
X201108571Y-92924285D01*
X201108571Y-92567142D01*
X201180000Y-92424285D01*
X201251428Y-92352857D01*
X201394285Y-92281428D01*
X201537142Y-92281428D01*
X201751428Y-92352857D01*
X202608571Y-93210000D01*
X202608571Y-92281428D01*
X199433571Y-92281428D02*
X199433571Y-93138571D01*
X199433571Y-92710000D02*
X197933571Y-92710000D01*
X198147857Y-92852857D01*
X198290714Y-92995714D01*
X198362142Y-93138571D01*
D11*
X200510714Y-127082142D02*
X200567857Y-126910714D01*
X200567857Y-126625000D01*
X200510714Y-126510714D01*
X200453571Y-126453571D01*
X200339285Y-126396428D01*
X200225000Y-126396428D01*
X200110714Y-126453571D01*
X200053571Y-126510714D01*
X199996428Y-126625000D01*
X199939285Y-126853571D01*
X199882142Y-126967857D01*
X199825000Y-127025000D01*
X199710714Y-127082142D01*
X199596428Y-127082142D01*
X199482142Y-127025000D01*
X199425000Y-126967857D01*
X199367857Y-126853571D01*
X199367857Y-126567857D01*
X199425000Y-126396428D01*
X200510714Y-125425000D02*
X200567857Y-125539285D01*
X200567857Y-125767857D01*
X200510714Y-125882142D01*
X200396428Y-125939285D01*
X199939285Y-125939285D01*
X199825000Y-125882142D01*
X199767857Y-125767857D01*
X199767857Y-125539285D01*
X199825000Y-125425000D01*
X199939285Y-125367857D01*
X200053571Y-125367857D01*
X200167857Y-125939285D01*
X200567857Y-124853571D02*
X199767857Y-124853571D01*
X199996428Y-124853571D02*
X199882142Y-124796428D01*
X199825000Y-124739285D01*
X199767857Y-124625000D01*
X199767857Y-124510714D01*
X199767857Y-124225000D02*
X200567857Y-123939285D01*
X199767857Y-123653571D01*
X200567857Y-123025000D02*
X200510714Y-123139285D01*
X200453571Y-123196428D01*
X200339285Y-123253571D01*
X199996428Y-123253571D01*
X199882142Y-123196428D01*
X199825000Y-123139285D01*
X199767857Y-123025000D01*
X199767857Y-122853571D01*
X199825000Y-122739285D01*
X199882142Y-122682142D01*
X199996428Y-122625000D01*
X200339285Y-122625000D01*
X200453571Y-122682142D01*
X200510714Y-122739285D01*
X200567857Y-122853571D01*
X200567857Y-123025000D01*
X199482142Y-121253571D02*
X199425000Y-121196428D01*
X199367857Y-121082142D01*
X199367857Y-120796428D01*
X199425000Y-120682142D01*
X199482142Y-120625000D01*
X199596428Y-120567857D01*
X199710714Y-120567857D01*
X199882142Y-120625000D01*
X200567857Y-121310714D01*
X200567857Y-120567857D01*
X196700714Y-127082142D02*
X196757857Y-126910714D01*
X196757857Y-126625000D01*
X196700714Y-126510714D01*
X196643571Y-126453571D01*
X196529285Y-126396428D01*
X196415000Y-126396428D01*
X196300714Y-126453571D01*
X196243571Y-126510714D01*
X196186428Y-126625000D01*
X196129285Y-126853571D01*
X196072142Y-126967857D01*
X196015000Y-127025000D01*
X195900714Y-127082142D01*
X195786428Y-127082142D01*
X195672142Y-127025000D01*
X195615000Y-126967857D01*
X195557857Y-126853571D01*
X195557857Y-126567857D01*
X195615000Y-126396428D01*
X196700714Y-125425000D02*
X196757857Y-125539285D01*
X196757857Y-125767857D01*
X196700714Y-125882142D01*
X196586428Y-125939285D01*
X196129285Y-125939285D01*
X196015000Y-125882142D01*
X195957857Y-125767857D01*
X195957857Y-125539285D01*
X196015000Y-125425000D01*
X196129285Y-125367857D01*
X196243571Y-125367857D01*
X196357857Y-125939285D01*
X196757857Y-124853571D02*
X195957857Y-124853571D01*
X196186428Y-124853571D02*
X196072142Y-124796428D01*
X196015000Y-124739285D01*
X195957857Y-124625000D01*
X195957857Y-124510714D01*
X195957857Y-124225000D02*
X196757857Y-123939285D01*
X195957857Y-123653571D01*
X196757857Y-123025000D02*
X196700714Y-123139285D01*
X196643571Y-123196428D01*
X196529285Y-123253571D01*
X196186428Y-123253571D01*
X196072142Y-123196428D01*
X196015000Y-123139285D01*
X195957857Y-123025000D01*
X195957857Y-122853571D01*
X196015000Y-122739285D01*
X196072142Y-122682142D01*
X196186428Y-122625000D01*
X196529285Y-122625000D01*
X196643571Y-122682142D01*
X196700714Y-122739285D01*
X196757857Y-122853571D01*
X196757857Y-123025000D01*
X196757857Y-120567857D02*
X196757857Y-121253571D01*
X196757857Y-120910714D02*
X195557857Y-120910714D01*
X195729285Y-121025000D01*
X195843571Y-121139285D01*
X195900714Y-121253571D01*
X202009315Y-108641716D02*
X202066458Y-108470287D01*
X202066458Y-108184573D01*
X202009315Y-108070287D01*
X201952172Y-108013144D01*
X201837886Y-107956002D01*
X201723601Y-107956002D01*
X201609315Y-108013144D01*
X201552172Y-108070287D01*
X201495029Y-108184573D01*
X201437886Y-108413144D01*
X201380743Y-108527430D01*
X201323601Y-108584573D01*
X201209315Y-108641716D01*
X201095029Y-108641716D01*
X200980743Y-108584573D01*
X200923601Y-108527430D01*
X200866458Y-108413144D01*
X200866458Y-108127430D01*
X200923601Y-107956002D01*
X202066458Y-106756002D02*
X201495029Y-107156002D01*
X202066458Y-107441716D02*
X200866458Y-107441716D01*
X200866458Y-106984573D01*
X200923601Y-106870287D01*
X200980743Y-106813144D01*
X201095029Y-106756002D01*
X201266458Y-106756002D01*
X201380743Y-106813144D01*
X201437886Y-106870287D01*
X201495029Y-106984573D01*
X201495029Y-107441716D01*
X201609315Y-106241716D02*
X201609315Y-105327430D01*
X202009315Y-104813144D02*
X202066458Y-104641716D01*
X202066458Y-104356002D01*
X202009315Y-104241716D01*
X201952172Y-104184573D01*
X201837886Y-104127430D01*
X201723601Y-104127430D01*
X201609315Y-104184573D01*
X201552172Y-104241716D01*
X201495029Y-104356002D01*
X201437886Y-104584573D01*
X201380743Y-104698859D01*
X201323601Y-104756002D01*
X201209315Y-104813144D01*
X201095029Y-104813144D01*
X200980743Y-104756002D01*
X200923601Y-104698859D01*
X200866458Y-104584573D01*
X200866458Y-104298859D01*
X200923601Y-104127430D01*
X202066458Y-103613144D02*
X200866458Y-103613144D01*
X200866458Y-103156002D01*
X200923601Y-103041716D01*
X200980743Y-102984573D01*
X201095029Y-102927430D01*
X201266458Y-102927430D01*
X201380743Y-102984573D01*
X201437886Y-103041716D01*
X201495029Y-103156002D01*
X201495029Y-103613144D01*
X202066458Y-102413144D02*
X200866458Y-102413144D01*
X202066458Y-101727430D01*
X200866458Y-101727430D01*
D10*
X204229697Y-79985680D02*
X204943982Y-79985680D01*
X204086840Y-80414251D02*
X204586840Y-78914251D01*
X205086840Y-80414251D01*
X182181880Y-78914251D02*
X183181880Y-78914251D01*
X182181880Y-80414251D01*
X183181880Y-80414251D01*
X160528000Y-79699965D02*
X160528000Y-80414251D01*
X160028000Y-78914251D02*
X160528000Y-79699965D01*
X161028000Y-78914251D01*
X138036680Y-78914251D02*
X139036680Y-80414251D01*
X139036680Y-78914251D02*
X138036680Y-80414251D01*
D11*
X133816097Y-124530417D02*
X133416097Y-123958988D01*
X133130382Y-124530417D02*
X133130382Y-123330417D01*
X133587525Y-123330417D01*
X133701811Y-123387560D01*
X133758954Y-123444702D01*
X133816097Y-123558988D01*
X133816097Y-123730417D01*
X133758954Y-123844702D01*
X133701811Y-123901845D01*
X133587525Y-123958988D01*
X133130382Y-123958988D01*
X134216097Y-123330417D02*
X135016097Y-124530417D01*
X135016097Y-123330417D02*
X134216097Y-124530417D01*
X132958954Y-121252697D02*
X133644668Y-121252697D01*
X133301811Y-122452697D02*
X133301811Y-121252697D01*
X133930382Y-121252697D02*
X134730382Y-122452697D01*
X134730382Y-121252697D02*
X133930382Y-122452697D01*
X157003125Y-127074794D02*
X157060268Y-126903365D01*
X157117411Y-126846223D01*
X157231697Y-126789080D01*
X157403125Y-126789080D01*
X157517411Y-126846223D01*
X157574554Y-126903365D01*
X157631697Y-127017651D01*
X157631697Y-127474794D01*
X156431697Y-127474794D01*
X156431697Y-127074794D01*
X156488840Y-126960508D01*
X156545982Y-126903365D01*
X156660268Y-126846223D01*
X156774554Y-126846223D01*
X156888840Y-126903365D01*
X156945982Y-126960508D01*
X157003125Y-127074794D01*
X157003125Y-127474794D01*
X156431697Y-126046223D02*
X156431697Y-125817651D01*
X156488840Y-125703365D01*
X156603125Y-125589080D01*
X156831697Y-125531937D01*
X157231697Y-125531937D01*
X157460268Y-125589080D01*
X157574554Y-125703365D01*
X157631697Y-125817651D01*
X157631697Y-126046223D01*
X157574554Y-126160508D01*
X157460268Y-126274794D01*
X157231697Y-126331937D01*
X156831697Y-126331937D01*
X156603125Y-126274794D01*
X156488840Y-126160508D01*
X156431697Y-126046223D01*
X156431697Y-124789080D02*
X156431697Y-124560508D01*
X156488840Y-124446223D01*
X156603125Y-124331937D01*
X156831697Y-124274794D01*
X157231697Y-124274794D01*
X157460268Y-124331937D01*
X157574554Y-124446223D01*
X157631697Y-124560508D01*
X157631697Y-124789080D01*
X157574554Y-124903365D01*
X157460268Y-125017651D01*
X157231697Y-125074794D01*
X156831697Y-125074794D01*
X156603125Y-125017651D01*
X156488840Y-124903365D01*
X156431697Y-124789080D01*
X156431697Y-123931937D02*
X156431697Y-123246223D01*
X157631697Y-123589080D02*
X156431697Y-123589080D01*
X204092285Y-137582285D02*
X204492285Y-137582285D01*
X204663714Y-138210857D02*
X204092285Y-138210857D01*
X204092285Y-137010857D01*
X204663714Y-137010857D01*
X205178000Y-138210857D02*
X205178000Y-137010857D01*
X205863714Y-138210857D01*
X205863714Y-137010857D01*
D12*
X118926920Y-132515920D02*
X123667520Y-132506720D01*
X118917720Y-127325120D02*
X123677680Y-127320040D01*
X123677680Y-127320040D02*
X123687840Y-132516880D01*
X118917720Y-129941320D02*
X123692920Y-129941320D01*
D11*
X120604394Y-130712920D02*
X120490108Y-130655777D01*
X120318680Y-130655777D01*
X120147251Y-130712920D01*
X120032965Y-130827205D01*
X119975822Y-130941491D01*
X119918680Y-131170062D01*
X119918680Y-131341491D01*
X119975822Y-131570062D01*
X120032965Y-131684348D01*
X120147251Y-131798634D01*
X120318680Y-131855777D01*
X120432965Y-131855777D01*
X120604394Y-131798634D01*
X120661537Y-131741491D01*
X120661537Y-131341491D01*
X120432965Y-131341491D01*
X121175822Y-131855777D02*
X121175822Y-130655777D01*
X121861537Y-131855777D01*
X121861537Y-130655777D01*
X122432965Y-131855777D02*
X122432965Y-130655777D01*
X122718680Y-130655777D01*
X122890108Y-130712920D01*
X123004394Y-130827205D01*
X123061537Y-130941491D01*
X123118680Y-131170062D01*
X123118680Y-131341491D01*
X123061537Y-131570062D01*
X123004394Y-131684348D01*
X122890108Y-131798634D01*
X122718680Y-131855777D01*
X122432965Y-131855777D01*
X119121177Y-128701154D02*
X120035462Y-128701154D01*
X119578320Y-129158297D02*
X119578320Y-128244011D01*
X120492605Y-127958297D02*
X121235462Y-127958297D01*
X120835462Y-128415440D01*
X121006891Y-128415440D01*
X121121177Y-128472582D01*
X121178320Y-128529725D01*
X121235462Y-128644011D01*
X121235462Y-128929725D01*
X121178320Y-129044011D01*
X121121177Y-129101154D01*
X121006891Y-129158297D01*
X120664034Y-129158297D01*
X120549748Y-129101154D01*
X120492605Y-129044011D01*
X121635462Y-128358297D02*
X121921177Y-129158297D01*
X122206891Y-128358297D01*
X122549748Y-127958297D02*
X123292605Y-127958297D01*
X122892605Y-128415440D01*
X123064034Y-128415440D01*
X123178320Y-128472582D01*
X123235462Y-128529725D01*
X123292605Y-128644011D01*
X123292605Y-128929725D01*
X123235462Y-129044011D01*
X123178320Y-129101154D01*
X123064034Y-129158297D01*
X122721177Y-129158297D01*
X122606891Y-129101154D01*
X122549748Y-129044011D01*
D12*
X118922800Y-123342400D02*
X123698000Y-123342400D01*
X118932000Y-125917000D02*
X123672600Y-125907800D01*
X123682760Y-120721120D02*
X123692920Y-125917960D01*
X118922800Y-120726200D02*
X123682760Y-120721120D01*
X209245200Y-118872000D02*
X203200000Y-118872000D01*
X209245200Y-113792000D02*
X203200000Y-113792000D01*
X203454000Y-124002800D02*
X203200000Y-124002800D01*
X209245200Y-124002800D02*
X203454000Y-124002800D01*
X203200000Y-111201200D02*
X203200000Y-123952000D01*
X209245200Y-111201200D02*
X203200000Y-111201200D01*
X202996800Y-135940800D02*
X202742800Y-135940800D01*
X202742800Y-128219200D02*
X208940400Y-128219200D01*
X202742800Y-130810000D02*
X209194400Y-130810000D01*
X202793600Y-133350000D02*
X209194400Y-133350000D01*
X209236000Y-135950000D02*
X202996800Y-135940800D01*
X202742800Y-125679200D02*
X202742800Y-135890000D01*
X209245200Y-125679200D02*
X202742800Y-125679200D01*
X209236000Y-125670000D02*
X209245200Y-125679200D01*
D11*
X203736857Y-111966457D02*
X204536857Y-111966457D01*
X203736857Y-113166457D01*
X204536857Y-113166457D01*
X204708285Y-113280742D02*
X205622571Y-113280742D01*
X206079714Y-113166457D02*
X205965428Y-113109314D01*
X205908285Y-112995028D01*
X205908285Y-111966457D01*
X206536857Y-113166457D02*
X206536857Y-112366457D01*
X206536857Y-111966457D02*
X206479714Y-112023600D01*
X206536857Y-112080742D01*
X206594000Y-112023600D01*
X206536857Y-111966457D01*
X206536857Y-112080742D01*
X207108285Y-113166457D02*
X207108285Y-112366457D01*
X207108285Y-112480742D02*
X207165428Y-112423600D01*
X207279714Y-112366457D01*
X207451142Y-112366457D01*
X207565428Y-112423600D01*
X207622571Y-112537885D01*
X207622571Y-113166457D01*
X207622571Y-112537885D02*
X207679714Y-112423600D01*
X207794000Y-112366457D01*
X207965428Y-112366457D01*
X208079714Y-112423600D01*
X208136857Y-112537885D01*
X208136857Y-113166457D01*
X204079714Y-116354228D02*
X204079714Y-116925657D01*
X203679714Y-115725657D02*
X204079714Y-116354228D01*
X204479714Y-115725657D01*
X204593999Y-117039942D02*
X205508285Y-117039942D01*
X205965428Y-116925657D02*
X205851142Y-116868514D01*
X205793999Y-116754228D01*
X205793999Y-115725657D01*
X206422571Y-116925657D02*
X206422571Y-116125657D01*
X206422571Y-115725657D02*
X206365428Y-115782800D01*
X206422571Y-115839942D01*
X206479714Y-115782800D01*
X206422571Y-115725657D01*
X206422571Y-115839942D01*
X206993999Y-116925657D02*
X206993999Y-116125657D01*
X206993999Y-116239942D02*
X207051142Y-116182800D01*
X207165428Y-116125657D01*
X207336857Y-116125657D01*
X207451142Y-116182800D01*
X207508285Y-116297085D01*
X207508285Y-116925657D01*
X207508285Y-116297085D02*
X207565428Y-116182800D01*
X207679714Y-116125657D01*
X207851142Y-116125657D01*
X207965428Y-116182800D01*
X208022571Y-116297085D01*
X208022571Y-116925657D01*
X203736857Y-120653257D02*
X204536857Y-121853257D01*
X204536857Y-120653257D02*
X203736857Y-121853257D01*
X204708285Y-121967542D02*
X205622571Y-121967542D01*
X206079714Y-121853257D02*
X205965428Y-121796114D01*
X205908285Y-121681828D01*
X205908285Y-120653257D01*
X206536857Y-121853257D02*
X206536857Y-121053257D01*
X206536857Y-120653257D02*
X206479714Y-120710400D01*
X206536857Y-120767542D01*
X206594000Y-120710400D01*
X206536857Y-120653257D01*
X206536857Y-120767542D01*
X207108285Y-121853257D02*
X207108285Y-121053257D01*
X207108285Y-121167542D02*
X207165428Y-121110400D01*
X207279714Y-121053257D01*
X207451142Y-121053257D01*
X207565428Y-121110400D01*
X207622571Y-121224685D01*
X207622571Y-121853257D01*
X207622571Y-121224685D02*
X207679714Y-121110400D01*
X207794000Y-121053257D01*
X207965428Y-121053257D01*
X208079714Y-121110400D01*
X208136857Y-121224685D01*
X208136857Y-121853257D01*
X203473199Y-127542857D02*
X203473199Y-126342857D01*
X203930342Y-126342857D01*
X204044628Y-126400000D01*
X204101771Y-126457142D01*
X204158914Y-126571428D01*
X204158914Y-126742857D01*
X204101771Y-126857142D01*
X204044628Y-126914285D01*
X203930342Y-126971428D01*
X203473199Y-126971428D01*
X204673199Y-127542857D02*
X204673199Y-126742857D01*
X204673199Y-126971428D02*
X204730342Y-126857142D01*
X204787485Y-126800000D01*
X204901771Y-126742857D01*
X205016056Y-126742857D01*
X205587485Y-127542857D02*
X205473199Y-127485714D01*
X205416056Y-127428571D01*
X205358914Y-127314285D01*
X205358914Y-126971428D01*
X205416056Y-126857142D01*
X205473199Y-126800000D01*
X205587485Y-126742857D01*
X205758914Y-126742857D01*
X205873199Y-126800000D01*
X205930342Y-126857142D01*
X205987485Y-126971428D01*
X205987485Y-127314285D01*
X205930342Y-127428571D01*
X205873199Y-127485714D01*
X205758914Y-127542857D01*
X205587485Y-127542857D01*
X206501771Y-127542857D02*
X206501771Y-126342857D01*
X206501771Y-126800000D02*
X206616056Y-126742857D01*
X206844628Y-126742857D01*
X206958914Y-126800000D01*
X207016056Y-126857142D01*
X207073199Y-126971428D01*
X207073199Y-127314285D01*
X207016056Y-127428571D01*
X206958914Y-127485714D01*
X206844628Y-127542857D01*
X206616056Y-127542857D01*
X206501771Y-127485714D01*
X208044628Y-127485714D02*
X207930342Y-127542857D01*
X207701771Y-127542857D01*
X207587485Y-127485714D01*
X207530342Y-127371428D01*
X207530342Y-126914285D01*
X207587485Y-126800000D01*
X207701771Y-126742857D01*
X207930342Y-126742857D01*
X208044628Y-126800000D01*
X208101771Y-126914285D01*
X208101771Y-127028571D01*
X207530342Y-127142857D01*
X204158914Y-130082857D02*
X203758914Y-129511428D01*
X203473200Y-130082857D02*
X203473200Y-128882857D01*
X203930343Y-128882857D01*
X204044629Y-128940000D01*
X204101771Y-128997142D01*
X204158914Y-129111428D01*
X204158914Y-129282857D01*
X204101771Y-129397142D01*
X204044629Y-129454285D01*
X203930343Y-129511428D01*
X203473200Y-129511428D01*
X205130343Y-130025714D02*
X205016057Y-130082857D01*
X204787486Y-130082857D01*
X204673200Y-130025714D01*
X204616057Y-129911428D01*
X204616057Y-129454285D01*
X204673200Y-129340000D01*
X204787486Y-129282857D01*
X205016057Y-129282857D01*
X205130343Y-129340000D01*
X205187486Y-129454285D01*
X205187486Y-129568571D01*
X204616057Y-129682857D01*
X205644629Y-130025714D02*
X205758914Y-130082857D01*
X205987486Y-130082857D01*
X206101771Y-130025714D01*
X206158914Y-129911428D01*
X206158914Y-129854285D01*
X206101771Y-129740000D01*
X205987486Y-129682857D01*
X205816057Y-129682857D01*
X205701771Y-129625714D01*
X205644629Y-129511428D01*
X205644629Y-129454285D01*
X205701771Y-129340000D01*
X205816057Y-129282857D01*
X205987486Y-129282857D01*
X206101771Y-129340000D01*
X207130343Y-130025714D02*
X207016057Y-130082857D01*
X206787486Y-130082857D01*
X206673200Y-130025714D01*
X206616057Y-129911428D01*
X206616057Y-129454285D01*
X206673200Y-129340000D01*
X206787486Y-129282857D01*
X207016057Y-129282857D01*
X207130343Y-129340000D01*
X207187486Y-129454285D01*
X207187486Y-129568571D01*
X206616057Y-129682857D01*
X207530343Y-129282857D02*
X207987486Y-129282857D01*
X207701771Y-128882857D02*
X207701771Y-129911428D01*
X207758914Y-130025714D01*
X207873200Y-130082857D01*
X207987486Y-130082857D01*
X203416056Y-132565714D02*
X203587485Y-132622857D01*
X203873199Y-132622857D01*
X203987485Y-132565714D01*
X204044628Y-132508571D01*
X204101771Y-132394285D01*
X204101771Y-132280000D01*
X204044628Y-132165714D01*
X203987485Y-132108571D01*
X203873199Y-132051428D01*
X203644628Y-131994285D01*
X203530342Y-131937142D01*
X203473199Y-131880000D01*
X203416056Y-131765714D01*
X203416056Y-131651428D01*
X203473199Y-131537142D01*
X203530342Y-131480000D01*
X203644628Y-131422857D01*
X203930342Y-131422857D01*
X204101771Y-131480000D01*
X204444628Y-131822857D02*
X204901771Y-131822857D01*
X204616056Y-131422857D02*
X204616056Y-132451428D01*
X204673199Y-132565714D01*
X204787485Y-132622857D01*
X204901771Y-132622857D01*
X205816056Y-132622857D02*
X205816056Y-131994285D01*
X205758914Y-131880000D01*
X205644628Y-131822857D01*
X205416056Y-131822857D01*
X205301771Y-131880000D01*
X205816056Y-132565714D02*
X205701771Y-132622857D01*
X205416056Y-132622857D01*
X205301771Y-132565714D01*
X205244628Y-132451428D01*
X205244628Y-132337142D01*
X205301771Y-132222857D01*
X205416056Y-132165714D01*
X205701771Y-132165714D01*
X205816056Y-132108571D01*
X206387485Y-132622857D02*
X206387485Y-131822857D01*
X206387485Y-132051428D02*
X206444628Y-131937142D01*
X206501771Y-131880000D01*
X206616056Y-131822857D01*
X206730342Y-131822857D01*
X206958914Y-131822857D02*
X207416056Y-131822857D01*
X207130342Y-131422857D02*
X207130342Y-132451428D01*
X207187485Y-132565714D01*
X207301771Y-132622857D01*
X207416056Y-132622857D01*
X203473199Y-135162857D02*
X203473199Y-133962857D01*
X203473199Y-134534285D02*
X204158914Y-134534285D01*
X204158914Y-135162857D02*
X204158914Y-133962857D01*
X204901771Y-135162857D02*
X204787485Y-135105714D01*
X204730342Y-135048571D01*
X204673199Y-134934285D01*
X204673199Y-134591428D01*
X204730342Y-134477142D01*
X204787485Y-134420000D01*
X204901771Y-134362857D01*
X205073199Y-134362857D01*
X205187485Y-134420000D01*
X205244628Y-134477142D01*
X205301771Y-134591428D01*
X205301771Y-134934285D01*
X205244628Y-135048571D01*
X205187485Y-135105714D01*
X205073199Y-135162857D01*
X204901771Y-135162857D01*
X205987485Y-135162857D02*
X205873199Y-135105714D01*
X205816057Y-134991428D01*
X205816057Y-133962857D01*
X206958914Y-135162857D02*
X206958914Y-133962857D01*
X206958914Y-135105714D02*
X206844628Y-135162857D01*
X206616057Y-135162857D01*
X206501771Y-135105714D01*
X206444628Y-135048571D01*
X206387485Y-134934285D01*
X206387485Y-134591428D01*
X206444628Y-134477142D01*
X206501771Y-134420000D01*
X206616057Y-134362857D01*
X206844628Y-134362857D01*
X206958914Y-134420000D01*
X120604394Y-124047960D02*
X120490108Y-123990817D01*
X120318680Y-123990817D01*
X120147251Y-124047960D01*
X120032965Y-124162245D01*
X119975822Y-124276531D01*
X119918680Y-124505102D01*
X119918680Y-124676531D01*
X119975822Y-124905102D01*
X120032965Y-125019388D01*
X120147251Y-125133674D01*
X120318680Y-125190817D01*
X120432965Y-125190817D01*
X120604394Y-125133674D01*
X120661537Y-125076531D01*
X120661537Y-124676531D01*
X120432965Y-124676531D01*
X121175822Y-125190817D02*
X121175822Y-123990817D01*
X121861537Y-125190817D01*
X121861537Y-123990817D01*
X122432965Y-125190817D02*
X122432965Y-123990817D01*
X122718680Y-123990817D01*
X122890108Y-124047960D01*
X123004394Y-124162245D01*
X123061537Y-124276531D01*
X123118680Y-124505102D01*
X123118680Y-124676531D01*
X123061537Y-124905102D01*
X123004394Y-125019388D01*
X122890108Y-125133674D01*
X122718680Y-125190817D01*
X122432965Y-125190817D01*
X119488142Y-122132714D02*
X120402428Y-122132714D01*
X119945285Y-122589857D02*
X119945285Y-121675571D01*
X121545285Y-121389857D02*
X120973857Y-121389857D01*
X120916714Y-121961285D01*
X120973857Y-121904142D01*
X121088142Y-121847000D01*
X121373857Y-121847000D01*
X121488142Y-121904142D01*
X121545285Y-121961285D01*
X121602428Y-122075571D01*
X121602428Y-122361285D01*
X121545285Y-122475571D01*
X121488142Y-122532714D01*
X121373857Y-122589857D01*
X121088142Y-122589857D01*
X120973857Y-122532714D01*
X120916714Y-122475571D01*
X121945285Y-121389857D02*
X122345285Y-122589857D01*
X122745285Y-121389857D01*
D13*
X114348142Y-133708857D02*
X114748142Y-134908857D01*
X115148142Y-133708857D01*
X115548142Y-134908857D02*
X115548142Y-133708857D01*
X115833857Y-133708857D01*
X116005285Y-133766000D01*
X116119571Y-133880285D01*
X116176714Y-133994571D01*
X116233857Y-134223142D01*
X116233857Y-134394571D01*
X116176714Y-134623142D01*
X116119571Y-134737428D01*
X116005285Y-134851714D01*
X115833857Y-134908857D01*
X115548142Y-134908857D01*
X116748142Y-134908857D02*
X116748142Y-133708857D01*
X117033857Y-133708857D01*
X117205285Y-133766000D01*
X117319571Y-133880285D01*
X117376714Y-133994571D01*
X117433857Y-134223142D01*
X117433857Y-134394571D01*
X117376714Y-134623142D01*
X117319571Y-134737428D01*
X117205285Y-134851714D01*
X117033857Y-134908857D01*
X116748142Y-134908857D01*
X117948142Y-134451714D02*
X118862428Y-134451714D01*
X119433857Y-133708857D02*
X119433857Y-134680285D01*
X119491000Y-134794571D01*
X119548142Y-134851714D01*
X119662428Y-134908857D01*
X119891000Y-134908857D01*
X120005285Y-134851714D01*
X120062428Y-134794571D01*
X120119571Y-134680285D01*
X120119571Y-133708857D01*
X120633857Y-134851714D02*
X120805285Y-134908857D01*
X121091000Y-134908857D01*
X121205285Y-134851714D01*
X121262428Y-134794571D01*
X121319571Y-134680285D01*
X121319571Y-134566000D01*
X121262428Y-134451714D01*
X121205285Y-134394571D01*
X121091000Y-134337428D01*
X120862428Y-134280285D01*
X120748142Y-134223142D01*
X120691000Y-134166000D01*
X120633857Y-134051714D01*
X120633857Y-133937428D01*
X120691000Y-133823142D01*
X120748142Y-133766000D01*
X120862428Y-133708857D01*
X121148142Y-133708857D01*
X121319571Y-133766000D01*
X122233857Y-134280285D02*
X122405285Y-134337428D01*
X122462428Y-134394571D01*
X122519571Y-134508857D01*
X122519571Y-134680285D01*
X122462428Y-134794571D01*
X122405285Y-134851714D01*
X122291000Y-134908857D01*
X121833857Y-134908857D01*
X121833857Y-133708857D01*
X122233857Y-133708857D01*
X122348142Y-133766000D01*
X122405285Y-133823142D01*
X122462428Y-133937428D01*
X122462428Y-134051714D01*
X122405285Y-134166000D01*
X122348142Y-134223142D01*
X122233857Y-134280285D01*
X121833857Y-134280285D01*
D12*
X164338000Y-117602000D02*
X163195000Y-117602000D01*
X164338000Y-120269000D02*
X164338000Y-117602000D01*
X155194000Y-120269000D02*
X164338000Y-120269000D01*
X155194000Y-119761000D02*
X155194000Y-120269000D01*
X155194000Y-117602000D02*
X155194000Y-119761000D01*
X163830000Y-117602000D02*
X155194000Y-117602000D01*
D10*
X159798000Y-119677571D02*
X159798000Y-118177571D01*
X160369428Y-118177571D01*
X160512285Y-118249000D01*
X160583714Y-118320428D01*
X160655142Y-118463285D01*
X160655142Y-118677571D01*
X160583714Y-118820428D01*
X160512285Y-118891857D01*
X160369428Y-118963285D01*
X159798000Y-118963285D01*
X161155142Y-118177571D02*
X161512285Y-119677571D01*
X161798000Y-118606142D01*
X162083714Y-119677571D01*
X162440857Y-118177571D01*
X163869428Y-119677571D02*
X163369428Y-118963285D01*
X163012285Y-119677571D02*
X163012285Y-118177571D01*
X163583714Y-118177571D01*
X163726571Y-118249000D01*
X163798000Y-118320428D01*
X163869428Y-118463285D01*
X163869428Y-118677571D01*
X163798000Y-118820428D01*
X163726571Y-118891857D01*
X163583714Y-118963285D01*
X163012285Y-118963285D01*
D11*
X187900000Y-145585000D02*
G75*
G03*
X187900000Y-145585000I-100000J0D01*
G01*
D14*
X186800000Y-128235000D02*
X186800000Y-127585000D01*
X186800000Y-127585000D02*
X184350000Y-127585000D01*
X171250000Y-127585000D02*
X168800000Y-127585000D01*
X168800000Y-127585000D02*
X168800000Y-128235000D01*
X186800000Y-146585000D02*
X186800000Y-153085000D01*
X186800000Y-153085000D02*
X168800000Y-153085000D01*
X168800000Y-153085000D02*
X168800000Y-146585000D01*
D15*
G36*
X160449610Y-105420936D02*
G01*
X160668289Y-105589231D01*
X160815766Y-105818758D01*
X160854571Y-106008714D01*
X160789808Y-106258911D01*
X160642439Y-106449725D01*
X160384995Y-106626122D01*
X160117782Y-106662629D01*
X159859637Y-106559067D01*
X159743291Y-106458314D01*
X159577445Y-106200366D01*
X159554131Y-105931936D01*
X159673055Y-105668366D01*
X159760417Y-105567703D01*
X160002159Y-105395837D01*
X160201428Y-105355571D01*
X160449610Y-105420936D01*
G37*
X160449610Y-105420936D02*
X160668289Y-105589231D01*
X160815766Y-105818758D01*
X160854571Y-106008714D01*
X160789808Y-106258911D01*
X160642439Y-106449725D01*
X160384995Y-106626122D01*
X160117782Y-106662629D01*
X159859637Y-106559067D01*
X159743291Y-106458314D01*
X159577445Y-106200366D01*
X159554131Y-105931936D01*
X159673055Y-105668366D01*
X159760417Y-105567703D01*
X160002159Y-105395837D01*
X160201428Y-105355571D01*
X160449610Y-105420936D01*
G36*
X167267717Y-100409287D02*
G01*
X167793647Y-100422271D01*
X168191790Y-100438964D01*
X168479504Y-100462683D01*
X168674145Y-100496746D01*
X168793069Y-100544469D01*
X168853632Y-100609170D01*
X168873190Y-100694165D01*
X168873714Y-100716221D01*
X168873714Y-100892428D01*
X168075428Y-100857123D01*
X167689332Y-100841927D01*
X167300704Y-100829795D01*
X166966279Y-100822362D01*
X166815321Y-100820837D01*
X166353500Y-100819857D01*
X166168067Y-101320579D01*
X165982633Y-101821300D01*
X166156422Y-102155150D01*
X166293111Y-102410175D01*
X166458762Y-102708968D01*
X166564094Y-102893997D01*
X166797977Y-103298994D01*
X167327846Y-103393406D01*
X167596015Y-103443153D01*
X167810361Y-103486526D01*
X167928622Y-103514921D01*
X167934007Y-103516782D01*
X167994748Y-103467445D01*
X168109377Y-103312115D01*
X168263277Y-103072758D01*
X168441828Y-102771340D01*
X168507848Y-102654516D01*
X168754246Y-102215289D01*
X168942123Y-101888593D01*
X169082626Y-101659624D01*
X169186900Y-101513584D01*
X169266090Y-101435669D01*
X169331342Y-101411079D01*
X169393801Y-101425013D01*
X169422894Y-101439333D01*
X169534161Y-101535282D01*
X169559980Y-101602553D01*
X169524657Y-101691649D01*
X169428583Y-101884504D01*
X169283386Y-102159066D01*
X169100697Y-102493287D01*
X168920228Y-102815571D01*
X168688989Y-103225979D01*
X168512992Y-103527520D01*
X168371307Y-103734879D01*
X168243003Y-103862737D01*
X168107151Y-103925777D01*
X167942820Y-103938681D01*
X167729080Y-103916133D01*
X167445000Y-103872814D01*
X167418686Y-103868902D01*
X167206165Y-103847191D01*
X167030490Y-103863662D01*
X166836375Y-103930275D01*
X166589914Y-104048175D01*
X166127600Y-104281550D01*
X166012942Y-104129957D01*
X165912977Y-104028408D01*
X165805280Y-104031783D01*
X165716857Y-104073415D01*
X165456476Y-104210936D01*
X165143191Y-104378045D01*
X164811186Y-104556315D01*
X164494647Y-104727320D01*
X164227757Y-104872630D01*
X164044702Y-104973821D01*
X164011428Y-104992714D01*
X163853341Y-105080964D01*
X163607264Y-105215293D01*
X163313448Y-105373809D01*
X163140571Y-105466313D01*
X162834494Y-105630188D01*
X162550207Y-105783498D01*
X162329343Y-105903742D01*
X162249364Y-105947978D01*
X162086638Y-106034503D01*
X161986017Y-106079485D01*
X161977221Y-106081285D01*
X161954560Y-106017455D01*
X161943389Y-105860800D01*
X161943142Y-105830700D01*
X161916638Y-105588989D01*
X161856274Y-105377129D01*
X161736532Y-105148124D01*
X161574844Y-104902753D01*
X161400099Y-104678592D01*
X161241187Y-104513219D01*
X161141479Y-104447356D01*
X161026194Y-104388871D01*
X160999714Y-104350205D01*
X161061452Y-104304702D01*
X161236337Y-104200578D01*
X161508875Y-104046424D01*
X161863572Y-103850835D01*
X162284932Y-103622401D01*
X162757462Y-103369718D01*
X162986466Y-103248381D01*
X163543603Y-102953472D01*
X163984986Y-102717712D01*
X164323466Y-102532965D01*
X164571894Y-102391093D01*
X164743119Y-102283960D01*
X164849994Y-102203429D01*
X164905367Y-102141364D01*
X164922091Y-102089628D01*
X164913016Y-102040084D01*
X164909609Y-102030704D01*
X164860922Y-101891175D01*
X164846000Y-101832177D01*
X164905492Y-101786599D01*
X165061136Y-101697037D01*
X165269591Y-101587832D01*
X165493203Y-101468399D01*
X165636245Y-101360055D01*
X165735878Y-101219333D01*
X165829261Y-101002765D01*
X165875380Y-100879216D01*
X166057576Y-100384428D01*
X167267717Y-100409287D01*
G37*
X167267717Y-100409287D02*
X167793647Y-100422271D01*
X168191790Y-100438964D01*
X168479504Y-100462683D01*
X168674145Y-100496746D01*
X168793069Y-100544469D01*
X168853632Y-100609170D01*
X168873190Y-100694165D01*
X168873714Y-100716221D01*
X168873714Y-100892428D01*
X168075428Y-100857123D01*
X167689332Y-100841927D01*
X167300704Y-100829795D01*
X166966279Y-100822362D01*
X166815321Y-100820837D01*
X166353500Y-100819857D01*
X166168067Y-101320579D01*
X165982633Y-101821300D01*
X166156422Y-102155150D01*
X166293111Y-102410175D01*
X166458762Y-102708968D01*
X166564094Y-102893997D01*
X166797977Y-103298994D01*
X167327846Y-103393406D01*
X167596015Y-103443153D01*
X167810361Y-103486526D01*
X167928622Y-103514921D01*
X167934007Y-103516782D01*
X167994748Y-103467445D01*
X168109377Y-103312115D01*
X168263277Y-103072758D01*
X168441828Y-102771340D01*
X168507848Y-102654516D01*
X168754246Y-102215289D01*
X168942123Y-101888593D01*
X169082626Y-101659624D01*
X169186900Y-101513584D01*
X169266090Y-101435669D01*
X169331342Y-101411079D01*
X169393801Y-101425013D01*
X169422894Y-101439333D01*
X169534161Y-101535282D01*
X169559980Y-101602553D01*
X169524657Y-101691649D01*
X169428583Y-101884504D01*
X169283386Y-102159066D01*
X169100697Y-102493287D01*
X168920228Y-102815571D01*
X168688989Y-103225979D01*
X168512992Y-103527520D01*
X168371307Y-103734879D01*
X168243003Y-103862737D01*
X168107151Y-103925777D01*
X167942820Y-103938681D01*
X167729080Y-103916133D01*
X167445000Y-103872814D01*
X167418686Y-103868902D01*
X167206165Y-103847191D01*
X167030490Y-103863662D01*
X166836375Y-103930275D01*
X166589914Y-104048175D01*
X166127600Y-104281550D01*
X166012942Y-104129957D01*
X165912977Y-104028408D01*
X165805280Y-104031783D01*
X165716857Y-104073415D01*
X165456476Y-104210936D01*
X165143191Y-104378045D01*
X164811186Y-104556315D01*
X164494647Y-104727320D01*
X164227757Y-104872630D01*
X164044702Y-104973821D01*
X164011428Y-104992714D01*
X163853341Y-105080964D01*
X163607264Y-105215293D01*
X163313448Y-105373809D01*
X163140571Y-105466313D01*
X162834494Y-105630188D01*
X162550207Y-105783498D01*
X162329343Y-105903742D01*
X162249364Y-105947978D01*
X162086638Y-106034503D01*
X161986017Y-106079485D01*
X161977221Y-106081285D01*
X161954560Y-106017455D01*
X161943389Y-105860800D01*
X161943142Y-105830700D01*
X161916638Y-105588989D01*
X161856274Y-105377129D01*
X161736532Y-105148124D01*
X161574844Y-104902753D01*
X161400099Y-104678592D01*
X161241187Y-104513219D01*
X161141479Y-104447356D01*
X161026194Y-104388871D01*
X160999714Y-104350205D01*
X161061452Y-104304702D01*
X161236337Y-104200578D01*
X161508875Y-104046424D01*
X161863572Y-103850835D01*
X162284932Y-103622401D01*
X162757462Y-103369718D01*
X162986466Y-103248381D01*
X163543603Y-102953472D01*
X163984986Y-102717712D01*
X164323466Y-102532965D01*
X164571894Y-102391093D01*
X164743119Y-102283960D01*
X164849994Y-102203429D01*
X164905367Y-102141364D01*
X164922091Y-102089628D01*
X164913016Y-102040084D01*
X164909609Y-102030704D01*
X164860922Y-101891175D01*
X164846000Y-101832177D01*
X164905492Y-101786599D01*
X165061136Y-101697037D01*
X165269591Y-101587832D01*
X165493203Y-101468399D01*
X165636245Y-101360055D01*
X165735878Y-101219333D01*
X165829261Y-101002765D01*
X165875380Y-100879216D01*
X166057576Y-100384428D01*
X167267717Y-100409287D01*
G36*
X190324379Y-102889452D02*
G01*
X190470600Y-103129475D01*
X190591633Y-103316982D01*
X190666646Y-103420044D01*
X190676750Y-103429537D01*
X190733255Y-103385676D01*
X190841735Y-103242232D01*
X190982742Y-103025974D01*
X191046776Y-102920228D01*
X191367005Y-102380142D01*
X192257931Y-102380142D01*
X192598267Y-102383523D01*
X192878624Y-102392746D01*
X193071274Y-102406430D01*
X193148491Y-102423198D01*
X193148857Y-102424472D01*
X193107897Y-102494899D01*
X192994640Y-102661221D01*
X192823522Y-102902953D01*
X192608977Y-103199612D01*
X192447333Y-103419975D01*
X192211121Y-103744810D01*
X192008827Y-104031707D01*
X191854995Y-104259333D01*
X191764172Y-104406353D01*
X191745809Y-104448906D01*
X191786591Y-104530022D01*
X191899875Y-104707871D01*
X192072068Y-104962335D01*
X192289578Y-105273297D01*
X192519674Y-105594260D01*
X193293538Y-106661857D01*
X191351112Y-106661857D01*
X191041119Y-106135714D01*
X190844422Y-105798713D01*
X190706456Y-105578509D01*
X190604540Y-105471739D01*
X190515994Y-105475040D01*
X190418138Y-105585049D01*
X190288290Y-105798401D01*
X190167012Y-106006093D01*
X189778791Y-106661857D01*
X187921279Y-106661857D01*
X188490250Y-105881714D01*
X188813946Y-105437554D01*
X189061922Y-105096134D01*
X189244188Y-104843073D01*
X189370755Y-104663994D01*
X189451634Y-104544517D01*
X189496837Y-104470263D01*
X189516373Y-104426855D01*
X189520285Y-104402256D01*
X189479001Y-104326163D01*
X189364983Y-104155371D01*
X189192982Y-103910995D01*
X188977750Y-103614150D01*
X188830857Y-103415422D01*
X188596528Y-103097369D01*
X188396352Y-102819445D01*
X188245060Y-102602603D01*
X188157382Y-102467798D01*
X188141428Y-102434706D01*
X188209495Y-102414376D01*
X188395703Y-102397484D01*
X188673061Y-102385597D01*
X189014579Y-102380281D01*
X189081616Y-102380142D01*
X190021804Y-102380142D01*
X190324379Y-102889452D01*
G37*
X190324379Y-102889452D02*
X190470600Y-103129475D01*
X190591633Y-103316982D01*
X190666646Y-103420044D01*
X190676750Y-103429537D01*
X190733255Y-103385676D01*
X190841735Y-103242232D01*
X190982742Y-103025974D01*
X191046776Y-102920228D01*
X191367005Y-102380142D01*
X192257931Y-102380142D01*
X192598267Y-102383523D01*
X192878624Y-102392746D01*
X193071274Y-102406430D01*
X193148491Y-102423198D01*
X193148857Y-102424472D01*
X193107897Y-102494899D01*
X192994640Y-102661221D01*
X192823522Y-102902953D01*
X192608977Y-103199612D01*
X192447333Y-103419975D01*
X192211121Y-103744810D01*
X192008827Y-104031707D01*
X191854995Y-104259333D01*
X191764172Y-104406353D01*
X191745809Y-104448906D01*
X191786591Y-104530022D01*
X191899875Y-104707871D01*
X192072068Y-104962335D01*
X192289578Y-105273297D01*
X192519674Y-105594260D01*
X193293538Y-106661857D01*
X191351112Y-106661857D01*
X191041119Y-106135714D01*
X190844422Y-105798713D01*
X190706456Y-105578509D01*
X190604540Y-105471739D01*
X190515994Y-105475040D01*
X190418138Y-105585049D01*
X190288290Y-105798401D01*
X190167012Y-106006093D01*
X189778791Y-106661857D01*
X187921279Y-106661857D01*
X188490250Y-105881714D01*
X188813946Y-105437554D01*
X189061922Y-105096134D01*
X189244188Y-104843073D01*
X189370755Y-104663994D01*
X189451634Y-104544517D01*
X189496837Y-104470263D01*
X189516373Y-104426855D01*
X189520285Y-104402256D01*
X189479001Y-104326163D01*
X189364983Y-104155371D01*
X189192982Y-103910995D01*
X188977750Y-103614150D01*
X188830857Y-103415422D01*
X188596528Y-103097369D01*
X188396352Y-102819445D01*
X188245060Y-102602603D01*
X188157382Y-102467798D01*
X188141428Y-102434706D01*
X188209495Y-102414376D01*
X188395703Y-102397484D01*
X188673061Y-102385597D01*
X189014579Y-102380281D01*
X189081616Y-102380142D01*
X190021804Y-102380142D01*
X190324379Y-102889452D01*
G36*
X181572758Y-102366696D02*
G01*
X181958464Y-102535924D01*
X182253463Y-102817978D01*
X182459416Y-103213986D01*
X182469757Y-103243686D01*
X182501069Y-103416336D01*
X182525518Y-103723188D01*
X182542611Y-104153440D01*
X182551855Y-104696289D01*
X182553428Y-105076115D01*
X182553428Y-106661857D01*
X180884285Y-106661857D01*
X180884285Y-105262862D01*
X180881938Y-104719024D01*
X180871594Y-104303227D01*
X180848301Y-103998400D01*
X180807107Y-103787473D01*
X180743059Y-103653375D01*
X180651204Y-103579035D01*
X180526591Y-103547383D01*
X180384820Y-103541285D01*
X180130169Y-103584835D01*
X179935364Y-103728374D01*
X179873997Y-103798693D01*
X179828431Y-103875003D01*
X179795871Y-103979287D01*
X179773521Y-104133526D01*
X179758584Y-104359704D01*
X179748264Y-104679802D01*
X179739765Y-105115802D01*
X179736887Y-105288659D01*
X179714345Y-106661857D01*
X178126571Y-106661857D01*
X178126571Y-102374696D01*
X179469143Y-102416428D01*
X179491883Y-102652285D01*
X179517256Y-102812846D01*
X179548544Y-102887474D01*
X179551379Y-102888142D01*
X179627439Y-102850747D01*
X179781286Y-102755212D01*
X179891495Y-102681938D01*
X180286408Y-102457386D01*
X180676461Y-102339928D01*
X181094686Y-102309165D01*
X181572758Y-102366696D01*
G37*
X181572758Y-102366696D02*
X181958464Y-102535924D01*
X182253463Y-102817978D01*
X182459416Y-103213986D01*
X182469757Y-103243686D01*
X182501069Y-103416336D01*
X182525518Y-103723188D01*
X182542611Y-104153440D01*
X182551855Y-104696289D01*
X182553428Y-105076115D01*
X182553428Y-106661857D01*
X180884285Y-106661857D01*
X180884285Y-105262862D01*
X180881938Y-104719024D01*
X180871594Y-104303227D01*
X180848301Y-103998400D01*
X180807107Y-103787473D01*
X180743059Y-103653375D01*
X180651204Y-103579035D01*
X180526591Y-103547383D01*
X180384820Y-103541285D01*
X180130169Y-103584835D01*
X179935364Y-103728374D01*
X179873997Y-103798693D01*
X179828431Y-103875003D01*
X179795871Y-103979287D01*
X179773521Y-104133526D01*
X179758584Y-104359704D01*
X179748264Y-104679802D01*
X179739765Y-105115802D01*
X179736887Y-105288659D01*
X179714345Y-106661857D01*
X178126571Y-106661857D01*
X178126571Y-102374696D01*
X179469143Y-102416428D01*
X179491883Y-102652285D01*
X179517256Y-102812846D01*
X179548544Y-102887474D01*
X179551379Y-102888142D01*
X179627439Y-102850747D01*
X179781286Y-102755212D01*
X179891495Y-102681938D01*
X180286408Y-102457386D01*
X180676461Y-102339928D01*
X181094686Y-102309165D01*
X181572758Y-102366696D01*
G36*
X174828457Y-101035402D02*
G01*
X175425446Y-101162764D01*
X175970127Y-101383505D01*
X176444164Y-101708077D01*
X176811640Y-102127422D01*
X177074808Y-102645016D01*
X177235924Y-103264336D01*
X177250233Y-103357720D01*
X177281578Y-103807437D01*
X177262035Y-104291917D01*
X177197006Y-104755312D01*
X177091891Y-105141773D01*
X177073061Y-105189511D01*
X176784438Y-105700227D01*
X176386565Y-106123712D01*
X175895686Y-106445657D01*
X175449207Y-106619836D01*
X175061085Y-106702707D01*
X174606922Y-106755445D01*
X174147003Y-106774227D01*
X173741615Y-106755227D01*
X173609971Y-106736508D01*
X172979349Y-106576075D01*
X172459492Y-106340900D01*
X172180312Y-106150653D01*
X171825880Y-105782219D01*
X171557428Y-105321847D01*
X171375550Y-104794971D01*
X171280839Y-104227021D01*
X171276494Y-103862127D01*
X173122837Y-103862127D01*
X173132906Y-104248384D01*
X173188191Y-104580913D01*
X173190065Y-104587682D01*
X173347146Y-104926396D01*
X173593563Y-105195459D01*
X173888713Y-105355535D01*
X174166849Y-105394779D01*
X174486760Y-105371868D01*
X174780851Y-105295769D01*
X174933428Y-105216906D01*
X175138795Y-105034165D01*
X175278156Y-104814248D01*
X175361760Y-104527841D01*
X175399858Y-104145630D01*
X175405143Y-103867857D01*
X175400835Y-103517541D01*
X175383679Y-103273988D01*
X175347326Y-103098960D01*
X175285424Y-102954223D01*
X175240713Y-102877726D01*
X174997479Y-102611126D01*
X174683710Y-102444802D01*
X174332490Y-102378881D01*
X173976899Y-102413488D01*
X173650020Y-102548749D01*
X173384935Y-102784789D01*
X173325371Y-102870442D01*
X173222926Y-103124211D01*
X173154129Y-103471088D01*
X173122837Y-103862127D01*
X171276494Y-103862127D01*
X171273889Y-103643429D01*
X171355293Y-103069628D01*
X171525646Y-102531049D01*
X171785539Y-102053124D01*
X172076773Y-101714061D01*
X172499256Y-101411148D01*
X173014692Y-101189361D01*
X173594055Y-101051164D01*
X174208318Y-100999023D01*
X174828457Y-101035402D01*
G37*
X174828457Y-101035402D02*
X175425446Y-101162764D01*
X175970127Y-101383505D01*
X176444164Y-101708077D01*
X176811640Y-102127422D01*
X177074808Y-102645016D01*
X177235924Y-103264336D01*
X177250233Y-103357720D01*
X177281578Y-103807437D01*
X177262035Y-104291917D01*
X177197006Y-104755312D01*
X177091891Y-105141773D01*
X177073061Y-105189511D01*
X176784438Y-105700227D01*
X176386565Y-106123712D01*
X175895686Y-106445657D01*
X175449207Y-106619836D01*
X175061085Y-106702707D01*
X174606922Y-106755445D01*
X174147003Y-106774227D01*
X173741615Y-106755227D01*
X173609971Y-106736508D01*
X172979349Y-106576075D01*
X172459492Y-106340900D01*
X172180312Y-106150653D01*
X171825880Y-105782219D01*
X171557428Y-105321847D01*
X171375550Y-104794971D01*
X171280839Y-104227021D01*
X171276494Y-103862127D01*
X173122837Y-103862127D01*
X173132906Y-104248384D01*
X173188191Y-104580913D01*
X173190065Y-104587682D01*
X173347146Y-104926396D01*
X173593563Y-105195459D01*
X173888713Y-105355535D01*
X174166849Y-105394779D01*
X174486760Y-105371868D01*
X174780851Y-105295769D01*
X174933428Y-105216906D01*
X175138795Y-105034165D01*
X175278156Y-104814248D01*
X175361760Y-104527841D01*
X175399858Y-104145630D01*
X175405143Y-103867857D01*
X175400835Y-103517541D01*
X175383679Y-103273988D01*
X175347326Y-103098960D01*
X175285424Y-102954223D01*
X175240713Y-102877726D01*
X174997479Y-102611126D01*
X174683710Y-102444802D01*
X174332490Y-102378881D01*
X173976899Y-102413488D01*
X173650020Y-102548749D01*
X173384935Y-102784789D01*
X173325371Y-102870442D01*
X173222926Y-103124211D01*
X173154129Y-103471088D01*
X173122837Y-103862127D01*
X171276494Y-103862127D01*
X171273889Y-103643429D01*
X171355293Y-103069628D01*
X171525646Y-102531049D01*
X171785539Y-102053124D01*
X172076773Y-101714061D01*
X172499256Y-101411148D01*
X173014692Y-101189361D01*
X173594055Y-101051164D01*
X174208318Y-100999023D01*
X174828457Y-101035402D01*
G36*
X160533332Y-104460680D02*
G01*
X160946397Y-104614908D01*
X161305147Y-104873398D01*
X161560214Y-105194214D01*
X161674380Y-105415113D01*
X161735914Y-105624826D01*
X161759528Y-105885855D01*
X161761714Y-106050299D01*
X161752838Y-106348460D01*
X161716887Y-106559047D01*
X161639882Y-106739037D01*
X161561523Y-106866108D01*
X161252540Y-107227714D01*
X160882136Y-107461542D01*
X160434469Y-107576547D01*
X160282020Y-107589252D01*
X159966306Y-107591083D01*
X159727966Y-107551905D01*
X159502384Y-107460788D01*
X159492222Y-107455660D01*
X159110103Y-107190464D01*
X158837000Y-106854186D01*
X158671497Y-106469933D01*
X158612183Y-106060815D01*
X158616464Y-106022120D01*
X159061196Y-106022120D01*
X159101339Y-106289174D01*
X159280479Y-106672745D01*
X159545408Y-106953971D01*
X159874980Y-107122285D01*
X160248048Y-107167117D01*
X160643465Y-107077899D01*
X160663289Y-107069794D01*
X160963295Y-106868483D01*
X161194085Y-106554610D01*
X161301518Y-106289174D01*
X161339115Y-105935490D01*
X161254256Y-105599259D01*
X161069549Y-105302703D01*
X160807602Y-105068044D01*
X160491025Y-104917504D01*
X160142424Y-104873304D01*
X159902575Y-104914135D01*
X159558258Y-105083271D01*
X159291507Y-105344477D01*
X159119945Y-105667508D01*
X159061196Y-106022120D01*
X158616464Y-106022120D01*
X158657643Y-105649939D01*
X158806463Y-105260413D01*
X159057231Y-104915347D01*
X159408532Y-104637848D01*
X159672334Y-104511341D01*
X160097970Y-104422297D01*
X160533332Y-104460680D01*
G37*
X160533332Y-104460680D02*
X160946397Y-104614908D01*
X161305147Y-104873398D01*
X161560214Y-105194214D01*
X161674380Y-105415113D01*
X161735914Y-105624826D01*
X161759528Y-105885855D01*
X161761714Y-106050299D01*
X161752838Y-106348460D01*
X161716887Y-106559047D01*
X161639882Y-106739037D01*
X161561523Y-106866108D01*
X161252540Y-107227714D01*
X160882136Y-107461542D01*
X160434469Y-107576547D01*
X160282020Y-107589252D01*
X159966306Y-107591083D01*
X159727966Y-107551905D01*
X159502384Y-107460788D01*
X159492222Y-107455660D01*
X159110103Y-107190464D01*
X158837000Y-106854186D01*
X158671497Y-106469933D01*
X158612183Y-106060815D01*
X158616464Y-106022120D01*
X159061196Y-106022120D01*
X159101339Y-106289174D01*
X159280479Y-106672745D01*
X159545408Y-106953971D01*
X159874980Y-107122285D01*
X160248048Y-107167117D01*
X160643465Y-107077899D01*
X160663289Y-107069794D01*
X160963295Y-106868483D01*
X161194085Y-106554610D01*
X161301518Y-106289174D01*
X161339115Y-105935490D01*
X161254256Y-105599259D01*
X161069549Y-105302703D01*
X160807602Y-105068044D01*
X160491025Y-104917504D01*
X160142424Y-104873304D01*
X159902575Y-104914135D01*
X159558258Y-105083271D01*
X159291507Y-105344477D01*
X159119945Y-105667508D01*
X159061196Y-106022120D01*
X158616464Y-106022120D01*
X158657643Y-105649939D01*
X158806463Y-105260413D01*
X159057231Y-104915347D01*
X159408532Y-104637848D01*
X159672334Y-104511341D01*
X160097970Y-104422297D01*
X160533332Y-104460680D01*
G36*
X187450031Y-102385241D02*
G01*
X187708114Y-102399062D01*
X187875192Y-102419390D01*
X187923714Y-102439927D01*
X187898754Y-102532879D01*
X187828757Y-102741668D01*
X187721051Y-103046761D01*
X187582960Y-103428626D01*
X187421812Y-103867730D01*
X187244932Y-104344543D01*
X187059647Y-104839531D01*
X186873283Y-105333162D01*
X186693165Y-105805905D01*
X186526621Y-106238227D01*
X186380976Y-106610596D01*
X186263557Y-106903480D01*
X186181689Y-107097347D01*
X186157407Y-107149035D01*
X185846618Y-107646815D01*
X185491899Y-108006670D01*
X185217239Y-108176779D01*
X184871776Y-108291540D01*
X184453001Y-108356908D01*
X184026340Y-108366122D01*
X183731599Y-108330281D01*
X183524473Y-108280691D01*
X183377122Y-108234070D01*
X183350599Y-108221454D01*
X183313724Y-108131161D01*
X183287918Y-107939029D01*
X183279142Y-107709860D01*
X183279142Y-107242428D01*
X183696428Y-107241358D01*
X184080979Y-107208907D01*
X184355553Y-107107603D01*
X184542565Y-106928080D01*
X184576043Y-106873863D01*
X184602908Y-106814259D01*
X184614343Y-106742499D01*
X184605437Y-106643085D01*
X184571280Y-106500518D01*
X184506962Y-106299298D01*
X184407571Y-106023929D01*
X184268198Y-105658909D01*
X184083931Y-105188741D01*
X183875096Y-104661484D01*
X183670694Y-104146426D01*
X183482120Y-103670947D01*
X183316464Y-103252947D01*
X183180815Y-102910326D01*
X183082263Y-102660982D01*
X183027896Y-102522815D01*
X183020925Y-102504839D01*
X183010055Y-102451160D01*
X183040900Y-102415739D01*
X183135622Y-102395726D01*
X183316384Y-102388273D01*
X183605347Y-102390528D01*
X183867462Y-102395982D01*
X184763364Y-102416428D01*
X185159670Y-103811964D01*
X185280847Y-104235061D01*
X185388737Y-104604909D01*
X185477169Y-104900909D01*
X185539970Y-105102466D01*
X185570969Y-105188981D01*
X185572807Y-105190669D01*
X185595823Y-105118593D01*
X185649506Y-104928614D01*
X185727691Y-104643218D01*
X185824213Y-104284895D01*
X185925541Y-103903990D01*
X186035736Y-103488249D01*
X186135038Y-103115175D01*
X186216727Y-102809893D01*
X186274082Y-102597530D01*
X186299184Y-102507142D01*
X186332479Y-102450692D01*
X186409452Y-102413712D01*
X186555914Y-102392257D01*
X186797674Y-102382385D01*
X187130319Y-102380142D01*
X187450031Y-102385241D01*
G37*
X187450031Y-102385241D02*
X187708114Y-102399062D01*
X187875192Y-102419390D01*
X187923714Y-102439927D01*
X187898754Y-102532879D01*
X187828757Y-102741668D01*
X187721051Y-103046761D01*
X187582960Y-103428626D01*
X187421812Y-103867730D01*
X187244932Y-104344543D01*
X187059647Y-104839531D01*
X186873283Y-105333162D01*
X186693165Y-105805905D01*
X186526621Y-106238227D01*
X186380976Y-106610596D01*
X186263557Y-106903480D01*
X186181689Y-107097347D01*
X186157407Y-107149035D01*
X185846618Y-107646815D01*
X185491899Y-108006670D01*
X185217239Y-108176779D01*
X184871776Y-108291540D01*
X184453001Y-108356908D01*
X184026340Y-108366122D01*
X183731599Y-108330281D01*
X183524473Y-108280691D01*
X183377122Y-108234070D01*
X183350599Y-108221454D01*
X183313724Y-108131161D01*
X183287918Y-107939029D01*
X183279142Y-107709860D01*
X183279142Y-107242428D01*
X183696428Y-107241358D01*
X184080979Y-107208907D01*
X184355553Y-107107603D01*
X184542565Y-106928080D01*
X184576043Y-106873863D01*
X184602908Y-106814259D01*
X184614343Y-106742499D01*
X184605437Y-106643085D01*
X184571280Y-106500518D01*
X184506962Y-106299298D01*
X184407571Y-106023929D01*
X184268198Y-105658909D01*
X184083931Y-105188741D01*
X183875096Y-104661484D01*
X183670694Y-104146426D01*
X183482120Y-103670947D01*
X183316464Y-103252947D01*
X183180815Y-102910326D01*
X183082263Y-102660982D01*
X183027896Y-102522815D01*
X183020925Y-102504839D01*
X183010055Y-102451160D01*
X183040900Y-102415739D01*
X183135622Y-102395726D01*
X183316384Y-102388273D01*
X183605347Y-102390528D01*
X183867462Y-102395982D01*
X184763364Y-102416428D01*
X185159670Y-103811964D01*
X185280847Y-104235061D01*
X185388737Y-104604909D01*
X185477169Y-104900909D01*
X185539970Y-105102466D01*
X185570969Y-105188981D01*
X185572807Y-105190669D01*
X185595823Y-105118593D01*
X185649506Y-104928614D01*
X185727691Y-104643218D01*
X185824213Y-104284895D01*
X185925541Y-103903990D01*
X186035736Y-103488249D01*
X186135038Y-103115175D01*
X186216727Y-102809893D01*
X186274082Y-102597530D01*
X186299184Y-102507142D01*
X186332479Y-102450692D01*
X186409452Y-102413712D01*
X186555914Y-102392257D01*
X186797674Y-102382385D01*
X187130319Y-102380142D01*
X187450031Y-102385241D01*
G36*
X161922861Y-106566149D02*
G01*
X162073123Y-106706191D01*
X162300163Y-106924447D01*
X162591239Y-107208523D01*
X162933611Y-107546026D01*
X163314537Y-107924561D01*
X163500822Y-108110678D01*
X165093551Y-109704641D01*
X165713632Y-109725392D01*
X166333714Y-109746143D01*
X166354090Y-110635143D01*
X166374467Y-111524142D01*
X162226117Y-111524142D01*
X162237925Y-110608077D01*
X162243890Y-110145285D01*
X162596285Y-110145285D01*
X162596285Y-111161285D01*
X166007142Y-111161285D01*
X166007142Y-110145285D01*
X162596285Y-110145285D01*
X162243890Y-110145285D01*
X162249734Y-109692012D01*
X161356146Y-108796274D01*
X161068236Y-108504425D01*
X160822655Y-108249248D01*
X160635217Y-108047695D01*
X160521738Y-107916718D01*
X160495279Y-107873510D01*
X160574322Y-107829548D01*
X160741411Y-107746189D01*
X160872520Y-107683219D01*
X161153388Y-107508607D01*
X161419109Y-107272379D01*
X161633905Y-107012834D01*
X161761997Y-106768271D01*
X161775818Y-106716285D01*
X161819313Y-106571889D01*
X161862118Y-106516714D01*
X161922861Y-106566149D01*
G37*
X161922861Y-106566149D02*
X162073123Y-106706191D01*
X162300163Y-106924447D01*
X162591239Y-107208523D01*
X162933611Y-107546026D01*
X163314537Y-107924561D01*
X163500822Y-108110678D01*
X165093551Y-109704641D01*
X165713632Y-109725392D01*
X166333714Y-109746143D01*
X166354090Y-110635143D01*
X166374467Y-111524142D01*
X162226117Y-111524142D01*
X162237925Y-110608077D01*
X162243890Y-110145285D01*
X162596285Y-110145285D01*
X162596285Y-111161285D01*
X166007142Y-111161285D01*
X166007142Y-110145285D01*
X162596285Y-110145285D01*
X162243890Y-110145285D01*
X162249734Y-109692012D01*
X161356146Y-108796274D01*
X161068236Y-108504425D01*
X160822655Y-108249248D01*
X160635217Y-108047695D01*
X160521738Y-107916718D01*
X160495279Y-107873510D01*
X160574322Y-107829548D01*
X160741411Y-107746189D01*
X160872520Y-107683219D01*
X161153388Y-107508607D01*
X161419109Y-107272379D01*
X161633905Y-107012834D01*
X161761997Y-106768271D01*
X161775818Y-106716285D01*
X161819313Y-106571889D01*
X161862118Y-106516714D01*
X161922861Y-106566149D01*
G36*
X190826571Y-112032142D02*
G01*
X190100857Y-112032142D01*
X190100857Y-111306428D01*
X190826571Y-111306428D01*
X190826571Y-112032142D01*
G37*
X190826571Y-112032142D02*
X190100857Y-112032142D01*
X190100857Y-111306428D01*
X190826571Y-111306428D01*
X190826571Y-112032142D01*
G36*
X189189451Y-109705257D02*
G01*
X189209939Y-109890811D01*
X189224103Y-110166404D01*
X189229949Y-110504496D01*
X189230000Y-110540047D01*
X189230000Y-111442809D01*
X189502142Y-111465333D01*
X189681814Y-111491792D01*
X189763319Y-111562006D01*
X189793599Y-111722918D01*
X189796809Y-111760000D01*
X189819333Y-112032142D01*
X187996285Y-112032142D01*
X187996285Y-111741857D01*
X188003975Y-111555997D01*
X188051454Y-111473400D01*
X188175336Y-111452220D01*
X188250285Y-111451571D01*
X188504285Y-111451571D01*
X188504285Y-110508143D01*
X188250285Y-110508143D01*
X188080047Y-110496908D01*
X188010230Y-110433526D01*
X187996317Y-110273476D01*
X187996285Y-110254143D01*
X188011014Y-110081054D01*
X188072881Y-110010270D01*
X188159571Y-109999434D01*
X188313793Y-109969055D01*
X188539125Y-109891509D01*
X188711063Y-109818005D01*
X188930521Y-109720665D01*
X189098279Y-109655056D01*
X189164634Y-109637285D01*
X189189451Y-109705257D01*
G37*
X189189451Y-109705257D02*
X189209939Y-109890811D01*
X189224103Y-110166404D01*
X189229949Y-110504496D01*
X189230000Y-110540047D01*
X189230000Y-111442809D01*
X189502142Y-111465333D01*
X189681814Y-111491792D01*
X189763319Y-111562006D01*
X189793599Y-111722918D01*
X189796809Y-111760000D01*
X189819333Y-112032142D01*
X187996285Y-112032142D01*
X187996285Y-111741857D01*
X188003975Y-111555997D01*
X188051454Y-111473400D01*
X188175336Y-111452220D01*
X188250285Y-111451571D01*
X188504285Y-111451571D01*
X188504285Y-110508143D01*
X188250285Y-110508143D01*
X188080047Y-110496908D01*
X188010230Y-110433526D01*
X187996317Y-110273476D01*
X187996285Y-110254143D01*
X188011014Y-110081054D01*
X188072881Y-110010270D01*
X188159571Y-109999434D01*
X188313793Y-109969055D01*
X188539125Y-109891509D01*
X188711063Y-109818005D01*
X188930521Y-109720665D01*
X189098279Y-109655056D01*
X189164634Y-109637285D01*
X189189451Y-109705257D01*
G36*
X187518265Y-109667040D02*
G01*
X187555050Y-109726241D01*
X187556092Y-109760493D01*
X187530802Y-109872011D01*
X187464274Y-110092572D01*
X187365278Y-110394964D01*
X187242588Y-110751975D01*
X187174701Y-110943571D01*
X186798075Y-111995857D01*
X186326752Y-112016111D01*
X185855428Y-112036365D01*
X185467891Y-110927539D01*
X185337359Y-110548667D01*
X185226405Y-110216302D01*
X185143012Y-109955198D01*
X185095163Y-109790110D01*
X185086891Y-109746143D01*
X185156235Y-109705531D01*
X185327269Y-109679194D01*
X185474428Y-109673571D01*
X185855428Y-109673571D01*
X186048203Y-110254143D01*
X186143589Y-110541173D01*
X186226089Y-110788997D01*
X186281298Y-110954356D01*
X186289860Y-110979857D01*
X186325072Y-111008417D01*
X186380427Y-110927698D01*
X186461019Y-110727179D01*
X186570999Y-110399285D01*
X186803255Y-109673571D01*
X187182056Y-109651636D01*
X187405232Y-109645459D01*
X187518265Y-109667040D01*
G37*
X187518265Y-109667040D02*
X187555050Y-109726241D01*
X187556092Y-109760493D01*
X187530802Y-109872011D01*
X187464274Y-110092572D01*
X187365278Y-110394964D01*
X187242588Y-110751975D01*
X187174701Y-110943571D01*
X186798075Y-111995857D01*
X186326752Y-112016111D01*
X185855428Y-112036365D01*
X185467891Y-110927539D01*
X185337359Y-110548667D01*
X185226405Y-110216302D01*
X185143012Y-109955198D01*
X185095163Y-109790110D01*
X185086891Y-109746143D01*
X185156235Y-109705531D01*
X185327269Y-109679194D01*
X185474428Y-109673571D01*
X185855428Y-109673571D01*
X186048203Y-110254143D01*
X186143589Y-110541173D01*
X186226089Y-110788997D01*
X186281298Y-110954356D01*
X186289860Y-110979857D01*
X186325072Y-111008417D01*
X186380427Y-110927698D01*
X186461019Y-110727179D01*
X186570999Y-110399285D01*
X186803255Y-109673571D01*
X187182056Y-109651636D01*
X187405232Y-109645459D01*
X187518265Y-109667040D01*
G36*
X192587187Y-109692684D02*
G01*
X192863809Y-109858740D01*
X193052677Y-110137814D01*
X193155364Y-110531996D01*
X193176753Y-110907285D01*
X193128409Y-111355998D01*
X192991974Y-111702072D01*
X192771160Y-111937439D01*
X192678710Y-111990249D01*
X192366822Y-112082221D01*
X192028806Y-112095104D01*
X191732862Y-112027394D01*
X191699606Y-112011873D01*
X191443612Y-111814446D01*
X191278243Y-111521583D01*
X191198621Y-111122550D01*
X191189428Y-110889378D01*
X191190749Y-110871000D01*
X191885260Y-110871000D01*
X191910989Y-111241856D01*
X191987082Y-111482587D01*
X192111900Y-111590785D01*
X192283805Y-111564039D01*
X192336501Y-111534374D01*
X192402743Y-111423110D01*
X192451478Y-111213059D01*
X192478207Y-110949991D01*
X192478429Y-110679679D01*
X192447643Y-110447893D01*
X192444545Y-110435571D01*
X192351501Y-110230478D01*
X192231074Y-110159926D01*
X192066199Y-110184548D01*
X191956835Y-110321780D01*
X191898411Y-110581021D01*
X191885260Y-110871000D01*
X191190749Y-110871000D01*
X191223227Y-110419307D01*
X191330102Y-110069110D01*
X191518275Y-109828814D01*
X191795963Y-109688447D01*
X192171388Y-109638037D01*
X192221240Y-109637557D01*
X192587187Y-109692684D01*
G37*
X192587187Y-109692684D02*
X192863809Y-109858740D01*
X193052677Y-110137814D01*
X193155364Y-110531996D01*
X193176753Y-110907285D01*
X193128409Y-111355998D01*
X192991974Y-111702072D01*
X192771160Y-111937439D01*
X192678710Y-111990249D01*
X192366822Y-112082221D01*
X192028806Y-112095104D01*
X191732862Y-112027394D01*
X191699606Y-112011873D01*
X191443612Y-111814446D01*
X191278243Y-111521583D01*
X191198621Y-111122550D01*
X191189428Y-110889378D01*
X191190749Y-110871000D01*
X191885260Y-110871000D01*
X191910989Y-111241856D01*
X191987082Y-111482587D01*
X192111900Y-111590785D01*
X192283805Y-111564039D01*
X192336501Y-111534374D01*
X192402743Y-111423110D01*
X192451478Y-111213059D01*
X192478207Y-110949991D01*
X192478429Y-110679679D01*
X192447643Y-110447893D01*
X192444545Y-110435571D01*
X192351501Y-110230478D01*
X192231074Y-110159926D01*
X192066199Y-110184548D01*
X191956835Y-110321780D01*
X191898411Y-110581021D01*
X191885260Y-110871000D01*
X191190749Y-110871000D01*
X191223227Y-110419307D01*
X191330102Y-110069110D01*
X191518275Y-109828814D01*
X191795963Y-109688447D01*
X192171388Y-109638037D01*
X192221240Y-109637557D01*
X192587187Y-109692684D01*
D12*
X196725000Y-144920580D02*
X196725000Y-144639420D01*
X195705000Y-144920580D02*
X195705000Y-144639420D01*
X194185000Y-144920580D02*
X194185000Y-144639420D01*
X193165000Y-144920580D02*
X193165000Y-144639420D01*
X199178000Y-111700000D02*
X200508000Y-111700000D01*
X199178000Y-113030000D02*
X199178000Y-111700000D01*
X199178000Y-114300000D02*
X201838000Y-114300000D01*
X201838000Y-114300000D02*
X201838000Y-119440000D01*
X199178000Y-114300000D02*
X199178000Y-119440000D01*
X199178000Y-119440000D02*
X201838000Y-119440000D01*
X121472000Y-136084000D02*
X121472000Y-137414000D01*
X120142000Y-136084000D02*
X121472000Y-136084000D01*
X118872000Y-136084000D02*
X118872000Y-138744000D01*
X118872000Y-138744000D02*
X113732000Y-138744000D01*
X118872000Y-136084000D02*
X113732000Y-136084000D01*
X113732000Y-136084000D02*
X113732000Y-138744000D01*
X145365000Y-144846000D02*
X145365000Y-142866000D01*
X145365000Y-142866000D02*
X144945000Y-142866000D01*
X145365000Y-146816000D02*
X145365000Y-147216000D01*
X137845000Y-147216000D02*
X137845000Y-146816000D01*
X137845000Y-144846000D02*
X137845000Y-142866000D01*
X137845000Y-142866000D02*
X138265000Y-142866000D01*
X140295000Y-142186000D02*
X139845000Y-142186000D01*
X139845000Y-142636000D02*
X139845000Y-142186000D01*
X141224000Y-121813000D02*
X137774000Y-121813000D01*
X141224000Y-121813000D02*
X143174000Y-121813000D01*
X141224000Y-131933000D02*
X139274000Y-131933000D01*
X141224000Y-131933000D02*
X143174000Y-131933000D01*
X125380000Y-138567000D02*
X137980000Y-138567000D01*
X125380000Y-133467000D02*
X125380000Y-138567000D01*
X137980000Y-133467000D02*
X125380000Y-133467000D01*
X129640000Y-129513064D02*
X129640000Y-129058936D01*
X128170000Y-129513064D02*
X128170000Y-129058936D01*
X126846000Y-129513064D02*
X126846000Y-129058936D01*
X125376000Y-129513064D02*
X125376000Y-129058936D01*
X132295000Y-123217000D02*
X130010000Y-123217000D01*
X132295000Y-124687000D02*
X132295000Y-123217000D01*
X130010000Y-124687000D02*
X132295000Y-124687000D01*
X132295000Y-121185000D02*
X130010000Y-121185000D01*
X132295000Y-122655000D02*
X132295000Y-121185000D01*
X130010000Y-122655000D02*
X132295000Y-122655000D01*
X142888580Y-119632000D02*
X142607420Y-119632000D01*
X142888580Y-120652000D02*
X142607420Y-120652000D01*
X134860420Y-140337000D02*
X135141580Y-140337000D01*
X134860420Y-139317000D02*
X135141580Y-139317000D01*
X126732420Y-140337000D02*
X127013580Y-140337000D01*
X126732420Y-139317000D02*
X127013580Y-139317000D01*
X144020000Y-114186580D02*
X144020000Y-113905420D01*
X143000000Y-114186580D02*
X143000000Y-113905420D01*
X196229500Y-140318258D02*
X196229500Y-139843742D01*
X195184500Y-140318258D02*
X195184500Y-139843742D01*
X195184500Y-129429742D02*
X195184500Y-129904258D01*
X196229500Y-129429742D02*
X196229500Y-129904258D01*
X196229500Y-133714258D02*
X196229500Y-133239742D01*
X195184500Y-133714258D02*
X195184500Y-133239742D01*
X195184500Y-136541742D02*
X195184500Y-137016258D01*
X196229500Y-136541742D02*
X196229500Y-137016258D01*
X199670936Y-129386000D02*
X200125064Y-129386000D01*
X199670936Y-127916000D02*
X200125064Y-127916000D01*
X199416936Y-135990000D02*
X199871064Y-135990000D01*
X199416936Y-134520000D02*
X199871064Y-134520000D01*
X199416936Y-133704000D02*
X199871064Y-133704000D01*
X199416936Y-132234000D02*
X199871064Y-132234000D01*
X199416936Y-139292000D02*
X199871064Y-139292000D01*
X199416936Y-137822000D02*
X199871064Y-137822000D01*
X166765500Y-121649258D02*
X166765500Y-121174742D01*
X165720500Y-121649258D02*
X165720500Y-121174742D01*
X152045936Y-119480000D02*
X152500064Y-119480000D01*
X152045936Y-118010000D02*
X152500064Y-118010000D01*
X196134258Y-92187500D02*
X195659742Y-92187500D01*
X196134258Y-93232500D02*
X195659742Y-93232500D01*
X139927000Y-118083064D02*
X139927000Y-117628936D01*
X138457000Y-118083064D02*
X138457000Y-117628936D01*
X140362000Y-113691936D02*
X140362000Y-114146064D01*
X141832000Y-113691936D02*
X141832000Y-114146064D01*
X153443000Y-122962936D02*
X153443000Y-123417064D01*
X154913000Y-122962936D02*
X154913000Y-123417064D01*
X147801000Y-125957064D02*
X147801000Y-125502936D01*
X146331000Y-125957064D02*
X146331000Y-125502936D01*
X174227258Y-92314500D02*
X173752742Y-92314500D01*
X174227258Y-93359500D02*
X173752742Y-93359500D01*
X152573258Y-92314500D02*
X152098742Y-92314500D01*
X152573258Y-93359500D02*
X152098742Y-93359500D01*
X191235000Y-143102064D02*
X191235000Y-142647936D01*
X189765000Y-143102064D02*
X189765000Y-142647936D01*
X130539258Y-92441500D02*
X130064742Y-92441500D01*
X130539258Y-93486500D02*
X130064742Y-93486500D01*
X128247000Y-102410000D02*
X128247000Y-98910000D01*
X128247000Y-98910000D02*
X141247000Y-98910000D01*
X141247000Y-98910000D02*
X141247000Y-102410000D01*
X141247000Y-108410000D02*
X141247000Y-111910000D01*
X141247000Y-111910000D02*
X128247000Y-111910000D01*
X128247000Y-111910000D02*
X128247000Y-108410000D01*
X214436000Y-135950000D02*
X213106000Y-135950000D01*
X214436000Y-134620000D02*
X214436000Y-135950000D01*
X211836000Y-135950000D02*
X209236000Y-135950000D01*
X211836000Y-133350000D02*
X211836000Y-135950000D01*
X214436000Y-133350000D02*
X211836000Y-133350000D01*
X209236000Y-135950000D02*
X209236000Y-125670000D01*
X214436000Y-133350000D02*
X214436000Y-125670000D01*
X214436000Y-125670000D02*
X209236000Y-125670000D01*
X214436000Y-111192000D02*
X209236000Y-111192000D01*
X214436000Y-121412000D02*
X214436000Y-111192000D01*
X209236000Y-124012000D02*
X209236000Y-111192000D01*
X214436000Y-121412000D02*
X211836000Y-121412000D01*
X211836000Y-121412000D02*
X211836000Y-124012000D01*
X211836000Y-124012000D02*
X209236000Y-124012000D01*
X214436000Y-122682000D02*
X214436000Y-124012000D01*
X214436000Y-124012000D02*
X213106000Y-124012000D01*
X204029000Y-86046000D02*
X205359000Y-86046000D01*
X204029000Y-87376000D02*
X204029000Y-86046000D01*
X204029000Y-88646000D02*
X206689000Y-88646000D01*
X206689000Y-88646000D02*
X206689000Y-91246000D01*
X204029000Y-88646000D02*
X204029000Y-91246000D01*
X204029000Y-91246000D02*
X206689000Y-91246000D01*
X200346000Y-86046000D02*
X201676000Y-86046000D01*
X200346000Y-87376000D02*
X200346000Y-86046000D01*
X200346000Y-88646000D02*
X203006000Y-88646000D01*
X203006000Y-88646000D02*
X203006000Y-91246000D01*
X200346000Y-88646000D02*
X200346000Y-91246000D01*
X200346000Y-91246000D02*
X203006000Y-91246000D01*
X196663000Y-86046000D02*
X197993000Y-86046000D01*
X196663000Y-87376000D02*
X196663000Y-86046000D01*
X196663000Y-88646000D02*
X199323000Y-88646000D01*
X199323000Y-88646000D02*
X199323000Y-91246000D01*
X196663000Y-88646000D02*
X196663000Y-91246000D01*
X196663000Y-91246000D02*
X199323000Y-91246000D01*
X181804000Y-86046000D02*
X183134000Y-86046000D01*
X181804000Y-87376000D02*
X181804000Y-86046000D01*
X181804000Y-88646000D02*
X184464000Y-88646000D01*
X184464000Y-88646000D02*
X184464000Y-91246000D01*
X181804000Y-88646000D02*
X181804000Y-91246000D01*
X181804000Y-91246000D02*
X184464000Y-91246000D01*
X178121000Y-86046000D02*
X179451000Y-86046000D01*
X178121000Y-87376000D02*
X178121000Y-86046000D01*
X178121000Y-88646000D02*
X180781000Y-88646000D01*
X180781000Y-88646000D02*
X180781000Y-91246000D01*
X178121000Y-88646000D02*
X178121000Y-91246000D01*
X178121000Y-91246000D02*
X180781000Y-91246000D01*
X174438000Y-86046000D02*
X175768000Y-86046000D01*
X174438000Y-87376000D02*
X174438000Y-86046000D01*
X174438000Y-88646000D02*
X177098000Y-88646000D01*
X177098000Y-88646000D02*
X177098000Y-91246000D01*
X174438000Y-88646000D02*
X174438000Y-91246000D01*
X174438000Y-91246000D02*
X177098000Y-91246000D01*
X160087000Y-86046000D02*
X161417000Y-86046000D01*
X160087000Y-87376000D02*
X160087000Y-86046000D01*
X160087000Y-88646000D02*
X162747000Y-88646000D01*
X162747000Y-88646000D02*
X162747000Y-91246000D01*
X160087000Y-88646000D02*
X160087000Y-91246000D01*
X160087000Y-91246000D02*
X162747000Y-91246000D01*
X156404000Y-86046000D02*
X157734000Y-86046000D01*
X156404000Y-87376000D02*
X156404000Y-86046000D01*
X156404000Y-88646000D02*
X159064000Y-88646000D01*
X159064000Y-88646000D02*
X159064000Y-91246000D01*
X156404000Y-88646000D02*
X156404000Y-91246000D01*
X156404000Y-91246000D02*
X159064000Y-91246000D01*
X152721000Y-86046000D02*
X154051000Y-86046000D01*
X152721000Y-87376000D02*
X152721000Y-86046000D01*
X152721000Y-88646000D02*
X155381000Y-88646000D01*
X155381000Y-88646000D02*
X155381000Y-91246000D01*
X152721000Y-88646000D02*
X152721000Y-91246000D01*
X152721000Y-91246000D02*
X155381000Y-91246000D01*
X138243000Y-86046000D02*
X139573000Y-86046000D01*
X138243000Y-87376000D02*
X138243000Y-86046000D01*
X138243000Y-88646000D02*
X140903000Y-88646000D01*
X140903000Y-88646000D02*
X140903000Y-91246000D01*
X138243000Y-88646000D02*
X138243000Y-91246000D01*
X138243000Y-91246000D02*
X140903000Y-91246000D01*
X134560000Y-86046000D02*
X135890000Y-86046000D01*
X134560000Y-87376000D02*
X134560000Y-86046000D01*
X134560000Y-88646000D02*
X137220000Y-88646000D01*
X137220000Y-88646000D02*
X137220000Y-91246000D01*
X134560000Y-88646000D02*
X134560000Y-91246000D01*
X134560000Y-91246000D02*
X137220000Y-91246000D01*
X130877000Y-86046000D02*
X132207000Y-86046000D01*
X130877000Y-87376000D02*
X130877000Y-86046000D01*
X130877000Y-88646000D02*
X133537000Y-88646000D01*
X133537000Y-88646000D02*
X133537000Y-91246000D01*
X130877000Y-88646000D02*
X130877000Y-91246000D01*
X130877000Y-91246000D02*
X133537000Y-91246000D01*
X127888000Y-119409000D02*
X124588000Y-119409000D01*
X124588000Y-119409000D02*
X124588000Y-124809000D01*
X127888000Y-119409000D02*
X127888000Y-124809000D01*
X130173000Y-118631580D02*
X130173000Y-118350420D01*
X131193000Y-118631580D02*
X131193000Y-118350420D01*
X147665000Y-109747000D02*
X153675000Y-109747000D01*
X149915000Y-116567000D02*
X153675000Y-116567000D01*
X153675000Y-109747000D02*
X153675000Y-111007000D01*
X153675000Y-116567000D02*
X153675000Y-115307000D01*
X167791000Y-120547000D02*
X167791000Y-124547000D01*
X170791000Y-120547000D02*
X170791000Y-123547000D01*
D16*
X132476000Y-118788000D02*
X132476000Y-120188000D01*
X137576000Y-118788000D02*
X137576000Y-114638000D01*
X132426000Y-118788000D02*
X132426000Y-114638000D01*
X137576000Y-118788000D02*
X137431000Y-118788000D01*
X137576000Y-114638000D02*
X137431000Y-114638000D01*
X132426000Y-114638000D02*
X132571000Y-114638000D01*
X132426000Y-118788000D02*
X132476000Y-118788000D01*
D11*
X187754000Y-98570000D02*
G75*
G03*
X187754000Y-98570000I-100000J0D01*
G01*
D14*
X207264000Y-97790000D02*
X186944000Y-97790000D01*
X207264000Y-82550000D02*
X207264000Y-97790000D01*
X186944000Y-82550000D02*
X207264000Y-82550000D01*
X186944000Y-97790000D02*
X186944000Y-82550000D01*
D11*
X165825000Y-98570000D02*
G75*
G03*
X165825000Y-98570000I-100000J0D01*
G01*
D14*
X185335000Y-97790000D02*
X165015000Y-97790000D01*
X185335000Y-82550000D02*
X185335000Y-97790000D01*
X165015000Y-82550000D02*
X185335000Y-82550000D01*
X165015000Y-97790000D02*
X165015000Y-82550000D01*
D11*
X143897000Y-98570000D02*
G75*
G03*
X143897000Y-98570000I-100000J0D01*
G01*
D14*
X163407000Y-97790000D02*
X143087000Y-97790000D01*
X163407000Y-82550000D02*
X163407000Y-97790000D01*
X143087000Y-82550000D02*
X163407000Y-82550000D01*
X143087000Y-97790000D02*
X143087000Y-82550000D01*
D11*
X121968000Y-98570000D02*
G75*
G03*
X121968000Y-98570000I-100000J0D01*
G01*
D14*
X141478000Y-97790000D02*
X121158000Y-97790000D01*
X141478000Y-82550000D02*
X141478000Y-97790000D01*
X121158000Y-82550000D02*
X141478000Y-82550000D01*
X121158000Y-97790000D02*
X121158000Y-82550000D01*
X204052000Y-144917000D02*
X206412000Y-144917000D01*
X206412000Y-139817000D02*
X204052000Y-139817000D01*
D11*
X207207000Y-138117000D02*
G75*
G03*
X207207000Y-138117000I-100000J0D01*
G01*
D14*
X207782000Y-144617000D02*
X207782000Y-140117000D01*
X202682000Y-144617000D02*
X202682000Y-140117000D01*
X162216000Y-122926000D02*
X159856000Y-122926000D01*
X159856000Y-128026000D02*
X162216000Y-128026000D01*
D11*
X159261000Y-129726000D02*
G75*
G03*
X159261000Y-129726000I-100000J0D01*
G01*
D14*
X158486000Y-123226000D02*
X158486000Y-127726000D01*
X163586000Y-123226000D02*
X163586000Y-127726000D01*
D12*
X150874000Y-129088000D02*
X149414000Y-129088000D01*
X150874000Y-125928000D02*
X148714000Y-125928000D01*
X150874000Y-125928000D02*
X150874000Y-126858000D01*
X150874000Y-129088000D02*
X150874000Y-128158000D01*
X150874000Y-125278000D02*
X149414000Y-125278000D01*
X150874000Y-122118000D02*
X148714000Y-122118000D01*
X150874000Y-122118000D02*
X150874000Y-123048000D01*
X150874000Y-125278000D02*
X150874000Y-124348000D01*
X205749000Y-108874000D02*
X204419000Y-108874000D01*
X205749000Y-107544000D02*
X205749000Y-108874000D01*
X205749000Y-106274000D02*
X203089000Y-106274000D01*
X203089000Y-106274000D02*
X203089000Y-101134000D01*
X205749000Y-106274000D02*
X205749000Y-101134000D01*
X205749000Y-101134000D02*
X203089000Y-101134000D01*
X113732000Y-127321000D02*
X115062000Y-127321000D01*
X113732000Y-128651000D02*
X113732000Y-127321000D01*
X116332000Y-127321000D02*
X118932000Y-127321000D01*
X116332000Y-129921000D02*
X116332000Y-127321000D01*
X113732000Y-129921000D02*
X116332000Y-129921000D01*
X118932000Y-127321000D02*
X118932000Y-132521000D01*
X113732000Y-129921000D02*
X113732000Y-132521000D01*
X113732000Y-132521000D02*
X118932000Y-132521000D01*
X113732000Y-120717000D02*
X115062000Y-120717000D01*
X113732000Y-122047000D02*
X113732000Y-120717000D01*
X116332000Y-120717000D02*
X118932000Y-120717000D01*
X116332000Y-123317000D02*
X116332000Y-120717000D01*
X113732000Y-123317000D02*
X116332000Y-123317000D01*
X118932000Y-120717000D02*
X118932000Y-125917000D01*
X113732000Y-123317000D02*
X113732000Y-125917000D01*
X113732000Y-125917000D02*
X118932000Y-125917000D01*
X207518000Y-99568000D02*
X207518000Y-109728000D01*
X215138000Y-99568000D02*
X207518000Y-99568000D01*
X215138000Y-109728000D02*
X215138000Y-99568000D01*
X207518000Y-109728000D02*
X215138000Y-109728000D01*
X208788000Y-109728000D02*
X208788000Y-99568000D01*
X195164000Y-111700000D02*
X196494000Y-111700000D01*
X195164000Y-113030000D02*
X195164000Y-111700000D01*
X195164000Y-114300000D02*
X197824000Y-114300000D01*
X197824000Y-114300000D02*
X197824000Y-119440000D01*
X195164000Y-114300000D02*
X195164000Y-119440000D01*
X195164000Y-119440000D02*
X197824000Y-119440000D01*
D11*
X159064000Y-130788000D02*
X159064000Y-130788000D01*
X158864000Y-130788000D02*
X158864000Y-130788000D01*
D17*
X162564000Y-132088000D02*
X159564000Y-132088000D01*
X164064000Y-140788000D02*
X164064000Y-133588000D01*
X164064000Y-146588000D02*
X164064000Y-143488000D01*
X149314000Y-146588000D02*
X164064000Y-146588000D01*
X149314000Y-143488000D02*
X149314000Y-146588000D01*
X149314000Y-133588000D02*
X149314000Y-140788000D01*
D11*
X158864000Y-130788000D02*
G75*
G02*
X159064000Y-130788000I100000J0D01*
G01*
X159064000Y-130788000D02*
G75*
G02*
X158864000Y-130788000I-100000J0D01*
G01*
D12*
X121031000Y-119634000D02*
X121031000Y-109474000D01*
X113411000Y-119634000D02*
X121031000Y-119634000D01*
X113411000Y-109474000D02*
X113411000Y-119634000D01*
X121031000Y-109474000D02*
X113411000Y-109474000D01*
X119761000Y-109474000D02*
X119761000Y-119634000D01*
X191964000Y-81086000D02*
X191964000Y-79756000D01*
X193294000Y-81086000D02*
X191964000Y-81086000D01*
X194564000Y-81086000D02*
X194564000Y-78426000D01*
X194564000Y-78426000D02*
X202244000Y-78426000D01*
X194564000Y-81086000D02*
X202244000Y-81086000D01*
X202244000Y-81086000D02*
X202244000Y-78426000D01*
X169993000Y-81086000D02*
X169993000Y-79756000D01*
X171323000Y-81086000D02*
X169993000Y-81086000D01*
X172593000Y-81086000D02*
X172593000Y-78426000D01*
X172593000Y-78426000D02*
X180273000Y-78426000D01*
X172593000Y-81086000D02*
X180273000Y-81086000D01*
X180273000Y-81086000D02*
X180273000Y-78426000D01*
X148022000Y-81086000D02*
X148022000Y-79756000D01*
X149352000Y-81086000D02*
X148022000Y-81086000D01*
X150622000Y-81086000D02*
X150622000Y-78426000D01*
X150622000Y-78426000D02*
X158302000Y-78426000D01*
X150622000Y-81086000D02*
X158302000Y-81086000D01*
X158302000Y-81086000D02*
X158302000Y-78426000D01*
X126188000Y-81086000D02*
X126188000Y-79756000D01*
X127518000Y-81086000D02*
X126188000Y-81086000D01*
X128788000Y-81086000D02*
X128788000Y-78426000D01*
X128788000Y-78426000D02*
X136468000Y-78426000D01*
X128788000Y-81086000D02*
X136468000Y-81086000D01*
X136468000Y-81086000D02*
X136468000Y-78426000D01*
X116586000Y-88054000D02*
X116586000Y-90704000D01*
X116586000Y-105494000D02*
X116586000Y-102844000D01*
X114216000Y-90704000D02*
X114216000Y-102844000D01*
X118956000Y-90704000D02*
X114216000Y-90704000D01*
X118956000Y-102844000D02*
X118956000Y-90704000D01*
X114216000Y-102844000D02*
X118956000Y-102844000D01*
X158838000Y-118137000D02*
X156553000Y-118137000D01*
X158838000Y-119607000D02*
X158838000Y-118137000D01*
X156553000Y-119607000D02*
X158838000Y-119607000D01*
X126964000Y-111998000D02*
X123064000Y-111998000D01*
X126964000Y-109998000D02*
X123064000Y-109998000D01*
X126964000Y-111998000D02*
X126964000Y-109998000D01*
X134174000Y-128178000D02*
X136024000Y-128178000D01*
X134174000Y-129378000D02*
X136024000Y-129378000D01*
X136024000Y-129378000D02*
X136024000Y-128178000D01*
X134174000Y-126654000D02*
X136024000Y-126654000D01*
X134174000Y-127854000D02*
X136024000Y-127854000D01*
X136024000Y-127854000D02*
X136024000Y-126654000D01*
X132750000Y-144972000D02*
X132750000Y-143122000D01*
X133950000Y-144972000D02*
X133950000Y-143122000D01*
X133950000Y-143122000D02*
X132750000Y-143122000D01*
X125258000Y-143145000D02*
X129158000Y-143145000D01*
X125258000Y-145145000D02*
X129158000Y-145145000D01*
X125258000Y-143145000D02*
X125258000Y-145145000D01*
X143844000Y-101003000D02*
X143844000Y-102003000D01*
X143344000Y-101503000D02*
X144344000Y-101503000D01*
X144584000Y-107208563D02*
X145648437Y-108273000D01*
X144584000Y-100817437D02*
X145648437Y-99753000D01*
X144584000Y-100817437D02*
X144584000Y-102503000D01*
X144584000Y-107208563D02*
X144584000Y-105523000D01*
X145648437Y-108273000D02*
X153104000Y-108273000D01*
X145648437Y-99753000D02*
X153104000Y-99753000D01*
X153104000Y-99753000D02*
X153104000Y-102503000D01*
X153104000Y-108273000D02*
X153104000Y-105523000D01*
X193061000Y-129559164D02*
X193061000Y-129774836D01*
X193781000Y-129559164D02*
X193781000Y-129774836D01*
X193781000Y-134219836D02*
X193781000Y-134004164D01*
X193061000Y-134219836D02*
X193061000Y-134004164D01*
X193061000Y-136483164D02*
X193061000Y-136698836D01*
X193781000Y-136483164D02*
X193781000Y-136698836D01*
X193781000Y-140061836D02*
X193781000Y-139846164D01*
X193061000Y-140061836D02*
X193061000Y-139846164D01*
X148031252Y-118089000D02*
X146608748Y-118089000D01*
X148031252Y-119909000D02*
X146608748Y-119909000D01*
X159025000Y-112344252D02*
X159025000Y-110921748D01*
X157205000Y-112344252D02*
X157205000Y-110921748D01*
X124052000Y-115323252D02*
X124052000Y-114800748D01*
X122582000Y-115323252D02*
X122582000Y-114800748D01*
X126322000Y-115323252D02*
X126322000Y-114800748D01*
X124852000Y-115323252D02*
X124852000Y-114800748D01*
X128624000Y-115323252D02*
X128624000Y-114800748D01*
X127154000Y-115323252D02*
X127154000Y-114800748D01*
X192741250Y-86126250D02*
X191953750Y-86126250D01*
X192347500Y-85732500D02*
X192347500Y-86520000D01*
X188154437Y-86760000D02*
X187090000Y-87824437D01*
X192845563Y-86760000D02*
X193910000Y-87824437D01*
X192845563Y-86760000D02*
X191560000Y-86760000D01*
X188154437Y-86760000D02*
X189440000Y-86760000D01*
X187090000Y-87824437D02*
X187090000Y-93580000D01*
X193910000Y-87824437D02*
X193910000Y-93580000D01*
X193910000Y-93580000D02*
X191560000Y-93580000D01*
X187090000Y-93580000D02*
X189440000Y-93580000D01*
X170770250Y-86126250D02*
X169982750Y-86126250D01*
X170376500Y-85732500D02*
X170376500Y-86520000D01*
X166183437Y-86760000D02*
X165119000Y-87824437D01*
X170874563Y-86760000D02*
X171939000Y-87824437D01*
X170874563Y-86760000D02*
X169589000Y-86760000D01*
X166183437Y-86760000D02*
X167469000Y-86760000D01*
X165119000Y-87824437D02*
X165119000Y-93580000D01*
X171939000Y-87824437D02*
X171939000Y-93580000D01*
X171939000Y-93580000D02*
X169589000Y-93580000D01*
X165119000Y-93580000D02*
X167469000Y-93580000D01*
X148799250Y-85999250D02*
X148011750Y-85999250D01*
X148405500Y-85605500D02*
X148405500Y-86393000D01*
X144212437Y-86633000D02*
X143148000Y-87697437D01*
X148903563Y-86633000D02*
X149968000Y-87697437D01*
X148903563Y-86633000D02*
X147618000Y-86633000D01*
X144212437Y-86633000D02*
X145498000Y-86633000D01*
X143148000Y-87697437D02*
X143148000Y-93453000D01*
X149968000Y-87697437D02*
X149968000Y-93453000D01*
X149968000Y-93453000D02*
X147618000Y-93453000D01*
X143148000Y-93453000D02*
X145498000Y-93453000D01*
X201170000Y-142380580D02*
X201170000Y-142099420D01*
X200150000Y-142380580D02*
X200150000Y-142099420D01*
X198245000Y-142099420D02*
X198245000Y-142380580D01*
X199265000Y-142099420D02*
X199265000Y-142380580D01*
X164463000Y-125462420D02*
X164463000Y-125743580D01*
X165483000Y-125462420D02*
X165483000Y-125743580D01*
X126828250Y-86126250D02*
X126040750Y-86126250D01*
X126434500Y-85732500D02*
X126434500Y-86520000D01*
X122241437Y-86760000D02*
X121177000Y-87824437D01*
X126932563Y-86760000D02*
X127997000Y-87824437D01*
X126932563Y-86760000D02*
X125647000Y-86760000D01*
X122241437Y-86760000D02*
X123527000Y-86760000D01*
X121177000Y-87824437D02*
X121177000Y-93580000D01*
X127997000Y-87824437D02*
X127997000Y-93580000D01*
X127997000Y-93580000D02*
X125647000Y-93580000D01*
X121177000Y-93580000D02*
X123527000Y-93580000D01*
D16*
X183363095Y-153672380D02*
X183363095Y-154481904D01*
X183410714Y-154577142D01*
X183458333Y-154624761D01*
X183553571Y-154672380D01*
X183744047Y-154672380D01*
X183839285Y-154624761D01*
X183886904Y-154577142D01*
X183934523Y-154481904D01*
X183934523Y-153672380D01*
X184363095Y-153767619D02*
X184410714Y-153720000D01*
X184505952Y-153672380D01*
X184744047Y-153672380D01*
X184839285Y-153720000D01*
X184886904Y-153767619D01*
X184934523Y-153862857D01*
X184934523Y-153958095D01*
X184886904Y-154100952D01*
X184315476Y-154672380D01*
X184934523Y-154672380D01*
X116514571Y-98123333D02*
X116514571Y-98456666D01*
X117038380Y-98456666D02*
X116038380Y-98456666D01*
X116038380Y-97980476D01*
X117038380Y-97075714D02*
X117038380Y-97647142D01*
X117038380Y-97361428D02*
X116038380Y-97361428D01*
X116181238Y-97456666D01*
X116276476Y-97551904D01*
X116324095Y-97647142D01*
%LPC*%
D18*
X177882500Y-136260000D03*
X179717500Y-136260000D03*
X176965000Y-137177500D03*
X178800000Y-137177500D03*
X180635000Y-137177500D03*
X177882500Y-138095000D03*
X179717500Y-138095000D03*
X176965000Y-139012500D03*
X178800000Y-139012500D03*
X180635000Y-139012500D03*
X177882500Y-139930000D03*
X179717500Y-139930000D03*
D19*
X176965000Y-136260000D03*
X178800000Y-136260000D03*
X180635000Y-136260000D03*
X176965000Y-138095000D03*
X178800000Y-138095000D03*
X180635000Y-138095000D03*
X176965000Y-139930000D03*
X178800000Y-139930000D03*
X180635000Y-139930000D03*
D20*
X169300000Y-145595000D03*
X169300000Y-144325000D03*
X169300000Y-143055000D03*
X169300000Y-141785000D03*
X169300000Y-140515000D03*
X169300000Y-139245000D03*
X169300000Y-137975000D03*
X169300000Y-136705000D03*
X169300000Y-135435000D03*
X169300000Y-134165000D03*
X169300000Y-132895000D03*
X169300000Y-131625000D03*
X169300000Y-130355000D03*
X169300000Y-129085000D03*
D21*
X172085000Y-128085000D03*
X173355000Y-128085000D03*
X174625000Y-128085000D03*
X175895000Y-128085000D03*
X177165000Y-128085000D03*
X178435000Y-128085000D03*
X179705000Y-128085000D03*
X180975000Y-128085000D03*
X182245000Y-128085000D03*
X183515000Y-128085000D03*
D20*
X186300000Y-129085000D03*
X186300000Y-130355000D03*
X186300000Y-131625000D03*
X186300000Y-132895000D03*
X186300000Y-134165000D03*
X186300000Y-135435000D03*
X186300000Y-136705000D03*
X186300000Y-137975000D03*
X186300000Y-139245000D03*
X186300000Y-140515000D03*
X186300000Y-141785000D03*
X186300000Y-143055000D03*
X186300000Y-144325000D03*
X186300000Y-145595000D03*
G36*
G01*
X196465000Y-144455000D02*
X195965000Y-144455000D01*
G75*
G02*
X195740000Y-144230000I0J225000D01*
G01*
X195740000Y-143780000D01*
G75*
G02*
X195965000Y-143555000I225000J0D01*
G01*
X196465000Y-143555000D01*
G75*
G02*
X196690000Y-143780000I0J-225000D01*
G01*
X196690000Y-144230000D01*
G75*
G02*
X196465000Y-144455000I-225000J0D01*
G01*
G37*
G36*
G01*
X196465000Y-146005000D02*
X195965000Y-146005000D01*
G75*
G02*
X195740000Y-145780000I0J225000D01*
G01*
X195740000Y-145330000D01*
G75*
G02*
X195965000Y-145105000I225000J0D01*
G01*
X196465000Y-145105000D01*
G75*
G02*
X196690000Y-145330000I0J-225000D01*
G01*
X196690000Y-145780000D01*
G75*
G02*
X196465000Y-146005000I-225000J0D01*
G01*
G37*
G36*
G01*
X193925000Y-144455000D02*
X193425000Y-144455000D01*
G75*
G02*
X193200000Y-144230000I0J225000D01*
G01*
X193200000Y-143780000D01*
G75*
G02*
X193425000Y-143555000I225000J0D01*
G01*
X193925000Y-143555000D01*
G75*
G02*
X194150000Y-143780000I0J-225000D01*
G01*
X194150000Y-144230000D01*
G75*
G02*
X193925000Y-144455000I-225000J0D01*
G01*
G37*
G36*
G01*
X193925000Y-146005000D02*
X193425000Y-146005000D01*
G75*
G02*
X193200000Y-145780000I0J225000D01*
G01*
X193200000Y-145330000D01*
G75*
G02*
X193425000Y-145105000I225000J0D01*
G01*
X193925000Y-145105000D01*
G75*
G02*
X194150000Y-145330000I0J-225000D01*
G01*
X194150000Y-145780000D01*
G75*
G02*
X193925000Y-146005000I-225000J0D01*
G01*
G37*
D22*
X200508000Y-118110000D03*
X200508000Y-115570000D03*
D23*
X200508000Y-113030000D03*
D22*
X115062000Y-137414000D03*
X117602000Y-137414000D03*
D23*
X120142000Y-137414000D03*
D24*
X145105000Y-145826000D03*
X138105000Y-145826000D03*
D25*
X144505000Y-145826000D03*
X138705000Y-145826000D03*
D26*
X142605000Y-145826000D03*
X140605000Y-145826000D03*
D27*
X144105000Y-143126000D03*
X139105000Y-143126000D03*
D28*
X142905000Y-143126000D03*
X142255000Y-143126000D03*
X141605000Y-143126000D03*
X140955000Y-143126000D03*
X140305000Y-143126000D03*
G36*
G01*
X142724000Y-122578000D02*
X142724000Y-122278000D01*
G75*
G02*
X142874000Y-122128000I150000J0D01*
G01*
X144524000Y-122128000D01*
G75*
G02*
X144674000Y-122278000I0J-150000D01*
G01*
X144674000Y-122578000D01*
G75*
G02*
X144524000Y-122728000I-150000J0D01*
G01*
X142874000Y-122728000D01*
G75*
G02*
X142724000Y-122578000I0J150000D01*
G01*
G37*
G36*
G01*
X142724000Y-123848000D02*
X142724000Y-123548000D01*
G75*
G02*
X142874000Y-123398000I150000J0D01*
G01*
X144524000Y-123398000D01*
G75*
G02*
X144674000Y-123548000I0J-150000D01*
G01*
X144674000Y-123848000D01*
G75*
G02*
X144524000Y-123998000I-150000J0D01*
G01*
X142874000Y-123998000D01*
G75*
G02*
X142724000Y-123848000I0J150000D01*
G01*
G37*
G36*
G01*
X142724000Y-125118000D02*
X142724000Y-124818000D01*
G75*
G02*
X142874000Y-124668000I150000J0D01*
G01*
X144524000Y-124668000D01*
G75*
G02*
X144674000Y-124818000I0J-150000D01*
G01*
X144674000Y-125118000D01*
G75*
G02*
X144524000Y-125268000I-150000J0D01*
G01*
X142874000Y-125268000D01*
G75*
G02*
X142724000Y-125118000I0J150000D01*
G01*
G37*
G36*
G01*
X142724000Y-126388000D02*
X142724000Y-126088000D01*
G75*
G02*
X142874000Y-125938000I150000J0D01*
G01*
X144524000Y-125938000D01*
G75*
G02*
X144674000Y-126088000I0J-150000D01*
G01*
X144674000Y-126388000D01*
G75*
G02*
X144524000Y-126538000I-150000J0D01*
G01*
X142874000Y-126538000D01*
G75*
G02*
X142724000Y-126388000I0J150000D01*
G01*
G37*
G36*
G01*
X142724000Y-127658000D02*
X142724000Y-127358000D01*
G75*
G02*
X142874000Y-127208000I150000J0D01*
G01*
X144524000Y-127208000D01*
G75*
G02*
X144674000Y-127358000I0J-150000D01*
G01*
X144674000Y-127658000D01*
G75*
G02*
X144524000Y-127808000I-150000J0D01*
G01*
X142874000Y-127808000D01*
G75*
G02*
X142724000Y-127658000I0J150000D01*
G01*
G37*
G36*
G01*
X142724000Y-128928000D02*
X142724000Y-128628000D01*
G75*
G02*
X142874000Y-128478000I150000J0D01*
G01*
X144524000Y-128478000D01*
G75*
G02*
X144674000Y-128628000I0J-150000D01*
G01*
X144674000Y-128928000D01*
G75*
G02*
X144524000Y-129078000I-150000J0D01*
G01*
X142874000Y-129078000D01*
G75*
G02*
X142724000Y-128928000I0J150000D01*
G01*
G37*
G36*
G01*
X142724000Y-130198000D02*
X142724000Y-129898000D01*
G75*
G02*
X142874000Y-129748000I150000J0D01*
G01*
X144524000Y-129748000D01*
G75*
G02*
X144674000Y-129898000I0J-150000D01*
G01*
X144674000Y-130198000D01*
G75*
G02*
X144524000Y-130348000I-150000J0D01*
G01*
X142874000Y-130348000D01*
G75*
G02*
X142724000Y-130198000I0J150000D01*
G01*
G37*
G36*
G01*
X142724000Y-131468000D02*
X142724000Y-131168000D01*
G75*
G02*
X142874000Y-131018000I150000J0D01*
G01*
X144524000Y-131018000D01*
G75*
G02*
X144674000Y-131168000I0J-150000D01*
G01*
X144674000Y-131468000D01*
G75*
G02*
X144524000Y-131618000I-150000J0D01*
G01*
X142874000Y-131618000D01*
G75*
G02*
X142724000Y-131468000I0J150000D01*
G01*
G37*
G36*
G01*
X137774000Y-131468000D02*
X137774000Y-131168000D01*
G75*
G02*
X137924000Y-131018000I150000J0D01*
G01*
X139574000Y-131018000D01*
G75*
G02*
X139724000Y-131168000I0J-150000D01*
G01*
X139724000Y-131468000D01*
G75*
G02*
X139574000Y-131618000I-150000J0D01*
G01*
X137924000Y-131618000D01*
G75*
G02*
X137774000Y-131468000I0J150000D01*
G01*
G37*
G36*
G01*
X137774000Y-130198000D02*
X137774000Y-129898000D01*
G75*
G02*
X137924000Y-129748000I150000J0D01*
G01*
X139574000Y-129748000D01*
G75*
G02*
X139724000Y-129898000I0J-150000D01*
G01*
X139724000Y-130198000D01*
G75*
G02*
X139574000Y-130348000I-150000J0D01*
G01*
X137924000Y-130348000D01*
G75*
G02*
X137774000Y-130198000I0J150000D01*
G01*
G37*
G36*
G01*
X137774000Y-128928000D02*
X137774000Y-128628000D01*
G75*
G02*
X137924000Y-128478000I150000J0D01*
G01*
X139574000Y-128478000D01*
G75*
G02*
X139724000Y-128628000I0J-150000D01*
G01*
X139724000Y-128928000D01*
G75*
G02*
X139574000Y-129078000I-150000J0D01*
G01*
X137924000Y-129078000D01*
G75*
G02*
X137774000Y-128928000I0J150000D01*
G01*
G37*
G36*
G01*
X137774000Y-127658000D02*
X137774000Y-127358000D01*
G75*
G02*
X137924000Y-127208000I150000J0D01*
G01*
X139574000Y-127208000D01*
G75*
G02*
X139724000Y-127358000I0J-150000D01*
G01*
X139724000Y-127658000D01*
G75*
G02*
X139574000Y-127808000I-150000J0D01*
G01*
X137924000Y-127808000D01*
G75*
G02*
X137774000Y-127658000I0J150000D01*
G01*
G37*
G36*
G01*
X137774000Y-126388000D02*
X137774000Y-126088000D01*
G75*
G02*
X137924000Y-125938000I150000J0D01*
G01*
X139574000Y-125938000D01*
G75*
G02*
X139724000Y-126088000I0J-150000D01*
G01*
X139724000Y-126388000D01*
G75*
G02*
X139574000Y-126538000I-150000J0D01*
G01*
X137924000Y-126538000D01*
G75*
G02*
X137774000Y-126388000I0J150000D01*
G01*
G37*
G36*
G01*
X137774000Y-125118000D02*
X137774000Y-124818000D01*
G75*
G02*
X137924000Y-124668000I150000J0D01*
G01*
X139574000Y-124668000D01*
G75*
G02*
X139724000Y-124818000I0J-150000D01*
G01*
X139724000Y-125118000D01*
G75*
G02*
X139574000Y-125268000I-150000J0D01*
G01*
X137924000Y-125268000D01*
G75*
G02*
X137774000Y-125118000I0J150000D01*
G01*
G37*
G36*
G01*
X137774000Y-123848000D02*
X137774000Y-123548000D01*
G75*
G02*
X137924000Y-123398000I150000J0D01*
G01*
X139574000Y-123398000D01*
G75*
G02*
X139724000Y-123548000I0J-150000D01*
G01*
X139724000Y-123848000D01*
G75*
G02*
X139574000Y-123998000I-150000J0D01*
G01*
X137924000Y-123998000D01*
G75*
G02*
X137774000Y-123848000I0J150000D01*
G01*
G37*
G36*
G01*
X137774000Y-122578000D02*
X137774000Y-122278000D01*
G75*
G02*
X137924000Y-122128000I150000J0D01*
G01*
X139574000Y-122128000D01*
G75*
G02*
X139724000Y-122278000I0J-150000D01*
G01*
X139724000Y-122578000D01*
G75*
G02*
X139574000Y-122728000I-150000J0D01*
G01*
X137924000Y-122728000D01*
G75*
G02*
X137774000Y-122578000I0J150000D01*
G01*
G37*
D29*
X136330000Y-136017000D03*
X127830000Y-136017000D03*
G36*
G01*
X129355002Y-128886000D02*
X128454998Y-128886000D01*
G75*
G02*
X128205000Y-128636002I0J249998D01*
G01*
X128205000Y-128110998D01*
G75*
G02*
X128454998Y-127861000I249998J0D01*
G01*
X129355002Y-127861000D01*
G75*
G02*
X129605000Y-128110998I0J-249998D01*
G01*
X129605000Y-128636002D01*
G75*
G02*
X129355002Y-128886000I-249998J0D01*
G01*
G37*
G36*
G01*
X129355002Y-130711000D02*
X128454998Y-130711000D01*
G75*
G02*
X128205000Y-130461002I0J249998D01*
G01*
X128205000Y-129935998D01*
G75*
G02*
X128454998Y-129686000I249998J0D01*
G01*
X129355002Y-129686000D01*
G75*
G02*
X129605000Y-129935998I0J-249998D01*
G01*
X129605000Y-130461002D01*
G75*
G02*
X129355002Y-130711000I-249998J0D01*
G01*
G37*
G36*
G01*
X126561002Y-128886000D02*
X125660998Y-128886000D01*
G75*
G02*
X125411000Y-128636002I0J249998D01*
G01*
X125411000Y-128110998D01*
G75*
G02*
X125660998Y-127861000I249998J0D01*
G01*
X126561002Y-127861000D01*
G75*
G02*
X126811000Y-128110998I0J-249998D01*
G01*
X126811000Y-128636002D01*
G75*
G02*
X126561002Y-128886000I-249998J0D01*
G01*
G37*
G36*
G01*
X126561002Y-130711000D02*
X125660998Y-130711000D01*
G75*
G02*
X125411000Y-130461002I0J249998D01*
G01*
X125411000Y-129935998D01*
G75*
G02*
X125660998Y-129686000I249998J0D01*
G01*
X126561002Y-129686000D01*
G75*
G02*
X126811000Y-129935998I0J-249998D01*
G01*
X126811000Y-130461002D01*
G75*
G02*
X126561002Y-130711000I-249998J0D01*
G01*
G37*
G36*
G01*
X130460000Y-123695750D02*
X130460000Y-124208250D01*
G75*
G02*
X130241250Y-124427000I-218750J0D01*
G01*
X129803750Y-124427000D01*
G75*
G02*
X129585000Y-124208250I0J218750D01*
G01*
X129585000Y-123695750D01*
G75*
G02*
X129803750Y-123477000I218750J0D01*
G01*
X130241250Y-123477000D01*
G75*
G02*
X130460000Y-123695750I0J-218750D01*
G01*
G37*
G36*
G01*
X132035000Y-123695750D02*
X132035000Y-124208250D01*
G75*
G02*
X131816250Y-124427000I-218750J0D01*
G01*
X131378750Y-124427000D01*
G75*
G02*
X131160000Y-124208250I0J218750D01*
G01*
X131160000Y-123695750D01*
G75*
G02*
X131378750Y-123477000I218750J0D01*
G01*
X131816250Y-123477000D01*
G75*
G02*
X132035000Y-123695750I0J-218750D01*
G01*
G37*
G36*
G01*
X130460000Y-121663750D02*
X130460000Y-122176250D01*
G75*
G02*
X130241250Y-122395000I-218750J0D01*
G01*
X129803750Y-122395000D01*
G75*
G02*
X129585000Y-122176250I0J218750D01*
G01*
X129585000Y-121663750D01*
G75*
G02*
X129803750Y-121445000I218750J0D01*
G01*
X130241250Y-121445000D01*
G75*
G02*
X130460000Y-121663750I0J-218750D01*
G01*
G37*
G36*
G01*
X132035000Y-121663750D02*
X132035000Y-122176250D01*
G75*
G02*
X131816250Y-122395000I-218750J0D01*
G01*
X131378750Y-122395000D01*
G75*
G02*
X131160000Y-122176250I0J218750D01*
G01*
X131160000Y-121663750D01*
G75*
G02*
X131378750Y-121445000I218750J0D01*
G01*
X131816250Y-121445000D01*
G75*
G02*
X132035000Y-121663750I0J-218750D01*
G01*
G37*
G36*
G01*
X142423000Y-119892000D02*
X142423000Y-120392000D01*
G75*
G02*
X142198000Y-120617000I-225000J0D01*
G01*
X141748000Y-120617000D01*
G75*
G02*
X141523000Y-120392000I0J225000D01*
G01*
X141523000Y-119892000D01*
G75*
G02*
X141748000Y-119667000I225000J0D01*
G01*
X142198000Y-119667000D01*
G75*
G02*
X142423000Y-119892000I0J-225000D01*
G01*
G37*
G36*
G01*
X143973000Y-119892000D02*
X143973000Y-120392000D01*
G75*
G02*
X143748000Y-120617000I-225000J0D01*
G01*
X143298000Y-120617000D01*
G75*
G02*
X143073000Y-120392000I0J225000D01*
G01*
X143073000Y-119892000D01*
G75*
G02*
X143298000Y-119667000I225000J0D01*
G01*
X143748000Y-119667000D01*
G75*
G02*
X143973000Y-119892000I0J-225000D01*
G01*
G37*
G36*
G01*
X135326000Y-140077000D02*
X135326000Y-139577000D01*
G75*
G02*
X135551000Y-139352000I225000J0D01*
G01*
X136001000Y-139352000D01*
G75*
G02*
X136226000Y-139577000I0J-225000D01*
G01*
X136226000Y-140077000D01*
G75*
G02*
X136001000Y-140302000I-225000J0D01*
G01*
X135551000Y-140302000D01*
G75*
G02*
X135326000Y-140077000I0J225000D01*
G01*
G37*
G36*
G01*
X133776000Y-140077000D02*
X133776000Y-139577000D01*
G75*
G02*
X134001000Y-139352000I225000J0D01*
G01*
X134451000Y-139352000D01*
G75*
G02*
X134676000Y-139577000I0J-225000D01*
G01*
X134676000Y-140077000D01*
G75*
G02*
X134451000Y-140302000I-225000J0D01*
G01*
X134001000Y-140302000D01*
G75*
G02*
X133776000Y-140077000I0J225000D01*
G01*
G37*
G36*
G01*
X127198000Y-140077000D02*
X127198000Y-139577000D01*
G75*
G02*
X127423000Y-139352000I225000J0D01*
G01*
X127873000Y-139352000D01*
G75*
G02*
X128098000Y-139577000I0J-225000D01*
G01*
X128098000Y-140077000D01*
G75*
G02*
X127873000Y-140302000I-225000J0D01*
G01*
X127423000Y-140302000D01*
G75*
G02*
X127198000Y-140077000I0J225000D01*
G01*
G37*
G36*
G01*
X125648000Y-140077000D02*
X125648000Y-139577000D01*
G75*
G02*
X125873000Y-139352000I225000J0D01*
G01*
X126323000Y-139352000D01*
G75*
G02*
X126548000Y-139577000I0J-225000D01*
G01*
X126548000Y-140077000D01*
G75*
G02*
X126323000Y-140302000I-225000J0D01*
G01*
X125873000Y-140302000D01*
G75*
G02*
X125648000Y-140077000I0J225000D01*
G01*
G37*
G36*
G01*
X143760000Y-113721000D02*
X143260000Y-113721000D01*
G75*
G02*
X143035000Y-113496000I0J225000D01*
G01*
X143035000Y-113046000D01*
G75*
G02*
X143260000Y-112821000I225000J0D01*
G01*
X143760000Y-112821000D01*
G75*
G02*
X143985000Y-113046000I0J-225000D01*
G01*
X143985000Y-113496000D01*
G75*
G02*
X143760000Y-113721000I-225000J0D01*
G01*
G37*
G36*
G01*
X143760000Y-115271000D02*
X143260000Y-115271000D01*
G75*
G02*
X143035000Y-115046000I0J225000D01*
G01*
X143035000Y-114596000D01*
G75*
G02*
X143260000Y-114371000I225000J0D01*
G01*
X143760000Y-114371000D01*
G75*
G02*
X143985000Y-114596000I0J-225000D01*
G01*
X143985000Y-115046000D01*
G75*
G02*
X143760000Y-115271000I-225000J0D01*
G01*
G37*
G36*
G01*
X195982000Y-139656000D02*
X195432000Y-139656000D01*
G75*
G02*
X195232000Y-139456000I0J200000D01*
G01*
X195232000Y-139056000D01*
G75*
G02*
X195432000Y-138856000I200000J0D01*
G01*
X195982000Y-138856000D01*
G75*
G02*
X196182000Y-139056000I0J-200000D01*
G01*
X196182000Y-139456000D01*
G75*
G02*
X195982000Y-139656000I-200000J0D01*
G01*
G37*
G36*
G01*
X195982000Y-141306000D02*
X195432000Y-141306000D01*
G75*
G02*
X195232000Y-141106000I0J200000D01*
G01*
X195232000Y-140706000D01*
G75*
G02*
X195432000Y-140506000I200000J0D01*
G01*
X195982000Y-140506000D01*
G75*
G02*
X196182000Y-140706000I0J-200000D01*
G01*
X196182000Y-141106000D01*
G75*
G02*
X195982000Y-141306000I-200000J0D01*
G01*
G37*
G36*
G01*
X195432000Y-130092000D02*
X195982000Y-130092000D01*
G75*
G02*
X196182000Y-130292000I0J-200000D01*
G01*
X196182000Y-130692000D01*
G75*
G02*
X195982000Y-130892000I-200000J0D01*
G01*
X195432000Y-130892000D01*
G75*
G02*
X195232000Y-130692000I0J200000D01*
G01*
X195232000Y-130292000D01*
G75*
G02*
X195432000Y-130092000I200000J0D01*
G01*
G37*
G36*
G01*
X195432000Y-128442000D02*
X195982000Y-128442000D01*
G75*
G02*
X196182000Y-128642000I0J-200000D01*
G01*
X196182000Y-129042000D01*
G75*
G02*
X195982000Y-129242000I-200000J0D01*
G01*
X195432000Y-129242000D01*
G75*
G02*
X195232000Y-129042000I0J200000D01*
G01*
X195232000Y-128642000D01*
G75*
G02*
X195432000Y-128442000I200000J0D01*
G01*
G37*
G36*
G01*
X195982000Y-133052000D02*
X195432000Y-133052000D01*
G75*
G02*
X195232000Y-132852000I0J200000D01*
G01*
X195232000Y-132452000D01*
G75*
G02*
X195432000Y-132252000I200000J0D01*
G01*
X195982000Y-132252000D01*
G75*
G02*
X196182000Y-132452000I0J-200000D01*
G01*
X196182000Y-132852000D01*
G75*
G02*
X195982000Y-133052000I-200000J0D01*
G01*
G37*
G36*
G01*
X195982000Y-134702000D02*
X195432000Y-134702000D01*
G75*
G02*
X195232000Y-134502000I0J200000D01*
G01*
X195232000Y-134102000D01*
G75*
G02*
X195432000Y-133902000I200000J0D01*
G01*
X195982000Y-133902000D01*
G75*
G02*
X196182000Y-134102000I0J-200000D01*
G01*
X196182000Y-134502000D01*
G75*
G02*
X195982000Y-134702000I-200000J0D01*
G01*
G37*
G36*
G01*
X195432000Y-137204000D02*
X195982000Y-137204000D01*
G75*
G02*
X196182000Y-137404000I0J-200000D01*
G01*
X196182000Y-137804000D01*
G75*
G02*
X195982000Y-138004000I-200000J0D01*
G01*
X195432000Y-138004000D01*
G75*
G02*
X195232000Y-137804000I0J200000D01*
G01*
X195232000Y-137404000D01*
G75*
G02*
X195432000Y-137204000I200000J0D01*
G01*
G37*
G36*
G01*
X195432000Y-135554000D02*
X195982000Y-135554000D01*
G75*
G02*
X196182000Y-135754000I0J-200000D01*
G01*
X196182000Y-136154000D01*
G75*
G02*
X195982000Y-136354000I-200000J0D01*
G01*
X195432000Y-136354000D01*
G75*
G02*
X195232000Y-136154000I0J200000D01*
G01*
X195232000Y-135754000D01*
G75*
G02*
X195432000Y-135554000I200000J0D01*
G01*
G37*
G36*
G01*
X200298000Y-129101002D02*
X200298000Y-128200998D01*
G75*
G02*
X200547998Y-127951000I249998J0D01*
G01*
X201073002Y-127951000D01*
G75*
G02*
X201323000Y-128200998I0J-249998D01*
G01*
X201323000Y-129101002D01*
G75*
G02*
X201073002Y-129351000I-249998J0D01*
G01*
X200547998Y-129351000D01*
G75*
G02*
X200298000Y-129101002I0J249998D01*
G01*
G37*
G36*
G01*
X198473000Y-129101002D02*
X198473000Y-128200998D01*
G75*
G02*
X198722998Y-127951000I249998J0D01*
G01*
X199248002Y-127951000D01*
G75*
G02*
X199498000Y-128200998I0J-249998D01*
G01*
X199498000Y-129101002D01*
G75*
G02*
X199248002Y-129351000I-249998J0D01*
G01*
X198722998Y-129351000D01*
G75*
G02*
X198473000Y-129101002I0J249998D01*
G01*
G37*
G36*
G01*
X200044000Y-135705002D02*
X200044000Y-134804998D01*
G75*
G02*
X200293998Y-134555000I249998J0D01*
G01*
X200819002Y-134555000D01*
G75*
G02*
X201069000Y-134804998I0J-249998D01*
G01*
X201069000Y-135705002D01*
G75*
G02*
X200819002Y-135955000I-249998J0D01*
G01*
X200293998Y-135955000D01*
G75*
G02*
X200044000Y-135705002I0J249998D01*
G01*
G37*
G36*
G01*
X198219000Y-135705002D02*
X198219000Y-134804998D01*
G75*
G02*
X198468998Y-134555000I249998J0D01*
G01*
X198994002Y-134555000D01*
G75*
G02*
X199244000Y-134804998I0J-249998D01*
G01*
X199244000Y-135705002D01*
G75*
G02*
X198994002Y-135955000I-249998J0D01*
G01*
X198468998Y-135955000D01*
G75*
G02*
X198219000Y-135705002I0J249998D01*
G01*
G37*
G36*
G01*
X200044000Y-133419002D02*
X200044000Y-132518998D01*
G75*
G02*
X200293998Y-132269000I249998J0D01*
G01*
X200819002Y-132269000D01*
G75*
G02*
X201069000Y-132518998I0J-249998D01*
G01*
X201069000Y-133419002D01*
G75*
G02*
X200819002Y-133669000I-249998J0D01*
G01*
X200293998Y-133669000D01*
G75*
G02*
X200044000Y-133419002I0J249998D01*
G01*
G37*
G36*
G01*
X198219000Y-133419002D02*
X198219000Y-132518998D01*
G75*
G02*
X198468998Y-132269000I249998J0D01*
G01*
X198994002Y-132269000D01*
G75*
G02*
X199244000Y-132518998I0J-249998D01*
G01*
X199244000Y-133419002D01*
G75*
G02*
X198994002Y-133669000I-249998J0D01*
G01*
X198468998Y-133669000D01*
G75*
G02*
X198219000Y-133419002I0J249998D01*
G01*
G37*
G36*
G01*
X200044000Y-139007002D02*
X200044000Y-138106998D01*
G75*
G02*
X200293998Y-137857000I249998J0D01*
G01*
X200819002Y-137857000D01*
G75*
G02*
X201069000Y-138106998I0J-249998D01*
G01*
X201069000Y-139007002D01*
G75*
G02*
X200819002Y-139257000I-249998J0D01*
G01*
X200293998Y-139257000D01*
G75*
G02*
X200044000Y-139007002I0J249998D01*
G01*
G37*
G36*
G01*
X198219000Y-139007002D02*
X198219000Y-138106998D01*
G75*
G02*
X198468998Y-137857000I249998J0D01*
G01*
X198994002Y-137857000D01*
G75*
G02*
X199244000Y-138106998I0J-249998D01*
G01*
X199244000Y-139007002D01*
G75*
G02*
X198994002Y-139257000I-249998J0D01*
G01*
X198468998Y-139257000D01*
G75*
G02*
X198219000Y-139007002I0J249998D01*
G01*
G37*
G36*
G01*
X166518000Y-120987000D02*
X165968000Y-120987000D01*
G75*
G02*
X165768000Y-120787000I0J200000D01*
G01*
X165768000Y-120387000D01*
G75*
G02*
X165968000Y-120187000I200000J0D01*
G01*
X166518000Y-120187000D01*
G75*
G02*
X166718000Y-120387000I0J-200000D01*
G01*
X166718000Y-120787000D01*
G75*
G02*
X166518000Y-120987000I-200000J0D01*
G01*
G37*
G36*
G01*
X166518000Y-122637000D02*
X165968000Y-122637000D01*
G75*
G02*
X165768000Y-122437000I0J200000D01*
G01*
X165768000Y-122037000D01*
G75*
G02*
X165968000Y-121837000I200000J0D01*
G01*
X166518000Y-121837000D01*
G75*
G02*
X166718000Y-122037000I0J-200000D01*
G01*
X166718000Y-122437000D01*
G75*
G02*
X166518000Y-122637000I-200000J0D01*
G01*
G37*
G36*
G01*
X152673000Y-119195002D02*
X152673000Y-118294998D01*
G75*
G02*
X152922998Y-118045000I249998J0D01*
G01*
X153448002Y-118045000D01*
G75*
G02*
X153698000Y-118294998I0J-249998D01*
G01*
X153698000Y-119195002D01*
G75*
G02*
X153448002Y-119445000I-249998J0D01*
G01*
X152922998Y-119445000D01*
G75*
G02*
X152673000Y-119195002I0J249998D01*
G01*
G37*
G36*
G01*
X150848000Y-119195002D02*
X150848000Y-118294998D01*
G75*
G02*
X151097998Y-118045000I249998J0D01*
G01*
X151623002Y-118045000D01*
G75*
G02*
X151873000Y-118294998I0J-249998D01*
G01*
X151873000Y-119195002D01*
G75*
G02*
X151623002Y-119445000I-249998J0D01*
G01*
X151097998Y-119445000D01*
G75*
G02*
X150848000Y-119195002I0J249998D01*
G01*
G37*
G36*
G01*
X195472000Y-92435000D02*
X195472000Y-92985000D01*
G75*
G02*
X195272000Y-93185000I-200000J0D01*
G01*
X194872000Y-93185000D01*
G75*
G02*
X194672000Y-92985000I0J200000D01*
G01*
X194672000Y-92435000D01*
G75*
G02*
X194872000Y-92235000I200000J0D01*
G01*
X195272000Y-92235000D01*
G75*
G02*
X195472000Y-92435000I0J-200000D01*
G01*
G37*
G36*
G01*
X197122000Y-92435000D02*
X197122000Y-92985000D01*
G75*
G02*
X196922000Y-93185000I-200000J0D01*
G01*
X196522000Y-93185000D01*
G75*
G02*
X196322000Y-92985000I0J200000D01*
G01*
X196322000Y-92435000D01*
G75*
G02*
X196522000Y-92235000I200000J0D01*
G01*
X196922000Y-92235000D01*
G75*
G02*
X197122000Y-92435000I0J-200000D01*
G01*
G37*
G36*
G01*
X139642002Y-117456000D02*
X138741998Y-117456000D01*
G75*
G02*
X138492000Y-117206002I0J249998D01*
G01*
X138492000Y-116680998D01*
G75*
G02*
X138741998Y-116431000I249998J0D01*
G01*
X139642002Y-116431000D01*
G75*
G02*
X139892000Y-116680998I0J-249998D01*
G01*
X139892000Y-117206002D01*
G75*
G02*
X139642002Y-117456000I-249998J0D01*
G01*
G37*
G36*
G01*
X139642002Y-119281000D02*
X138741998Y-119281000D01*
G75*
G02*
X138492000Y-119031002I0J249998D01*
G01*
X138492000Y-118505998D01*
G75*
G02*
X138741998Y-118256000I249998J0D01*
G01*
X139642002Y-118256000D01*
G75*
G02*
X139892000Y-118505998I0J-249998D01*
G01*
X139892000Y-119031002D01*
G75*
G02*
X139642002Y-119281000I-249998J0D01*
G01*
G37*
G36*
G01*
X140646998Y-114319000D02*
X141547002Y-114319000D01*
G75*
G02*
X141797000Y-114568998I0J-249998D01*
G01*
X141797000Y-115094002D01*
G75*
G02*
X141547002Y-115344000I-249998J0D01*
G01*
X140646998Y-115344000D01*
G75*
G02*
X140397000Y-115094002I0J249998D01*
G01*
X140397000Y-114568998D01*
G75*
G02*
X140646998Y-114319000I249998J0D01*
G01*
G37*
G36*
G01*
X140646998Y-112494000D02*
X141547002Y-112494000D01*
G75*
G02*
X141797000Y-112743998I0J-249998D01*
G01*
X141797000Y-113269002D01*
G75*
G02*
X141547002Y-113519000I-249998J0D01*
G01*
X140646998Y-113519000D01*
G75*
G02*
X140397000Y-113269002I0J249998D01*
G01*
X140397000Y-112743998D01*
G75*
G02*
X140646998Y-112494000I249998J0D01*
G01*
G37*
G36*
G01*
X153727998Y-123590000D02*
X154628002Y-123590000D01*
G75*
G02*
X154878000Y-123839998I0J-249998D01*
G01*
X154878000Y-124365002D01*
G75*
G02*
X154628002Y-124615000I-249998J0D01*
G01*
X153727998Y-124615000D01*
G75*
G02*
X153478000Y-124365002I0J249998D01*
G01*
X153478000Y-123839998D01*
G75*
G02*
X153727998Y-123590000I249998J0D01*
G01*
G37*
G36*
G01*
X153727998Y-121765000D02*
X154628002Y-121765000D01*
G75*
G02*
X154878000Y-122014998I0J-249998D01*
G01*
X154878000Y-122540002D01*
G75*
G02*
X154628002Y-122790000I-249998J0D01*
G01*
X153727998Y-122790000D01*
G75*
G02*
X153478000Y-122540002I0J249998D01*
G01*
X153478000Y-122014998D01*
G75*
G02*
X153727998Y-121765000I249998J0D01*
G01*
G37*
G36*
G01*
X147516002Y-125330000D02*
X146615998Y-125330000D01*
G75*
G02*
X146366000Y-125080002I0J249998D01*
G01*
X146366000Y-124554998D01*
G75*
G02*
X146615998Y-124305000I249998J0D01*
G01*
X147516002Y-124305000D01*
G75*
G02*
X147766000Y-124554998I0J-249998D01*
G01*
X147766000Y-125080002D01*
G75*
G02*
X147516002Y-125330000I-249998J0D01*
G01*
G37*
G36*
G01*
X147516002Y-127155000D02*
X146615998Y-127155000D01*
G75*
G02*
X146366000Y-126905002I0J249998D01*
G01*
X146366000Y-126379998D01*
G75*
G02*
X146615998Y-126130000I249998J0D01*
G01*
X147516002Y-126130000D01*
G75*
G02*
X147766000Y-126379998I0J-249998D01*
G01*
X147766000Y-126905002D01*
G75*
G02*
X147516002Y-127155000I-249998J0D01*
G01*
G37*
G36*
G01*
X173565000Y-92562000D02*
X173565000Y-93112000D01*
G75*
G02*
X173365000Y-93312000I-200000J0D01*
G01*
X172965000Y-93312000D01*
G75*
G02*
X172765000Y-93112000I0J200000D01*
G01*
X172765000Y-92562000D01*
G75*
G02*
X172965000Y-92362000I200000J0D01*
G01*
X173365000Y-92362000D01*
G75*
G02*
X173565000Y-92562000I0J-200000D01*
G01*
G37*
G36*
G01*
X175215000Y-92562000D02*
X175215000Y-93112000D01*
G75*
G02*
X175015000Y-93312000I-200000J0D01*
G01*
X174615000Y-93312000D01*
G75*
G02*
X174415000Y-93112000I0J200000D01*
G01*
X174415000Y-92562000D01*
G75*
G02*
X174615000Y-92362000I200000J0D01*
G01*
X175015000Y-92362000D01*
G75*
G02*
X175215000Y-92562000I0J-200000D01*
G01*
G37*
G36*
G01*
X151911000Y-92562000D02*
X151911000Y-93112000D01*
G75*
G02*
X151711000Y-93312000I-200000J0D01*
G01*
X151311000Y-93312000D01*
G75*
G02*
X151111000Y-93112000I0J200000D01*
G01*
X151111000Y-92562000D01*
G75*
G02*
X151311000Y-92362000I200000J0D01*
G01*
X151711000Y-92362000D01*
G75*
G02*
X151911000Y-92562000I0J-200000D01*
G01*
G37*
G36*
G01*
X153561000Y-92562000D02*
X153561000Y-93112000D01*
G75*
G02*
X153361000Y-93312000I-200000J0D01*
G01*
X152961000Y-93312000D01*
G75*
G02*
X152761000Y-93112000I0J200000D01*
G01*
X152761000Y-92562000D01*
G75*
G02*
X152961000Y-92362000I200000J0D01*
G01*
X153361000Y-92362000D01*
G75*
G02*
X153561000Y-92562000I0J-200000D01*
G01*
G37*
G36*
G01*
X190950002Y-142475000D02*
X190049998Y-142475000D01*
G75*
G02*
X189800000Y-142225002I0J249998D01*
G01*
X189800000Y-141699998D01*
G75*
G02*
X190049998Y-141450000I249998J0D01*
G01*
X190950002Y-141450000D01*
G75*
G02*
X191200000Y-141699998I0J-249998D01*
G01*
X191200000Y-142225002D01*
G75*
G02*
X190950002Y-142475000I-249998J0D01*
G01*
G37*
G36*
G01*
X190950002Y-144300000D02*
X190049998Y-144300000D01*
G75*
G02*
X189800000Y-144050002I0J249998D01*
G01*
X189800000Y-143524998D01*
G75*
G02*
X190049998Y-143275000I249998J0D01*
G01*
X190950002Y-143275000D01*
G75*
G02*
X191200000Y-143524998I0J-249998D01*
G01*
X191200000Y-144050002D01*
G75*
G02*
X190950002Y-144300000I-249998J0D01*
G01*
G37*
G36*
G01*
X129877000Y-92689000D02*
X129877000Y-93239000D01*
G75*
G02*
X129677000Y-93439000I-200000J0D01*
G01*
X129277000Y-93439000D01*
G75*
G02*
X129077000Y-93239000I0J200000D01*
G01*
X129077000Y-92689000D01*
G75*
G02*
X129277000Y-92489000I200000J0D01*
G01*
X129677000Y-92489000D01*
G75*
G02*
X129877000Y-92689000I0J-200000D01*
G01*
G37*
G36*
G01*
X131527000Y-92689000D02*
X131527000Y-93239000D01*
G75*
G02*
X131327000Y-93439000I-200000J0D01*
G01*
X130927000Y-93439000D01*
G75*
G02*
X130727000Y-93239000I0J200000D01*
G01*
X130727000Y-92689000D01*
G75*
G02*
X130927000Y-92489000I200000J0D01*
G01*
X131327000Y-92489000D01*
G75*
G02*
X131527000Y-92689000I0J-200000D01*
G01*
G37*
G36*
G01*
X138247000Y-107810000D02*
X138247000Y-103010000D01*
G75*
G02*
X138547000Y-102710000I300000J0D01*
G01*
X140947000Y-102710000D01*
G75*
G02*
X141247000Y-103010000I0J-300000D01*
G01*
X141247000Y-107810000D01*
G75*
G02*
X140947000Y-108110000I-300000J0D01*
G01*
X138547000Y-108110000D01*
G75*
G02*
X138247000Y-107810000I0J300000D01*
G01*
G37*
G36*
G01*
X128247000Y-107810000D02*
X128247000Y-103010000D01*
G75*
G02*
X128547000Y-102710000I300000J0D01*
G01*
X130947000Y-102710000D01*
G75*
G02*
X131247000Y-103010000I0J-300000D01*
G01*
X131247000Y-107810000D01*
G75*
G02*
X130947000Y-108110000I-300000J0D01*
G01*
X128547000Y-108110000D01*
G75*
G02*
X128247000Y-107810000I0J300000D01*
G01*
G37*
D22*
X210566000Y-127000000D03*
X213106000Y-127000000D03*
X210566000Y-129540000D03*
X213106000Y-129540000D03*
X210566000Y-132080000D03*
X213106000Y-132080000D03*
X210566000Y-134620000D03*
D23*
X213106000Y-134620000D03*
D22*
X210566000Y-112522000D03*
X213106000Y-112522000D03*
X210566000Y-115062000D03*
X213106000Y-115062000D03*
X210566000Y-117602000D03*
X213106000Y-117602000D03*
X210566000Y-120142000D03*
X213106000Y-120142000D03*
X210566000Y-122682000D03*
D23*
X213106000Y-122682000D03*
D22*
X205359000Y-89916000D03*
D23*
X205359000Y-87376000D03*
D22*
X201676000Y-89916000D03*
D23*
X201676000Y-87376000D03*
D22*
X197993000Y-89916000D03*
D23*
X197993000Y-87376000D03*
D22*
X183134000Y-89916000D03*
D23*
X183134000Y-87376000D03*
D22*
X179451000Y-89916000D03*
D23*
X179451000Y-87376000D03*
D22*
X175768000Y-89916000D03*
D23*
X175768000Y-87376000D03*
D22*
X161417000Y-89916000D03*
D23*
X161417000Y-87376000D03*
D22*
X157734000Y-89916000D03*
D23*
X157734000Y-87376000D03*
D22*
X154051000Y-89916000D03*
D23*
X154051000Y-87376000D03*
D22*
X139573000Y-89916000D03*
D23*
X139573000Y-87376000D03*
D22*
X135890000Y-89916000D03*
D23*
X135890000Y-87376000D03*
D22*
X132207000Y-89916000D03*
D23*
X132207000Y-87376000D03*
D30*
X126238000Y-124809000D03*
X126238000Y-120809000D03*
G36*
G01*
X130933000Y-118166000D02*
X130433000Y-118166000D01*
G75*
G02*
X130208000Y-117941000I0J225000D01*
G01*
X130208000Y-117491000D01*
G75*
G02*
X130433000Y-117266000I225000J0D01*
G01*
X130933000Y-117266000D01*
G75*
G02*
X131158000Y-117491000I0J-225000D01*
G01*
X131158000Y-117941000D01*
G75*
G02*
X130933000Y-118166000I-225000J0D01*
G01*
G37*
G36*
G01*
X130933000Y-119716000D02*
X130433000Y-119716000D01*
G75*
G02*
X130208000Y-119491000I0J225000D01*
G01*
X130208000Y-119041000D01*
G75*
G02*
X130433000Y-118816000I225000J0D01*
G01*
X130933000Y-118816000D01*
G75*
G02*
X131158000Y-119041000I0J-225000D01*
G01*
X131158000Y-119491000D01*
G75*
G02*
X130933000Y-119716000I-225000J0D01*
G01*
G37*
D31*
X148615000Y-110857000D03*
X148615000Y-115457000D03*
X148615000Y-113157000D03*
D32*
X154915000Y-113157000D03*
D33*
X168316000Y-120347000D03*
X168966000Y-120347000D03*
X169616000Y-120347000D03*
X170266000Y-120347000D03*
X170266000Y-123747000D03*
X169616000Y-123747000D03*
X168966000Y-123747000D03*
X168316000Y-123747000D03*
D34*
X133096000Y-114013000D03*
X134366000Y-114013000D03*
X135636000Y-114013000D03*
X136906000Y-114013000D03*
X136906000Y-119413000D03*
X135636000Y-119413000D03*
X134366000Y-119413000D03*
X133096000Y-119413000D03*
D35*
X135001000Y-116713000D03*
D36*
X188214000Y-83820000D03*
X190754000Y-83820000D03*
X193294000Y-83820000D03*
X195834000Y-83820000D03*
X198374000Y-83820000D03*
X200914000Y-83820000D03*
X203454000Y-83820000D03*
X205994000Y-83820000D03*
X205994000Y-96520000D03*
X203454000Y-96520000D03*
X200914000Y-96520000D03*
X198374000Y-96520000D03*
X195834000Y-96520000D03*
X193294000Y-96520000D03*
X190754000Y-96520000D03*
D37*
X188214000Y-96520000D03*
D36*
X166285000Y-83820000D03*
X168825000Y-83820000D03*
X171365000Y-83820000D03*
X173905000Y-83820000D03*
X176445000Y-83820000D03*
X178985000Y-83820000D03*
X181525000Y-83820000D03*
X184065000Y-83820000D03*
X184065000Y-96520000D03*
X181525000Y-96520000D03*
X178985000Y-96520000D03*
X176445000Y-96520000D03*
X173905000Y-96520000D03*
X171365000Y-96520000D03*
X168825000Y-96520000D03*
D37*
X166285000Y-96520000D03*
D36*
X144357000Y-83820000D03*
X146897000Y-83820000D03*
X149437000Y-83820000D03*
X151977000Y-83820000D03*
X154517000Y-83820000D03*
X157057000Y-83820000D03*
X159597000Y-83820000D03*
X162137000Y-83820000D03*
X162137000Y-96520000D03*
X159597000Y-96520000D03*
X157057000Y-96520000D03*
X154517000Y-96520000D03*
X151977000Y-96520000D03*
X149437000Y-96520000D03*
X146897000Y-96520000D03*
D37*
X144357000Y-96520000D03*
D36*
X122428000Y-83820000D03*
X124968000Y-83820000D03*
X127508000Y-83820000D03*
X130048000Y-83820000D03*
X132588000Y-83820000D03*
X135128000Y-83820000D03*
X137668000Y-83820000D03*
X140208000Y-83820000D03*
X140208000Y-96520000D03*
X137668000Y-96520000D03*
X135128000Y-96520000D03*
X132588000Y-96520000D03*
X130048000Y-96520000D03*
X127508000Y-96520000D03*
X124968000Y-96520000D03*
D37*
X122428000Y-96520000D03*
D38*
X203357000Y-145367000D03*
X203357000Y-139367000D03*
X207107000Y-145367000D03*
X207107000Y-139367000D03*
X162911000Y-122476000D03*
X162911000Y-128476000D03*
X159161000Y-122476000D03*
X159161000Y-128476000D03*
D39*
X151114000Y-127508000D03*
X149114000Y-128458000D03*
X149114000Y-126558000D03*
X151114000Y-123698000D03*
X149114000Y-124648000D03*
X149114000Y-122748000D03*
D22*
X204419000Y-102464000D03*
X204419000Y-105004000D03*
D23*
X204419000Y-107544000D03*
D22*
X117602000Y-131191000D03*
X115062000Y-131191000D03*
X117602000Y-128651000D03*
D23*
X115062000Y-128651000D03*
D22*
X117602000Y-124587000D03*
X115062000Y-124587000D03*
X117602000Y-122047000D03*
D23*
X115062000Y-122047000D03*
D40*
X211328000Y-107188000D03*
D41*
X211328000Y-102108000D03*
D22*
X196494000Y-118110000D03*
X196494000Y-115570000D03*
D23*
X196494000Y-113030000D03*
D42*
X164439000Y-142188000D03*
X148939000Y-142188000D03*
D43*
X163539000Y-132588000D03*
X148689000Y-132588000D03*
D44*
X150139000Y-131988000D03*
X151239000Y-131988000D03*
X152339000Y-131988000D03*
X153439000Y-131988000D03*
X154539000Y-131988000D03*
X155639000Y-131988000D03*
X156739000Y-131988000D03*
X157839000Y-131988000D03*
X158939000Y-131988000D03*
D40*
X117221000Y-112014000D03*
D41*
X117221000Y-117094000D03*
D22*
X200914000Y-79756000D03*
X198374000Y-79756000D03*
X195834000Y-79756000D03*
D23*
X193294000Y-79756000D03*
D22*
X178943000Y-79756000D03*
X176403000Y-79756000D03*
X173863000Y-79756000D03*
D23*
X171323000Y-79756000D03*
D22*
X156972000Y-79756000D03*
X154432000Y-79756000D03*
X151892000Y-79756000D03*
D23*
X149352000Y-79756000D03*
D22*
X135138000Y-79756000D03*
X132598000Y-79756000D03*
X130058000Y-79756000D03*
D23*
X127518000Y-79756000D03*
D45*
X116840000Y-81280000D03*
X212090000Y-142240000D03*
X116840000Y-142748000D03*
X211328000Y-81280000D03*
D46*
X116586000Y-86614000D03*
D47*
X116586000Y-106934000D03*
G36*
G01*
X157003000Y-118615750D02*
X157003000Y-119128250D01*
G75*
G02*
X156784250Y-119347000I-218750J0D01*
G01*
X156346750Y-119347000D01*
G75*
G02*
X156128000Y-119128250I0J218750D01*
G01*
X156128000Y-118615750D01*
G75*
G02*
X156346750Y-118397000I218750J0D01*
G01*
X156784250Y-118397000D01*
G75*
G02*
X157003000Y-118615750I0J-218750D01*
G01*
G37*
G36*
G01*
X158578000Y-118615750D02*
X158578000Y-119128250D01*
G75*
G02*
X158359250Y-119347000I-218750J0D01*
G01*
X157921750Y-119347000D01*
G75*
G02*
X157703000Y-119128250I0J218750D01*
G01*
X157703000Y-118615750D01*
G75*
G02*
X157921750Y-118397000I218750J0D01*
G01*
X158359250Y-118397000D01*
G75*
G02*
X158578000Y-118615750I0J-218750D01*
G01*
G37*
D48*
X123064000Y-110998000D03*
X126364000Y-110998000D03*
D49*
X135574000Y-128778000D03*
X134174000Y-128778000D03*
X135574000Y-127254000D03*
X134174000Y-127254000D03*
D50*
X133350000Y-143572000D03*
X133350000Y-144972000D03*
D48*
X129158000Y-144145000D03*
X125858000Y-144145000D03*
G36*
G01*
X150344000Y-105013000D02*
X150344000Y-103013000D01*
G75*
G02*
X150594000Y-102763000I250000J0D01*
G01*
X153594000Y-102763000D01*
G75*
G02*
X153844000Y-103013000I0J-250000D01*
G01*
X153844000Y-105013000D01*
G75*
G02*
X153594000Y-105263000I-250000J0D01*
G01*
X150594000Y-105263000D01*
G75*
G02*
X150344000Y-105013000I0J250000D01*
G01*
G37*
G36*
G01*
X143844000Y-105013000D02*
X143844000Y-103013000D01*
G75*
G02*
X144094000Y-102763000I250000J0D01*
G01*
X147094000Y-102763000D01*
G75*
G02*
X147344000Y-103013000I0J-250000D01*
G01*
X147344000Y-105013000D01*
G75*
G02*
X147094000Y-105263000I-250000J0D01*
G01*
X144094000Y-105263000D01*
G75*
G02*
X143844000Y-105013000I0J250000D01*
G01*
G37*
G36*
G01*
X193251000Y-129867000D02*
X193591000Y-129867000D01*
G75*
G02*
X193731000Y-130007000I0J-140000D01*
G01*
X193731000Y-130287000D01*
G75*
G02*
X193591000Y-130427000I-140000J0D01*
G01*
X193251000Y-130427000D01*
G75*
G02*
X193111000Y-130287000I0J140000D01*
G01*
X193111000Y-130007000D01*
G75*
G02*
X193251000Y-129867000I140000J0D01*
G01*
G37*
G36*
G01*
X193251000Y-128907000D02*
X193591000Y-128907000D01*
G75*
G02*
X193731000Y-129047000I0J-140000D01*
G01*
X193731000Y-129327000D01*
G75*
G02*
X193591000Y-129467000I-140000J0D01*
G01*
X193251000Y-129467000D01*
G75*
G02*
X193111000Y-129327000I0J140000D01*
G01*
X193111000Y-129047000D01*
G75*
G02*
X193251000Y-128907000I140000J0D01*
G01*
G37*
G36*
G01*
X193591000Y-133912000D02*
X193251000Y-133912000D01*
G75*
G02*
X193111000Y-133772000I0J140000D01*
G01*
X193111000Y-133492000D01*
G75*
G02*
X193251000Y-133352000I140000J0D01*
G01*
X193591000Y-133352000D01*
G75*
G02*
X193731000Y-133492000I0J-140000D01*
G01*
X193731000Y-133772000D01*
G75*
G02*
X193591000Y-133912000I-140000J0D01*
G01*
G37*
G36*
G01*
X193591000Y-134872000D02*
X193251000Y-134872000D01*
G75*
G02*
X193111000Y-134732000I0J140000D01*
G01*
X193111000Y-134452000D01*
G75*
G02*
X193251000Y-134312000I140000J0D01*
G01*
X193591000Y-134312000D01*
G75*
G02*
X193731000Y-134452000I0J-140000D01*
G01*
X193731000Y-134732000D01*
G75*
G02*
X193591000Y-134872000I-140000J0D01*
G01*
G37*
G36*
G01*
X193251000Y-136791000D02*
X193591000Y-136791000D01*
G75*
G02*
X193731000Y-136931000I0J-140000D01*
G01*
X193731000Y-137211000D01*
G75*
G02*
X193591000Y-137351000I-140000J0D01*
G01*
X193251000Y-137351000D01*
G75*
G02*
X193111000Y-137211000I0J140000D01*
G01*
X193111000Y-136931000D01*
G75*
G02*
X193251000Y-136791000I140000J0D01*
G01*
G37*
G36*
G01*
X193251000Y-135831000D02*
X193591000Y-135831000D01*
G75*
G02*
X193731000Y-135971000I0J-140000D01*
G01*
X193731000Y-136251000D01*
G75*
G02*
X193591000Y-136391000I-140000J0D01*
G01*
X193251000Y-136391000D01*
G75*
G02*
X193111000Y-136251000I0J140000D01*
G01*
X193111000Y-135971000D01*
G75*
G02*
X193251000Y-135831000I140000J0D01*
G01*
G37*
G36*
G01*
X193591000Y-139754000D02*
X193251000Y-139754000D01*
G75*
G02*
X193111000Y-139614000I0J140000D01*
G01*
X193111000Y-139334000D01*
G75*
G02*
X193251000Y-139194000I140000J0D01*
G01*
X193591000Y-139194000D01*
G75*
G02*
X193731000Y-139334000I0J-140000D01*
G01*
X193731000Y-139614000D01*
G75*
G02*
X193591000Y-139754000I-140000J0D01*
G01*
G37*
G36*
G01*
X193591000Y-140714000D02*
X193251000Y-140714000D01*
G75*
G02*
X193111000Y-140574000I0J140000D01*
G01*
X193111000Y-140294000D01*
G75*
G02*
X193251000Y-140154000I140000J0D01*
G01*
X193591000Y-140154000D01*
G75*
G02*
X193731000Y-140294000I0J-140000D01*
G01*
X193731000Y-140574000D01*
G75*
G02*
X193591000Y-140714000I-140000J0D01*
G01*
G37*
G36*
G01*
X146420000Y-118348999D02*
X146420000Y-119649001D01*
G75*
G02*
X146170001Y-119899000I-249999J0D01*
G01*
X145519999Y-119899000D01*
G75*
G02*
X145270000Y-119649001I0J249999D01*
G01*
X145270000Y-118348999D01*
G75*
G02*
X145519999Y-118099000I249999J0D01*
G01*
X146170001Y-118099000D01*
G75*
G02*
X146420000Y-118348999I0J-249999D01*
G01*
G37*
G36*
G01*
X149370000Y-118348999D02*
X149370000Y-119649001D01*
G75*
G02*
X149120001Y-119899000I-249999J0D01*
G01*
X148469999Y-119899000D01*
G75*
G02*
X148220000Y-119649001I0J249999D01*
G01*
X148220000Y-118348999D01*
G75*
G02*
X148469999Y-118099000I249999J0D01*
G01*
X149120001Y-118099000D01*
G75*
G02*
X149370000Y-118348999I0J-249999D01*
G01*
G37*
G36*
G01*
X158765001Y-110733000D02*
X157464999Y-110733000D01*
G75*
G02*
X157215000Y-110483001I0J249999D01*
G01*
X157215000Y-109832999D01*
G75*
G02*
X157464999Y-109583000I249999J0D01*
G01*
X158765001Y-109583000D01*
G75*
G02*
X159015000Y-109832999I0J-249999D01*
G01*
X159015000Y-110483001D01*
G75*
G02*
X158765001Y-110733000I-249999J0D01*
G01*
G37*
G36*
G01*
X158765001Y-113683000D02*
X157464999Y-113683000D01*
G75*
G02*
X157215000Y-113433001I0J249999D01*
G01*
X157215000Y-112782999D01*
G75*
G02*
X157464999Y-112533000I249999J0D01*
G01*
X158765001Y-112533000D01*
G75*
G02*
X159015000Y-112782999I0J-249999D01*
G01*
X159015000Y-113433001D01*
G75*
G02*
X158765001Y-113683000I-249999J0D01*
G01*
G37*
G36*
G01*
X123792000Y-114612000D02*
X122842000Y-114612000D01*
G75*
G02*
X122592000Y-114362000I0J250000D01*
G01*
X122592000Y-113862000D01*
G75*
G02*
X122842000Y-113612000I250000J0D01*
G01*
X123792000Y-113612000D01*
G75*
G02*
X124042000Y-113862000I0J-250000D01*
G01*
X124042000Y-114362000D01*
G75*
G02*
X123792000Y-114612000I-250000J0D01*
G01*
G37*
G36*
G01*
X123792000Y-116512000D02*
X122842000Y-116512000D01*
G75*
G02*
X122592000Y-116262000I0J250000D01*
G01*
X122592000Y-115762000D01*
G75*
G02*
X122842000Y-115512000I250000J0D01*
G01*
X123792000Y-115512000D01*
G75*
G02*
X124042000Y-115762000I0J-250000D01*
G01*
X124042000Y-116262000D01*
G75*
G02*
X123792000Y-116512000I-250000J0D01*
G01*
G37*
G36*
G01*
X126062000Y-114612000D02*
X125112000Y-114612000D01*
G75*
G02*
X124862000Y-114362000I0J250000D01*
G01*
X124862000Y-113862000D01*
G75*
G02*
X125112000Y-113612000I250000J0D01*
G01*
X126062000Y-113612000D01*
G75*
G02*
X126312000Y-113862000I0J-250000D01*
G01*
X126312000Y-114362000D01*
G75*
G02*
X126062000Y-114612000I-250000J0D01*
G01*
G37*
G36*
G01*
X126062000Y-116512000D02*
X125112000Y-116512000D01*
G75*
G02*
X124862000Y-116262000I0J250000D01*
G01*
X124862000Y-115762000D01*
G75*
G02*
X125112000Y-115512000I250000J0D01*
G01*
X126062000Y-115512000D01*
G75*
G02*
X126312000Y-115762000I0J-250000D01*
G01*
X126312000Y-116262000D01*
G75*
G02*
X126062000Y-116512000I-250000J0D01*
G01*
G37*
G36*
G01*
X128364000Y-114612000D02*
X127414000Y-114612000D01*
G75*
G02*
X127164000Y-114362000I0J250000D01*
G01*
X127164000Y-113862000D01*
G75*
G02*
X127414000Y-113612000I250000J0D01*
G01*
X128364000Y-113612000D01*
G75*
G02*
X128614000Y-113862000I0J-250000D01*
G01*
X128614000Y-114362000D01*
G75*
G02*
X128364000Y-114612000I-250000J0D01*
G01*
G37*
G36*
G01*
X128364000Y-116512000D02*
X127414000Y-116512000D01*
G75*
G02*
X127164000Y-116262000I0J250000D01*
G01*
X127164000Y-115762000D01*
G75*
G02*
X127414000Y-115512000I250000J0D01*
G01*
X128364000Y-115512000D01*
G75*
G02*
X128614000Y-115762000I0J-250000D01*
G01*
X128614000Y-116262000D01*
G75*
G02*
X128364000Y-116512000I-250000J0D01*
G01*
G37*
G36*
G01*
X189950000Y-91120000D02*
X191050000Y-91120000D01*
G75*
G02*
X191300000Y-91370000I0J-250000D01*
G01*
X191300000Y-94370000D01*
G75*
G02*
X191050000Y-94620000I-250000J0D01*
G01*
X189950000Y-94620000D01*
G75*
G02*
X189700000Y-94370000I0J250000D01*
G01*
X189700000Y-91370000D01*
G75*
G02*
X189950000Y-91120000I250000J0D01*
G01*
G37*
G36*
G01*
X189950000Y-85720000D02*
X191050000Y-85720000D01*
G75*
G02*
X191300000Y-85970000I0J-250000D01*
G01*
X191300000Y-88970000D01*
G75*
G02*
X191050000Y-89220000I-250000J0D01*
G01*
X189950000Y-89220000D01*
G75*
G02*
X189700000Y-88970000I0J250000D01*
G01*
X189700000Y-85970000D01*
G75*
G02*
X189950000Y-85720000I250000J0D01*
G01*
G37*
G36*
G01*
X167979000Y-91120000D02*
X169079000Y-91120000D01*
G75*
G02*
X169329000Y-91370000I0J-250000D01*
G01*
X169329000Y-94370000D01*
G75*
G02*
X169079000Y-94620000I-250000J0D01*
G01*
X167979000Y-94620000D01*
G75*
G02*
X167729000Y-94370000I0J250000D01*
G01*
X167729000Y-91370000D01*
G75*
G02*
X167979000Y-91120000I250000J0D01*
G01*
G37*
G36*
G01*
X167979000Y-85720000D02*
X169079000Y-85720000D01*
G75*
G02*
X169329000Y-85970000I0J-250000D01*
G01*
X169329000Y-88970000D01*
G75*
G02*
X169079000Y-89220000I-250000J0D01*
G01*
X167979000Y-89220000D01*
G75*
G02*
X167729000Y-88970000I0J250000D01*
G01*
X167729000Y-85970000D01*
G75*
G02*
X167979000Y-85720000I250000J0D01*
G01*
G37*
G36*
G01*
X146008000Y-90993000D02*
X147108000Y-90993000D01*
G75*
G02*
X147358000Y-91243000I0J-250000D01*
G01*
X147358000Y-94243000D01*
G75*
G02*
X147108000Y-94493000I-250000J0D01*
G01*
X146008000Y-94493000D01*
G75*
G02*
X145758000Y-94243000I0J250000D01*
G01*
X145758000Y-91243000D01*
G75*
G02*
X146008000Y-90993000I250000J0D01*
G01*
G37*
G36*
G01*
X146008000Y-85593000D02*
X147108000Y-85593000D01*
G75*
G02*
X147358000Y-85843000I0J-250000D01*
G01*
X147358000Y-88843000D01*
G75*
G02*
X147108000Y-89093000I-250000J0D01*
G01*
X146008000Y-89093000D01*
G75*
G02*
X145758000Y-88843000I0J250000D01*
G01*
X145758000Y-85843000D01*
G75*
G02*
X146008000Y-85593000I250000J0D01*
G01*
G37*
G36*
G01*
X200910000Y-141915000D02*
X200410000Y-141915000D01*
G75*
G02*
X200185000Y-141690000I0J225000D01*
G01*
X200185000Y-141240000D01*
G75*
G02*
X200410000Y-141015000I225000J0D01*
G01*
X200910000Y-141015000D01*
G75*
G02*
X201135000Y-141240000I0J-225000D01*
G01*
X201135000Y-141690000D01*
G75*
G02*
X200910000Y-141915000I-225000J0D01*
G01*
G37*
G36*
G01*
X200910000Y-143465000D02*
X200410000Y-143465000D01*
G75*
G02*
X200185000Y-143240000I0J225000D01*
G01*
X200185000Y-142790000D01*
G75*
G02*
X200410000Y-142565000I225000J0D01*
G01*
X200910000Y-142565000D01*
G75*
G02*
X201135000Y-142790000I0J-225000D01*
G01*
X201135000Y-143240000D01*
G75*
G02*
X200910000Y-143465000I-225000J0D01*
G01*
G37*
G36*
G01*
X198505000Y-142565000D02*
X199005000Y-142565000D01*
G75*
G02*
X199230000Y-142790000I0J-225000D01*
G01*
X199230000Y-143240000D01*
G75*
G02*
X199005000Y-143465000I-225000J0D01*
G01*
X198505000Y-143465000D01*
G75*
G02*
X198280000Y-143240000I0J225000D01*
G01*
X198280000Y-142790000D01*
G75*
G02*
X198505000Y-142565000I225000J0D01*
G01*
G37*
G36*
G01*
X198505000Y-141015000D02*
X199005000Y-141015000D01*
G75*
G02*
X199230000Y-141240000I0J-225000D01*
G01*
X199230000Y-141690000D01*
G75*
G02*
X199005000Y-141915000I-225000J0D01*
G01*
X198505000Y-141915000D01*
G75*
G02*
X198280000Y-141690000I0J225000D01*
G01*
X198280000Y-141240000D01*
G75*
G02*
X198505000Y-141015000I225000J0D01*
G01*
G37*
G36*
G01*
X164723000Y-125928000D02*
X165223000Y-125928000D01*
G75*
G02*
X165448000Y-126153000I0J-225000D01*
G01*
X165448000Y-126603000D01*
G75*
G02*
X165223000Y-126828000I-225000J0D01*
G01*
X164723000Y-126828000D01*
G75*
G02*
X164498000Y-126603000I0J225000D01*
G01*
X164498000Y-126153000D01*
G75*
G02*
X164723000Y-125928000I225000J0D01*
G01*
G37*
G36*
G01*
X164723000Y-124378000D02*
X165223000Y-124378000D01*
G75*
G02*
X165448000Y-124603000I0J-225000D01*
G01*
X165448000Y-125053000D01*
G75*
G02*
X165223000Y-125278000I-225000J0D01*
G01*
X164723000Y-125278000D01*
G75*
G02*
X164498000Y-125053000I0J225000D01*
G01*
X164498000Y-124603000D01*
G75*
G02*
X164723000Y-124378000I225000J0D01*
G01*
G37*
G36*
G01*
X124037000Y-91120000D02*
X125137000Y-91120000D01*
G75*
G02*
X125387000Y-91370000I0J-250000D01*
G01*
X125387000Y-94370000D01*
G75*
G02*
X125137000Y-94620000I-250000J0D01*
G01*
X124037000Y-94620000D01*
G75*
G02*
X123787000Y-94370000I0J250000D01*
G01*
X123787000Y-91370000D01*
G75*
G02*
X124037000Y-91120000I250000J0D01*
G01*
G37*
G36*
G01*
X124037000Y-85720000D02*
X125137000Y-85720000D01*
G75*
G02*
X125387000Y-85970000I0J-250000D01*
G01*
X125387000Y-88970000D01*
G75*
G02*
X125137000Y-89220000I-250000J0D01*
G01*
X124037000Y-89220000D01*
G75*
G02*
X123787000Y-88970000I0J250000D01*
G01*
X123787000Y-85970000D01*
G75*
G02*
X124037000Y-85720000I250000J0D01*
G01*
G37*
M02*
