G04 #@! TF.GenerationSoftware,KiCad,Pcbnew,(5.1.9)-1*
G04 #@! TF.CreationDate,2021-11-23T21:03:05+05:30*
G04 #@! TF.ProjectId,Onyx PCB,4f6e7978-2050-4434-922e-6b696361645f,rev?*
G04 #@! TF.SameCoordinates,Original*
G04 #@! TF.FileFunction,Legend,Bot*
G04 #@! TF.FilePolarity,Positive*
%FSLAX46Y46*%
G04 Gerber Fmt 4.6, Leading zero omitted, Abs format (unit mm)*
G04 Created by KiCad (PCBNEW (5.1.9)-1) date 2021-11-23 21:03:05*
%MOMM*%
%LPD*%
G01*
G04 APERTURE LIST*
%ADD10C,0.300000*%
%ADD11C,0.200000*%
%ADD12C,0.010000*%
%ADD13C,0.300000*%
%ADD14O,1.700000X1.700000*%
%ADD15R,1.700000X1.700000*%
%ADD16O,0.890000X1.550000*%
%ADD17O,1.250000X0.950000*%
%ADD18C,1.530000*%
%ADD19R,1.530000X1.530000*%
%ADD20C,3.000000*%
%ADD21R,3.000000X3.000000*%
%ADD22C,5.600000*%
%ADD23O,2.400000X2.400000*%
%ADD24C,2.400000*%
G04 APERTURE END LIST*
D10*
X201251428Y-92281428D02*
X201180000Y-92352857D01*
X201108571Y-92495714D01*
X201108571Y-92852857D01*
X201180000Y-92995714D01*
X201251428Y-93067142D01*
X201394285Y-93138571D01*
X201537142Y-93138571D01*
X201751428Y-93067142D01*
X202608571Y-92210000D01*
X202608571Y-93138571D01*
X199433571Y-93138571D02*
X199433571Y-92281428D01*
X199433571Y-92710000D02*
X197933571Y-92710000D01*
X198147857Y-92567142D01*
X198290714Y-92424285D01*
X198362142Y-92281428D01*
X204283571Y-92210000D02*
X204283571Y-93138571D01*
X204855000Y-92638571D01*
X204855000Y-92852857D01*
X204926428Y-92995714D01*
X204997857Y-93067142D01*
X205140714Y-93138571D01*
X205497857Y-93138571D01*
X205640714Y-93067142D01*
X205712142Y-92995714D01*
X205783571Y-92852857D01*
X205783571Y-92424285D01*
X205712142Y-92281428D01*
X205640714Y-92210000D01*
X179661428Y-92281428D02*
X179590000Y-92352857D01*
X179518571Y-92495714D01*
X179518571Y-92852857D01*
X179590000Y-92995714D01*
X179661428Y-93067142D01*
X179804285Y-93138571D01*
X179947142Y-93138571D01*
X180161428Y-93067142D01*
X181018571Y-92210000D01*
X181018571Y-93138571D01*
X177843571Y-93138571D02*
X177843571Y-92281428D01*
X177843571Y-92710000D02*
X176343571Y-92710000D01*
X176557857Y-92567142D01*
X176700714Y-92424285D01*
X176772142Y-92281428D01*
X182693571Y-92210000D02*
X182693571Y-93138571D01*
X183265000Y-92638571D01*
X183265000Y-92852857D01*
X183336428Y-92995714D01*
X183407857Y-93067142D01*
X183550714Y-93138571D01*
X183907857Y-93138571D01*
X184050714Y-93067142D01*
X184122142Y-92995714D01*
X184193571Y-92852857D01*
X184193571Y-92424285D01*
X184122142Y-92281428D01*
X184050714Y-92210000D01*
X158071428Y-92281428D02*
X158000000Y-92352857D01*
X157928571Y-92495714D01*
X157928571Y-92852857D01*
X158000000Y-92995714D01*
X158071428Y-93067142D01*
X158214285Y-93138571D01*
X158357142Y-93138571D01*
X158571428Y-93067142D01*
X159428571Y-92210000D01*
X159428571Y-93138571D01*
X156253571Y-93138571D02*
X156253571Y-92281428D01*
X156253571Y-92710000D02*
X154753571Y-92710000D01*
X154967857Y-92567142D01*
X155110714Y-92424285D01*
X155182142Y-92281428D01*
X161103571Y-92210000D02*
X161103571Y-93138571D01*
X161675000Y-92638571D01*
X161675000Y-92852857D01*
X161746428Y-92995714D01*
X161817857Y-93067142D01*
X161960714Y-93138571D01*
X162317857Y-93138571D01*
X162460714Y-93067142D01*
X162532142Y-92995714D01*
X162603571Y-92852857D01*
X162603571Y-92424285D01*
X162532142Y-92281428D01*
X162460714Y-92210000D01*
X135846428Y-92281428D02*
X135775000Y-92352857D01*
X135703571Y-92495714D01*
X135703571Y-92852857D01*
X135775000Y-92995714D01*
X135846428Y-93067142D01*
X135989285Y-93138571D01*
X136132142Y-93138571D01*
X136346428Y-93067142D01*
X137203571Y-92210000D01*
X137203571Y-93138571D01*
X134028571Y-93138571D02*
X134028571Y-92281428D01*
X134028571Y-92710000D02*
X132528571Y-92710000D01*
X132742857Y-92567142D01*
X132885714Y-92424285D01*
X132957142Y-92281428D01*
X208216428Y-107422142D02*
X207073571Y-107422142D01*
X207645000Y-107993571D02*
X207645000Y-106850714D01*
X208216428Y-102342142D02*
X207073571Y-102342142D01*
D11*
X123469285Y-117002000D02*
X123583571Y-116944857D01*
X123755000Y-116944857D01*
X123926428Y-117002000D01*
X124040714Y-117116285D01*
X124097857Y-117230571D01*
X124155000Y-117459142D01*
X124155000Y-117630571D01*
X124097857Y-117859142D01*
X124040714Y-117973428D01*
X123926428Y-118087714D01*
X123755000Y-118144857D01*
X123640714Y-118144857D01*
X123469285Y-118087714D01*
X123412142Y-118030571D01*
X123412142Y-117630571D01*
X123640714Y-117630571D01*
X122897857Y-118144857D02*
X122897857Y-116944857D01*
X122212142Y-118144857D01*
X122212142Y-116944857D01*
X121640714Y-118144857D02*
X121640714Y-116944857D01*
X121355000Y-116944857D01*
X121183571Y-117002000D01*
X121069285Y-117116285D01*
X121012142Y-117230571D01*
X120955000Y-117459142D01*
X120955000Y-117630571D01*
X121012142Y-117859142D01*
X121069285Y-117973428D01*
X121183571Y-118087714D01*
X121355000Y-118144857D01*
X121640714Y-118144857D01*
X128980714Y-112480714D02*
X128066428Y-112480714D01*
X128523571Y-112937857D02*
X128523571Y-112023571D01*
X126866428Y-112937857D02*
X127552142Y-112937857D01*
X127209285Y-112937857D02*
X127209285Y-111737857D01*
X127323571Y-111909285D01*
X127437857Y-112023571D01*
X127552142Y-112080714D01*
X126409285Y-111852142D02*
X126352142Y-111795000D01*
X126237857Y-111737857D01*
X125952142Y-111737857D01*
X125837857Y-111795000D01*
X125780714Y-111852142D01*
X125723571Y-111966428D01*
X125723571Y-112080714D01*
X125780714Y-112252142D01*
X126466428Y-112937857D01*
X125723571Y-112937857D01*
X124352142Y-111680714D02*
X125380714Y-113223571D01*
X124009285Y-111852142D02*
X123952142Y-111795000D01*
X123837857Y-111737857D01*
X123552142Y-111737857D01*
X123437857Y-111795000D01*
X123380714Y-111852142D01*
X123323571Y-111966428D01*
X123323571Y-112080714D01*
X123380714Y-112252142D01*
X124066428Y-112937857D01*
X123323571Y-112937857D01*
X122295000Y-112137857D02*
X122295000Y-112937857D01*
X122580714Y-111680714D02*
X122866428Y-112537857D01*
X122123571Y-112537857D01*
X121837857Y-111737857D02*
X121437857Y-112937857D01*
X121037857Y-111737857D01*
D10*
X138878571Y-92210000D02*
X138878571Y-93138571D01*
X139450000Y-92638571D01*
X139450000Y-92852857D01*
X139521428Y-92995714D01*
X139592857Y-93067142D01*
X139735714Y-93138571D01*
X140092857Y-93138571D01*
X140235714Y-93067142D01*
X140307142Y-92995714D01*
X140378571Y-92852857D01*
X140378571Y-92424285D01*
X140307142Y-92281428D01*
X140235714Y-92210000D01*
D12*
G36*
X141181667Y-107094866D02*
G01*
X141169508Y-107215442D01*
X141181667Y-107230333D01*
X141242068Y-107216386D01*
X141249400Y-107162600D01*
X141212227Y-107078971D01*
X141181667Y-107094866D01*
G37*
X141181667Y-107094866D02*
X141169508Y-107215442D01*
X141181667Y-107230333D01*
X141242068Y-107216386D01*
X141249400Y-107162600D01*
X141212227Y-107078971D01*
X141181667Y-107094866D01*
G36*
X146837400Y-120975887D02*
G01*
X146916746Y-121109057D01*
X147105581Y-121275226D01*
X147330101Y-121419677D01*
X147516501Y-121487696D01*
X147528435Y-121488200D01*
X147640828Y-121465466D01*
X147639085Y-121443218D01*
X147478031Y-121312684D01*
X147257652Y-121167122D01*
X147038174Y-121041639D01*
X146879821Y-120971341D01*
X146837400Y-120975887D01*
G37*
X146837400Y-120975887D02*
X146916746Y-121109057D01*
X147105581Y-121275226D01*
X147330101Y-121419677D01*
X147516501Y-121487696D01*
X147528435Y-121488200D01*
X147640828Y-121465466D01*
X147639085Y-121443218D01*
X147478031Y-121312684D01*
X147257652Y-121167122D01*
X147038174Y-121041639D01*
X146879821Y-120971341D01*
X146837400Y-120975887D01*
G36*
X183563648Y-119944017D02*
G01*
X183474430Y-120001498D01*
X183160926Y-120192601D01*
X182848687Y-120351512D01*
X182814030Y-120366362D01*
X182566105Y-120508293D01*
X182505285Y-120621581D01*
X182616719Y-120667960D01*
X182885557Y-120609160D01*
X182905400Y-120601817D01*
X183093700Y-120497923D01*
X183336300Y-120324546D01*
X183576131Y-120128166D01*
X183756121Y-119955262D01*
X183819800Y-119857124D01*
X183746878Y-119851459D01*
X183563648Y-119944017D01*
G37*
X183563648Y-119944017D02*
X183474430Y-120001498D01*
X183160926Y-120192601D01*
X182848687Y-120351512D01*
X182814030Y-120366362D01*
X182566105Y-120508293D01*
X182505285Y-120621581D01*
X182616719Y-120667960D01*
X182885557Y-120609160D01*
X182905400Y-120601817D01*
X183093700Y-120497923D01*
X183336300Y-120324546D01*
X183576131Y-120128166D01*
X183756121Y-119955262D01*
X183819800Y-119857124D01*
X183746878Y-119851459D01*
X183563648Y-119944017D01*
G36*
X183276342Y-121047979D02*
G01*
X183072338Y-121172069D01*
X182895723Y-121303863D01*
X182809375Y-121404712D01*
X182808101Y-121412000D01*
X182866600Y-121485607D01*
X183044136Y-121419193D01*
X183247299Y-121277625D01*
X183430010Y-121109657D01*
X183514341Y-120984316D01*
X183515000Y-120977503D01*
X183444856Y-120970241D01*
X183276342Y-121047979D01*
G37*
X183276342Y-121047979D02*
X183072338Y-121172069D01*
X182895723Y-121303863D01*
X182809375Y-121404712D01*
X182808101Y-121412000D01*
X182866600Y-121485607D01*
X183044136Y-121419193D01*
X183247299Y-121277625D01*
X183430010Y-121109657D01*
X183514341Y-120984316D01*
X183515000Y-120977503D01*
X183444856Y-120970241D01*
X183276342Y-121047979D01*
G36*
X163834937Y-116956081D02*
G01*
X163815445Y-117096288D01*
X163880115Y-117367662D01*
X163976568Y-117652800D01*
X164103444Y-117924378D01*
X164239567Y-118098952D01*
X164353091Y-118150673D01*
X164412168Y-118053693D01*
X164414703Y-118008400D01*
X164377215Y-117786659D01*
X164282303Y-117501805D01*
X164158299Y-117218602D01*
X164033533Y-117001814D01*
X163936930Y-116916200D01*
X163834937Y-116956081D01*
G37*
X163834937Y-116956081D02*
X163815445Y-117096288D01*
X163880115Y-117367662D01*
X163976568Y-117652800D01*
X164103444Y-117924378D01*
X164239567Y-118098952D01*
X164353091Y-118150673D01*
X164412168Y-118053693D01*
X164414703Y-118008400D01*
X164377215Y-117786659D01*
X164282303Y-117501805D01*
X164158299Y-117218602D01*
X164033533Y-117001814D01*
X163936930Y-116916200D01*
X163834937Y-116956081D01*
G36*
X165970579Y-116847943D02*
G01*
X165933060Y-116880700D01*
X165861022Y-117033887D01*
X165804480Y-117294722D01*
X165768923Y-117598986D01*
X165759842Y-117882459D01*
X165782726Y-118080921D01*
X165825801Y-118135400D01*
X165962525Y-118054544D01*
X165985585Y-118008400D01*
X166094997Y-117596311D01*
X166146678Y-117241497D01*
X166142153Y-116976681D01*
X166082945Y-116834589D01*
X165970579Y-116847943D01*
G37*
X165970579Y-116847943D02*
X165933060Y-116880700D01*
X165861022Y-117033887D01*
X165804480Y-117294722D01*
X165768923Y-117598986D01*
X165759842Y-117882459D01*
X165782726Y-118080921D01*
X165825801Y-118135400D01*
X165962525Y-118054544D01*
X165985585Y-118008400D01*
X166094997Y-117596311D01*
X166146678Y-117241497D01*
X166142153Y-116976681D01*
X166082945Y-116834589D01*
X165970579Y-116847943D01*
G36*
X167904234Y-117865526D02*
G01*
X167659178Y-118106065D01*
X167441647Y-118355717D01*
X167296307Y-118555211D01*
X167259000Y-118639465D01*
X167318408Y-118744874D01*
X167478446Y-118705312D01*
X167711836Y-118533698D01*
X167917084Y-118327785D01*
X168134793Y-118062765D01*
X168212929Y-117893669D01*
X168176684Y-117794385D01*
X168069120Y-117765046D01*
X167904234Y-117865526D01*
G37*
X167904234Y-117865526D02*
X167659178Y-118106065D01*
X167441647Y-118355717D01*
X167296307Y-118555211D01*
X167259000Y-118639465D01*
X167318408Y-118744874D01*
X167478446Y-118705312D01*
X167711836Y-118533698D01*
X167917084Y-118327785D01*
X168134793Y-118062765D01*
X168212929Y-117893669D01*
X168176684Y-117794385D01*
X168069120Y-117765046D01*
X167904234Y-117865526D01*
G36*
X162188322Y-118284735D02*
G01*
X162242729Y-118427782D01*
X162476200Y-118665899D01*
X162621264Y-118788997D01*
X162903092Y-119013359D01*
X163072524Y-119122008D01*
X163170384Y-119132699D01*
X163237497Y-119063189D01*
X163240526Y-119058334D01*
X163202054Y-118948802D01*
X163047145Y-118769044D01*
X162826686Y-118564128D01*
X162591565Y-118379121D01*
X162392671Y-118259091D01*
X162313113Y-118237000D01*
X162188322Y-118284735D01*
G37*
X162188322Y-118284735D02*
X162242729Y-118427782D01*
X162476200Y-118665899D01*
X162621264Y-118788997D01*
X162903092Y-119013359D01*
X163072524Y-119122008D01*
X163170384Y-119132699D01*
X163237497Y-119063189D01*
X163240526Y-119058334D01*
X163202054Y-118948802D01*
X163047145Y-118769044D01*
X162826686Y-118564128D01*
X162591565Y-118379121D01*
X162392671Y-118259091D01*
X162313113Y-118237000D01*
X162188322Y-118284735D01*
G36*
X168937381Y-119591326D02*
G01*
X168630819Y-119674563D01*
X168496641Y-119714136D01*
X168168146Y-119838493D01*
X167991274Y-119965033D01*
X167970200Y-120018936D01*
X167994575Y-120116231D01*
X168092956Y-120148173D01*
X168303226Y-120113710D01*
X168663269Y-120011794D01*
X168706800Y-119998516D01*
X169005477Y-119879060D01*
X169170849Y-119753761D01*
X169189400Y-119704294D01*
X169175217Y-119606780D01*
X169105029Y-119568928D01*
X168937381Y-119591326D01*
G37*
X168937381Y-119591326D02*
X168630819Y-119674563D01*
X168496641Y-119714136D01*
X168168146Y-119838493D01*
X167991274Y-119965033D01*
X167970200Y-120018936D01*
X167994575Y-120116231D01*
X168092956Y-120148173D01*
X168303226Y-120113710D01*
X168663269Y-120011794D01*
X168706800Y-119998516D01*
X169005477Y-119879060D01*
X169170849Y-119753761D01*
X169189400Y-119704294D01*
X169175217Y-119606780D01*
X169105029Y-119568928D01*
X168937381Y-119591326D01*
G36*
X161472011Y-120011778D02*
G01*
X161480309Y-120120093D01*
X161603920Y-120237511D01*
X161785300Y-120307100D01*
X162207818Y-120365739D01*
X162514346Y-120355567D01*
X162672516Y-120279278D01*
X162687000Y-120232009D01*
X162594916Y-120142418D01*
X162356393Y-120058689D01*
X162028033Y-119994845D01*
X161666432Y-119964908D01*
X161606020Y-119964200D01*
X161472011Y-120011778D01*
G37*
X161472011Y-120011778D02*
X161480309Y-120120093D01*
X161603920Y-120237511D01*
X161785300Y-120307100D01*
X162207818Y-120365739D01*
X162514346Y-120355567D01*
X162672516Y-120279278D01*
X162687000Y-120232009D01*
X162594916Y-120142418D01*
X162356393Y-120058689D01*
X162028033Y-119994845D01*
X161666432Y-119964908D01*
X161606020Y-119964200D01*
X161472011Y-120011778D01*
G36*
X168042910Y-121272413D02*
G01*
X168011941Y-121351372D01*
X168108854Y-121468926D01*
X168311209Y-121590884D01*
X168478200Y-121653243D01*
X168849863Y-121754465D01*
X169068003Y-121782520D01*
X169168840Y-121736964D01*
X169189400Y-121644516D01*
X169093134Y-121522774D01*
X168825235Y-121403932D01*
X168417052Y-121300275D01*
X168224200Y-121266239D01*
X168042910Y-121272413D01*
G37*
X168042910Y-121272413D02*
X168011941Y-121351372D01*
X168108854Y-121468926D01*
X168311209Y-121590884D01*
X168478200Y-121653243D01*
X168849863Y-121754465D01*
X169068003Y-121782520D01*
X169168840Y-121736964D01*
X169189400Y-121644516D01*
X169093134Y-121522774D01*
X168825235Y-121403932D01*
X168417052Y-121300275D01*
X168224200Y-121266239D01*
X168042910Y-121272413D01*
G36*
X162502288Y-121735927D02*
G01*
X162227602Y-121838145D01*
X161953873Y-121969148D01*
X161746631Y-122097800D01*
X161671000Y-122188436D01*
X161713773Y-122305996D01*
X161860297Y-122322288D01*
X162137887Y-122235500D01*
X162356800Y-122142962D01*
X162677839Y-121976790D01*
X162857353Y-121834218D01*
X162880745Y-121733689D01*
X162733417Y-121693652D01*
X162712400Y-121693631D01*
X162502288Y-121735927D01*
G37*
X162502288Y-121735927D02*
X162227602Y-121838145D01*
X161953873Y-121969148D01*
X161746631Y-122097800D01*
X161671000Y-122188436D01*
X161713773Y-122305996D01*
X161860297Y-122322288D01*
X162137887Y-122235500D01*
X162356800Y-122142962D01*
X162677839Y-121976790D01*
X162857353Y-121834218D01*
X162880745Y-121733689D01*
X162733417Y-121693652D01*
X162712400Y-121693631D01*
X162502288Y-121735927D01*
G36*
X167268142Y-122650950D02*
G01*
X167261130Y-122765319D01*
X167396460Y-122994674D01*
X167534486Y-123170614D01*
X167806622Y-123458479D01*
X168015681Y-123604190D01*
X168142926Y-123598380D01*
X168173400Y-123490019D01*
X168105236Y-123338934D01*
X167934764Y-123131956D01*
X167713019Y-122916387D01*
X167491034Y-122739529D01*
X167319842Y-122648684D01*
X167268142Y-122650950D01*
G37*
X167268142Y-122650950D02*
X167261130Y-122765319D01*
X167396460Y-122994674D01*
X167534486Y-123170614D01*
X167806622Y-123458479D01*
X168015681Y-123604190D01*
X168142926Y-123598380D01*
X168173400Y-123490019D01*
X168105236Y-123338934D01*
X167934764Y-123131956D01*
X167713019Y-122916387D01*
X167491034Y-122739529D01*
X167319842Y-122648684D01*
X167268142Y-122650950D01*
G36*
X164637858Y-118472765D02*
G01*
X164340820Y-118597566D01*
X163765118Y-118980745D01*
X163362734Y-119465499D01*
X163135920Y-120043733D01*
X163086928Y-120707353D01*
X163218012Y-121448266D01*
X163402061Y-121970384D01*
X163574067Y-122417019D01*
X163662123Y-122748929D01*
X163680107Y-123029489D01*
X163666285Y-123176773D01*
X163607335Y-123606862D01*
X164323626Y-123769779D01*
X164757179Y-123862691D01*
X165180424Y-123944093D01*
X165474191Y-123992220D01*
X165908465Y-124051744D01*
X165971338Y-123658557D01*
X166042789Y-123410992D01*
X166195077Y-123158613D01*
X166460171Y-122854755D01*
X166658054Y-122656185D01*
X167121912Y-122156184D01*
X167428001Y-121699945D01*
X167600086Y-121239934D01*
X167648228Y-120841936D01*
X167355227Y-120841936D01*
X167197631Y-121343964D01*
X166863102Y-121870925D01*
X166439573Y-122351800D01*
X166131426Y-122689480D01*
X165878141Y-123006167D01*
X165716003Y-123254574D01*
X165679427Y-123342400D01*
X165583810Y-123544815D01*
X165463140Y-123621800D01*
X165363125Y-123562616D01*
X165384292Y-123403188D01*
X165456957Y-123214727D01*
X165591669Y-122898413D01*
X165764262Y-122510394D01*
X165840136Y-122344110D01*
X165975005Y-122041172D01*
X165513861Y-122041172D01*
X165494876Y-122129488D01*
X165391873Y-122452610D01*
X165247747Y-122799434D01*
X165087795Y-123120760D01*
X164937316Y-123367386D01*
X164821608Y-123490113D01*
X164793054Y-123494397D01*
X164716641Y-123367354D01*
X164662908Y-123054649D01*
X164638919Y-122695617D01*
X164628048Y-122308706D01*
X164639427Y-122082128D01*
X164683232Y-121973378D01*
X164769637Y-121939948D01*
X164820247Y-121938142D01*
X165017746Y-122026447D01*
X165092883Y-122185271D01*
X165154908Y-122432399D01*
X165295799Y-122163499D01*
X165429752Y-121951062D01*
X165508521Y-121909247D01*
X165513861Y-122041172D01*
X165975005Y-122041172D01*
X166020827Y-121938251D01*
X166117786Y-121678308D01*
X166139910Y-121529336D01*
X166096097Y-121456393D01*
X166069489Y-121443357D01*
X165887826Y-121464805D01*
X165792946Y-121546409D01*
X165684082Y-121656553D01*
X165581187Y-121596815D01*
X165540343Y-121549293D01*
X165395148Y-121442476D01*
X165317089Y-121444514D01*
X165245979Y-121407331D01*
X165227000Y-121290996D01*
X165188111Y-121111955D01*
X165086521Y-121114249D01*
X164944849Y-121294790D01*
X164924056Y-121332332D01*
X164781355Y-121507935D01*
X164667636Y-121494581D01*
X164617620Y-121298308D01*
X164617400Y-121279003D01*
X164552321Y-121117620D01*
X164465000Y-121081800D01*
X164398285Y-121112902D01*
X164353785Y-121227237D01*
X164327415Y-121456345D01*
X164315091Y-121831768D01*
X164312600Y-122258666D01*
X164307285Y-122785699D01*
X164289514Y-123134182D01*
X164256546Y-123328531D01*
X164205643Y-123393164D01*
X164185600Y-123390611D01*
X164101127Y-123265621D01*
X164083786Y-123030977D01*
X164052497Y-122768699D01*
X163940338Y-122383512D01*
X163763638Y-121930955D01*
X163753586Y-121907973D01*
X163514424Y-121273473D01*
X163410341Y-120741847D01*
X163436939Y-120268199D01*
X163555450Y-119886123D01*
X163871417Y-119358320D01*
X164294640Y-118976019D01*
X164790584Y-118739929D01*
X165324714Y-118650761D01*
X165862495Y-118709226D01*
X166369392Y-118916033D01*
X166810872Y-119271893D01*
X167152398Y-119777517D01*
X167168572Y-119811800D01*
X167343128Y-120339621D01*
X167355227Y-120841936D01*
X167648228Y-120841936D01*
X167661936Y-120728618D01*
X167663169Y-120645952D01*
X167574858Y-119989391D01*
X167323879Y-119418579D01*
X166939057Y-118951287D01*
X166449219Y-118605287D01*
X165883190Y-118398352D01*
X165269794Y-118348254D01*
X164637858Y-118472765D01*
G37*
X164637858Y-118472765D02*
X164340820Y-118597566D01*
X163765118Y-118980745D01*
X163362734Y-119465499D01*
X163135920Y-120043733D01*
X163086928Y-120707353D01*
X163218012Y-121448266D01*
X163402061Y-121970384D01*
X163574067Y-122417019D01*
X163662123Y-122748929D01*
X163680107Y-123029489D01*
X163666285Y-123176773D01*
X163607335Y-123606862D01*
X164323626Y-123769779D01*
X164757179Y-123862691D01*
X165180424Y-123944093D01*
X165474191Y-123992220D01*
X165908465Y-124051744D01*
X165971338Y-123658557D01*
X166042789Y-123410992D01*
X166195077Y-123158613D01*
X166460171Y-122854755D01*
X166658054Y-122656185D01*
X167121912Y-122156184D01*
X167428001Y-121699945D01*
X167600086Y-121239934D01*
X167648228Y-120841936D01*
X167355227Y-120841936D01*
X167197631Y-121343964D01*
X166863102Y-121870925D01*
X166439573Y-122351800D01*
X166131426Y-122689480D01*
X165878141Y-123006167D01*
X165716003Y-123254574D01*
X165679427Y-123342400D01*
X165583810Y-123544815D01*
X165463140Y-123621800D01*
X165363125Y-123562616D01*
X165384292Y-123403188D01*
X165456957Y-123214727D01*
X165591669Y-122898413D01*
X165764262Y-122510394D01*
X165840136Y-122344110D01*
X165975005Y-122041172D01*
X165513861Y-122041172D01*
X165494876Y-122129488D01*
X165391873Y-122452610D01*
X165247747Y-122799434D01*
X165087795Y-123120760D01*
X164937316Y-123367386D01*
X164821608Y-123490113D01*
X164793054Y-123494397D01*
X164716641Y-123367354D01*
X164662908Y-123054649D01*
X164638919Y-122695617D01*
X164628048Y-122308706D01*
X164639427Y-122082128D01*
X164683232Y-121973378D01*
X164769637Y-121939948D01*
X164820247Y-121938142D01*
X165017746Y-122026447D01*
X165092883Y-122185271D01*
X165154908Y-122432399D01*
X165295799Y-122163499D01*
X165429752Y-121951062D01*
X165508521Y-121909247D01*
X165513861Y-122041172D01*
X165975005Y-122041172D01*
X166020827Y-121938251D01*
X166117786Y-121678308D01*
X166139910Y-121529336D01*
X166096097Y-121456393D01*
X166069489Y-121443357D01*
X165887826Y-121464805D01*
X165792946Y-121546409D01*
X165684082Y-121656553D01*
X165581187Y-121596815D01*
X165540343Y-121549293D01*
X165395148Y-121442476D01*
X165317089Y-121444514D01*
X165245979Y-121407331D01*
X165227000Y-121290996D01*
X165188111Y-121111955D01*
X165086521Y-121114249D01*
X164944849Y-121294790D01*
X164924056Y-121332332D01*
X164781355Y-121507935D01*
X164667636Y-121494581D01*
X164617620Y-121298308D01*
X164617400Y-121279003D01*
X164552321Y-121117620D01*
X164465000Y-121081800D01*
X164398285Y-121112902D01*
X164353785Y-121227237D01*
X164327415Y-121456345D01*
X164315091Y-121831768D01*
X164312600Y-122258666D01*
X164307285Y-122785699D01*
X164289514Y-123134182D01*
X164256546Y-123328531D01*
X164205643Y-123393164D01*
X164185600Y-123390611D01*
X164101127Y-123265621D01*
X164083786Y-123030977D01*
X164052497Y-122768699D01*
X163940338Y-122383512D01*
X163763638Y-121930955D01*
X163753586Y-121907973D01*
X163514424Y-121273473D01*
X163410341Y-120741847D01*
X163436939Y-120268199D01*
X163555450Y-119886123D01*
X163871417Y-119358320D01*
X164294640Y-118976019D01*
X164790584Y-118739929D01*
X165324714Y-118650761D01*
X165862495Y-118709226D01*
X166369392Y-118916033D01*
X166810872Y-119271893D01*
X167152398Y-119777517D01*
X167168572Y-119811800D01*
X167343128Y-120339621D01*
X167355227Y-120841936D01*
X167648228Y-120841936D01*
X167661936Y-120728618D01*
X167663169Y-120645952D01*
X167574858Y-119989391D01*
X167323879Y-119418579D01*
X166939057Y-118951287D01*
X166449219Y-118605287D01*
X165883190Y-118398352D01*
X165269794Y-118348254D01*
X164637858Y-118472765D01*
G36*
X144681106Y-101747231D02*
G01*
X144462274Y-101912219D01*
X144168316Y-102222612D01*
X143813425Y-102663686D01*
X143479387Y-103123300D01*
X143056848Y-103823694D01*
X142677920Y-104631996D01*
X142370618Y-105476134D01*
X142162954Y-106284036D01*
X142104163Y-106661312D01*
X142055373Y-106991853D01*
X141998657Y-107231804D01*
X141955945Y-107317877D01*
X141900898Y-107258886D01*
X141852985Y-107038133D01*
X141814821Y-106697002D01*
X141789020Y-106276881D01*
X141778196Y-105819156D01*
X141784965Y-105365213D01*
X141808786Y-104988519D01*
X141858030Y-104452321D01*
X141885572Y-104084679D01*
X141890897Y-103852058D01*
X141873486Y-103720921D01*
X141832823Y-103657733D01*
X141787935Y-103635162D01*
X141665559Y-103693538D01*
X141508127Y-103915381D01*
X141329273Y-104266879D01*
X141142627Y-104714218D01*
X140961821Y-105223585D01*
X140800487Y-105761166D01*
X140672257Y-106293149D01*
X140632523Y-106501173D01*
X140592267Y-106858241D01*
X140568097Y-107337756D01*
X140559269Y-107888548D01*
X140565036Y-108459450D01*
X140584650Y-108999292D01*
X140617368Y-109456908D01*
X140662440Y-109781127D01*
X140681439Y-109855000D01*
X140700616Y-109937778D01*
X140659886Y-109871376D01*
X140576418Y-109694626D01*
X140467383Y-109446363D01*
X140349951Y-109165418D01*
X140241291Y-108890626D01*
X140175349Y-108710388D01*
X140085264Y-108368651D01*
X140003028Y-107915974D01*
X139945071Y-107444435D01*
X139941053Y-107397452D01*
X139882712Y-106873045D01*
X139809655Y-106551131D01*
X139722121Y-106431553D01*
X139620351Y-106514154D01*
X139504584Y-106798778D01*
X139375060Y-107285268D01*
X139257011Y-107843625D01*
X139126473Y-108580935D01*
X139014348Y-109347896D01*
X138924935Y-110101511D01*
X138862532Y-110798784D01*
X138831437Y-111396719D01*
X138835947Y-111852319D01*
X138845507Y-111960133D01*
X138866161Y-112267581D01*
X138832552Y-112379697D01*
X138745299Y-112296796D01*
X138605019Y-112019196D01*
X138506903Y-111787130D01*
X138348921Y-111468010D01*
X138196719Y-111275224D01*
X138074226Y-111225501D01*
X138005371Y-111335567D01*
X137998200Y-111431525D01*
X138022709Y-111656348D01*
X138089037Y-112029746D01*
X138186390Y-112504020D01*
X138303976Y-113031477D01*
X138430999Y-113564418D01*
X138556666Y-114055148D01*
X138670181Y-114455971D01*
X138713044Y-114590216D01*
X139024521Y-115389271D01*
X139372992Y-116060862D01*
X139684671Y-116503238D01*
X139959996Y-116830444D01*
X139587696Y-116674887D01*
X139322724Y-116544463D01*
X138990231Y-116354172D01*
X138642804Y-116137642D01*
X138333031Y-115928502D01*
X138113501Y-115760380D01*
X138042818Y-115686997D01*
X137913424Y-115609823D01*
X137733716Y-115603059D01*
X137605694Y-115662911D01*
X137591800Y-115703778D01*
X137648236Y-115848923D01*
X137788292Y-116073745D01*
X137833005Y-116135578D01*
X137974029Y-116353738D01*
X138176933Y-116704827D01*
X138413987Y-117139403D01*
X138644777Y-117582997D01*
X139040134Y-118303302D01*
X139420520Y-118868081D01*
X139778108Y-119283399D01*
X140045297Y-119565328D01*
X140174165Y-119726166D01*
X140175416Y-119782959D01*
X140077097Y-119759515D01*
X139620676Y-119555396D01*
X139199709Y-119288421D01*
X139008616Y-119143856D01*
X138717192Y-118959895D01*
X138524319Y-118938269D01*
X138510581Y-118945492D01*
X138465550Y-119039093D01*
X138509759Y-119222960D01*
X138651392Y-119512857D01*
X138898630Y-119924547D01*
X139259657Y-120473792D01*
X139446034Y-120747603D01*
X139765578Y-121170922D01*
X140157467Y-121625814D01*
X140585641Y-122076699D01*
X141014039Y-122487992D01*
X141406600Y-122824112D01*
X141727264Y-123049476D01*
X141833187Y-123103107D01*
X141987607Y-123188221D01*
X142130754Y-123326936D01*
X142285774Y-123552789D01*
X142475809Y-123899316D01*
X142714094Y-124379582D01*
X142993806Y-124932752D01*
X143233807Y-125343450D01*
X143465927Y-125659393D01*
X143721995Y-125928296D01*
X143786879Y-125987838D01*
X144475411Y-126471775D01*
X145281842Y-126797530D01*
X146001299Y-126938951D01*
X146404362Y-127012320D01*
X146714702Y-127152446D01*
X147020836Y-127389161D01*
X147365247Y-127643110D01*
X147749120Y-127858179D01*
X147927935Y-127932169D01*
X148452416Y-128044924D01*
X149061394Y-128076450D01*
X149652180Y-128024589D01*
X149885400Y-127973291D01*
X150123331Y-127929991D01*
X150511362Y-127883841D01*
X150996563Y-127840248D01*
X151526003Y-127804622D01*
X151547303Y-127803442D01*
X152085448Y-127772007D01*
X152459678Y-127741285D01*
X152709052Y-127702344D01*
X152872625Y-127646252D01*
X152989455Y-127564075D01*
X153096703Y-127449086D01*
X153278637Y-127104186D01*
X153334755Y-126687306D01*
X153328806Y-126644283D01*
X152831800Y-126644283D01*
X152744375Y-126938093D01*
X152484593Y-127128696D01*
X152056193Y-127214280D01*
X151663400Y-127211097D01*
X150978096Y-127235514D01*
X150291800Y-127366069D01*
X149467598Y-127532598D01*
X148772271Y-127570305D01*
X148177168Y-127478724D01*
X147780102Y-127325274D01*
X147513207Y-127177555D01*
X147279960Y-127024122D01*
X147109088Y-126889728D01*
X147029318Y-126799124D01*
X147069377Y-126777065D01*
X147193000Y-126819399D01*
X147374821Y-126856975D01*
X147708277Y-126891553D01*
X148141806Y-126918742D01*
X148513800Y-126931935D01*
X149631400Y-126958426D01*
X148793200Y-126854743D01*
X148410157Y-126798491D01*
X148119020Y-126738848D01*
X147966778Y-126686095D01*
X147955000Y-126671318D01*
X148047056Y-126616986D01*
X148286037Y-126556309D01*
X148616166Y-126497132D01*
X148981664Y-126447303D01*
X149326753Y-126414666D01*
X149595654Y-126407070D01*
X149716494Y-126423524D01*
X149857686Y-126427820D01*
X149885400Y-126375870D01*
X149867317Y-126267636D01*
X149860000Y-126262628D01*
X149754649Y-126251499D01*
X149652351Y-126240032D01*
X147599400Y-126240032D01*
X147142200Y-126250160D01*
X146828347Y-126235396D01*
X146585726Y-126186264D01*
X146532600Y-126161800D01*
X146446764Y-126086417D01*
X146545911Y-126067164D01*
X146583400Y-126067610D01*
X146813969Y-126090756D01*
X147125451Y-126142483D01*
X147193000Y-126155971D01*
X147599400Y-126240032D01*
X149652351Y-126240032D01*
X149496213Y-126222530D01*
X149133464Y-126181209D01*
X148995471Y-126165371D01*
X148210128Y-126022511D01*
X147557481Y-125794498D01*
X147260540Y-125613911D01*
X146698483Y-125613911D01*
X146696409Y-125625457D01*
X146574998Y-125630926D01*
X146304679Y-125591690D01*
X145931998Y-125518617D01*
X145503501Y-125422570D01*
X145065735Y-125314414D01*
X144665245Y-125205016D01*
X144348579Y-125105239D01*
X144186951Y-125039685D01*
X143866025Y-124839357D01*
X143578448Y-124602561D01*
X143539570Y-124562700D01*
X143376521Y-124412671D01*
X143287181Y-124380650D01*
X143281400Y-124398415D01*
X143359647Y-124545987D01*
X143564040Y-124763072D01*
X143849064Y-125010458D01*
X144169201Y-125248932D01*
X144478934Y-125439282D01*
X144505874Y-125453290D01*
X144825560Y-125590660D01*
X145248332Y-125739142D01*
X145653452Y-125858496D01*
X145975328Y-125948880D01*
X146176859Y-126017634D01*
X146223646Y-126052602D01*
X146208397Y-126054605D01*
X146005788Y-126128511D01*
X145966076Y-126297418D01*
X146041254Y-126436875D01*
X146104016Y-126533694D01*
X146051685Y-126567675D01*
X145849016Y-126548948D01*
X145719800Y-126529258D01*
X145347570Y-126440320D01*
X144929919Y-126298005D01*
X144754600Y-126224073D01*
X144247468Y-125950807D01*
X143850385Y-125628425D01*
X143514745Y-125207254D01*
X143191941Y-124637623D01*
X143181164Y-124616157D01*
X143004847Y-124249492D01*
X142877297Y-123956100D01*
X142816594Y-123779045D01*
X142816627Y-123747907D01*
X142920385Y-123770137D01*
X143118383Y-123884044D01*
X143171838Y-123920930D01*
X143607166Y-124181720D01*
X144167841Y-124447785D01*
X144779353Y-124687672D01*
X145367195Y-124869930D01*
X145493235Y-124900856D01*
X146036992Y-125070445D01*
X146413194Y-125285964D01*
X146455341Y-125323315D01*
X146624994Y-125501767D01*
X146698483Y-125613911D01*
X147260540Y-125613911D01*
X147091400Y-125511048D01*
X146980969Y-125413982D01*
X147001234Y-125394199D01*
X147177065Y-125449239D01*
X147294600Y-125490965D01*
X147747792Y-125623841D01*
X148169501Y-125695573D01*
X148503617Y-125699566D01*
X148666200Y-125652134D01*
X148718844Y-125587298D01*
X148596543Y-125557842D01*
X148455699Y-125553755D01*
X147943400Y-125483128D01*
X147406855Y-125299972D01*
X146949803Y-125041383D01*
X146888200Y-124993193D01*
X146583400Y-124741130D01*
X146961137Y-124892665D01*
X147527570Y-125028728D01*
X148103744Y-125009382D01*
X148234400Y-124980162D01*
X148424184Y-124905410D01*
X148426805Y-124829899D01*
X148237362Y-124750251D01*
X147850955Y-124663085D01*
X147747033Y-124643992D01*
X147089091Y-124468004D01*
X146535202Y-124182264D01*
X146517623Y-124170520D01*
X146169162Y-123946953D01*
X145956369Y-123849381D01*
X145853819Y-123879947D01*
X145836087Y-124040797D01*
X145859556Y-124226025D01*
X145923683Y-124627050D01*
X145389942Y-124468694D01*
X144474675Y-124110805D01*
X143695951Y-123616595D01*
X143484600Y-123439206D01*
X143027400Y-123031271D01*
X143582942Y-123174135D01*
X143965717Y-123244521D01*
X144451171Y-123295539D01*
X144938984Y-123316882D01*
X144973328Y-123317000D01*
X145402756Y-123329599D01*
X145784966Y-123362964D01*
X146049332Y-123410447D01*
X146082877Y-123421442D01*
X146324866Y-123491218D01*
X146402710Y-123470487D01*
X146319061Y-123384799D01*
X146076573Y-123259700D01*
X146065600Y-123255072D01*
X145785028Y-123172585D01*
X145372836Y-123093629D01*
X144900402Y-123030882D01*
X144698083Y-123012166D01*
X143981493Y-122924361D01*
X143439416Y-122789405D01*
X143275683Y-122723174D01*
X142824200Y-122510893D01*
X144399000Y-122532946D01*
X145000443Y-122542783D01*
X145442270Y-122557325D01*
X145768052Y-122583350D01*
X146021363Y-122627637D01*
X146245776Y-122696963D01*
X146484864Y-122798107D01*
X146674772Y-122886961D01*
X147013589Y-123039371D01*
X147275447Y-123142081D01*
X147412560Y-123176717D01*
X147420822Y-123173844D01*
X147382545Y-123087848D01*
X147206714Y-122939217D01*
X146937419Y-122756397D01*
X146618748Y-122567835D01*
X146294792Y-122401979D01*
X146089999Y-122315187D01*
X145740723Y-122204302D01*
X145276548Y-122083215D01*
X144783225Y-121973807D01*
X144652885Y-121948495D01*
X144640205Y-121945400D01*
X142468600Y-121945400D01*
X142417800Y-121996200D01*
X142367000Y-121945400D01*
X142417800Y-121894600D01*
X142468600Y-121945400D01*
X144640205Y-121945400D01*
X144223940Y-121843800D01*
X142265400Y-121843800D01*
X142214600Y-121894600D01*
X142163800Y-121843800D01*
X142214600Y-121793000D01*
X142265400Y-121843800D01*
X144223940Y-121843800D01*
X143866815Y-121756635D01*
X143832600Y-121742200D01*
X142062200Y-121742200D01*
X142011400Y-121793000D01*
X141960600Y-121742200D01*
X142011400Y-121691400D01*
X142062200Y-121742200D01*
X143832600Y-121742200D01*
X143364253Y-121544611D01*
X142493949Y-121544611D01*
X142487120Y-121589800D01*
X142323744Y-121547964D01*
X142033788Y-121438432D01*
X141672025Y-121285163D01*
X141293228Y-121112118D01*
X140952169Y-120943258D01*
X140741400Y-120826131D01*
X140403635Y-120621742D01*
X140211814Y-120510658D01*
X140137959Y-120481112D01*
X140154090Y-120521338D01*
X140222914Y-120608076D01*
X140380127Y-120749820D01*
X140652236Y-120949253D01*
X140959815Y-121150206D01*
X141274718Y-121355795D01*
X141435451Y-121496661D01*
X141468483Y-121601140D01*
X141436282Y-121660263D01*
X141399965Y-121766263D01*
X141464335Y-121915317D01*
X141649749Y-122142729D01*
X141816980Y-122320515D01*
X142060492Y-122581257D01*
X142164597Y-122716299D01*
X142125378Y-122724752D01*
X141938918Y-122605728D01*
X141601301Y-122358337D01*
X141437761Y-122234451D01*
X141060806Y-121922104D01*
X140676750Y-121564429D01*
X140435849Y-121312587D01*
X140201773Y-121035344D01*
X139957456Y-120726458D01*
X139732007Y-120425640D01*
X139554538Y-120172604D01*
X139454158Y-120007062D01*
X139447436Y-119964200D01*
X139552350Y-120004410D01*
X139776376Y-120106307D01*
X139909090Y-120169564D01*
X140229699Y-120298790D01*
X140655300Y-120437237D01*
X141076414Y-120550564D01*
X141491065Y-120661499D01*
X141776771Y-120782038D01*
X142005678Y-120950972D01*
X142206263Y-121158000D01*
X142396185Y-121387980D01*
X142493949Y-121544611D01*
X143364253Y-121544611D01*
X143232639Y-121489085D01*
X142704140Y-121115359D01*
X142235105Y-120604970D01*
X141910665Y-120139501D01*
X141730756Y-119857602D01*
X142226678Y-120106419D01*
X142522656Y-120229613D01*
X142957226Y-120378833D01*
X143470881Y-120534868D01*
X143981035Y-120672710D01*
X144800305Y-120897737D01*
X145437373Y-121115407D01*
X145912656Y-121333754D01*
X146246567Y-121560813D01*
X146253823Y-121567148D01*
X146411760Y-121667989D01*
X146487536Y-121668731D01*
X146437500Y-121590259D01*
X146254120Y-121434954D01*
X145975640Y-121234829D01*
X145942585Y-121212615D01*
X145427349Y-120924958D01*
X144769505Y-120660704D01*
X144184872Y-120475805D01*
X143390018Y-120227526D01*
X142772771Y-119993046D01*
X142309051Y-119761403D01*
X141974779Y-119521634D01*
X141874722Y-119424006D01*
X141636443Y-119168498D01*
X142050297Y-119311082D01*
X142367413Y-119399726D01*
X142791239Y-119491880D01*
X143202976Y-119563268D01*
X143689987Y-119642231D01*
X144239883Y-119742200D01*
X144811415Y-119854419D01*
X145363335Y-119970132D01*
X145854394Y-120080582D01*
X146243343Y-120177013D01*
X146488934Y-120250670D01*
X146535899Y-120270765D01*
X146754132Y-120357063D01*
X146887142Y-120354781D01*
X146887128Y-120267265D01*
X146921351Y-120255423D01*
X147080267Y-120341659D01*
X147200110Y-120419665D01*
X147523224Y-120607354D01*
X147747640Y-120671845D01*
X147849711Y-120607511D01*
X147853400Y-120575163D01*
X147768680Y-120475465D01*
X147558473Y-120353413D01*
X147491907Y-120323885D01*
X147145873Y-120154359D01*
X146812672Y-119954961D01*
X146806107Y-119950479D01*
X146634863Y-119843773D01*
X146586749Y-119837728D01*
X146608800Y-119866477D01*
X146729574Y-120036369D01*
X146687352Y-120095736D01*
X146491967Y-120040924D01*
X146336331Y-119967735D01*
X146061470Y-119852721D01*
X145655952Y-119713457D01*
X145186931Y-119572184D01*
X144939331Y-119505075D01*
X144021716Y-119208770D01*
X143268168Y-118828285D01*
X143004925Y-118620849D01*
X142357670Y-118620849D01*
X141677195Y-118416702D01*
X140810790Y-118117933D01*
X140077679Y-117785080D01*
X139548912Y-117460407D01*
X139166600Y-117179472D01*
X139471400Y-117512778D01*
X139751056Y-117767811D01*
X140101307Y-118022710D01*
X140246494Y-118111124D01*
X140487297Y-118261723D01*
X140663307Y-118425614D01*
X140813499Y-118654798D01*
X140976846Y-119001276D01*
X141059294Y-119195582D01*
X141217692Y-119574185D01*
X141346480Y-119881361D01*
X141425330Y-120068654D01*
X141438259Y-120098975D01*
X141397411Y-120107479D01*
X141238608Y-120011886D01*
X140998421Y-119840055D01*
X140713419Y-119619844D01*
X140420174Y-119379112D01*
X140155257Y-119145715D01*
X140032228Y-119027921D01*
X139653302Y-118598593D01*
X139320024Y-118100681D01*
X138997103Y-117478755D01*
X138875019Y-117210272D01*
X138623341Y-116640745D01*
X139301371Y-116974789D01*
X139724255Y-117167387D01*
X140245121Y-117382189D01*
X140768200Y-117580145D01*
X140898066Y-117625873D01*
X141386448Y-117807879D01*
X141724038Y-117971296D01*
X141958254Y-118142286D01*
X142087201Y-118281881D01*
X142357670Y-118620849D01*
X143004925Y-118620849D01*
X142648877Y-118340284D01*
X142134032Y-117721430D01*
X141904571Y-117320566D01*
X141440519Y-117320566D01*
X141030060Y-117111165D01*
X140718763Y-116919440D01*
X140364900Y-116654533D01*
X140163019Y-116480903D01*
X139772454Y-116045774D01*
X139434297Y-115499396D01*
X139137996Y-114818058D01*
X138873000Y-113978051D01*
X138661120Y-113106200D01*
X138594550Y-112801400D01*
X138829775Y-113116050D01*
X139001096Y-113316268D01*
X139279288Y-113610159D01*
X139621786Y-113953712D01*
X139892666Y-114215040D01*
X140317554Y-114636757D01*
X140593812Y-114958872D01*
X140737300Y-115201086D01*
X140764039Y-115297184D01*
X140785049Y-115498590D01*
X140736369Y-115527408D01*
X140596774Y-115424179D01*
X140249529Y-115100665D01*
X139817463Y-114627697D01*
X139409983Y-114138476D01*
X139206037Y-113894984D01*
X139063143Y-113743279D01*
X139014200Y-113715472D01*
X139073480Y-113849288D01*
X139231995Y-114101112D01*
X139460766Y-114431311D01*
X139730809Y-114800254D01*
X140013143Y-115168309D01*
X140278786Y-115495845D01*
X140491692Y-115735886D01*
X140788812Y-116096346D01*
X141062460Y-116511490D01*
X141196405Y-116768579D01*
X141440519Y-117320566D01*
X141904571Y-117320566D01*
X141706282Y-116974159D01*
X141462385Y-116456852D01*
X141320697Y-116110562D01*
X141284508Y-115928806D01*
X141357109Y-115905104D01*
X141541790Y-116032973D01*
X141841843Y-116305932D01*
X141978406Y-116438142D01*
X142480141Y-116886378D01*
X143067693Y-117326453D01*
X143785498Y-117790653D01*
X144096480Y-117977041D01*
X144588791Y-118267815D01*
X145036536Y-118533546D01*
X145402383Y-118751980D01*
X145648996Y-118900866D01*
X145715871Y-118942241D01*
X145871932Y-119021371D01*
X145893606Y-118983579D01*
X145889292Y-118976215D01*
X145781818Y-118879440D01*
X145535273Y-118693599D01*
X145180588Y-118440929D01*
X144748697Y-118143667D01*
X144475960Y-117960215D01*
X143602114Y-117354193D01*
X142902283Y-116816164D01*
X142363433Y-116334724D01*
X141972533Y-115898467D01*
X141765024Y-115587703D01*
X141518647Y-115148874D01*
X142095761Y-115618987D01*
X142492827Y-115920055D01*
X142935811Y-116222832D01*
X143256538Y-116419487D01*
X143617327Y-116631888D01*
X143953104Y-116843135D01*
X144145000Y-116974488D01*
X144354001Y-117105383D01*
X144699485Y-117296976D01*
X145133915Y-117523786D01*
X145609757Y-117760330D01*
X145622325Y-117766415D01*
X146136500Y-118022051D01*
X146503553Y-118225561D01*
X146763388Y-118404261D01*
X146955910Y-118585467D01*
X147115383Y-118788471D01*
X147564948Y-119255933D01*
X148142494Y-119586972D01*
X148488400Y-119697718D01*
X148707222Y-119716730D01*
X148756251Y-119651232D01*
X148630726Y-119535275D01*
X148519255Y-119477171D01*
X148165024Y-119252918D01*
X147786153Y-118916649D01*
X147451128Y-118536952D01*
X147230152Y-118186200D01*
X147157416Y-117948731D01*
X146725364Y-117948731D01*
X146451182Y-117767673D01*
X146227500Y-117624365D01*
X145899053Y-117419042D01*
X145534932Y-117194878D01*
X145516600Y-117183688D01*
X145102293Y-116942262D01*
X144668458Y-116707224D01*
X144333379Y-116541075D01*
X143929162Y-116304912D01*
X143599664Y-115978640D01*
X143438865Y-115761708D01*
X143183306Y-115330821D01*
X142731067Y-115330821D01*
X142639728Y-115287873D01*
X142473782Y-115137836D01*
X142378912Y-115036600D01*
X141554200Y-115036600D01*
X141503400Y-115087400D01*
X141452600Y-115036600D01*
X141503400Y-114985800D01*
X141554200Y-115036600D01*
X142378912Y-115036600D01*
X142258010Y-114907586D01*
X142017194Y-114624002D01*
X141776116Y-114313962D01*
X141559559Y-114004343D01*
X141505210Y-113919000D01*
X141161005Y-113322223D01*
X140866218Y-112709580D01*
X140599726Y-112029372D01*
X140340405Y-111229904D01*
X140182135Y-110681061D01*
X140053474Y-110230873D01*
X139945841Y-109876576D01*
X139869346Y-109649790D01*
X139834097Y-109582134D01*
X139832933Y-109588766D01*
X139853195Y-109762069D01*
X139913951Y-110086229D01*
X140004671Y-110515413D01*
X140114824Y-111003789D01*
X140233880Y-111505524D01*
X140351307Y-111974786D01*
X140456575Y-112365741D01*
X140517842Y-112569672D01*
X140648792Y-113264983D01*
X140640446Y-113689570D01*
X140589000Y-114272940D01*
X140118359Y-113869687D01*
X139780118Y-113529325D01*
X139530438Y-113148477D01*
X139363767Y-112699488D01*
X139274552Y-112154703D01*
X139257240Y-111486467D01*
X139306279Y-110667125D01*
X139363249Y-110109000D01*
X139442256Y-109424194D01*
X139505993Y-108927350D01*
X139561020Y-108604406D01*
X139613899Y-108441299D01*
X139671189Y-108423966D01*
X139739449Y-108538345D01*
X139825242Y-108770375D01*
X139892501Y-108974499D01*
X140011989Y-109292614D01*
X140206800Y-109754062D01*
X140459366Y-110321449D01*
X140752122Y-110957381D01*
X141067500Y-111624466D01*
X141387933Y-112285309D01*
X141695856Y-112902518D01*
X141973700Y-113438699D01*
X142096009Y-113665000D01*
X142283945Y-114047255D01*
X142452253Y-114455636D01*
X142495250Y-114579400D01*
X142602183Y-114901377D01*
X142696709Y-115170288D01*
X142723015Y-115239800D01*
X142731067Y-115330821D01*
X143183306Y-115330821D01*
X143106919Y-115202030D01*
X142878454Y-114616672D01*
X142741096Y-113956900D01*
X142682470Y-113173976D01*
X142678487Y-112766948D01*
X142685173Y-111582200D01*
X142831280Y-112141000D01*
X143132018Y-112978301D01*
X143608796Y-113879056D01*
X144250961Y-114826494D01*
X145047860Y-115803845D01*
X145412800Y-116205000D01*
X145841209Y-116662200D01*
X145476303Y-116154200D01*
X144878584Y-115310553D01*
X144395490Y-114599730D01*
X144013254Y-113997051D01*
X143718110Y-113477841D01*
X143496289Y-113017423D01*
X143334027Y-112591120D01*
X143217556Y-112174256D01*
X143192105Y-112059799D01*
X143110868Y-111635602D01*
X143090049Y-111402653D01*
X143133252Y-111357103D01*
X143244081Y-111495104D01*
X143425136Y-111810948D01*
X143634889Y-112158867D01*
X143931657Y-112598051D01*
X144271101Y-113064727D01*
X144520070Y-113385748D01*
X145117473Y-114142368D01*
X145592899Y-114773190D01*
X145960454Y-115303318D01*
X146234243Y-115757855D01*
X146428374Y-116161905D01*
X146556953Y-116540572D01*
X146634086Y-116918960D01*
X146665569Y-117203865D01*
X146725364Y-117948731D01*
X147157416Y-117948731D01*
X147105119Y-117777993D01*
X147048056Y-117233294D01*
X147042832Y-116977156D01*
X147040600Y-116174512D01*
X147329184Y-116572890D01*
X147541813Y-116840445D01*
X147823858Y-117160320D01*
X148141186Y-117498058D01*
X148459666Y-117819199D01*
X148745167Y-118089283D01*
X148963557Y-118273852D01*
X149078102Y-118338600D01*
X149098990Y-118270839D01*
X149006791Y-118103449D01*
X148973794Y-118059200D01*
X148472797Y-117346998D01*
X148127385Y-116702270D01*
X148002243Y-116364359D01*
X147919558Y-115951000D01*
X147447000Y-115951000D01*
X147396200Y-116001800D01*
X147345400Y-115951000D01*
X147396200Y-115900200D01*
X147447000Y-115951000D01*
X147919558Y-115951000D01*
X147914529Y-115925864D01*
X147870894Y-115402009D01*
X147872304Y-115160222D01*
X147336237Y-115160222D01*
X147328449Y-115507749D01*
X147313019Y-115672266D01*
X147284074Y-115673954D01*
X147235737Y-115532995D01*
X147231732Y-115519200D01*
X147129767Y-115295873D01*
X147007788Y-115190277D01*
X146994968Y-115189000D01*
X146877666Y-115277128D01*
X146787441Y-115490510D01*
X146784498Y-115503370D01*
X146715451Y-115817741D01*
X146235206Y-115071570D01*
X145928881Y-114611850D01*
X145578411Y-114109968D01*
X145257208Y-113670937D01*
X145243167Y-113652433D01*
X144949417Y-113217907D01*
X144668487Y-112721867D01*
X144460530Y-112270656D01*
X144458311Y-112264870D01*
X144310617Y-111791138D01*
X144241804Y-111480600D01*
X143687800Y-111480600D01*
X143637000Y-111531400D01*
X143586200Y-111480600D01*
X143637000Y-111429800D01*
X143687800Y-111480600D01*
X144241804Y-111480600D01*
X144186344Y-111230324D01*
X144185759Y-111226600D01*
X143586200Y-111226600D01*
X143549027Y-111310228D01*
X143518467Y-111294333D01*
X143515216Y-111262087D01*
X142374883Y-111262087D01*
X142366602Y-111458537D01*
X142308276Y-111502143D01*
X142275232Y-111475519D01*
X142188032Y-111313072D01*
X142069417Y-110996243D01*
X141932418Y-110568932D01*
X141790066Y-110075037D01*
X141655393Y-109558457D01*
X141541431Y-109063089D01*
X141503864Y-108877074D01*
X141382489Y-108260463D01*
X141292240Y-107840231D01*
X141231681Y-107612181D01*
X141199378Y-107572118D01*
X141193895Y-107715845D01*
X141212790Y-108026200D01*
X141327253Y-108949796D01*
X141525075Y-109951195D01*
X141785350Y-110933788D01*
X141953157Y-111447068D01*
X142094187Y-111889874D01*
X142200247Y-112308933D01*
X142254581Y-112634490D01*
X142258224Y-112717068D01*
X142251047Y-113106200D01*
X142059882Y-112676029D01*
X141940622Y-112392484D01*
X141777338Y-111984282D01*
X141596200Y-111517456D01*
X141496188Y-111253629D01*
X141095156Y-109961463D01*
X140884508Y-108721457D01*
X140862680Y-107519094D01*
X140987378Y-106536537D01*
X141101325Y-105986676D01*
X141192091Y-105636969D01*
X141260959Y-105485846D01*
X141309214Y-105531740D01*
X141338139Y-105773081D01*
X141348105Y-106095800D01*
X141401485Y-106985728D01*
X141546279Y-107902452D01*
X141792424Y-108899115D01*
X141999008Y-109576530D01*
X142145182Y-110070014D01*
X142259600Y-110536391D01*
X142337691Y-110944227D01*
X142374883Y-111262087D01*
X143515216Y-111262087D01*
X143506308Y-111173757D01*
X143518467Y-111158866D01*
X143578868Y-111172813D01*
X143586200Y-111226600D01*
X144185759Y-111226600D01*
X144139747Y-110933820D01*
X143439293Y-110933820D01*
X143406800Y-110941232D01*
X143393676Y-110921800D01*
X143318730Y-110725634D01*
X143251832Y-110433054D01*
X143240594Y-110363000D01*
X143214369Y-110142748D01*
X143229476Y-110115918D01*
X143265627Y-110210600D01*
X143361222Y-110526932D01*
X143421606Y-110781863D01*
X143439293Y-110933820D01*
X144139747Y-110933820D01*
X144094286Y-110644553D01*
X144043238Y-110095951D01*
X144041995Y-109646641D01*
X144063423Y-109475488D01*
X144099618Y-109339429D01*
X144139471Y-109332570D01*
X144195952Y-109476521D01*
X144282035Y-109792896D01*
X144302826Y-109874355D01*
X144444282Y-110362044D01*
X144624013Y-110890639D01*
X144756678Y-111232229D01*
X144895288Y-111537585D01*
X145087888Y-111929367D01*
X145316007Y-112373621D01*
X145561177Y-112836397D01*
X145804926Y-113283742D01*
X146028785Y-113681704D01*
X146214285Y-113996332D01*
X146342956Y-114193673D01*
X146394646Y-114243221D01*
X146370187Y-114141301D01*
X146273906Y-113895108D01*
X146121850Y-113543588D01*
X145963966Y-113197989D01*
X145690670Y-112597038D01*
X145442226Y-112021769D01*
X145224017Y-111488949D01*
X145041423Y-111015346D01*
X144899824Y-110617725D01*
X144804603Y-110312854D01*
X144761139Y-110117500D01*
X144774815Y-110048430D01*
X144851010Y-110122410D01*
X144995107Y-110356208D01*
X145135647Y-110617000D01*
X145394525Y-111092883D01*
X145713999Y-111649424D01*
X146042531Y-112197818D01*
X146196996Y-112445800D01*
X146591684Y-113077805D01*
X146885324Y-113576266D01*
X147092107Y-113974997D01*
X147226226Y-114307814D01*
X147301874Y-114608534D01*
X147333243Y-114910971D01*
X147336237Y-115160222D01*
X147872304Y-115160222D01*
X147873936Y-114880631D01*
X147926260Y-114449569D01*
X147943471Y-114379748D01*
X147986197Y-114275877D01*
X148043879Y-114278655D01*
X148135864Y-114410932D01*
X148281499Y-114695552D01*
X148373651Y-114887748D01*
X148629715Y-115356773D01*
X148957525Y-115863239D01*
X149287015Y-116299054D01*
X149293388Y-116306600D01*
X149651431Y-116739510D01*
X149895739Y-117084295D01*
X150035385Y-117390285D01*
X150079443Y-117706809D01*
X150036984Y-118083198D01*
X149917082Y-118568781D01*
X149789984Y-119006648D01*
X149561637Y-119828440D01*
X149408550Y-120513974D01*
X149323394Y-121112647D01*
X149298839Y-121673859D01*
X149320903Y-122168016D01*
X149464886Y-123219569D01*
X149715920Y-124151555D01*
X150066317Y-124948449D01*
X150508385Y-125594724D01*
X151034435Y-126074855D01*
X151346337Y-126257463D01*
X151680451Y-126390057D01*
X151958955Y-126451241D01*
X152152984Y-126447749D01*
X152233672Y-126386315D01*
X152172153Y-126273674D01*
X151942800Y-126118312D01*
X151772601Y-126010199D01*
X151768039Y-125968070D01*
X151903408Y-125989504D01*
X152153006Y-126072080D01*
X152366177Y-126158189D01*
X152651553Y-126298298D01*
X152790446Y-126430999D01*
X152831166Y-126606727D01*
X152831800Y-126644283D01*
X153328806Y-126644283D01*
X153275531Y-126259056D01*
X153111442Y-125880051D01*
X152852961Y-125610902D01*
X152771324Y-125566277D01*
X152542973Y-125508017D01*
X152188330Y-125466460D01*
X151784156Y-125450600D01*
X151050544Y-125450600D01*
X150728430Y-124958565D01*
X150324429Y-124168049D01*
X150055013Y-123255192D01*
X149922610Y-122252003D01*
X149929646Y-121190491D01*
X150078550Y-120102666D01*
X150295823Y-119253000D01*
X150497627Y-118558989D01*
X150613776Y-118008347D01*
X150637856Y-117557330D01*
X150563452Y-117162194D01*
X150384151Y-116779194D01*
X150093539Y-116364587D01*
X149824195Y-116036542D01*
X149417392Y-115539626D01*
X149116974Y-115114978D01*
X148891048Y-114700405D01*
X148707722Y-114233715D01*
X148535104Y-113652715D01*
X148464800Y-113385600D01*
X148333486Y-113064151D01*
X148167592Y-112939736D01*
X147984810Y-113013027D01*
X147802834Y-113284698D01*
X147769655Y-113359166D01*
X147631036Y-113648860D01*
X147530202Y-113749433D01*
X147452500Y-113668083D01*
X147410991Y-113535358D01*
X147340768Y-113373266D01*
X147183485Y-113072220D01*
X146958116Y-112666605D01*
X146683636Y-112190807D01*
X146471932Y-111833558D01*
X145956125Y-110952446D01*
X145550495Y-110207331D01*
X145259866Y-109601000D01*
X144703800Y-109601000D01*
X144666627Y-109684628D01*
X144636067Y-109668733D01*
X144623908Y-109548157D01*
X144636067Y-109533266D01*
X144696468Y-109547213D01*
X144703800Y-109601000D01*
X145259866Y-109601000D01*
X145245143Y-109570286D01*
X145030170Y-109013383D01*
X144895675Y-108508694D01*
X144831759Y-108028290D01*
X144828522Y-107544243D01*
X144849876Y-107257596D01*
X144878268Y-106879112D01*
X144867266Y-106656945D01*
X144811922Y-106547152D01*
X144766925Y-106520987D01*
X144626498Y-106514053D01*
X144491981Y-106627797D01*
X144339698Y-106889889D01*
X144213653Y-107167581D01*
X144019294Y-107619800D01*
X143943892Y-106640226D01*
X143924742Y-105462923D01*
X144044871Y-104326679D01*
X144297256Y-103273253D01*
X144388276Y-103047800D01*
X143991126Y-103047800D01*
X143840719Y-103555800D01*
X143687168Y-104241545D01*
X143585501Y-105044812D01*
X143541060Y-105885326D01*
X143559184Y-106682811D01*
X143603750Y-107117390D01*
X143686109Y-107859268D01*
X143712568Y-108515282D01*
X143683083Y-109047958D01*
X143606410Y-109397139D01*
X143557925Y-109486778D01*
X143514058Y-109451898D01*
X143466997Y-109269475D01*
X143408930Y-108916485D01*
X143383319Y-108739643D01*
X143327589Y-108156427D01*
X143302714Y-107458548D01*
X143307092Y-106708520D01*
X143339118Y-105968856D01*
X143397190Y-105302068D01*
X143479705Y-104770669D01*
X143485813Y-104742589D01*
X143543803Y-104434797D01*
X143565382Y-104216466D01*
X143555095Y-104151228D01*
X143506157Y-104209978D01*
X143435835Y-104432747D01*
X143352033Y-104782477D01*
X143262655Y-105222109D01*
X143175603Y-105714583D01*
X143098781Y-106222840D01*
X143075395Y-106400600D01*
X143021776Y-107058326D01*
X143009514Y-107774690D01*
X143029019Y-108258041D01*
X143056552Y-108712204D01*
X143057666Y-108995566D01*
X143030189Y-109139073D01*
X142971950Y-109173671D01*
X142964848Y-109172441D01*
X142851916Y-109242936D01*
X142748886Y-109471957D01*
X142732959Y-109529082D01*
X142648960Y-109773503D01*
X142575371Y-109823053D01*
X142513948Y-109685878D01*
X142466451Y-109370121D01*
X142434636Y-108883929D01*
X142420260Y-108235445D01*
X142419618Y-108077000D01*
X142424091Y-107438934D01*
X142443006Y-106949386D01*
X142481905Y-106553867D01*
X142546330Y-106197890D01*
X142641824Y-105826966D01*
X142652128Y-105791000D01*
X142838401Y-105231501D01*
X143077833Y-104636865D01*
X143342518Y-104067913D01*
X143604550Y-103585467D01*
X143794186Y-103301800D01*
X143991126Y-103047800D01*
X144388276Y-103047800D01*
X144662313Y-102369023D01*
X144811782Y-102035171D01*
X144849896Y-101830984D01*
X144810615Y-101742374D01*
X144681106Y-101747231D01*
G37*
X144681106Y-101747231D02*
X144462274Y-101912219D01*
X144168316Y-102222612D01*
X143813425Y-102663686D01*
X143479387Y-103123300D01*
X143056848Y-103823694D01*
X142677920Y-104631996D01*
X142370618Y-105476134D01*
X142162954Y-106284036D01*
X142104163Y-106661312D01*
X142055373Y-106991853D01*
X141998657Y-107231804D01*
X141955945Y-107317877D01*
X141900898Y-107258886D01*
X141852985Y-107038133D01*
X141814821Y-106697002D01*
X141789020Y-106276881D01*
X141778196Y-105819156D01*
X141784965Y-105365213D01*
X141808786Y-104988519D01*
X141858030Y-104452321D01*
X141885572Y-104084679D01*
X141890897Y-103852058D01*
X141873486Y-103720921D01*
X141832823Y-103657733D01*
X141787935Y-103635162D01*
X141665559Y-103693538D01*
X141508127Y-103915381D01*
X141329273Y-104266879D01*
X141142627Y-104714218D01*
X140961821Y-105223585D01*
X140800487Y-105761166D01*
X140672257Y-106293149D01*
X140632523Y-106501173D01*
X140592267Y-106858241D01*
X140568097Y-107337756D01*
X140559269Y-107888548D01*
X140565036Y-108459450D01*
X140584650Y-108999292D01*
X140617368Y-109456908D01*
X140662440Y-109781127D01*
X140681439Y-109855000D01*
X140700616Y-109937778D01*
X140659886Y-109871376D01*
X140576418Y-109694626D01*
X140467383Y-109446363D01*
X140349951Y-109165418D01*
X140241291Y-108890626D01*
X140175349Y-108710388D01*
X140085264Y-108368651D01*
X140003028Y-107915974D01*
X139945071Y-107444435D01*
X139941053Y-107397452D01*
X139882712Y-106873045D01*
X139809655Y-106551131D01*
X139722121Y-106431553D01*
X139620351Y-106514154D01*
X139504584Y-106798778D01*
X139375060Y-107285268D01*
X139257011Y-107843625D01*
X139126473Y-108580935D01*
X139014348Y-109347896D01*
X138924935Y-110101511D01*
X138862532Y-110798784D01*
X138831437Y-111396719D01*
X138835947Y-111852319D01*
X138845507Y-111960133D01*
X138866161Y-112267581D01*
X138832552Y-112379697D01*
X138745299Y-112296796D01*
X138605019Y-112019196D01*
X138506903Y-111787130D01*
X138348921Y-111468010D01*
X138196719Y-111275224D01*
X138074226Y-111225501D01*
X138005371Y-111335567D01*
X137998200Y-111431525D01*
X138022709Y-111656348D01*
X138089037Y-112029746D01*
X138186390Y-112504020D01*
X138303976Y-113031477D01*
X138430999Y-113564418D01*
X138556666Y-114055148D01*
X138670181Y-114455971D01*
X138713044Y-114590216D01*
X139024521Y-115389271D01*
X139372992Y-116060862D01*
X139684671Y-116503238D01*
X139959996Y-116830444D01*
X139587696Y-116674887D01*
X139322724Y-116544463D01*
X138990231Y-116354172D01*
X138642804Y-116137642D01*
X138333031Y-115928502D01*
X138113501Y-115760380D01*
X138042818Y-115686997D01*
X137913424Y-115609823D01*
X137733716Y-115603059D01*
X137605694Y-115662911D01*
X137591800Y-115703778D01*
X137648236Y-115848923D01*
X137788292Y-116073745D01*
X137833005Y-116135578D01*
X137974029Y-116353738D01*
X138176933Y-116704827D01*
X138413987Y-117139403D01*
X138644777Y-117582997D01*
X139040134Y-118303302D01*
X139420520Y-118868081D01*
X139778108Y-119283399D01*
X140045297Y-119565328D01*
X140174165Y-119726166D01*
X140175416Y-119782959D01*
X140077097Y-119759515D01*
X139620676Y-119555396D01*
X139199709Y-119288421D01*
X139008616Y-119143856D01*
X138717192Y-118959895D01*
X138524319Y-118938269D01*
X138510581Y-118945492D01*
X138465550Y-119039093D01*
X138509759Y-119222960D01*
X138651392Y-119512857D01*
X138898630Y-119924547D01*
X139259657Y-120473792D01*
X139446034Y-120747603D01*
X139765578Y-121170922D01*
X140157467Y-121625814D01*
X140585641Y-122076699D01*
X141014039Y-122487992D01*
X141406600Y-122824112D01*
X141727264Y-123049476D01*
X141833187Y-123103107D01*
X141987607Y-123188221D01*
X142130754Y-123326936D01*
X142285774Y-123552789D01*
X142475809Y-123899316D01*
X142714094Y-124379582D01*
X142993806Y-124932752D01*
X143233807Y-125343450D01*
X143465927Y-125659393D01*
X143721995Y-125928296D01*
X143786879Y-125987838D01*
X144475411Y-126471775D01*
X145281842Y-126797530D01*
X146001299Y-126938951D01*
X146404362Y-127012320D01*
X146714702Y-127152446D01*
X147020836Y-127389161D01*
X147365247Y-127643110D01*
X147749120Y-127858179D01*
X147927935Y-127932169D01*
X148452416Y-128044924D01*
X149061394Y-128076450D01*
X149652180Y-128024589D01*
X149885400Y-127973291D01*
X150123331Y-127929991D01*
X150511362Y-127883841D01*
X150996563Y-127840248D01*
X151526003Y-127804622D01*
X151547303Y-127803442D01*
X152085448Y-127772007D01*
X152459678Y-127741285D01*
X152709052Y-127702344D01*
X152872625Y-127646252D01*
X152989455Y-127564075D01*
X153096703Y-127449086D01*
X153278637Y-127104186D01*
X153334755Y-126687306D01*
X153328806Y-126644283D01*
X152831800Y-126644283D01*
X152744375Y-126938093D01*
X152484593Y-127128696D01*
X152056193Y-127214280D01*
X151663400Y-127211097D01*
X150978096Y-127235514D01*
X150291800Y-127366069D01*
X149467598Y-127532598D01*
X148772271Y-127570305D01*
X148177168Y-127478724D01*
X147780102Y-127325274D01*
X147513207Y-127177555D01*
X147279960Y-127024122D01*
X147109088Y-126889728D01*
X147029318Y-126799124D01*
X147069377Y-126777065D01*
X147193000Y-126819399D01*
X147374821Y-126856975D01*
X147708277Y-126891553D01*
X148141806Y-126918742D01*
X148513800Y-126931935D01*
X149631400Y-126958426D01*
X148793200Y-126854743D01*
X148410157Y-126798491D01*
X148119020Y-126738848D01*
X147966778Y-126686095D01*
X147955000Y-126671318D01*
X148047056Y-126616986D01*
X148286037Y-126556309D01*
X148616166Y-126497132D01*
X148981664Y-126447303D01*
X149326753Y-126414666D01*
X149595654Y-126407070D01*
X149716494Y-126423524D01*
X149857686Y-126427820D01*
X149885400Y-126375870D01*
X149867317Y-126267636D01*
X149860000Y-126262628D01*
X149754649Y-126251499D01*
X149652351Y-126240032D01*
X147599400Y-126240032D01*
X147142200Y-126250160D01*
X146828347Y-126235396D01*
X146585726Y-126186264D01*
X146532600Y-126161800D01*
X146446764Y-126086417D01*
X146545911Y-126067164D01*
X146583400Y-126067610D01*
X146813969Y-126090756D01*
X147125451Y-126142483D01*
X147193000Y-126155971D01*
X147599400Y-126240032D01*
X149652351Y-126240032D01*
X149496213Y-126222530D01*
X149133464Y-126181209D01*
X148995471Y-126165371D01*
X148210128Y-126022511D01*
X147557481Y-125794498D01*
X147260540Y-125613911D01*
X146698483Y-125613911D01*
X146696409Y-125625457D01*
X146574998Y-125630926D01*
X146304679Y-125591690D01*
X145931998Y-125518617D01*
X145503501Y-125422570D01*
X145065735Y-125314414D01*
X144665245Y-125205016D01*
X144348579Y-125105239D01*
X144186951Y-125039685D01*
X143866025Y-124839357D01*
X143578448Y-124602561D01*
X143539570Y-124562700D01*
X143376521Y-124412671D01*
X143287181Y-124380650D01*
X143281400Y-124398415D01*
X143359647Y-124545987D01*
X143564040Y-124763072D01*
X143849064Y-125010458D01*
X144169201Y-125248932D01*
X144478934Y-125439282D01*
X144505874Y-125453290D01*
X144825560Y-125590660D01*
X145248332Y-125739142D01*
X145653452Y-125858496D01*
X145975328Y-125948880D01*
X146176859Y-126017634D01*
X146223646Y-126052602D01*
X146208397Y-126054605D01*
X146005788Y-126128511D01*
X145966076Y-126297418D01*
X146041254Y-126436875D01*
X146104016Y-126533694D01*
X146051685Y-126567675D01*
X145849016Y-126548948D01*
X145719800Y-126529258D01*
X145347570Y-126440320D01*
X144929919Y-126298005D01*
X144754600Y-126224073D01*
X144247468Y-125950807D01*
X143850385Y-125628425D01*
X143514745Y-125207254D01*
X143191941Y-124637623D01*
X143181164Y-124616157D01*
X143004847Y-124249492D01*
X142877297Y-123956100D01*
X142816594Y-123779045D01*
X142816627Y-123747907D01*
X142920385Y-123770137D01*
X143118383Y-123884044D01*
X143171838Y-123920930D01*
X143607166Y-124181720D01*
X144167841Y-124447785D01*
X144779353Y-124687672D01*
X145367195Y-124869930D01*
X145493235Y-124900856D01*
X146036992Y-125070445D01*
X146413194Y-125285964D01*
X146455341Y-125323315D01*
X146624994Y-125501767D01*
X146698483Y-125613911D01*
X147260540Y-125613911D01*
X147091400Y-125511048D01*
X146980969Y-125413982D01*
X147001234Y-125394199D01*
X147177065Y-125449239D01*
X147294600Y-125490965D01*
X147747792Y-125623841D01*
X148169501Y-125695573D01*
X148503617Y-125699566D01*
X148666200Y-125652134D01*
X148718844Y-125587298D01*
X148596543Y-125557842D01*
X148455699Y-125553755D01*
X147943400Y-125483128D01*
X147406855Y-125299972D01*
X146949803Y-125041383D01*
X146888200Y-124993193D01*
X146583400Y-124741130D01*
X146961137Y-124892665D01*
X147527570Y-125028728D01*
X148103744Y-125009382D01*
X148234400Y-124980162D01*
X148424184Y-124905410D01*
X148426805Y-124829899D01*
X148237362Y-124750251D01*
X147850955Y-124663085D01*
X147747033Y-124643992D01*
X147089091Y-124468004D01*
X146535202Y-124182264D01*
X146517623Y-124170520D01*
X146169162Y-123946953D01*
X145956369Y-123849381D01*
X145853819Y-123879947D01*
X145836087Y-124040797D01*
X145859556Y-124226025D01*
X145923683Y-124627050D01*
X145389942Y-124468694D01*
X144474675Y-124110805D01*
X143695951Y-123616595D01*
X143484600Y-123439206D01*
X143027400Y-123031271D01*
X143582942Y-123174135D01*
X143965717Y-123244521D01*
X144451171Y-123295539D01*
X144938984Y-123316882D01*
X144973328Y-123317000D01*
X145402756Y-123329599D01*
X145784966Y-123362964D01*
X146049332Y-123410447D01*
X146082877Y-123421442D01*
X146324866Y-123491218D01*
X146402710Y-123470487D01*
X146319061Y-123384799D01*
X146076573Y-123259700D01*
X146065600Y-123255072D01*
X145785028Y-123172585D01*
X145372836Y-123093629D01*
X144900402Y-123030882D01*
X144698083Y-123012166D01*
X143981493Y-122924361D01*
X143439416Y-122789405D01*
X143275683Y-122723174D01*
X142824200Y-122510893D01*
X144399000Y-122532946D01*
X145000443Y-122542783D01*
X145442270Y-122557325D01*
X145768052Y-122583350D01*
X146021363Y-122627637D01*
X146245776Y-122696963D01*
X146484864Y-122798107D01*
X146674772Y-122886961D01*
X147013589Y-123039371D01*
X147275447Y-123142081D01*
X147412560Y-123176717D01*
X147420822Y-123173844D01*
X147382545Y-123087848D01*
X147206714Y-122939217D01*
X146937419Y-122756397D01*
X146618748Y-122567835D01*
X146294792Y-122401979D01*
X146089999Y-122315187D01*
X145740723Y-122204302D01*
X145276548Y-122083215D01*
X144783225Y-121973807D01*
X144652885Y-121948495D01*
X144640205Y-121945400D01*
X142468600Y-121945400D01*
X142417800Y-121996200D01*
X142367000Y-121945400D01*
X142417800Y-121894600D01*
X142468600Y-121945400D01*
X144640205Y-121945400D01*
X144223940Y-121843800D01*
X142265400Y-121843800D01*
X142214600Y-121894600D01*
X142163800Y-121843800D01*
X142214600Y-121793000D01*
X142265400Y-121843800D01*
X144223940Y-121843800D01*
X143866815Y-121756635D01*
X143832600Y-121742200D01*
X142062200Y-121742200D01*
X142011400Y-121793000D01*
X141960600Y-121742200D01*
X142011400Y-121691400D01*
X142062200Y-121742200D01*
X143832600Y-121742200D01*
X143364253Y-121544611D01*
X142493949Y-121544611D01*
X142487120Y-121589800D01*
X142323744Y-121547964D01*
X142033788Y-121438432D01*
X141672025Y-121285163D01*
X141293228Y-121112118D01*
X140952169Y-120943258D01*
X140741400Y-120826131D01*
X140403635Y-120621742D01*
X140211814Y-120510658D01*
X140137959Y-120481112D01*
X140154090Y-120521338D01*
X140222914Y-120608076D01*
X140380127Y-120749820D01*
X140652236Y-120949253D01*
X140959815Y-121150206D01*
X141274718Y-121355795D01*
X141435451Y-121496661D01*
X141468483Y-121601140D01*
X141436282Y-121660263D01*
X141399965Y-121766263D01*
X141464335Y-121915317D01*
X141649749Y-122142729D01*
X141816980Y-122320515D01*
X142060492Y-122581257D01*
X142164597Y-122716299D01*
X142125378Y-122724752D01*
X141938918Y-122605728D01*
X141601301Y-122358337D01*
X141437761Y-122234451D01*
X141060806Y-121922104D01*
X140676750Y-121564429D01*
X140435849Y-121312587D01*
X140201773Y-121035344D01*
X139957456Y-120726458D01*
X139732007Y-120425640D01*
X139554538Y-120172604D01*
X139454158Y-120007062D01*
X139447436Y-119964200D01*
X139552350Y-120004410D01*
X139776376Y-120106307D01*
X139909090Y-120169564D01*
X140229699Y-120298790D01*
X140655300Y-120437237D01*
X141076414Y-120550564D01*
X141491065Y-120661499D01*
X141776771Y-120782038D01*
X142005678Y-120950972D01*
X142206263Y-121158000D01*
X142396185Y-121387980D01*
X142493949Y-121544611D01*
X143364253Y-121544611D01*
X143232639Y-121489085D01*
X142704140Y-121115359D01*
X142235105Y-120604970D01*
X141910665Y-120139501D01*
X141730756Y-119857602D01*
X142226678Y-120106419D01*
X142522656Y-120229613D01*
X142957226Y-120378833D01*
X143470881Y-120534868D01*
X143981035Y-120672710D01*
X144800305Y-120897737D01*
X145437373Y-121115407D01*
X145912656Y-121333754D01*
X146246567Y-121560813D01*
X146253823Y-121567148D01*
X146411760Y-121667989D01*
X146487536Y-121668731D01*
X146437500Y-121590259D01*
X146254120Y-121434954D01*
X145975640Y-121234829D01*
X145942585Y-121212615D01*
X145427349Y-120924958D01*
X144769505Y-120660704D01*
X144184872Y-120475805D01*
X143390018Y-120227526D01*
X142772771Y-119993046D01*
X142309051Y-119761403D01*
X141974779Y-119521634D01*
X141874722Y-119424006D01*
X141636443Y-119168498D01*
X142050297Y-119311082D01*
X142367413Y-119399726D01*
X142791239Y-119491880D01*
X143202976Y-119563268D01*
X143689987Y-119642231D01*
X144239883Y-119742200D01*
X144811415Y-119854419D01*
X145363335Y-119970132D01*
X145854394Y-120080582D01*
X146243343Y-120177013D01*
X146488934Y-120250670D01*
X146535899Y-120270765D01*
X146754132Y-120357063D01*
X146887142Y-120354781D01*
X146887128Y-120267265D01*
X146921351Y-120255423D01*
X147080267Y-120341659D01*
X147200110Y-120419665D01*
X147523224Y-120607354D01*
X147747640Y-120671845D01*
X147849711Y-120607511D01*
X147853400Y-120575163D01*
X147768680Y-120475465D01*
X147558473Y-120353413D01*
X147491907Y-120323885D01*
X147145873Y-120154359D01*
X146812672Y-119954961D01*
X146806107Y-119950479D01*
X146634863Y-119843773D01*
X146586749Y-119837728D01*
X146608800Y-119866477D01*
X146729574Y-120036369D01*
X146687352Y-120095736D01*
X146491967Y-120040924D01*
X146336331Y-119967735D01*
X146061470Y-119852721D01*
X145655952Y-119713457D01*
X145186931Y-119572184D01*
X144939331Y-119505075D01*
X144021716Y-119208770D01*
X143268168Y-118828285D01*
X143004925Y-118620849D01*
X142357670Y-118620849D01*
X141677195Y-118416702D01*
X140810790Y-118117933D01*
X140077679Y-117785080D01*
X139548912Y-117460407D01*
X139166600Y-117179472D01*
X139471400Y-117512778D01*
X139751056Y-117767811D01*
X140101307Y-118022710D01*
X140246494Y-118111124D01*
X140487297Y-118261723D01*
X140663307Y-118425614D01*
X140813499Y-118654798D01*
X140976846Y-119001276D01*
X141059294Y-119195582D01*
X141217692Y-119574185D01*
X141346480Y-119881361D01*
X141425330Y-120068654D01*
X141438259Y-120098975D01*
X141397411Y-120107479D01*
X141238608Y-120011886D01*
X140998421Y-119840055D01*
X140713419Y-119619844D01*
X140420174Y-119379112D01*
X140155257Y-119145715D01*
X140032228Y-119027921D01*
X139653302Y-118598593D01*
X139320024Y-118100681D01*
X138997103Y-117478755D01*
X138875019Y-117210272D01*
X138623341Y-116640745D01*
X139301371Y-116974789D01*
X139724255Y-117167387D01*
X140245121Y-117382189D01*
X140768200Y-117580145D01*
X140898066Y-117625873D01*
X141386448Y-117807879D01*
X141724038Y-117971296D01*
X141958254Y-118142286D01*
X142087201Y-118281881D01*
X142357670Y-118620849D01*
X143004925Y-118620849D01*
X142648877Y-118340284D01*
X142134032Y-117721430D01*
X141904571Y-117320566D01*
X141440519Y-117320566D01*
X141030060Y-117111165D01*
X140718763Y-116919440D01*
X140364900Y-116654533D01*
X140163019Y-116480903D01*
X139772454Y-116045774D01*
X139434297Y-115499396D01*
X139137996Y-114818058D01*
X138873000Y-113978051D01*
X138661120Y-113106200D01*
X138594550Y-112801400D01*
X138829775Y-113116050D01*
X139001096Y-113316268D01*
X139279288Y-113610159D01*
X139621786Y-113953712D01*
X139892666Y-114215040D01*
X140317554Y-114636757D01*
X140593812Y-114958872D01*
X140737300Y-115201086D01*
X140764039Y-115297184D01*
X140785049Y-115498590D01*
X140736369Y-115527408D01*
X140596774Y-115424179D01*
X140249529Y-115100665D01*
X139817463Y-114627697D01*
X139409983Y-114138476D01*
X139206037Y-113894984D01*
X139063143Y-113743279D01*
X139014200Y-113715472D01*
X139073480Y-113849288D01*
X139231995Y-114101112D01*
X139460766Y-114431311D01*
X139730809Y-114800254D01*
X140013143Y-115168309D01*
X140278786Y-115495845D01*
X140491692Y-115735886D01*
X140788812Y-116096346D01*
X141062460Y-116511490D01*
X141196405Y-116768579D01*
X141440519Y-117320566D01*
X141904571Y-117320566D01*
X141706282Y-116974159D01*
X141462385Y-116456852D01*
X141320697Y-116110562D01*
X141284508Y-115928806D01*
X141357109Y-115905104D01*
X141541790Y-116032973D01*
X141841843Y-116305932D01*
X141978406Y-116438142D01*
X142480141Y-116886378D01*
X143067693Y-117326453D01*
X143785498Y-117790653D01*
X144096480Y-117977041D01*
X144588791Y-118267815D01*
X145036536Y-118533546D01*
X145402383Y-118751980D01*
X145648996Y-118900866D01*
X145715871Y-118942241D01*
X145871932Y-119021371D01*
X145893606Y-118983579D01*
X145889292Y-118976215D01*
X145781818Y-118879440D01*
X145535273Y-118693599D01*
X145180588Y-118440929D01*
X144748697Y-118143667D01*
X144475960Y-117960215D01*
X143602114Y-117354193D01*
X142902283Y-116816164D01*
X142363433Y-116334724D01*
X141972533Y-115898467D01*
X141765024Y-115587703D01*
X141518647Y-115148874D01*
X142095761Y-115618987D01*
X142492827Y-115920055D01*
X142935811Y-116222832D01*
X143256538Y-116419487D01*
X143617327Y-116631888D01*
X143953104Y-116843135D01*
X144145000Y-116974488D01*
X144354001Y-117105383D01*
X144699485Y-117296976D01*
X145133915Y-117523786D01*
X145609757Y-117760330D01*
X145622325Y-117766415D01*
X146136500Y-118022051D01*
X146503553Y-118225561D01*
X146763388Y-118404261D01*
X146955910Y-118585467D01*
X147115383Y-118788471D01*
X147564948Y-119255933D01*
X148142494Y-119586972D01*
X148488400Y-119697718D01*
X148707222Y-119716730D01*
X148756251Y-119651232D01*
X148630726Y-119535275D01*
X148519255Y-119477171D01*
X148165024Y-119252918D01*
X147786153Y-118916649D01*
X147451128Y-118536952D01*
X147230152Y-118186200D01*
X147157416Y-117948731D01*
X146725364Y-117948731D01*
X146451182Y-117767673D01*
X146227500Y-117624365D01*
X145899053Y-117419042D01*
X145534932Y-117194878D01*
X145516600Y-117183688D01*
X145102293Y-116942262D01*
X144668458Y-116707224D01*
X144333379Y-116541075D01*
X143929162Y-116304912D01*
X143599664Y-115978640D01*
X143438865Y-115761708D01*
X143183306Y-115330821D01*
X142731067Y-115330821D01*
X142639728Y-115287873D01*
X142473782Y-115137836D01*
X142378912Y-115036600D01*
X141554200Y-115036600D01*
X141503400Y-115087400D01*
X141452600Y-115036600D01*
X141503400Y-114985800D01*
X141554200Y-115036600D01*
X142378912Y-115036600D01*
X142258010Y-114907586D01*
X142017194Y-114624002D01*
X141776116Y-114313962D01*
X141559559Y-114004343D01*
X141505210Y-113919000D01*
X141161005Y-113322223D01*
X140866218Y-112709580D01*
X140599726Y-112029372D01*
X140340405Y-111229904D01*
X140182135Y-110681061D01*
X140053474Y-110230873D01*
X139945841Y-109876576D01*
X139869346Y-109649790D01*
X139834097Y-109582134D01*
X139832933Y-109588766D01*
X139853195Y-109762069D01*
X139913951Y-110086229D01*
X140004671Y-110515413D01*
X140114824Y-111003789D01*
X140233880Y-111505524D01*
X140351307Y-111974786D01*
X140456575Y-112365741D01*
X140517842Y-112569672D01*
X140648792Y-113264983D01*
X140640446Y-113689570D01*
X140589000Y-114272940D01*
X140118359Y-113869687D01*
X139780118Y-113529325D01*
X139530438Y-113148477D01*
X139363767Y-112699488D01*
X139274552Y-112154703D01*
X139257240Y-111486467D01*
X139306279Y-110667125D01*
X139363249Y-110109000D01*
X139442256Y-109424194D01*
X139505993Y-108927350D01*
X139561020Y-108604406D01*
X139613899Y-108441299D01*
X139671189Y-108423966D01*
X139739449Y-108538345D01*
X139825242Y-108770375D01*
X139892501Y-108974499D01*
X140011989Y-109292614D01*
X140206800Y-109754062D01*
X140459366Y-110321449D01*
X140752122Y-110957381D01*
X141067500Y-111624466D01*
X141387933Y-112285309D01*
X141695856Y-112902518D01*
X141973700Y-113438699D01*
X142096009Y-113665000D01*
X142283945Y-114047255D01*
X142452253Y-114455636D01*
X142495250Y-114579400D01*
X142602183Y-114901377D01*
X142696709Y-115170288D01*
X142723015Y-115239800D01*
X142731067Y-115330821D01*
X143183306Y-115330821D01*
X143106919Y-115202030D01*
X142878454Y-114616672D01*
X142741096Y-113956900D01*
X142682470Y-113173976D01*
X142678487Y-112766948D01*
X142685173Y-111582200D01*
X142831280Y-112141000D01*
X143132018Y-112978301D01*
X143608796Y-113879056D01*
X144250961Y-114826494D01*
X145047860Y-115803845D01*
X145412800Y-116205000D01*
X145841209Y-116662200D01*
X145476303Y-116154200D01*
X144878584Y-115310553D01*
X144395490Y-114599730D01*
X144013254Y-113997051D01*
X143718110Y-113477841D01*
X143496289Y-113017423D01*
X143334027Y-112591120D01*
X143217556Y-112174256D01*
X143192105Y-112059799D01*
X143110868Y-111635602D01*
X143090049Y-111402653D01*
X143133252Y-111357103D01*
X143244081Y-111495104D01*
X143425136Y-111810948D01*
X143634889Y-112158867D01*
X143931657Y-112598051D01*
X144271101Y-113064727D01*
X144520070Y-113385748D01*
X145117473Y-114142368D01*
X145592899Y-114773190D01*
X145960454Y-115303318D01*
X146234243Y-115757855D01*
X146428374Y-116161905D01*
X146556953Y-116540572D01*
X146634086Y-116918960D01*
X146665569Y-117203865D01*
X146725364Y-117948731D01*
X147157416Y-117948731D01*
X147105119Y-117777993D01*
X147048056Y-117233294D01*
X147042832Y-116977156D01*
X147040600Y-116174512D01*
X147329184Y-116572890D01*
X147541813Y-116840445D01*
X147823858Y-117160320D01*
X148141186Y-117498058D01*
X148459666Y-117819199D01*
X148745167Y-118089283D01*
X148963557Y-118273852D01*
X149078102Y-118338600D01*
X149098990Y-118270839D01*
X149006791Y-118103449D01*
X148973794Y-118059200D01*
X148472797Y-117346998D01*
X148127385Y-116702270D01*
X148002243Y-116364359D01*
X147919558Y-115951000D01*
X147447000Y-115951000D01*
X147396200Y-116001800D01*
X147345400Y-115951000D01*
X147396200Y-115900200D01*
X147447000Y-115951000D01*
X147919558Y-115951000D01*
X147914529Y-115925864D01*
X147870894Y-115402009D01*
X147872304Y-115160222D01*
X147336237Y-115160222D01*
X147328449Y-115507749D01*
X147313019Y-115672266D01*
X147284074Y-115673954D01*
X147235737Y-115532995D01*
X147231732Y-115519200D01*
X147129767Y-115295873D01*
X147007788Y-115190277D01*
X146994968Y-115189000D01*
X146877666Y-115277128D01*
X146787441Y-115490510D01*
X146784498Y-115503370D01*
X146715451Y-115817741D01*
X146235206Y-115071570D01*
X145928881Y-114611850D01*
X145578411Y-114109968D01*
X145257208Y-113670937D01*
X145243167Y-113652433D01*
X144949417Y-113217907D01*
X144668487Y-112721867D01*
X144460530Y-112270656D01*
X144458311Y-112264870D01*
X144310617Y-111791138D01*
X144241804Y-111480600D01*
X143687800Y-111480600D01*
X143637000Y-111531400D01*
X143586200Y-111480600D01*
X143637000Y-111429800D01*
X143687800Y-111480600D01*
X144241804Y-111480600D01*
X144186344Y-111230324D01*
X144185759Y-111226600D01*
X143586200Y-111226600D01*
X143549027Y-111310228D01*
X143518467Y-111294333D01*
X143515216Y-111262087D01*
X142374883Y-111262087D01*
X142366602Y-111458537D01*
X142308276Y-111502143D01*
X142275232Y-111475519D01*
X142188032Y-111313072D01*
X142069417Y-110996243D01*
X141932418Y-110568932D01*
X141790066Y-110075037D01*
X141655393Y-109558457D01*
X141541431Y-109063089D01*
X141503864Y-108877074D01*
X141382489Y-108260463D01*
X141292240Y-107840231D01*
X141231681Y-107612181D01*
X141199378Y-107572118D01*
X141193895Y-107715845D01*
X141212790Y-108026200D01*
X141327253Y-108949796D01*
X141525075Y-109951195D01*
X141785350Y-110933788D01*
X141953157Y-111447068D01*
X142094187Y-111889874D01*
X142200247Y-112308933D01*
X142254581Y-112634490D01*
X142258224Y-112717068D01*
X142251047Y-113106200D01*
X142059882Y-112676029D01*
X141940622Y-112392484D01*
X141777338Y-111984282D01*
X141596200Y-111517456D01*
X141496188Y-111253629D01*
X141095156Y-109961463D01*
X140884508Y-108721457D01*
X140862680Y-107519094D01*
X140987378Y-106536537D01*
X141101325Y-105986676D01*
X141192091Y-105636969D01*
X141260959Y-105485846D01*
X141309214Y-105531740D01*
X141338139Y-105773081D01*
X141348105Y-106095800D01*
X141401485Y-106985728D01*
X141546279Y-107902452D01*
X141792424Y-108899115D01*
X141999008Y-109576530D01*
X142145182Y-110070014D01*
X142259600Y-110536391D01*
X142337691Y-110944227D01*
X142374883Y-111262087D01*
X143515216Y-111262087D01*
X143506308Y-111173757D01*
X143518467Y-111158866D01*
X143578868Y-111172813D01*
X143586200Y-111226600D01*
X144185759Y-111226600D01*
X144139747Y-110933820D01*
X143439293Y-110933820D01*
X143406800Y-110941232D01*
X143393676Y-110921800D01*
X143318730Y-110725634D01*
X143251832Y-110433054D01*
X143240594Y-110363000D01*
X143214369Y-110142748D01*
X143229476Y-110115918D01*
X143265627Y-110210600D01*
X143361222Y-110526932D01*
X143421606Y-110781863D01*
X143439293Y-110933820D01*
X144139747Y-110933820D01*
X144094286Y-110644553D01*
X144043238Y-110095951D01*
X144041995Y-109646641D01*
X144063423Y-109475488D01*
X144099618Y-109339429D01*
X144139471Y-109332570D01*
X144195952Y-109476521D01*
X144282035Y-109792896D01*
X144302826Y-109874355D01*
X144444282Y-110362044D01*
X144624013Y-110890639D01*
X144756678Y-111232229D01*
X144895288Y-111537585D01*
X145087888Y-111929367D01*
X145316007Y-112373621D01*
X145561177Y-112836397D01*
X145804926Y-113283742D01*
X146028785Y-113681704D01*
X146214285Y-113996332D01*
X146342956Y-114193673D01*
X146394646Y-114243221D01*
X146370187Y-114141301D01*
X146273906Y-113895108D01*
X146121850Y-113543588D01*
X145963966Y-113197989D01*
X145690670Y-112597038D01*
X145442226Y-112021769D01*
X145224017Y-111488949D01*
X145041423Y-111015346D01*
X144899824Y-110617725D01*
X144804603Y-110312854D01*
X144761139Y-110117500D01*
X144774815Y-110048430D01*
X144851010Y-110122410D01*
X144995107Y-110356208D01*
X145135647Y-110617000D01*
X145394525Y-111092883D01*
X145713999Y-111649424D01*
X146042531Y-112197818D01*
X146196996Y-112445800D01*
X146591684Y-113077805D01*
X146885324Y-113576266D01*
X147092107Y-113974997D01*
X147226226Y-114307814D01*
X147301874Y-114608534D01*
X147333243Y-114910971D01*
X147336237Y-115160222D01*
X147872304Y-115160222D01*
X147873936Y-114880631D01*
X147926260Y-114449569D01*
X147943471Y-114379748D01*
X147986197Y-114275877D01*
X148043879Y-114278655D01*
X148135864Y-114410932D01*
X148281499Y-114695552D01*
X148373651Y-114887748D01*
X148629715Y-115356773D01*
X148957525Y-115863239D01*
X149287015Y-116299054D01*
X149293388Y-116306600D01*
X149651431Y-116739510D01*
X149895739Y-117084295D01*
X150035385Y-117390285D01*
X150079443Y-117706809D01*
X150036984Y-118083198D01*
X149917082Y-118568781D01*
X149789984Y-119006648D01*
X149561637Y-119828440D01*
X149408550Y-120513974D01*
X149323394Y-121112647D01*
X149298839Y-121673859D01*
X149320903Y-122168016D01*
X149464886Y-123219569D01*
X149715920Y-124151555D01*
X150066317Y-124948449D01*
X150508385Y-125594724D01*
X151034435Y-126074855D01*
X151346337Y-126257463D01*
X151680451Y-126390057D01*
X151958955Y-126451241D01*
X152152984Y-126447749D01*
X152233672Y-126386315D01*
X152172153Y-126273674D01*
X151942800Y-126118312D01*
X151772601Y-126010199D01*
X151768039Y-125968070D01*
X151903408Y-125989504D01*
X152153006Y-126072080D01*
X152366177Y-126158189D01*
X152651553Y-126298298D01*
X152790446Y-126430999D01*
X152831166Y-126606727D01*
X152831800Y-126644283D01*
X153328806Y-126644283D01*
X153275531Y-126259056D01*
X153111442Y-125880051D01*
X152852961Y-125610902D01*
X152771324Y-125566277D01*
X152542973Y-125508017D01*
X152188330Y-125466460D01*
X151784156Y-125450600D01*
X151050544Y-125450600D01*
X150728430Y-124958565D01*
X150324429Y-124168049D01*
X150055013Y-123255192D01*
X149922610Y-122252003D01*
X149929646Y-121190491D01*
X150078550Y-120102666D01*
X150295823Y-119253000D01*
X150497627Y-118558989D01*
X150613776Y-118008347D01*
X150637856Y-117557330D01*
X150563452Y-117162194D01*
X150384151Y-116779194D01*
X150093539Y-116364587D01*
X149824195Y-116036542D01*
X149417392Y-115539626D01*
X149116974Y-115114978D01*
X148891048Y-114700405D01*
X148707722Y-114233715D01*
X148535104Y-113652715D01*
X148464800Y-113385600D01*
X148333486Y-113064151D01*
X148167592Y-112939736D01*
X147984810Y-113013027D01*
X147802834Y-113284698D01*
X147769655Y-113359166D01*
X147631036Y-113648860D01*
X147530202Y-113749433D01*
X147452500Y-113668083D01*
X147410991Y-113535358D01*
X147340768Y-113373266D01*
X147183485Y-113072220D01*
X146958116Y-112666605D01*
X146683636Y-112190807D01*
X146471932Y-111833558D01*
X145956125Y-110952446D01*
X145550495Y-110207331D01*
X145259866Y-109601000D01*
X144703800Y-109601000D01*
X144666627Y-109684628D01*
X144636067Y-109668733D01*
X144623908Y-109548157D01*
X144636067Y-109533266D01*
X144696468Y-109547213D01*
X144703800Y-109601000D01*
X145259866Y-109601000D01*
X145245143Y-109570286D01*
X145030170Y-109013383D01*
X144895675Y-108508694D01*
X144831759Y-108028290D01*
X144828522Y-107544243D01*
X144849876Y-107257596D01*
X144878268Y-106879112D01*
X144867266Y-106656945D01*
X144811922Y-106547152D01*
X144766925Y-106520987D01*
X144626498Y-106514053D01*
X144491981Y-106627797D01*
X144339698Y-106889889D01*
X144213653Y-107167581D01*
X144019294Y-107619800D01*
X143943892Y-106640226D01*
X143924742Y-105462923D01*
X144044871Y-104326679D01*
X144297256Y-103273253D01*
X144388276Y-103047800D01*
X143991126Y-103047800D01*
X143840719Y-103555800D01*
X143687168Y-104241545D01*
X143585501Y-105044812D01*
X143541060Y-105885326D01*
X143559184Y-106682811D01*
X143603750Y-107117390D01*
X143686109Y-107859268D01*
X143712568Y-108515282D01*
X143683083Y-109047958D01*
X143606410Y-109397139D01*
X143557925Y-109486778D01*
X143514058Y-109451898D01*
X143466997Y-109269475D01*
X143408930Y-108916485D01*
X143383319Y-108739643D01*
X143327589Y-108156427D01*
X143302714Y-107458548D01*
X143307092Y-106708520D01*
X143339118Y-105968856D01*
X143397190Y-105302068D01*
X143479705Y-104770669D01*
X143485813Y-104742589D01*
X143543803Y-104434797D01*
X143565382Y-104216466D01*
X143555095Y-104151228D01*
X143506157Y-104209978D01*
X143435835Y-104432747D01*
X143352033Y-104782477D01*
X143262655Y-105222109D01*
X143175603Y-105714583D01*
X143098781Y-106222840D01*
X143075395Y-106400600D01*
X143021776Y-107058326D01*
X143009514Y-107774690D01*
X143029019Y-108258041D01*
X143056552Y-108712204D01*
X143057666Y-108995566D01*
X143030189Y-109139073D01*
X142971950Y-109173671D01*
X142964848Y-109172441D01*
X142851916Y-109242936D01*
X142748886Y-109471957D01*
X142732959Y-109529082D01*
X142648960Y-109773503D01*
X142575371Y-109823053D01*
X142513948Y-109685878D01*
X142466451Y-109370121D01*
X142434636Y-108883929D01*
X142420260Y-108235445D01*
X142419618Y-108077000D01*
X142424091Y-107438934D01*
X142443006Y-106949386D01*
X142481905Y-106553867D01*
X142546330Y-106197890D01*
X142641824Y-105826966D01*
X142652128Y-105791000D01*
X142838401Y-105231501D01*
X143077833Y-104636865D01*
X143342518Y-104067913D01*
X143604550Y-103585467D01*
X143794186Y-103301800D01*
X143991126Y-103047800D01*
X144388276Y-103047800D01*
X144662313Y-102369023D01*
X144811782Y-102035171D01*
X144849896Y-101830984D01*
X144810615Y-101742374D01*
X144681106Y-101747231D01*
G36*
X186155422Y-101740049D02*
G01*
X186109684Y-101863981D01*
X186164766Y-102079617D01*
X186289461Y-102349649D01*
X186715321Y-103412749D01*
X186972751Y-104579931D01*
X187059608Y-105838498D01*
X187023268Y-106703344D01*
X186948913Y-107595972D01*
X186752170Y-107156534D01*
X186568036Y-106779553D01*
X186421086Y-106570048D01*
X186288724Y-106501288D01*
X186210059Y-106515238D01*
X186140961Y-106596248D01*
X186110777Y-106793621D01*
X186116098Y-107142130D01*
X186128473Y-107347399D01*
X186118088Y-108105830D01*
X185976922Y-108877016D01*
X185695890Y-109687966D01*
X185265906Y-110565690D01*
X184763668Y-111404512D01*
X184543406Y-111765312D01*
X184276412Y-112227514D01*
X184008283Y-112711509D01*
X183911227Y-112892811D01*
X183433051Y-113797023D01*
X183217961Y-113375411D01*
X183011448Y-113067830D01*
X182817612Y-112960134D01*
X182649609Y-113049011D01*
X182520593Y-113331146D01*
X182471656Y-113563400D01*
X182253061Y-114350223D01*
X181851621Y-115133688D01*
X181406977Y-115738172D01*
X180946859Y-116308230D01*
X180626476Y-116786895D01*
X180434916Y-117219141D01*
X180361268Y-117649944D01*
X180394620Y-118124277D01*
X180524063Y-118687116D01*
X180616026Y-118998370D01*
X180893304Y-120063744D01*
X181037298Y-121059049D01*
X181057764Y-122058544D01*
X181047071Y-122279456D01*
X180973418Y-123055874D01*
X180843549Y-123695052D01*
X180639709Y-124259275D01*
X180344143Y-124810830D01*
X180309666Y-124866400D01*
X179943339Y-125450600D01*
X179139972Y-125450600D01*
X178723794Y-125457053D01*
X178449959Y-125486545D01*
X178257762Y-125554274D01*
X178086495Y-125675437D01*
X178023930Y-125730000D01*
X177766456Y-126073428D01*
X177643614Y-126485071D01*
X177652119Y-126910580D01*
X177788680Y-127295610D01*
X178050012Y-127585812D01*
X178139466Y-127639791D01*
X178440932Y-127728306D01*
X178930104Y-127777310D01*
X179420555Y-127788605D01*
X179939621Y-127805659D01*
X180449136Y-127850274D01*
X180866673Y-127914433D01*
X180975000Y-127939800D01*
X181606828Y-128054907D01*
X182248653Y-128077528D01*
X182822378Y-128007386D01*
X183033296Y-127947004D01*
X183322602Y-127809812D01*
X183678831Y-127594766D01*
X183947696Y-127405532D01*
X184353458Y-127135807D01*
X184729808Y-126986512D01*
X185022186Y-126932030D01*
X185900726Y-126735648D01*
X186663178Y-126379257D01*
X187316866Y-125856950D01*
X187869117Y-125162818D01*
X188327254Y-124290955D01*
X188343132Y-124253704D01*
X188532355Y-123817969D01*
X188550121Y-123782982D01*
X188136547Y-123782982D01*
X188084224Y-123994144D01*
X187921715Y-124363647D01*
X187879252Y-124449719D01*
X187551429Y-125052198D01*
X187241678Y-125497483D01*
X186918930Y-125825548D01*
X186669306Y-126006429D01*
X186279277Y-126209631D01*
X185816126Y-126389438D01*
X185365544Y-126516463D01*
X185051960Y-126561123D01*
X184889031Y-126546484D01*
X184898823Y-126465384D01*
X184933707Y-126420250D01*
X185003855Y-126227028D01*
X184899218Y-126088243D01*
X184862363Y-126079729D01*
X184511630Y-126079729D01*
X184457194Y-126143376D01*
X184429400Y-126161800D01*
X184238141Y-126220251D01*
X183939808Y-126249529D01*
X183819800Y-126250160D01*
X183362600Y-126240032D01*
X183769000Y-126155971D01*
X184082570Y-126100245D01*
X184340910Y-126069377D01*
X184378600Y-126067610D01*
X184511630Y-126079729D01*
X184862363Y-126079729D01*
X184753604Y-126054605D01*
X184759800Y-126029371D01*
X184928935Y-125967332D01*
X185226704Y-125880518D01*
X185324436Y-125854462D01*
X186196429Y-125558138D01*
X186910098Y-125170392D01*
X187392142Y-124762638D01*
X187731400Y-124401910D01*
X187375800Y-124660260D01*
X186925380Y-124955442D01*
X186482068Y-125164602D01*
X185965589Y-125320955D01*
X185573566Y-125405912D01*
X185164052Y-125486693D01*
X184805995Y-125558292D01*
X184568059Y-125606959D01*
X184546298Y-125611577D01*
X184307596Y-125662742D01*
X184520490Y-125363760D01*
X184674260Y-125192893D01*
X184883299Y-125068912D01*
X185203601Y-124964686D01*
X185480724Y-124898511D01*
X185933352Y-124772631D01*
X186445134Y-124590985D01*
X186960277Y-124377618D01*
X187422987Y-124156573D01*
X187777470Y-123951897D01*
X187909823Y-123851673D01*
X188078482Y-123734159D01*
X188136547Y-123782982D01*
X188550121Y-123782982D01*
X188681384Y-123524491D01*
X188825107Y-123326706D01*
X188998412Y-123178050D01*
X189236187Y-123031960D01*
X189274995Y-123009971D01*
X189909602Y-122563738D01*
X190568857Y-121932256D01*
X191239955Y-121129992D01*
X191910088Y-120171415D01*
X191957537Y-120095244D01*
X191476161Y-120095244D01*
X191290117Y-120368754D01*
X191010770Y-120730480D01*
X190686021Y-121122511D01*
X190363767Y-121486937D01*
X190103137Y-121755235D01*
X189824405Y-122004490D01*
X189504500Y-122267333D01*
X189187958Y-122510066D01*
X188919312Y-122698988D01*
X188743096Y-122800401D01*
X188710576Y-122809000D01*
X188746955Y-122743536D01*
X188896313Y-122571193D01*
X189127216Y-122328045D01*
X189148840Y-122306036D01*
X189411768Y-122024207D01*
X189466651Y-121945400D01*
X188595000Y-121945400D01*
X188544200Y-121996200D01*
X188493400Y-121945400D01*
X188544200Y-121894600D01*
X188595000Y-121945400D01*
X189466651Y-121945400D01*
X189537409Y-121843800D01*
X188798200Y-121843800D01*
X188747400Y-121894600D01*
X188696600Y-121843800D01*
X188747400Y-121793000D01*
X188798200Y-121843800D01*
X189537409Y-121843800D01*
X189540858Y-121838848D01*
X189556814Y-121714488D01*
X189525719Y-121660263D01*
X189492674Y-121564123D01*
X189570866Y-121449221D01*
X189786764Y-121287220D01*
X190002186Y-121150206D01*
X190327011Y-120937716D01*
X190594234Y-120741421D01*
X190739087Y-120610885D01*
X190749261Y-120558368D01*
X190615611Y-120613181D01*
X190437671Y-120718058D01*
X189742817Y-121097508D01*
X188900848Y-121459233D01*
X188656057Y-121550288D01*
X188259913Y-121693072D01*
X188706857Y-121203490D01*
X188984775Y-120921411D01*
X189228201Y-120752694D01*
X189524420Y-120648036D01*
X189793609Y-120589646D01*
X190253023Y-120476094D01*
X190736339Y-120319887D01*
X190990905Y-120218836D01*
X191269166Y-120109027D01*
X191443202Y-120066620D01*
X191476161Y-120095244D01*
X191957537Y-120095244D01*
X192201073Y-119704293D01*
X192380811Y-119394514D01*
X192508869Y-119152247D01*
X192557401Y-119030376D01*
X192483877Y-118950064D01*
X192295128Y-118979221D01*
X192038890Y-119105929D01*
X191915622Y-119190595D01*
X191683823Y-119346438D01*
X191385519Y-119524365D01*
X191080514Y-119691571D01*
X190828611Y-119815246D01*
X190690649Y-119862600D01*
X190733834Y-119796289D01*
X190889509Y-119620291D01*
X191126884Y-119369007D01*
X191197542Y-119296245D01*
X191561957Y-118870171D01*
X191913071Y-118342200D01*
X192280804Y-117666852D01*
X192317157Y-117594445D01*
X192558752Y-117123539D01*
X192793158Y-116689700D01*
X192796444Y-116683985D01*
X192354200Y-116683985D01*
X192307672Y-116810093D01*
X192184751Y-117065562D01*
X192010434Y-117403652D01*
X191809718Y-117777627D01*
X191607600Y-118140749D01*
X191429077Y-118446278D01*
X191319486Y-118618643D01*
X191159838Y-118807423D01*
X190908545Y-119057031D01*
X190602458Y-119336316D01*
X190278425Y-119614126D01*
X189973295Y-119859312D01*
X189723920Y-120040722D01*
X189567148Y-120127205D01*
X189536027Y-120126293D01*
X189562590Y-120027988D01*
X189657935Y-119790568D01*
X189803803Y-119458532D01*
X189864171Y-119326562D01*
X190027887Y-118962883D01*
X190151961Y-118669487D01*
X190216068Y-118495095D01*
X190220600Y-118472084D01*
X190302633Y-118380578D01*
X190511751Y-118239652D01*
X190663623Y-118154028D01*
X191001112Y-117934710D01*
X191354183Y-117645196D01*
X191501823Y-117501065D01*
X191897000Y-117083125D01*
X191473278Y-117408202D01*
X190988185Y-117727705D01*
X190396535Y-118015358D01*
X189657823Y-118289813D01*
X189333241Y-118393565D01*
X188593985Y-118621651D01*
X188873893Y-118286578D01*
X189078525Y-118091329D01*
X189366072Y-117915704D01*
X189781283Y-117735313D01*
X190100152Y-117618216D01*
X190605213Y-117430643D01*
X191127551Y-117220843D01*
X191577536Y-117025270D01*
X191700352Y-116967412D01*
X192018915Y-116817063D01*
X192251613Y-116715528D01*
X192353011Y-116682502D01*
X192354200Y-116683985D01*
X192796444Y-116683985D01*
X192993003Y-116342232D01*
X193127017Y-116135578D01*
X193282695Y-115903253D01*
X193365879Y-115729859D01*
X193370200Y-115703778D01*
X193293909Y-115611409D01*
X193120865Y-115605973D01*
X192934818Y-115681075D01*
X192866832Y-115742219D01*
X192676565Y-115911350D01*
X192364900Y-116130075D01*
X191993398Y-116359578D01*
X191623619Y-116561044D01*
X191413925Y-116658333D01*
X191034945Y-116816681D01*
X191439859Y-116282240D01*
X191814676Y-115667898D01*
X192160218Y-114853194D01*
X192476202Y-113838889D01*
X192624026Y-113233161D01*
X192278429Y-113233161D01*
X192262140Y-113432251D01*
X192162438Y-113806162D01*
X191989890Y-114363526D01*
X191936257Y-114533662D01*
X191586619Y-115419857D01*
X191152241Y-116133570D01*
X190677800Y-116634150D01*
X190414908Y-116829845D01*
X190119675Y-117018296D01*
X189857767Y-117160407D01*
X189698911Y-117216932D01*
X189696425Y-117133297D01*
X189755154Y-116911892D01*
X189842153Y-116657081D01*
X189982479Y-116336007D01*
X190128891Y-116093222D01*
X190219898Y-116002175D01*
X190359765Y-115879592D01*
X190437535Y-115792653D01*
X189682413Y-115792653D01*
X189671146Y-115906767D01*
X189660269Y-115958169D01*
X189585489Y-116190473D01*
X189446357Y-116537316D01*
X189270066Y-116931828D01*
X189229910Y-117016474D01*
X188749769Y-117822476D01*
X188151217Y-118474602D01*
X187421328Y-118982676D01*
X186547172Y-119356519D01*
X185928656Y-119524847D01*
X185495986Y-119640187D01*
X185046754Y-119790326D01*
X184630398Y-119955174D01*
X184296359Y-120114641D01*
X184094077Y-120248635D01*
X184065889Y-120281801D01*
X184075466Y-120359407D01*
X184214691Y-120354796D01*
X184426102Y-120270765D01*
X184606044Y-120208307D01*
X184944666Y-120119694D01*
X185400481Y-120013747D01*
X185932003Y-119899287D01*
X186497743Y-119785134D01*
X187056216Y-119680112D01*
X187565935Y-119593039D01*
X187738661Y-119566427D01*
X188179801Y-119487582D01*
X188611428Y-119388506D01*
X188901819Y-119303087D01*
X189346516Y-119146189D01*
X189097758Y-119412851D01*
X188808572Y-119660407D01*
X188407089Y-119892898D01*
X187867523Y-120122135D01*
X187164088Y-120359930D01*
X186777129Y-120475805D01*
X185994217Y-120732314D01*
X185379342Y-121001568D01*
X185019416Y-121212615D01*
X184731586Y-121414197D01*
X184532551Y-121571817D01*
X184461430Y-121654223D01*
X184462925Y-121657191D01*
X184564083Y-121630607D01*
X184776768Y-121515333D01*
X184950638Y-121405091D01*
X185271586Y-121215396D01*
X185643723Y-121048222D01*
X186106390Y-120889765D01*
X186698925Y-120726219D01*
X187298881Y-120581051D01*
X187780811Y-120451873D01*
X188259998Y-120294851D01*
X188648135Y-120139530D01*
X188715053Y-120107249D01*
X189242945Y-119839746D01*
X189057186Y-120130573D01*
X188654868Y-120698198D01*
X188240963Y-121132786D01*
X187772583Y-121461484D01*
X187206837Y-121711441D01*
X186500835Y-121909803D01*
X186117763Y-121991081D01*
X185617427Y-122101421D01*
X185146413Y-122225907D01*
X184768204Y-122346713D01*
X184593763Y-122418995D01*
X184282340Y-122591384D01*
X183978393Y-122785673D01*
X183726044Y-122970021D01*
X183569413Y-123112587D01*
X183543956Y-123176621D01*
X183648935Y-123156545D01*
X183888545Y-123065072D01*
X184215205Y-122920743D01*
X184287229Y-122886961D01*
X184560486Y-122760731D01*
X184789900Y-122670856D01*
X185019046Y-122610558D01*
X185291494Y-122573058D01*
X185650819Y-122551580D01*
X186140593Y-122539343D01*
X186563000Y-122532946D01*
X188137800Y-122510893D01*
X187704771Y-122715127D01*
X187312556Y-122845869D01*
X186763152Y-122950349D01*
X186280271Y-123005481D01*
X185797621Y-123062852D01*
X185346997Y-123143762D01*
X184964883Y-123238183D01*
X184687765Y-123336089D01*
X184552129Y-123427452D01*
X184557499Y-123478965D01*
X184680006Y-123481745D01*
X184828474Y-123422521D01*
X185013779Y-123372796D01*
X185350968Y-123326256D01*
X185788744Y-123288716D01*
X186183907Y-123268829D01*
X186678015Y-123242861D01*
X187125371Y-123203405D01*
X187469680Y-123156325D01*
X187630332Y-123118141D01*
X187783608Y-123068820D01*
X187814993Y-123088763D01*
X187713524Y-123199094D01*
X187477400Y-123412807D01*
X186663783Y-124002400D01*
X185754911Y-124412934D01*
X185572400Y-124470268D01*
X185248949Y-124554360D01*
X185087440Y-124550495D01*
X185058515Y-124439234D01*
X185132819Y-124201137D01*
X185139464Y-124183589D01*
X185176292Y-123954479D01*
X185079100Y-123858778D01*
X184871711Y-123901926D01*
X184611721Y-124063066D01*
X184280688Y-124283966D01*
X183918291Y-124450120D01*
X183462701Y-124585463D01*
X183007000Y-124684227D01*
X182658883Y-124754786D01*
X182486242Y-124803679D01*
X182465092Y-124848022D01*
X182571444Y-124904927D01*
X182651400Y-124937927D01*
X182979856Y-125006457D01*
X183406381Y-125012072D01*
X183836846Y-124957810D01*
X184073800Y-124892008D01*
X184124430Y-124896132D01*
X184026330Y-124990651D01*
X183916918Y-125072355D01*
X183381533Y-125355399D01*
X182771856Y-125526358D01*
X182448200Y-125558774D01*
X182257850Y-125571691D01*
X182253542Y-125605835D01*
X182346600Y-125648210D01*
X182666611Y-125695266D01*
X183103275Y-125646402D01*
X183598157Y-125508822D01*
X183659604Y-125486346D01*
X183900931Y-125401715D01*
X183986902Y-125395418D01*
X183949544Y-125467190D01*
X183935805Y-125484043D01*
X183717122Y-125650565D01*
X183361959Y-125822947D01*
X182934739Y-125976607D01*
X182499890Y-126086958D01*
X182264105Y-126121963D01*
X181729190Y-126179264D01*
X181371137Y-126233314D01*
X181163804Y-126289715D01*
X181081048Y-126354070D01*
X181076600Y-126376450D01*
X181155660Y-126433864D01*
X181277023Y-126416681D01*
X181449211Y-126401553D01*
X181734337Y-126414153D01*
X182081099Y-126447553D01*
X182438199Y-126494826D01*
X182754334Y-126549044D01*
X182978205Y-126603281D01*
X183058511Y-126650610D01*
X183054933Y-126656757D01*
X182930909Y-126701567D01*
X182659332Y-126762457D01*
X182293941Y-126827706D01*
X182212157Y-126840582D01*
X181432200Y-126960565D01*
X182499000Y-126929342D01*
X182964474Y-126908653D01*
X183369895Y-126877729D01*
X183661948Y-126841339D01*
X183769000Y-126815737D01*
X183913996Y-126775670D01*
X183917187Y-126821748D01*
X183807058Y-126929250D01*
X183612094Y-127073454D01*
X183360780Y-127229637D01*
X183181899Y-127325274D01*
X182694111Y-127507849D01*
X182161782Y-127578457D01*
X181543725Y-127537875D01*
X180798756Y-127386881D01*
X180737928Y-127371463D01*
X179932567Y-127218522D01*
X179302041Y-127201735D01*
X178764932Y-127191564D01*
X178386994Y-127076242D01*
X178175666Y-126859293D01*
X178130843Y-126646771D01*
X178167683Y-126450947D01*
X178311107Y-126299710D01*
X178555684Y-126164171D01*
X178830656Y-126047060D01*
X179049761Y-125979769D01*
X179179206Y-125965640D01*
X179185197Y-126008016D01*
X179033941Y-126110242D01*
X179019200Y-126118312D01*
X178796111Y-126277183D01*
X178748022Y-126396610D01*
X178871849Y-126447975D01*
X179052712Y-126429417D01*
X179708721Y-126201486D01*
X180272707Y-125797276D01*
X180746580Y-125214567D01*
X181132252Y-124451140D01*
X181370949Y-123736473D01*
X181575664Y-122806658D01*
X181657291Y-121903321D01*
X181613844Y-120980293D01*
X181443337Y-119991402D01*
X181165608Y-118961104D01*
X180994213Y-118377842D01*
X180898208Y-117935635D01*
X180887301Y-117583243D01*
X180971201Y-117269429D01*
X181159618Y-116942954D01*
X181462261Y-116552580D01*
X181668613Y-116306600D01*
X181997394Y-115873402D01*
X182325953Y-115367305D01*
X182584224Y-114896400D01*
X182588350Y-114887748D01*
X182765772Y-114523904D01*
X182880481Y-114323106D01*
X182951824Y-114262508D01*
X182999147Y-114319263D01*
X183018530Y-114379748D01*
X183081371Y-114781167D01*
X183094393Y-115291070D01*
X183060198Y-115821618D01*
X182981388Y-116284973D01*
X182959758Y-116364359D01*
X182702564Y-116976713D01*
X182269450Y-117678241D01*
X181974461Y-118078069D01*
X181743361Y-118376338D01*
X182077572Y-118179669D01*
X182301209Y-118008084D01*
X182607434Y-117721217D01*
X182953805Y-117363967D01*
X183297883Y-116981234D01*
X183597226Y-116617916D01*
X183749385Y-116410993D01*
X183835517Y-116294347D01*
X183886688Y-116274814D01*
X183911993Y-116380774D01*
X183920530Y-116640606D01*
X183921400Y-116947656D01*
X183895263Y-117484164D01*
X183822965Y-117926966D01*
X183763851Y-118113263D01*
X183475645Y-118594853D01*
X183054294Y-119037345D01*
X182575200Y-119365568D01*
X182330371Y-119519252D01*
X182207513Y-119649533D01*
X182220114Y-119726138D01*
X182381661Y-119718796D01*
X182422800Y-119707642D01*
X183082989Y-119437116D01*
X183607653Y-119060605D01*
X183853951Y-118778067D01*
X184018475Y-118571363D01*
X184215950Y-118390792D01*
X184485953Y-118209405D01*
X184868061Y-118000254D01*
X185339676Y-117766415D01*
X185815962Y-117529959D01*
X186252081Y-117302570D01*
X186600496Y-117109731D01*
X186813671Y-116976924D01*
X186817000Y-116974488D01*
X187072038Y-116802197D01*
X187420000Y-116586329D01*
X187705463Y-116419487D01*
X188107679Y-116169622D01*
X188550806Y-115861302D01*
X188857959Y-115625733D01*
X189426792Y-115162365D01*
X189254028Y-115496454D01*
X188989552Y-115900719D01*
X188592930Y-116336294D01*
X188049843Y-116816054D01*
X187345969Y-117352874D01*
X186651583Y-117836040D01*
X186164025Y-118167729D01*
X185735959Y-118464681D01*
X185395721Y-118706775D01*
X185171646Y-118873889D01*
X185093247Y-118942622D01*
X185148710Y-118934018D01*
X185346124Y-118836743D01*
X185654574Y-118668927D01*
X186043143Y-118448702D01*
X186480914Y-118194200D01*
X186936972Y-117923552D01*
X187380401Y-117654889D01*
X187780283Y-117406343D01*
X188105702Y-117196044D01*
X188296173Y-117064215D01*
X188639749Y-116783331D01*
X189014482Y-116434170D01*
X189257102Y-116181646D01*
X189499727Y-115916603D01*
X189633385Y-115791435D01*
X189682413Y-115792653D01*
X190437535Y-115792653D01*
X190579282Y-115634195D01*
X190849430Y-115304426D01*
X191141190Y-114928723D01*
X191425543Y-114545528D01*
X191673468Y-114193280D01*
X191855945Y-113910420D01*
X191943957Y-113735387D01*
X191947800Y-113713347D01*
X191889287Y-113760461D01*
X191731734Y-113936081D01*
X191502127Y-114209310D01*
X191331925Y-114418522D01*
X191030491Y-114777629D01*
X190741257Y-115095412D01*
X190509279Y-115323404D01*
X190432303Y-115386145D01*
X190148557Y-115588190D01*
X190201001Y-115313847D01*
X190304348Y-115112080D01*
X190363671Y-115036600D01*
X189509400Y-115036600D01*
X189458600Y-115087400D01*
X189407800Y-115036600D01*
X189458600Y-114985800D01*
X189509400Y-115036600D01*
X190363671Y-115036600D01*
X190553076Y-114795614D01*
X190935349Y-114378486D01*
X191298135Y-114012388D01*
X191721159Y-113598507D01*
X192018505Y-113324921D01*
X192200740Y-113200261D01*
X192278429Y-113233161D01*
X192624026Y-113233161D01*
X192692767Y-112951488D01*
X192826041Y-112340959D01*
X192916456Y-111900045D01*
X192966843Y-111600364D01*
X192980032Y-111413536D01*
X192958854Y-111311178D01*
X192906139Y-111264909D01*
X192862200Y-111252584D01*
X192727871Y-111328474D01*
X192550932Y-111601128D01*
X192401844Y-111908496D01*
X192093887Y-112594233D01*
X192133433Y-111811103D01*
X192133442Y-111564337D01*
X191719757Y-111564337D01*
X191690527Y-112209694D01*
X191591977Y-112738975D01*
X191419029Y-113178780D01*
X191166602Y-113555707D01*
X190829615Y-113896354D01*
X190808305Y-113914756D01*
X190373000Y-114287946D01*
X190342614Y-113605764D01*
X190353112Y-113069417D01*
X190429888Y-112640268D01*
X190459064Y-112556603D01*
X190534728Y-112325248D01*
X190635348Y-111960397D01*
X190749596Y-111510425D01*
X190866144Y-111023712D01*
X190973664Y-110548632D01*
X191060829Y-110133564D01*
X191116309Y-109826885D01*
X191130220Y-109690366D01*
X191102366Y-109726671D01*
X191029729Y-109926705D01*
X190922951Y-110258700D01*
X190792671Y-110690890D01*
X190776102Y-110747501D01*
X190414078Y-111885737D01*
X190043970Y-112849542D01*
X189670473Y-113627262D01*
X189496585Y-113922845D01*
X189282675Y-114237827D01*
X189029431Y-114578039D01*
X188769817Y-114903275D01*
X188536795Y-115173328D01*
X188363329Y-115347989D01*
X188291961Y-115392200D01*
X188287211Y-115304951D01*
X188340241Y-115076268D01*
X188439068Y-114757200D01*
X188546135Y-114485048D01*
X188729648Y-114066464D01*
X188973578Y-113535951D01*
X189261898Y-112928017D01*
X189294269Y-112861486D01*
X188366687Y-112861486D01*
X188321630Y-113524990D01*
X188215019Y-114190146D01*
X188058003Y-114773117D01*
X187982070Y-114967947D01*
X187742371Y-115461289D01*
X187492309Y-115838804D01*
X187185768Y-116147753D01*
X186776636Y-116435398D01*
X186271624Y-116720972D01*
X185810946Y-116975381D01*
X185364539Y-117237440D01*
X184996178Y-117468998D01*
X184835800Y-117579892D01*
X184574487Y-117766437D01*
X184381737Y-117892199D01*
X184315966Y-117924863D01*
X184291525Y-117835729D01*
X184284805Y-117593676D01*
X184296889Y-117248301D01*
X184300074Y-117195600D01*
X184335533Y-116809429D01*
X184401422Y-116501242D01*
X184522611Y-116197675D01*
X184601070Y-116052600D01*
X183616600Y-116052600D01*
X183565800Y-116103400D01*
X183515000Y-116052600D01*
X183565800Y-116001800D01*
X183616600Y-116052600D01*
X184601070Y-116052600D01*
X184723965Y-115825364D01*
X184819909Y-115661989D01*
X185060895Y-115284441D01*
X185391801Y-114804919D01*
X185773456Y-114278376D01*
X186166689Y-113759765D01*
X186268374Y-113629989D01*
X186639062Y-113150308D01*
X186991529Y-112675653D01*
X187293041Y-112251388D01*
X187510862Y-111922875D01*
X187562821Y-111836200D01*
X187658252Y-111683800D01*
X187274200Y-111683800D01*
X187223400Y-111734600D01*
X187172600Y-111683800D01*
X187223400Y-111633000D01*
X187274200Y-111683800D01*
X187658252Y-111683800D01*
X187740785Y-111551999D01*
X187815779Y-111480600D01*
X187375800Y-111480600D01*
X187325000Y-111531400D01*
X187274200Y-111480600D01*
X187325000Y-111429800D01*
X187375800Y-111480600D01*
X187815779Y-111480600D01*
X187846207Y-111451631D01*
X187879691Y-111536798D01*
X187841838Y-111809204D01*
X187733254Y-112270550D01*
X187726279Y-112297453D01*
X187519871Y-112901902D01*
X187190805Y-113587532D01*
X186729992Y-114370846D01*
X186128348Y-115268346D01*
X185959466Y-115506087D01*
X185646502Y-115944620D01*
X185447747Y-116230451D01*
X185357344Y-116374811D01*
X185369437Y-116388935D01*
X185478172Y-116284053D01*
X185648071Y-116103400D01*
X186352951Y-115288729D01*
X186972683Y-114464172D01*
X187488466Y-113659754D01*
X187881495Y-112905504D01*
X188132969Y-112231447D01*
X188173373Y-112070655D01*
X188259003Y-111683800D01*
X188339041Y-112283472D01*
X188366687Y-112861486D01*
X189294269Y-112861486D01*
X189578580Y-112277167D01*
X189772241Y-111887000D01*
X190096414Y-111229161D01*
X190399627Y-110595628D01*
X190666281Y-110020430D01*
X190694636Y-109956600D01*
X190322200Y-109956600D01*
X190271400Y-110007400D01*
X190220600Y-109956600D01*
X190271400Y-109905800D01*
X190322200Y-109956600D01*
X190694636Y-109956600D01*
X190880774Y-109537594D01*
X191027505Y-109181147D01*
X191076498Y-109042200D01*
X191185436Y-108709624D01*
X191281746Y-108456860D01*
X191336627Y-108350714D01*
X191372883Y-108416890D01*
X191424664Y-108653020D01*
X191486410Y-109026954D01*
X191552559Y-109506544D01*
X191590584Y-109819002D01*
X191684750Y-110776306D01*
X191719757Y-111564337D01*
X192133442Y-111564337D01*
X192133452Y-111300699D01*
X192095435Y-110643296D01*
X192025869Y-109890157D01*
X191931241Y-109092545D01*
X191818038Y-108301723D01*
X191692747Y-107568954D01*
X191561856Y-106945502D01*
X191476978Y-106623607D01*
X191394313Y-106466215D01*
X191303189Y-106497881D01*
X191210628Y-106705055D01*
X191123650Y-107074185D01*
X191071985Y-107405415D01*
X191008971Y-107771021D01*
X190913614Y-108195117D01*
X190798067Y-108637253D01*
X190674488Y-109056978D01*
X190555031Y-109413844D01*
X190451853Y-109667401D01*
X190377109Y-109777199D01*
X190360086Y-109774352D01*
X190352248Y-109662515D01*
X190364638Y-109396582D01*
X190394549Y-109024357D01*
X190413540Y-108829697D01*
X190447395Y-107659667D01*
X190104791Y-107659667D01*
X190089643Y-108347128D01*
X190085229Y-108432600D01*
X190045784Y-109004472D01*
X189987039Y-109496367D01*
X189896456Y-109960941D01*
X189761498Y-110450851D01*
X189569627Y-111018753D01*
X189308306Y-111717305D01*
X189294715Y-111752649D01*
X189105943Y-112231130D01*
X188970773Y-112539376D01*
X188876777Y-112699326D01*
X188811529Y-112732919D01*
X188769775Y-112679379D01*
X188749163Y-112507321D01*
X188798228Y-112215217D01*
X188922298Y-111778309D01*
X189041424Y-111417416D01*
X189218118Y-110840009D01*
X189388710Y-110174664D01*
X189542903Y-109473685D01*
X189670403Y-108789372D01*
X189760913Y-108174030D01*
X189804137Y-107679959D01*
X189805996Y-107533503D01*
X189789741Y-107417335D01*
X189749222Y-107500648D01*
X189684220Y-107784188D01*
X189601397Y-108229400D01*
X189497499Y-108758699D01*
X189368864Y-109320266D01*
X189225675Y-109879250D01*
X189078110Y-110400799D01*
X188936353Y-110850059D01*
X188810583Y-111192180D01*
X188710982Y-111392310D01*
X188666490Y-111429800D01*
X188614085Y-111340398D01*
X188613160Y-111277400D01*
X187477400Y-111277400D01*
X187426600Y-111328200D01*
X187375800Y-111277400D01*
X187426600Y-111226600D01*
X187477400Y-111277400D01*
X188613160Y-111277400D01*
X188610630Y-111105241D01*
X188620122Y-111023400D01*
X187579000Y-111023400D01*
X187541827Y-111107028D01*
X187511267Y-111091133D01*
X187499108Y-110970557D01*
X187511267Y-110955666D01*
X187571668Y-110969613D01*
X187579000Y-111023400D01*
X188620122Y-111023400D01*
X188649063Y-110773902D01*
X188722324Y-110395955D01*
X188756167Y-110270340D01*
X187767452Y-110270340D01*
X187734673Y-110500209D01*
X187731400Y-110515400D01*
X187672692Y-110720761D01*
X187623150Y-110795270D01*
X187619427Y-110792892D01*
X187608525Y-110675083D01*
X187638754Y-110445667D01*
X187642500Y-110426500D01*
X187698612Y-110220150D01*
X187749712Y-110145999D01*
X187754474Y-110149007D01*
X187767452Y-110270340D01*
X188756167Y-110270340D01*
X188823353Y-110020972D01*
X188872380Y-109881400D01*
X186973981Y-109881400D01*
X186964257Y-110226744D01*
X186923406Y-110644148D01*
X186848628Y-111111840D01*
X186817090Y-111268503D01*
X186579709Y-112091365D01*
X186211788Y-112896011D01*
X185691517Y-113726733D01*
X185432178Y-114081104D01*
X185126928Y-114497953D01*
X184840384Y-114914983D01*
X184614581Y-115269874D01*
X184530562Y-115417801D01*
X184388990Y-115669741D01*
X184289902Y-115812680D01*
X184260555Y-115824201D01*
X184228230Y-115676734D01*
X184182352Y-115468400D01*
X184085352Y-115244753D01*
X183955274Y-115207230D01*
X183822418Y-115348890D01*
X183738794Y-115570000D01*
X183687539Y-115746950D01*
X183656282Y-115788528D01*
X183639093Y-115675023D01*
X183630042Y-115386728D01*
X183627101Y-115198763D01*
X183633055Y-114873390D01*
X183670066Y-114578558D01*
X183752130Y-114281260D01*
X183893244Y-113948489D01*
X184107406Y-113547236D01*
X184408612Y-113044496D01*
X184810832Y-112407301D01*
X185066123Y-111992175D01*
X185364235Y-111483663D01*
X185654531Y-110968809D01*
X185756519Y-110781701D01*
X185960666Y-110413161D01*
X186124694Y-110137381D01*
X186229160Y-109985758D01*
X186256789Y-109973904D01*
X186220714Y-110151645D01*
X186120896Y-110473389D01*
X185973207Y-110896186D01*
X185793515Y-111377082D01*
X185597690Y-111873128D01*
X185401602Y-112341371D01*
X185287169Y-112598200D01*
X184993425Y-113242312D01*
X184781753Y-113717669D01*
X184646087Y-114038606D01*
X184580361Y-114219458D01*
X184577776Y-114274600D01*
X184649551Y-114190075D01*
X184794378Y-113960105D01*
X184992667Y-113620099D01*
X185224826Y-113205465D01*
X185471265Y-112751609D01*
X185712392Y-112293941D01*
X185928618Y-111867867D01*
X186061103Y-111593670D01*
X186273668Y-111101355D01*
X186473977Y-110571136D01*
X186626188Y-110099550D01*
X186653676Y-109997608D01*
X186743437Y-109702600D01*
X186359800Y-109702600D01*
X186322627Y-109786228D01*
X186292067Y-109770333D01*
X186279908Y-109649757D01*
X186292067Y-109634866D01*
X186352468Y-109648813D01*
X186359800Y-109702600D01*
X186743437Y-109702600D01*
X186757596Y-109656068D01*
X186844385Y-109495449D01*
X186911246Y-109493980D01*
X186955378Y-109629888D01*
X186973981Y-109881400D01*
X188872380Y-109881400D01*
X188897021Y-109811252D01*
X189264835Y-108653345D01*
X189320548Y-108359373D01*
X188579846Y-108359373D01*
X188573834Y-108875330D01*
X188548264Y-109309307D01*
X188502540Y-109625844D01*
X188436067Y-109789481D01*
X188404724Y-109804200D01*
X188330148Y-109717627D01*
X188243810Y-109505996D01*
X188233947Y-109474000D01*
X188135955Y-109258785D01*
X188025731Y-109167503D01*
X188012520Y-109168272D01*
X187954979Y-109127723D01*
X187928100Y-108959291D01*
X187930106Y-108636589D01*
X187951046Y-108253755D01*
X187965219Y-107469904D01*
X187918625Y-106608319D01*
X187819232Y-105747764D01*
X187675007Y-104967004D01*
X187582513Y-104610443D01*
X187475307Y-104262571D01*
X187412584Y-104099894D01*
X187393877Y-104125480D01*
X187418722Y-104342399D01*
X187486651Y-104753718D01*
X187526655Y-104978200D01*
X187606558Y-105592463D01*
X187655318Y-106333803D01*
X187672409Y-107132389D01*
X187657303Y-107918388D01*
X187609475Y-108621968D01*
X187557160Y-109022628D01*
X187433720Y-109753400D01*
X187310171Y-109093000D01*
X187252630Y-108711156D01*
X187240091Y-108361988D01*
X187274251Y-107965561D01*
X187343590Y-107518200D01*
X187439908Y-106582111D01*
X187434787Y-105561336D01*
X187332079Y-104544982D01*
X187182591Y-103796332D01*
X186994850Y-103057057D01*
X187200833Y-103306428D01*
X187383772Y-103581397D01*
X187605112Y-103993177D01*
X187839221Y-104485731D01*
X188060466Y-105003023D01*
X188243214Y-105489018D01*
X188337356Y-105791000D01*
X188420209Y-106184952D01*
X188486480Y-106674225D01*
X188535573Y-107223360D01*
X188566894Y-107796896D01*
X188579846Y-108359373D01*
X189320548Y-108359373D01*
X189503017Y-107396580D01*
X189587009Y-106455097D01*
X189615773Y-105947986D01*
X189649461Y-105634163D01*
X189693471Y-105514951D01*
X189753201Y-105591670D01*
X189834047Y-105865643D01*
X189941409Y-106338192D01*
X189986719Y-106553000D01*
X190071803Y-107086810D01*
X190104791Y-107659667D01*
X190447395Y-107659667D01*
X190450174Y-107563649D01*
X190305579Y-106311551D01*
X189986520Y-105111788D01*
X189594428Y-104183970D01*
X189397229Y-103847678D01*
X189234332Y-103672751D01*
X189121150Y-103665505D01*
X189073095Y-103832253D01*
X189077356Y-103972117D01*
X189131630Y-104730837D01*
X189163985Y-105454668D01*
X189173704Y-106100781D01*
X189160067Y-106626351D01*
X189127479Y-106959400D01*
X189035448Y-107518200D01*
X188960855Y-107010200D01*
X188688475Y-105739249D01*
X188261151Y-104537578D01*
X187694481Y-103446026D01*
X187466839Y-103098600D01*
X187069536Y-102554153D01*
X186725020Y-102135154D01*
X186446284Y-101855061D01*
X186246320Y-101727333D01*
X186155422Y-101740049D01*
G37*
X186155422Y-101740049D02*
X186109684Y-101863981D01*
X186164766Y-102079617D01*
X186289461Y-102349649D01*
X186715321Y-103412749D01*
X186972751Y-104579931D01*
X187059608Y-105838498D01*
X187023268Y-106703344D01*
X186948913Y-107595972D01*
X186752170Y-107156534D01*
X186568036Y-106779553D01*
X186421086Y-106570048D01*
X186288724Y-106501288D01*
X186210059Y-106515238D01*
X186140961Y-106596248D01*
X186110777Y-106793621D01*
X186116098Y-107142130D01*
X186128473Y-107347399D01*
X186118088Y-108105830D01*
X185976922Y-108877016D01*
X185695890Y-109687966D01*
X185265906Y-110565690D01*
X184763668Y-111404512D01*
X184543406Y-111765312D01*
X184276412Y-112227514D01*
X184008283Y-112711509D01*
X183911227Y-112892811D01*
X183433051Y-113797023D01*
X183217961Y-113375411D01*
X183011448Y-113067830D01*
X182817612Y-112960134D01*
X182649609Y-113049011D01*
X182520593Y-113331146D01*
X182471656Y-113563400D01*
X182253061Y-114350223D01*
X181851621Y-115133688D01*
X181406977Y-115738172D01*
X180946859Y-116308230D01*
X180626476Y-116786895D01*
X180434916Y-117219141D01*
X180361268Y-117649944D01*
X180394620Y-118124277D01*
X180524063Y-118687116D01*
X180616026Y-118998370D01*
X180893304Y-120063744D01*
X181037298Y-121059049D01*
X181057764Y-122058544D01*
X181047071Y-122279456D01*
X180973418Y-123055874D01*
X180843549Y-123695052D01*
X180639709Y-124259275D01*
X180344143Y-124810830D01*
X180309666Y-124866400D01*
X179943339Y-125450600D01*
X179139972Y-125450600D01*
X178723794Y-125457053D01*
X178449959Y-125486545D01*
X178257762Y-125554274D01*
X178086495Y-125675437D01*
X178023930Y-125730000D01*
X177766456Y-126073428D01*
X177643614Y-126485071D01*
X177652119Y-126910580D01*
X177788680Y-127295610D01*
X178050012Y-127585812D01*
X178139466Y-127639791D01*
X178440932Y-127728306D01*
X178930104Y-127777310D01*
X179420555Y-127788605D01*
X179939621Y-127805659D01*
X180449136Y-127850274D01*
X180866673Y-127914433D01*
X180975000Y-127939800D01*
X181606828Y-128054907D01*
X182248653Y-128077528D01*
X182822378Y-128007386D01*
X183033296Y-127947004D01*
X183322602Y-127809812D01*
X183678831Y-127594766D01*
X183947696Y-127405532D01*
X184353458Y-127135807D01*
X184729808Y-126986512D01*
X185022186Y-126932030D01*
X185900726Y-126735648D01*
X186663178Y-126379257D01*
X187316866Y-125856950D01*
X187869117Y-125162818D01*
X188327254Y-124290955D01*
X188343132Y-124253704D01*
X188532355Y-123817969D01*
X188550121Y-123782982D01*
X188136547Y-123782982D01*
X188084224Y-123994144D01*
X187921715Y-124363647D01*
X187879252Y-124449719D01*
X187551429Y-125052198D01*
X187241678Y-125497483D01*
X186918930Y-125825548D01*
X186669306Y-126006429D01*
X186279277Y-126209631D01*
X185816126Y-126389438D01*
X185365544Y-126516463D01*
X185051960Y-126561123D01*
X184889031Y-126546484D01*
X184898823Y-126465384D01*
X184933707Y-126420250D01*
X185003855Y-126227028D01*
X184899218Y-126088243D01*
X184862363Y-126079729D01*
X184511630Y-126079729D01*
X184457194Y-126143376D01*
X184429400Y-126161800D01*
X184238141Y-126220251D01*
X183939808Y-126249529D01*
X183819800Y-126250160D01*
X183362600Y-126240032D01*
X183769000Y-126155971D01*
X184082570Y-126100245D01*
X184340910Y-126069377D01*
X184378600Y-126067610D01*
X184511630Y-126079729D01*
X184862363Y-126079729D01*
X184753604Y-126054605D01*
X184759800Y-126029371D01*
X184928935Y-125967332D01*
X185226704Y-125880518D01*
X185324436Y-125854462D01*
X186196429Y-125558138D01*
X186910098Y-125170392D01*
X187392142Y-124762638D01*
X187731400Y-124401910D01*
X187375800Y-124660260D01*
X186925380Y-124955442D01*
X186482068Y-125164602D01*
X185965589Y-125320955D01*
X185573566Y-125405912D01*
X185164052Y-125486693D01*
X184805995Y-125558292D01*
X184568059Y-125606959D01*
X184546298Y-125611577D01*
X184307596Y-125662742D01*
X184520490Y-125363760D01*
X184674260Y-125192893D01*
X184883299Y-125068912D01*
X185203601Y-124964686D01*
X185480724Y-124898511D01*
X185933352Y-124772631D01*
X186445134Y-124590985D01*
X186960277Y-124377618D01*
X187422987Y-124156573D01*
X187777470Y-123951897D01*
X187909823Y-123851673D01*
X188078482Y-123734159D01*
X188136547Y-123782982D01*
X188550121Y-123782982D01*
X188681384Y-123524491D01*
X188825107Y-123326706D01*
X188998412Y-123178050D01*
X189236187Y-123031960D01*
X189274995Y-123009971D01*
X189909602Y-122563738D01*
X190568857Y-121932256D01*
X191239955Y-121129992D01*
X191910088Y-120171415D01*
X191957537Y-120095244D01*
X191476161Y-120095244D01*
X191290117Y-120368754D01*
X191010770Y-120730480D01*
X190686021Y-121122511D01*
X190363767Y-121486937D01*
X190103137Y-121755235D01*
X189824405Y-122004490D01*
X189504500Y-122267333D01*
X189187958Y-122510066D01*
X188919312Y-122698988D01*
X188743096Y-122800401D01*
X188710576Y-122809000D01*
X188746955Y-122743536D01*
X188896313Y-122571193D01*
X189127216Y-122328045D01*
X189148840Y-122306036D01*
X189411768Y-122024207D01*
X189466651Y-121945400D01*
X188595000Y-121945400D01*
X188544200Y-121996200D01*
X188493400Y-121945400D01*
X188544200Y-121894600D01*
X188595000Y-121945400D01*
X189466651Y-121945400D01*
X189537409Y-121843800D01*
X188798200Y-121843800D01*
X188747400Y-121894600D01*
X188696600Y-121843800D01*
X188747400Y-121793000D01*
X188798200Y-121843800D01*
X189537409Y-121843800D01*
X189540858Y-121838848D01*
X189556814Y-121714488D01*
X189525719Y-121660263D01*
X189492674Y-121564123D01*
X189570866Y-121449221D01*
X189786764Y-121287220D01*
X190002186Y-121150206D01*
X190327011Y-120937716D01*
X190594234Y-120741421D01*
X190739087Y-120610885D01*
X190749261Y-120558368D01*
X190615611Y-120613181D01*
X190437671Y-120718058D01*
X189742817Y-121097508D01*
X188900848Y-121459233D01*
X188656057Y-121550288D01*
X188259913Y-121693072D01*
X188706857Y-121203490D01*
X188984775Y-120921411D01*
X189228201Y-120752694D01*
X189524420Y-120648036D01*
X189793609Y-120589646D01*
X190253023Y-120476094D01*
X190736339Y-120319887D01*
X190990905Y-120218836D01*
X191269166Y-120109027D01*
X191443202Y-120066620D01*
X191476161Y-120095244D01*
X191957537Y-120095244D01*
X192201073Y-119704293D01*
X192380811Y-119394514D01*
X192508869Y-119152247D01*
X192557401Y-119030376D01*
X192483877Y-118950064D01*
X192295128Y-118979221D01*
X192038890Y-119105929D01*
X191915622Y-119190595D01*
X191683823Y-119346438D01*
X191385519Y-119524365D01*
X191080514Y-119691571D01*
X190828611Y-119815246D01*
X190690649Y-119862600D01*
X190733834Y-119796289D01*
X190889509Y-119620291D01*
X191126884Y-119369007D01*
X191197542Y-119296245D01*
X191561957Y-118870171D01*
X191913071Y-118342200D01*
X192280804Y-117666852D01*
X192317157Y-117594445D01*
X192558752Y-117123539D01*
X192793158Y-116689700D01*
X192796444Y-116683985D01*
X192354200Y-116683985D01*
X192307672Y-116810093D01*
X192184751Y-117065562D01*
X192010434Y-117403652D01*
X191809718Y-117777627D01*
X191607600Y-118140749D01*
X191429077Y-118446278D01*
X191319486Y-118618643D01*
X191159838Y-118807423D01*
X190908545Y-119057031D01*
X190602458Y-119336316D01*
X190278425Y-119614126D01*
X189973295Y-119859312D01*
X189723920Y-120040722D01*
X189567148Y-120127205D01*
X189536027Y-120126293D01*
X189562590Y-120027988D01*
X189657935Y-119790568D01*
X189803803Y-119458532D01*
X189864171Y-119326562D01*
X190027887Y-118962883D01*
X190151961Y-118669487D01*
X190216068Y-118495095D01*
X190220600Y-118472084D01*
X190302633Y-118380578D01*
X190511751Y-118239652D01*
X190663623Y-118154028D01*
X191001112Y-117934710D01*
X191354183Y-117645196D01*
X191501823Y-117501065D01*
X191897000Y-117083125D01*
X191473278Y-117408202D01*
X190988185Y-117727705D01*
X190396535Y-118015358D01*
X189657823Y-118289813D01*
X189333241Y-118393565D01*
X188593985Y-118621651D01*
X188873893Y-118286578D01*
X189078525Y-118091329D01*
X189366072Y-117915704D01*
X189781283Y-117735313D01*
X190100152Y-117618216D01*
X190605213Y-117430643D01*
X191127551Y-117220843D01*
X191577536Y-117025270D01*
X191700352Y-116967412D01*
X192018915Y-116817063D01*
X192251613Y-116715528D01*
X192353011Y-116682502D01*
X192354200Y-116683985D01*
X192796444Y-116683985D01*
X192993003Y-116342232D01*
X193127017Y-116135578D01*
X193282695Y-115903253D01*
X193365879Y-115729859D01*
X193370200Y-115703778D01*
X193293909Y-115611409D01*
X193120865Y-115605973D01*
X192934818Y-115681075D01*
X192866832Y-115742219D01*
X192676565Y-115911350D01*
X192364900Y-116130075D01*
X191993398Y-116359578D01*
X191623619Y-116561044D01*
X191413925Y-116658333D01*
X191034945Y-116816681D01*
X191439859Y-116282240D01*
X191814676Y-115667898D01*
X192160218Y-114853194D01*
X192476202Y-113838889D01*
X192624026Y-113233161D01*
X192278429Y-113233161D01*
X192262140Y-113432251D01*
X192162438Y-113806162D01*
X191989890Y-114363526D01*
X191936257Y-114533662D01*
X191586619Y-115419857D01*
X191152241Y-116133570D01*
X190677800Y-116634150D01*
X190414908Y-116829845D01*
X190119675Y-117018296D01*
X189857767Y-117160407D01*
X189698911Y-117216932D01*
X189696425Y-117133297D01*
X189755154Y-116911892D01*
X189842153Y-116657081D01*
X189982479Y-116336007D01*
X190128891Y-116093222D01*
X190219898Y-116002175D01*
X190359765Y-115879592D01*
X190437535Y-115792653D01*
X189682413Y-115792653D01*
X189671146Y-115906767D01*
X189660269Y-115958169D01*
X189585489Y-116190473D01*
X189446357Y-116537316D01*
X189270066Y-116931828D01*
X189229910Y-117016474D01*
X188749769Y-117822476D01*
X188151217Y-118474602D01*
X187421328Y-118982676D01*
X186547172Y-119356519D01*
X185928656Y-119524847D01*
X185495986Y-119640187D01*
X185046754Y-119790326D01*
X184630398Y-119955174D01*
X184296359Y-120114641D01*
X184094077Y-120248635D01*
X184065889Y-120281801D01*
X184075466Y-120359407D01*
X184214691Y-120354796D01*
X184426102Y-120270765D01*
X184606044Y-120208307D01*
X184944666Y-120119694D01*
X185400481Y-120013747D01*
X185932003Y-119899287D01*
X186497743Y-119785134D01*
X187056216Y-119680112D01*
X187565935Y-119593039D01*
X187738661Y-119566427D01*
X188179801Y-119487582D01*
X188611428Y-119388506D01*
X188901819Y-119303087D01*
X189346516Y-119146189D01*
X189097758Y-119412851D01*
X188808572Y-119660407D01*
X188407089Y-119892898D01*
X187867523Y-120122135D01*
X187164088Y-120359930D01*
X186777129Y-120475805D01*
X185994217Y-120732314D01*
X185379342Y-121001568D01*
X185019416Y-121212615D01*
X184731586Y-121414197D01*
X184532551Y-121571817D01*
X184461430Y-121654223D01*
X184462925Y-121657191D01*
X184564083Y-121630607D01*
X184776768Y-121515333D01*
X184950638Y-121405091D01*
X185271586Y-121215396D01*
X185643723Y-121048222D01*
X186106390Y-120889765D01*
X186698925Y-120726219D01*
X187298881Y-120581051D01*
X187780811Y-120451873D01*
X188259998Y-120294851D01*
X188648135Y-120139530D01*
X188715053Y-120107249D01*
X189242945Y-119839746D01*
X189057186Y-120130573D01*
X188654868Y-120698198D01*
X188240963Y-121132786D01*
X187772583Y-121461484D01*
X187206837Y-121711441D01*
X186500835Y-121909803D01*
X186117763Y-121991081D01*
X185617427Y-122101421D01*
X185146413Y-122225907D01*
X184768204Y-122346713D01*
X184593763Y-122418995D01*
X184282340Y-122591384D01*
X183978393Y-122785673D01*
X183726044Y-122970021D01*
X183569413Y-123112587D01*
X183543956Y-123176621D01*
X183648935Y-123156545D01*
X183888545Y-123065072D01*
X184215205Y-122920743D01*
X184287229Y-122886961D01*
X184560486Y-122760731D01*
X184789900Y-122670856D01*
X185019046Y-122610558D01*
X185291494Y-122573058D01*
X185650819Y-122551580D01*
X186140593Y-122539343D01*
X186563000Y-122532946D01*
X188137800Y-122510893D01*
X187704771Y-122715127D01*
X187312556Y-122845869D01*
X186763152Y-122950349D01*
X186280271Y-123005481D01*
X185797621Y-123062852D01*
X185346997Y-123143762D01*
X184964883Y-123238183D01*
X184687765Y-123336089D01*
X184552129Y-123427452D01*
X184557499Y-123478965D01*
X184680006Y-123481745D01*
X184828474Y-123422521D01*
X185013779Y-123372796D01*
X185350968Y-123326256D01*
X185788744Y-123288716D01*
X186183907Y-123268829D01*
X186678015Y-123242861D01*
X187125371Y-123203405D01*
X187469680Y-123156325D01*
X187630332Y-123118141D01*
X187783608Y-123068820D01*
X187814993Y-123088763D01*
X187713524Y-123199094D01*
X187477400Y-123412807D01*
X186663783Y-124002400D01*
X185754911Y-124412934D01*
X185572400Y-124470268D01*
X185248949Y-124554360D01*
X185087440Y-124550495D01*
X185058515Y-124439234D01*
X185132819Y-124201137D01*
X185139464Y-124183589D01*
X185176292Y-123954479D01*
X185079100Y-123858778D01*
X184871711Y-123901926D01*
X184611721Y-124063066D01*
X184280688Y-124283966D01*
X183918291Y-124450120D01*
X183462701Y-124585463D01*
X183007000Y-124684227D01*
X182658883Y-124754786D01*
X182486242Y-124803679D01*
X182465092Y-124848022D01*
X182571444Y-124904927D01*
X182651400Y-124937927D01*
X182979856Y-125006457D01*
X183406381Y-125012072D01*
X183836846Y-124957810D01*
X184073800Y-124892008D01*
X184124430Y-124896132D01*
X184026330Y-124990651D01*
X183916918Y-125072355D01*
X183381533Y-125355399D01*
X182771856Y-125526358D01*
X182448200Y-125558774D01*
X182257850Y-125571691D01*
X182253542Y-125605835D01*
X182346600Y-125648210D01*
X182666611Y-125695266D01*
X183103275Y-125646402D01*
X183598157Y-125508822D01*
X183659604Y-125486346D01*
X183900931Y-125401715D01*
X183986902Y-125395418D01*
X183949544Y-125467190D01*
X183935805Y-125484043D01*
X183717122Y-125650565D01*
X183361959Y-125822947D01*
X182934739Y-125976607D01*
X182499890Y-126086958D01*
X182264105Y-126121963D01*
X181729190Y-126179264D01*
X181371137Y-126233314D01*
X181163804Y-126289715D01*
X181081048Y-126354070D01*
X181076600Y-126376450D01*
X181155660Y-126433864D01*
X181277023Y-126416681D01*
X181449211Y-126401553D01*
X181734337Y-126414153D01*
X182081099Y-126447553D01*
X182438199Y-126494826D01*
X182754334Y-126549044D01*
X182978205Y-126603281D01*
X183058511Y-126650610D01*
X183054933Y-126656757D01*
X182930909Y-126701567D01*
X182659332Y-126762457D01*
X182293941Y-126827706D01*
X182212157Y-126840582D01*
X181432200Y-126960565D01*
X182499000Y-126929342D01*
X182964474Y-126908653D01*
X183369895Y-126877729D01*
X183661948Y-126841339D01*
X183769000Y-126815737D01*
X183913996Y-126775670D01*
X183917187Y-126821748D01*
X183807058Y-126929250D01*
X183612094Y-127073454D01*
X183360780Y-127229637D01*
X183181899Y-127325274D01*
X182694111Y-127507849D01*
X182161782Y-127578457D01*
X181543725Y-127537875D01*
X180798756Y-127386881D01*
X180737928Y-127371463D01*
X179932567Y-127218522D01*
X179302041Y-127201735D01*
X178764932Y-127191564D01*
X178386994Y-127076242D01*
X178175666Y-126859293D01*
X178130843Y-126646771D01*
X178167683Y-126450947D01*
X178311107Y-126299710D01*
X178555684Y-126164171D01*
X178830656Y-126047060D01*
X179049761Y-125979769D01*
X179179206Y-125965640D01*
X179185197Y-126008016D01*
X179033941Y-126110242D01*
X179019200Y-126118312D01*
X178796111Y-126277183D01*
X178748022Y-126396610D01*
X178871849Y-126447975D01*
X179052712Y-126429417D01*
X179708721Y-126201486D01*
X180272707Y-125797276D01*
X180746580Y-125214567D01*
X181132252Y-124451140D01*
X181370949Y-123736473D01*
X181575664Y-122806658D01*
X181657291Y-121903321D01*
X181613844Y-120980293D01*
X181443337Y-119991402D01*
X181165608Y-118961104D01*
X180994213Y-118377842D01*
X180898208Y-117935635D01*
X180887301Y-117583243D01*
X180971201Y-117269429D01*
X181159618Y-116942954D01*
X181462261Y-116552580D01*
X181668613Y-116306600D01*
X181997394Y-115873402D01*
X182325953Y-115367305D01*
X182584224Y-114896400D01*
X182588350Y-114887748D01*
X182765772Y-114523904D01*
X182880481Y-114323106D01*
X182951824Y-114262508D01*
X182999147Y-114319263D01*
X183018530Y-114379748D01*
X183081371Y-114781167D01*
X183094393Y-115291070D01*
X183060198Y-115821618D01*
X182981388Y-116284973D01*
X182959758Y-116364359D01*
X182702564Y-116976713D01*
X182269450Y-117678241D01*
X181974461Y-118078069D01*
X181743361Y-118376338D01*
X182077572Y-118179669D01*
X182301209Y-118008084D01*
X182607434Y-117721217D01*
X182953805Y-117363967D01*
X183297883Y-116981234D01*
X183597226Y-116617916D01*
X183749385Y-116410993D01*
X183835517Y-116294347D01*
X183886688Y-116274814D01*
X183911993Y-116380774D01*
X183920530Y-116640606D01*
X183921400Y-116947656D01*
X183895263Y-117484164D01*
X183822965Y-117926966D01*
X183763851Y-118113263D01*
X183475645Y-118594853D01*
X183054294Y-119037345D01*
X182575200Y-119365568D01*
X182330371Y-119519252D01*
X182207513Y-119649533D01*
X182220114Y-119726138D01*
X182381661Y-119718796D01*
X182422800Y-119707642D01*
X183082989Y-119437116D01*
X183607653Y-119060605D01*
X183853951Y-118778067D01*
X184018475Y-118571363D01*
X184215950Y-118390792D01*
X184485953Y-118209405D01*
X184868061Y-118000254D01*
X185339676Y-117766415D01*
X185815962Y-117529959D01*
X186252081Y-117302570D01*
X186600496Y-117109731D01*
X186813671Y-116976924D01*
X186817000Y-116974488D01*
X187072038Y-116802197D01*
X187420000Y-116586329D01*
X187705463Y-116419487D01*
X188107679Y-116169622D01*
X188550806Y-115861302D01*
X188857959Y-115625733D01*
X189426792Y-115162365D01*
X189254028Y-115496454D01*
X188989552Y-115900719D01*
X188592930Y-116336294D01*
X188049843Y-116816054D01*
X187345969Y-117352874D01*
X186651583Y-117836040D01*
X186164025Y-118167729D01*
X185735959Y-118464681D01*
X185395721Y-118706775D01*
X185171646Y-118873889D01*
X185093247Y-118942622D01*
X185148710Y-118934018D01*
X185346124Y-118836743D01*
X185654574Y-118668927D01*
X186043143Y-118448702D01*
X186480914Y-118194200D01*
X186936972Y-117923552D01*
X187380401Y-117654889D01*
X187780283Y-117406343D01*
X188105702Y-117196044D01*
X188296173Y-117064215D01*
X188639749Y-116783331D01*
X189014482Y-116434170D01*
X189257102Y-116181646D01*
X189499727Y-115916603D01*
X189633385Y-115791435D01*
X189682413Y-115792653D01*
X190437535Y-115792653D01*
X190579282Y-115634195D01*
X190849430Y-115304426D01*
X191141190Y-114928723D01*
X191425543Y-114545528D01*
X191673468Y-114193280D01*
X191855945Y-113910420D01*
X191943957Y-113735387D01*
X191947800Y-113713347D01*
X191889287Y-113760461D01*
X191731734Y-113936081D01*
X191502127Y-114209310D01*
X191331925Y-114418522D01*
X191030491Y-114777629D01*
X190741257Y-115095412D01*
X190509279Y-115323404D01*
X190432303Y-115386145D01*
X190148557Y-115588190D01*
X190201001Y-115313847D01*
X190304348Y-115112080D01*
X190363671Y-115036600D01*
X189509400Y-115036600D01*
X189458600Y-115087400D01*
X189407800Y-115036600D01*
X189458600Y-114985800D01*
X189509400Y-115036600D01*
X190363671Y-115036600D01*
X190553076Y-114795614D01*
X190935349Y-114378486D01*
X191298135Y-114012388D01*
X191721159Y-113598507D01*
X192018505Y-113324921D01*
X192200740Y-113200261D01*
X192278429Y-113233161D01*
X192624026Y-113233161D01*
X192692767Y-112951488D01*
X192826041Y-112340959D01*
X192916456Y-111900045D01*
X192966843Y-111600364D01*
X192980032Y-111413536D01*
X192958854Y-111311178D01*
X192906139Y-111264909D01*
X192862200Y-111252584D01*
X192727871Y-111328474D01*
X192550932Y-111601128D01*
X192401844Y-111908496D01*
X192093887Y-112594233D01*
X192133433Y-111811103D01*
X192133442Y-111564337D01*
X191719757Y-111564337D01*
X191690527Y-112209694D01*
X191591977Y-112738975D01*
X191419029Y-113178780D01*
X191166602Y-113555707D01*
X190829615Y-113896354D01*
X190808305Y-113914756D01*
X190373000Y-114287946D01*
X190342614Y-113605764D01*
X190353112Y-113069417D01*
X190429888Y-112640268D01*
X190459064Y-112556603D01*
X190534728Y-112325248D01*
X190635348Y-111960397D01*
X190749596Y-111510425D01*
X190866144Y-111023712D01*
X190973664Y-110548632D01*
X191060829Y-110133564D01*
X191116309Y-109826885D01*
X191130220Y-109690366D01*
X191102366Y-109726671D01*
X191029729Y-109926705D01*
X190922951Y-110258700D01*
X190792671Y-110690890D01*
X190776102Y-110747501D01*
X190414078Y-111885737D01*
X190043970Y-112849542D01*
X189670473Y-113627262D01*
X189496585Y-113922845D01*
X189282675Y-114237827D01*
X189029431Y-114578039D01*
X188769817Y-114903275D01*
X188536795Y-115173328D01*
X188363329Y-115347989D01*
X188291961Y-115392200D01*
X188287211Y-115304951D01*
X188340241Y-115076268D01*
X188439068Y-114757200D01*
X188546135Y-114485048D01*
X188729648Y-114066464D01*
X188973578Y-113535951D01*
X189261898Y-112928017D01*
X189294269Y-112861486D01*
X188366687Y-112861486D01*
X188321630Y-113524990D01*
X188215019Y-114190146D01*
X188058003Y-114773117D01*
X187982070Y-114967947D01*
X187742371Y-115461289D01*
X187492309Y-115838804D01*
X187185768Y-116147753D01*
X186776636Y-116435398D01*
X186271624Y-116720972D01*
X185810946Y-116975381D01*
X185364539Y-117237440D01*
X184996178Y-117468998D01*
X184835800Y-117579892D01*
X184574487Y-117766437D01*
X184381737Y-117892199D01*
X184315966Y-117924863D01*
X184291525Y-117835729D01*
X184284805Y-117593676D01*
X184296889Y-117248301D01*
X184300074Y-117195600D01*
X184335533Y-116809429D01*
X184401422Y-116501242D01*
X184522611Y-116197675D01*
X184601070Y-116052600D01*
X183616600Y-116052600D01*
X183565800Y-116103400D01*
X183515000Y-116052600D01*
X183565800Y-116001800D01*
X183616600Y-116052600D01*
X184601070Y-116052600D01*
X184723965Y-115825364D01*
X184819909Y-115661989D01*
X185060895Y-115284441D01*
X185391801Y-114804919D01*
X185773456Y-114278376D01*
X186166689Y-113759765D01*
X186268374Y-113629989D01*
X186639062Y-113150308D01*
X186991529Y-112675653D01*
X187293041Y-112251388D01*
X187510862Y-111922875D01*
X187562821Y-111836200D01*
X187658252Y-111683800D01*
X187274200Y-111683800D01*
X187223400Y-111734600D01*
X187172600Y-111683800D01*
X187223400Y-111633000D01*
X187274200Y-111683800D01*
X187658252Y-111683800D01*
X187740785Y-111551999D01*
X187815779Y-111480600D01*
X187375800Y-111480600D01*
X187325000Y-111531400D01*
X187274200Y-111480600D01*
X187325000Y-111429800D01*
X187375800Y-111480600D01*
X187815779Y-111480600D01*
X187846207Y-111451631D01*
X187879691Y-111536798D01*
X187841838Y-111809204D01*
X187733254Y-112270550D01*
X187726279Y-112297453D01*
X187519871Y-112901902D01*
X187190805Y-113587532D01*
X186729992Y-114370846D01*
X186128348Y-115268346D01*
X185959466Y-115506087D01*
X185646502Y-115944620D01*
X185447747Y-116230451D01*
X185357344Y-116374811D01*
X185369437Y-116388935D01*
X185478172Y-116284053D01*
X185648071Y-116103400D01*
X186352951Y-115288729D01*
X186972683Y-114464172D01*
X187488466Y-113659754D01*
X187881495Y-112905504D01*
X188132969Y-112231447D01*
X188173373Y-112070655D01*
X188259003Y-111683800D01*
X188339041Y-112283472D01*
X188366687Y-112861486D01*
X189294269Y-112861486D01*
X189578580Y-112277167D01*
X189772241Y-111887000D01*
X190096414Y-111229161D01*
X190399627Y-110595628D01*
X190666281Y-110020430D01*
X190694636Y-109956600D01*
X190322200Y-109956600D01*
X190271400Y-110007400D01*
X190220600Y-109956600D01*
X190271400Y-109905800D01*
X190322200Y-109956600D01*
X190694636Y-109956600D01*
X190880774Y-109537594D01*
X191027505Y-109181147D01*
X191076498Y-109042200D01*
X191185436Y-108709624D01*
X191281746Y-108456860D01*
X191336627Y-108350714D01*
X191372883Y-108416890D01*
X191424664Y-108653020D01*
X191486410Y-109026954D01*
X191552559Y-109506544D01*
X191590584Y-109819002D01*
X191684750Y-110776306D01*
X191719757Y-111564337D01*
X192133442Y-111564337D01*
X192133452Y-111300699D01*
X192095435Y-110643296D01*
X192025869Y-109890157D01*
X191931241Y-109092545D01*
X191818038Y-108301723D01*
X191692747Y-107568954D01*
X191561856Y-106945502D01*
X191476978Y-106623607D01*
X191394313Y-106466215D01*
X191303189Y-106497881D01*
X191210628Y-106705055D01*
X191123650Y-107074185D01*
X191071985Y-107405415D01*
X191008971Y-107771021D01*
X190913614Y-108195117D01*
X190798067Y-108637253D01*
X190674488Y-109056978D01*
X190555031Y-109413844D01*
X190451853Y-109667401D01*
X190377109Y-109777199D01*
X190360086Y-109774352D01*
X190352248Y-109662515D01*
X190364638Y-109396582D01*
X190394549Y-109024357D01*
X190413540Y-108829697D01*
X190447395Y-107659667D01*
X190104791Y-107659667D01*
X190089643Y-108347128D01*
X190085229Y-108432600D01*
X190045784Y-109004472D01*
X189987039Y-109496367D01*
X189896456Y-109960941D01*
X189761498Y-110450851D01*
X189569627Y-111018753D01*
X189308306Y-111717305D01*
X189294715Y-111752649D01*
X189105943Y-112231130D01*
X188970773Y-112539376D01*
X188876777Y-112699326D01*
X188811529Y-112732919D01*
X188769775Y-112679379D01*
X188749163Y-112507321D01*
X188798228Y-112215217D01*
X188922298Y-111778309D01*
X189041424Y-111417416D01*
X189218118Y-110840009D01*
X189388710Y-110174664D01*
X189542903Y-109473685D01*
X189670403Y-108789372D01*
X189760913Y-108174030D01*
X189804137Y-107679959D01*
X189805996Y-107533503D01*
X189789741Y-107417335D01*
X189749222Y-107500648D01*
X189684220Y-107784188D01*
X189601397Y-108229400D01*
X189497499Y-108758699D01*
X189368864Y-109320266D01*
X189225675Y-109879250D01*
X189078110Y-110400799D01*
X188936353Y-110850059D01*
X188810583Y-111192180D01*
X188710982Y-111392310D01*
X188666490Y-111429800D01*
X188614085Y-111340398D01*
X188613160Y-111277400D01*
X187477400Y-111277400D01*
X187426600Y-111328200D01*
X187375800Y-111277400D01*
X187426600Y-111226600D01*
X187477400Y-111277400D01*
X188613160Y-111277400D01*
X188610630Y-111105241D01*
X188620122Y-111023400D01*
X187579000Y-111023400D01*
X187541827Y-111107028D01*
X187511267Y-111091133D01*
X187499108Y-110970557D01*
X187511267Y-110955666D01*
X187571668Y-110969613D01*
X187579000Y-111023400D01*
X188620122Y-111023400D01*
X188649063Y-110773902D01*
X188722324Y-110395955D01*
X188756167Y-110270340D01*
X187767452Y-110270340D01*
X187734673Y-110500209D01*
X187731400Y-110515400D01*
X187672692Y-110720761D01*
X187623150Y-110795270D01*
X187619427Y-110792892D01*
X187608525Y-110675083D01*
X187638754Y-110445667D01*
X187642500Y-110426500D01*
X187698612Y-110220150D01*
X187749712Y-110145999D01*
X187754474Y-110149007D01*
X187767452Y-110270340D01*
X188756167Y-110270340D01*
X188823353Y-110020972D01*
X188872380Y-109881400D01*
X186973981Y-109881400D01*
X186964257Y-110226744D01*
X186923406Y-110644148D01*
X186848628Y-111111840D01*
X186817090Y-111268503D01*
X186579709Y-112091365D01*
X186211788Y-112896011D01*
X185691517Y-113726733D01*
X185432178Y-114081104D01*
X185126928Y-114497953D01*
X184840384Y-114914983D01*
X184614581Y-115269874D01*
X184530562Y-115417801D01*
X184388990Y-115669741D01*
X184289902Y-115812680D01*
X184260555Y-115824201D01*
X184228230Y-115676734D01*
X184182352Y-115468400D01*
X184085352Y-115244753D01*
X183955274Y-115207230D01*
X183822418Y-115348890D01*
X183738794Y-115570000D01*
X183687539Y-115746950D01*
X183656282Y-115788528D01*
X183639093Y-115675023D01*
X183630042Y-115386728D01*
X183627101Y-115198763D01*
X183633055Y-114873390D01*
X183670066Y-114578558D01*
X183752130Y-114281260D01*
X183893244Y-113948489D01*
X184107406Y-113547236D01*
X184408612Y-113044496D01*
X184810832Y-112407301D01*
X185066123Y-111992175D01*
X185364235Y-111483663D01*
X185654531Y-110968809D01*
X185756519Y-110781701D01*
X185960666Y-110413161D01*
X186124694Y-110137381D01*
X186229160Y-109985758D01*
X186256789Y-109973904D01*
X186220714Y-110151645D01*
X186120896Y-110473389D01*
X185973207Y-110896186D01*
X185793515Y-111377082D01*
X185597690Y-111873128D01*
X185401602Y-112341371D01*
X185287169Y-112598200D01*
X184993425Y-113242312D01*
X184781753Y-113717669D01*
X184646087Y-114038606D01*
X184580361Y-114219458D01*
X184577776Y-114274600D01*
X184649551Y-114190075D01*
X184794378Y-113960105D01*
X184992667Y-113620099D01*
X185224826Y-113205465D01*
X185471265Y-112751609D01*
X185712392Y-112293941D01*
X185928618Y-111867867D01*
X186061103Y-111593670D01*
X186273668Y-111101355D01*
X186473977Y-110571136D01*
X186626188Y-110099550D01*
X186653676Y-109997608D01*
X186743437Y-109702600D01*
X186359800Y-109702600D01*
X186322627Y-109786228D01*
X186292067Y-109770333D01*
X186279908Y-109649757D01*
X186292067Y-109634866D01*
X186352468Y-109648813D01*
X186359800Y-109702600D01*
X186743437Y-109702600D01*
X186757596Y-109656068D01*
X186844385Y-109495449D01*
X186911246Y-109493980D01*
X186955378Y-109629888D01*
X186973981Y-109881400D01*
X188872380Y-109881400D01*
X188897021Y-109811252D01*
X189264835Y-108653345D01*
X189320548Y-108359373D01*
X188579846Y-108359373D01*
X188573834Y-108875330D01*
X188548264Y-109309307D01*
X188502540Y-109625844D01*
X188436067Y-109789481D01*
X188404724Y-109804200D01*
X188330148Y-109717627D01*
X188243810Y-109505996D01*
X188233947Y-109474000D01*
X188135955Y-109258785D01*
X188025731Y-109167503D01*
X188012520Y-109168272D01*
X187954979Y-109127723D01*
X187928100Y-108959291D01*
X187930106Y-108636589D01*
X187951046Y-108253755D01*
X187965219Y-107469904D01*
X187918625Y-106608319D01*
X187819232Y-105747764D01*
X187675007Y-104967004D01*
X187582513Y-104610443D01*
X187475307Y-104262571D01*
X187412584Y-104099894D01*
X187393877Y-104125480D01*
X187418722Y-104342399D01*
X187486651Y-104753718D01*
X187526655Y-104978200D01*
X187606558Y-105592463D01*
X187655318Y-106333803D01*
X187672409Y-107132389D01*
X187657303Y-107918388D01*
X187609475Y-108621968D01*
X187557160Y-109022628D01*
X187433720Y-109753400D01*
X187310171Y-109093000D01*
X187252630Y-108711156D01*
X187240091Y-108361988D01*
X187274251Y-107965561D01*
X187343590Y-107518200D01*
X187439908Y-106582111D01*
X187434787Y-105561336D01*
X187332079Y-104544982D01*
X187182591Y-103796332D01*
X186994850Y-103057057D01*
X187200833Y-103306428D01*
X187383772Y-103581397D01*
X187605112Y-103993177D01*
X187839221Y-104485731D01*
X188060466Y-105003023D01*
X188243214Y-105489018D01*
X188337356Y-105791000D01*
X188420209Y-106184952D01*
X188486480Y-106674225D01*
X188535573Y-107223360D01*
X188566894Y-107796896D01*
X188579846Y-108359373D01*
X189320548Y-108359373D01*
X189503017Y-107396580D01*
X189587009Y-106455097D01*
X189615773Y-105947986D01*
X189649461Y-105634163D01*
X189693471Y-105514951D01*
X189753201Y-105591670D01*
X189834047Y-105865643D01*
X189941409Y-106338192D01*
X189986719Y-106553000D01*
X190071803Y-107086810D01*
X190104791Y-107659667D01*
X190447395Y-107659667D01*
X190450174Y-107563649D01*
X190305579Y-106311551D01*
X189986520Y-105111788D01*
X189594428Y-104183970D01*
X189397229Y-103847678D01*
X189234332Y-103672751D01*
X189121150Y-103665505D01*
X189073095Y-103832253D01*
X189077356Y-103972117D01*
X189131630Y-104730837D01*
X189163985Y-105454668D01*
X189173704Y-106100781D01*
X189160067Y-106626351D01*
X189127479Y-106959400D01*
X189035448Y-107518200D01*
X188960855Y-107010200D01*
X188688475Y-105739249D01*
X188261151Y-104537578D01*
X187694481Y-103446026D01*
X187466839Y-103098600D01*
X187069536Y-102554153D01*
X186725020Y-102135154D01*
X186446284Y-101855061D01*
X186246320Y-101727333D01*
X186155422Y-101740049D01*
G36*
X167420850Y-125396258D02*
G01*
X167065939Y-125513401D01*
X166753453Y-125672301D01*
X166557922Y-125841231D01*
X166544562Y-125863051D01*
X166501918Y-126044636D01*
X166624735Y-126129193D01*
X166918799Y-126118410D01*
X167215051Y-126058556D01*
X167546953Y-125989563D01*
X167761367Y-125984962D01*
X167934845Y-126048818D01*
X168020461Y-126101303D01*
X168237899Y-126290122D01*
X168376957Y-126541319D01*
X168447294Y-126892781D01*
X168458567Y-127382394D01*
X168441363Y-127752416D01*
X168418457Y-128202829D01*
X168420369Y-128490029D01*
X168451000Y-128652922D01*
X168514250Y-128730414D01*
X168540662Y-128743016D01*
X168693370Y-128791693D01*
X168787124Y-128754101D01*
X168888011Y-128589898D01*
X168932791Y-128503645D01*
X169016812Y-128248570D01*
X169067123Y-127858078D01*
X169087128Y-127302473D01*
X169087800Y-127151152D01*
X169087800Y-126098413D01*
X168761866Y-125850706D01*
X168391498Y-125584490D01*
X168116041Y-125430617D01*
X167881816Y-125362825D01*
X167743657Y-125352600D01*
X167420850Y-125396258D01*
G37*
X167420850Y-125396258D02*
X167065939Y-125513401D01*
X166753453Y-125672301D01*
X166557922Y-125841231D01*
X166544562Y-125863051D01*
X166501918Y-126044636D01*
X166624735Y-126129193D01*
X166918799Y-126118410D01*
X167215051Y-126058556D01*
X167546953Y-125989563D01*
X167761367Y-125984962D01*
X167934845Y-126048818D01*
X168020461Y-126101303D01*
X168237899Y-126290122D01*
X168376957Y-126541319D01*
X168447294Y-126892781D01*
X168458567Y-127382394D01*
X168441363Y-127752416D01*
X168418457Y-128202829D01*
X168420369Y-128490029D01*
X168451000Y-128652922D01*
X168514250Y-128730414D01*
X168540662Y-128743016D01*
X168693370Y-128791693D01*
X168787124Y-128754101D01*
X168888011Y-128589898D01*
X168932791Y-128503645D01*
X169016812Y-128248570D01*
X169067123Y-127858078D01*
X169087128Y-127302473D01*
X169087800Y-127151152D01*
X169087800Y-126098413D01*
X168761866Y-125850706D01*
X168391498Y-125584490D01*
X168116041Y-125430617D01*
X167881816Y-125362825D01*
X167743657Y-125352600D01*
X167420850Y-125396258D01*
G36*
X174340531Y-123585674D02*
G01*
X174150651Y-123651992D01*
X173899869Y-123788693D01*
X173606325Y-123993623D01*
X173319060Y-124226081D01*
X173087117Y-124445364D01*
X172959538Y-124610770D01*
X172948600Y-124649622D01*
X173019723Y-124738099D01*
X173208109Y-124706399D01*
X173476287Y-124566054D01*
X173667719Y-124428328D01*
X174193111Y-124104261D01*
X174689953Y-123978539D01*
X175147529Y-124047090D01*
X175555128Y-124305843D01*
X175902036Y-124750728D01*
X176177539Y-125377673D01*
X176179183Y-125382673D01*
X176382377Y-126098100D01*
X176472818Y-126682689D01*
X176452820Y-127173079D01*
X176324702Y-127605912D01*
X176320362Y-127615796D01*
X176112067Y-127994415D01*
X175858109Y-128258354D01*
X175534669Y-128411414D01*
X175117926Y-128457393D01*
X174584060Y-128400089D01*
X173909251Y-128243300D01*
X173371461Y-128086044D01*
X172903969Y-127944694D01*
X172590071Y-127861445D01*
X172390263Y-127831125D01*
X172265039Y-127848567D01*
X172174895Y-127908599D01*
X172155889Y-127926968D01*
X172067694Y-128057547D01*
X172094368Y-128176639D01*
X172253818Y-128294257D01*
X172563954Y-128420415D01*
X173042683Y-128565123D01*
X173524569Y-128692216D01*
X174141527Y-128843943D01*
X174604137Y-128940721D01*
X174953035Y-128984792D01*
X175228860Y-128978398D01*
X175472248Y-128923781D01*
X175723838Y-128823182D01*
X175742600Y-128814571D01*
X176262494Y-128471463D01*
X176633068Y-127993827D01*
X176852629Y-127386770D01*
X176919483Y-126655399D01*
X176831934Y-125804817D01*
X176798385Y-125633400D01*
X176583810Y-124951441D01*
X176261702Y-124383669D01*
X175854191Y-123946645D01*
X175383405Y-123656931D01*
X174871475Y-123531087D01*
X174340531Y-123585674D01*
G37*
X174340531Y-123585674D02*
X174150651Y-123651992D01*
X173899869Y-123788693D01*
X173606325Y-123993623D01*
X173319060Y-124226081D01*
X173087117Y-124445364D01*
X172959538Y-124610770D01*
X172948600Y-124649622D01*
X173019723Y-124738099D01*
X173208109Y-124706399D01*
X173476287Y-124566054D01*
X173667719Y-124428328D01*
X174193111Y-124104261D01*
X174689953Y-123978539D01*
X175147529Y-124047090D01*
X175555128Y-124305843D01*
X175902036Y-124750728D01*
X176177539Y-125377673D01*
X176179183Y-125382673D01*
X176382377Y-126098100D01*
X176472818Y-126682689D01*
X176452820Y-127173079D01*
X176324702Y-127605912D01*
X176320362Y-127615796D01*
X176112067Y-127994415D01*
X175858109Y-128258354D01*
X175534669Y-128411414D01*
X175117926Y-128457393D01*
X174584060Y-128400089D01*
X173909251Y-128243300D01*
X173371461Y-128086044D01*
X172903969Y-127944694D01*
X172590071Y-127861445D01*
X172390263Y-127831125D01*
X172265039Y-127848567D01*
X172174895Y-127908599D01*
X172155889Y-127926968D01*
X172067694Y-128057547D01*
X172094368Y-128176639D01*
X172253818Y-128294257D01*
X172563954Y-128420415D01*
X173042683Y-128565123D01*
X173524569Y-128692216D01*
X174141527Y-128843943D01*
X174604137Y-128940721D01*
X174953035Y-128984792D01*
X175228860Y-128978398D01*
X175472248Y-128923781D01*
X175723838Y-128823182D01*
X175742600Y-128814571D01*
X176262494Y-128471463D01*
X176633068Y-127993827D01*
X176852629Y-127386770D01*
X176919483Y-126655399D01*
X176831934Y-125804817D01*
X176798385Y-125633400D01*
X176583810Y-124951441D01*
X176261702Y-124383669D01*
X175854191Y-123946645D01*
X175383405Y-123656931D01*
X174871475Y-123531087D01*
X174340531Y-123585674D01*
G36*
X171964973Y-125898115D02*
G01*
X171830564Y-126042272D01*
X171729153Y-126320684D01*
X171644879Y-126764564D01*
X171627996Y-126880853D01*
X171518648Y-127525967D01*
X171390976Y-127981800D01*
X171232702Y-128262179D01*
X171031547Y-128380934D01*
X170775235Y-128351892D01*
X170461254Y-128194945D01*
X170195403Y-128005338D01*
X170028543Y-127800218D01*
X169938520Y-127526753D01*
X169903181Y-127132114D01*
X169899045Y-126854279D01*
X169880584Y-126349110D01*
X169823829Y-126030022D01*
X169722936Y-125882506D01*
X169572061Y-125892051D01*
X169522493Y-125919362D01*
X169444590Y-126008175D01*
X169390782Y-126176961D01*
X169359953Y-126448942D01*
X169350987Y-126847337D01*
X169362770Y-127395368D01*
X169394185Y-128116255D01*
X169405957Y-128344858D01*
X169455552Y-128794228D01*
X169548551Y-129048648D01*
X169688034Y-129112330D01*
X169877079Y-128989481D01*
X169877315Y-128989245D01*
X169987625Y-128805521D01*
X170002200Y-128726518D01*
X170034905Y-128648524D01*
X170161620Y-128702030D01*
X170228007Y-128746838D01*
X170542722Y-128868859D01*
X170939274Y-128897601D01*
X171319157Y-128833411D01*
X171510007Y-128742347D01*
X171655631Y-128616159D01*
X171773956Y-128443262D01*
X171878699Y-128187870D01*
X171983573Y-127814200D01*
X172102296Y-127286466D01*
X172143144Y-127090415D01*
X172246630Y-126577366D01*
X172307175Y-126230508D01*
X172324914Y-126017451D01*
X172299981Y-125905804D01*
X172232509Y-125863175D01*
X172148241Y-125857000D01*
X171964973Y-125898115D01*
G37*
X171964973Y-125898115D02*
X171830564Y-126042272D01*
X171729153Y-126320684D01*
X171644879Y-126764564D01*
X171627996Y-126880853D01*
X171518648Y-127525967D01*
X171390976Y-127981800D01*
X171232702Y-128262179D01*
X171031547Y-128380934D01*
X170775235Y-128351892D01*
X170461254Y-128194945D01*
X170195403Y-128005338D01*
X170028543Y-127800218D01*
X169938520Y-127526753D01*
X169903181Y-127132114D01*
X169899045Y-126854279D01*
X169880584Y-126349110D01*
X169823829Y-126030022D01*
X169722936Y-125882506D01*
X169572061Y-125892051D01*
X169522493Y-125919362D01*
X169444590Y-126008175D01*
X169390782Y-126176961D01*
X169359953Y-126448942D01*
X169350987Y-126847337D01*
X169362770Y-127395368D01*
X169394185Y-128116255D01*
X169405957Y-128344858D01*
X169455552Y-128794228D01*
X169548551Y-129048648D01*
X169688034Y-129112330D01*
X169877079Y-128989481D01*
X169877315Y-128989245D01*
X169987625Y-128805521D01*
X170002200Y-128726518D01*
X170034905Y-128648524D01*
X170161620Y-128702030D01*
X170228007Y-128746838D01*
X170542722Y-128868859D01*
X170939274Y-128897601D01*
X171319157Y-128833411D01*
X171510007Y-128742347D01*
X171655631Y-128616159D01*
X171773956Y-128443262D01*
X171878699Y-128187870D01*
X171983573Y-127814200D01*
X172102296Y-127286466D01*
X172143144Y-127090415D01*
X172246630Y-126577366D01*
X172307175Y-126230508D01*
X172324914Y-126017451D01*
X172299981Y-125905804D01*
X172232509Y-125863175D01*
X172148241Y-125857000D01*
X171964973Y-125898115D01*
G36*
X160408601Y-124473842D02*
G01*
X159888525Y-124632267D01*
X159440148Y-124980077D01*
X159068112Y-125510654D01*
X158907683Y-125734397D01*
X158745557Y-125851836D01*
X158713937Y-125857000D01*
X158548570Y-125896614D01*
X158425766Y-126036357D01*
X158330861Y-126307580D01*
X158249190Y-126741635D01*
X158226280Y-126899623D01*
X158117402Y-127541132D01*
X157988269Y-127993090D01*
X157826350Y-128268997D01*
X157619113Y-128382355D01*
X157354028Y-128346664D01*
X157033508Y-128184719D01*
X156770269Y-127994133D01*
X156607194Y-127783101D01*
X156521710Y-127497827D01*
X156491247Y-127084520D01*
X156489400Y-126887988D01*
X156477434Y-126399050D01*
X156436678Y-126083439D01*
X156359853Y-125912422D01*
X156239675Y-125857267D01*
X156228105Y-125857000D01*
X156049551Y-125950079D01*
X155934569Y-126213724D01*
X155886144Y-126624541D01*
X155907259Y-127159139D01*
X155989037Y-127731396D01*
X156039170Y-128097098D01*
X156052926Y-128414988D01*
X156037902Y-128562856D01*
X155992302Y-128686870D01*
X155901882Y-128758876D01*
X155719734Y-128792894D01*
X155398950Y-128802946D01*
X155233212Y-128803400D01*
X154823660Y-128793800D01*
X154562088Y-128756912D01*
X154393839Y-128680606D01*
X154301794Y-128596656D01*
X154217696Y-128491305D01*
X154198480Y-128393288D01*
X154263460Y-128264681D01*
X154431948Y-128067557D01*
X154723259Y-127763993D01*
X154728641Y-127758456D01*
X155129925Y-127333819D01*
X155402673Y-127009553D01*
X155569574Y-126750308D01*
X155653319Y-126520730D01*
X155676596Y-126285466D01*
X155676600Y-126281433D01*
X155625242Y-125994263D01*
X155446616Y-125717184D01*
X155318163Y-125579842D01*
X155081406Y-125363958D01*
X154889627Y-125269817D01*
X154656751Y-125263872D01*
X154542185Y-125277409D01*
X154210059Y-125357080D01*
X153975837Y-125479184D01*
X153872119Y-125617323D01*
X153931506Y-125745102D01*
X153949400Y-125757394D01*
X154154518Y-125809424D01*
X154409791Y-125797379D01*
X154736123Y-125817668D01*
X154956300Y-125996634D01*
X155047572Y-126307662D01*
X155034177Y-126527902D01*
X154953856Y-126776283D01*
X154774777Y-127059808D01*
X154471329Y-127415901D01*
X154309311Y-127587122D01*
X153914319Y-128035544D01*
X153688313Y-128395490D01*
X153626549Y-128683878D01*
X153724281Y-128917623D01*
X153894968Y-129064362D01*
X154181228Y-129177201D01*
X154585407Y-129249498D01*
X155025088Y-129274723D01*
X155417856Y-129246349D01*
X155600400Y-129199468D01*
X155799904Y-129093038D01*
X155879800Y-128994558D01*
X155953034Y-128958439D01*
X156089495Y-129010075D01*
X156331058Y-129050492D01*
X156521839Y-128937755D01*
X156591000Y-128734398D01*
X156616879Y-128646795D01*
X156727039Y-128686742D01*
X156816807Y-128746838D01*
X157148631Y-128875945D01*
X157555703Y-128897532D01*
X157942600Y-128814361D01*
X158133949Y-128708702D01*
X158286881Y-128550156D01*
X158415636Y-128317386D01*
X158533668Y-127974690D01*
X158654433Y-127486369D01*
X158730092Y-127127000D01*
X158853387Y-126517400D01*
X158991098Y-126985698D01*
X159142781Y-127337010D01*
X159377117Y-127714238D01*
X159522310Y-127897417D01*
X159729809Y-128122626D01*
X159899594Y-128257393D01*
X160096336Y-128328516D01*
X160384706Y-128362791D01*
X160686316Y-128379746D01*
X161102490Y-128392520D01*
X161380866Y-128372234D01*
X161585661Y-128307705D01*
X161778605Y-128189524D01*
X162114688Y-127834026D01*
X162311052Y-127372489D01*
X162364152Y-126912892D01*
X161874200Y-126912892D01*
X161848767Y-127253411D01*
X161745823Y-127496615D01*
X161564496Y-127706335D01*
X161336654Y-127904128D01*
X161128987Y-127976712D01*
X160838039Y-127960141D01*
X160836692Y-127959960D01*
X160496069Y-127874576D01*
X160196251Y-127736627D01*
X160155797Y-127709088D01*
X159788409Y-127323411D01*
X159545759Y-126834373D01*
X159446453Y-126302107D01*
X159509100Y-125786749D01*
X159536366Y-125707321D01*
X159727948Y-125385659D01*
X160007762Y-125119261D01*
X160311062Y-124962709D01*
X160443487Y-124942600D01*
X160794860Y-125036486D01*
X161140848Y-125290354D01*
X161451181Y-125662515D01*
X161695585Y-126111279D01*
X161843788Y-126594957D01*
X161874200Y-126912892D01*
X162364152Y-126912892D01*
X162372359Y-126841861D01*
X162303268Y-126279088D01*
X162108440Y-125721120D01*
X161792532Y-125204903D01*
X161360207Y-124767386D01*
X161345562Y-124755920D01*
X161067429Y-124557101D01*
X160846425Y-124466682D01*
X160589167Y-124456548D01*
X160408601Y-124473842D01*
G37*
X160408601Y-124473842D02*
X159888525Y-124632267D01*
X159440148Y-124980077D01*
X159068112Y-125510654D01*
X158907683Y-125734397D01*
X158745557Y-125851836D01*
X158713937Y-125857000D01*
X158548570Y-125896614D01*
X158425766Y-126036357D01*
X158330861Y-126307580D01*
X158249190Y-126741635D01*
X158226280Y-126899623D01*
X158117402Y-127541132D01*
X157988269Y-127993090D01*
X157826350Y-128268997D01*
X157619113Y-128382355D01*
X157354028Y-128346664D01*
X157033508Y-128184719D01*
X156770269Y-127994133D01*
X156607194Y-127783101D01*
X156521710Y-127497827D01*
X156491247Y-127084520D01*
X156489400Y-126887988D01*
X156477434Y-126399050D01*
X156436678Y-126083439D01*
X156359853Y-125912422D01*
X156239675Y-125857267D01*
X156228105Y-125857000D01*
X156049551Y-125950079D01*
X155934569Y-126213724D01*
X155886144Y-126624541D01*
X155907259Y-127159139D01*
X155989037Y-127731396D01*
X156039170Y-128097098D01*
X156052926Y-128414988D01*
X156037902Y-128562856D01*
X155992302Y-128686870D01*
X155901882Y-128758876D01*
X155719734Y-128792894D01*
X155398950Y-128802946D01*
X155233212Y-128803400D01*
X154823660Y-128793800D01*
X154562088Y-128756912D01*
X154393839Y-128680606D01*
X154301794Y-128596656D01*
X154217696Y-128491305D01*
X154198480Y-128393288D01*
X154263460Y-128264681D01*
X154431948Y-128067557D01*
X154723259Y-127763993D01*
X154728641Y-127758456D01*
X155129925Y-127333819D01*
X155402673Y-127009553D01*
X155569574Y-126750308D01*
X155653319Y-126520730D01*
X155676596Y-126285466D01*
X155676600Y-126281433D01*
X155625242Y-125994263D01*
X155446616Y-125717184D01*
X155318163Y-125579842D01*
X155081406Y-125363958D01*
X154889627Y-125269817D01*
X154656751Y-125263872D01*
X154542185Y-125277409D01*
X154210059Y-125357080D01*
X153975837Y-125479184D01*
X153872119Y-125617323D01*
X153931506Y-125745102D01*
X153949400Y-125757394D01*
X154154518Y-125809424D01*
X154409791Y-125797379D01*
X154736123Y-125817668D01*
X154956300Y-125996634D01*
X155047572Y-126307662D01*
X155034177Y-126527902D01*
X154953856Y-126776283D01*
X154774777Y-127059808D01*
X154471329Y-127415901D01*
X154309311Y-127587122D01*
X153914319Y-128035544D01*
X153688313Y-128395490D01*
X153626549Y-128683878D01*
X153724281Y-128917623D01*
X153894968Y-129064362D01*
X154181228Y-129177201D01*
X154585407Y-129249498D01*
X155025088Y-129274723D01*
X155417856Y-129246349D01*
X155600400Y-129199468D01*
X155799904Y-129093038D01*
X155879800Y-128994558D01*
X155953034Y-128958439D01*
X156089495Y-129010075D01*
X156331058Y-129050492D01*
X156521839Y-128937755D01*
X156591000Y-128734398D01*
X156616879Y-128646795D01*
X156727039Y-128686742D01*
X156816807Y-128746838D01*
X157148631Y-128875945D01*
X157555703Y-128897532D01*
X157942600Y-128814361D01*
X158133949Y-128708702D01*
X158286881Y-128550156D01*
X158415636Y-128317386D01*
X158533668Y-127974690D01*
X158654433Y-127486369D01*
X158730092Y-127127000D01*
X158853387Y-126517400D01*
X158991098Y-126985698D01*
X159142781Y-127337010D01*
X159377117Y-127714238D01*
X159522310Y-127897417D01*
X159729809Y-128122626D01*
X159899594Y-128257393D01*
X160096336Y-128328516D01*
X160384706Y-128362791D01*
X160686316Y-128379746D01*
X161102490Y-128392520D01*
X161380866Y-128372234D01*
X161585661Y-128307705D01*
X161778605Y-128189524D01*
X162114688Y-127834026D01*
X162311052Y-127372489D01*
X162364152Y-126912892D01*
X161874200Y-126912892D01*
X161848767Y-127253411D01*
X161745823Y-127496615D01*
X161564496Y-127706335D01*
X161336654Y-127904128D01*
X161128987Y-127976712D01*
X160838039Y-127960141D01*
X160836692Y-127959960D01*
X160496069Y-127874576D01*
X160196251Y-127736627D01*
X160155797Y-127709088D01*
X159788409Y-127323411D01*
X159545759Y-126834373D01*
X159446453Y-126302107D01*
X159509100Y-125786749D01*
X159536366Y-125707321D01*
X159727948Y-125385659D01*
X160007762Y-125119261D01*
X160311062Y-124962709D01*
X160443487Y-124942600D01*
X160794860Y-125036486D01*
X161140848Y-125290354D01*
X161451181Y-125662515D01*
X161695585Y-126111279D01*
X161843788Y-126594957D01*
X161874200Y-126912892D01*
X162364152Y-126912892D01*
X162372359Y-126841861D01*
X162303268Y-126279088D01*
X162108440Y-125721120D01*
X161792532Y-125204903D01*
X161360207Y-124767386D01*
X161345562Y-124755920D01*
X161067429Y-124557101D01*
X160846425Y-124466682D01*
X160589167Y-124456548D01*
X160408601Y-124473842D01*
G36*
X163648157Y-124273020D02*
G01*
X163538350Y-124369521D01*
X163465682Y-124548806D01*
X163424332Y-124831788D01*
X163408483Y-125239377D01*
X163412316Y-125792483D01*
X163430010Y-126512017D01*
X163449067Y-127180164D01*
X163472926Y-127986584D01*
X163494801Y-128613434D01*
X163516921Y-129084298D01*
X163541515Y-129422762D01*
X163570812Y-129652412D01*
X163607042Y-129796831D01*
X163652434Y-129879607D01*
X163708395Y-129923886D01*
X164001026Y-130011944D01*
X164295375Y-129999035D01*
X164499643Y-129889668D01*
X164570090Y-129735689D01*
X164672290Y-129421018D01*
X164798410Y-128978733D01*
X164940618Y-128441910D01*
X165091081Y-127843628D01*
X165241965Y-127216962D01*
X165385439Y-126594991D01*
X165513670Y-126010792D01*
X165618825Y-125497441D01*
X165693071Y-125088016D01*
X165728576Y-124815594D01*
X165724068Y-124718972D01*
X165528884Y-124553141D01*
X165140491Y-124415297D01*
X164567284Y-124308007D01*
X164258598Y-124271130D01*
X164002462Y-124244736D01*
X163800921Y-124238396D01*
X163648157Y-124273020D01*
G37*
X163648157Y-124273020D02*
X163538350Y-124369521D01*
X163465682Y-124548806D01*
X163424332Y-124831788D01*
X163408483Y-125239377D01*
X163412316Y-125792483D01*
X163430010Y-126512017D01*
X163449067Y-127180164D01*
X163472926Y-127986584D01*
X163494801Y-128613434D01*
X163516921Y-129084298D01*
X163541515Y-129422762D01*
X163570812Y-129652412D01*
X163607042Y-129796831D01*
X163652434Y-129879607D01*
X163708395Y-129923886D01*
X164001026Y-130011944D01*
X164295375Y-129999035D01*
X164499643Y-129889668D01*
X164570090Y-129735689D01*
X164672290Y-129421018D01*
X164798410Y-128978733D01*
X164940618Y-128441910D01*
X165091081Y-127843628D01*
X165241965Y-127216962D01*
X165385439Y-126594991D01*
X165513670Y-126010792D01*
X165618825Y-125497441D01*
X165693071Y-125088016D01*
X165728576Y-124815594D01*
X165724068Y-124718972D01*
X165528884Y-124553141D01*
X165140491Y-124415297D01*
X164567284Y-124308007D01*
X164258598Y-124271130D01*
X164002462Y-124244736D01*
X163800921Y-124238396D01*
X163648157Y-124273020D01*
G36*
X166775619Y-131470344D02*
G01*
X166338400Y-131554883D01*
X165987609Y-131752698D01*
X165673301Y-132098181D01*
X165512169Y-132340364D01*
X165334227Y-132809314D01*
X165306410Y-133353043D01*
X165418507Y-133921499D01*
X165660307Y-134464630D01*
X166021601Y-134932382D01*
X166045720Y-134955871D01*
X166227072Y-135110843D01*
X166411777Y-135204149D01*
X166662263Y-135254602D01*
X167040958Y-135281016D01*
X167138178Y-135285093D01*
X167580008Y-135291455D01*
X167883546Y-135261827D01*
X168111986Y-135186556D01*
X168236327Y-135117332D01*
X168544568Y-134812425D01*
X168723559Y-134392548D01*
X168778736Y-133894880D01*
X168770419Y-133824037D01*
X168275000Y-133824037D01*
X168252957Y-134151347D01*
X168158395Y-134388564D01*
X167948666Y-134636195D01*
X167916704Y-134668416D01*
X167678952Y-134884527D01*
X167489571Y-134976824D01*
X167267493Y-134978133D01*
X167182487Y-134965708D01*
X166851782Y-134870789D01*
X166562952Y-134723912D01*
X166550183Y-134714700D01*
X166180134Y-134331208D01*
X165948247Y-133860865D01*
X165857183Y-133349525D01*
X165909604Y-132843041D01*
X166108171Y-132387267D01*
X166396790Y-132071658D01*
X166712822Y-131890856D01*
X167014189Y-131883144D01*
X167345969Y-132052033D01*
X167480729Y-132156077D01*
X167896076Y-132620744D01*
X168170710Y-133188661D01*
X168274804Y-133797196D01*
X168275000Y-133824037D01*
X168770419Y-133824037D01*
X168715537Y-133356598D01*
X168539397Y-132814884D01*
X168255753Y-132306916D01*
X167870043Y-131869872D01*
X167746362Y-131766720D01*
X167463973Y-131566419D01*
X167232229Y-131473885D01*
X166952509Y-131459009D01*
X166775619Y-131470344D01*
G37*
X166775619Y-131470344D02*
X166338400Y-131554883D01*
X165987609Y-131752698D01*
X165673301Y-132098181D01*
X165512169Y-132340364D01*
X165334227Y-132809314D01*
X165306410Y-133353043D01*
X165418507Y-133921499D01*
X165660307Y-134464630D01*
X166021601Y-134932382D01*
X166045720Y-134955871D01*
X166227072Y-135110843D01*
X166411777Y-135204149D01*
X166662263Y-135254602D01*
X167040958Y-135281016D01*
X167138178Y-135285093D01*
X167580008Y-135291455D01*
X167883546Y-135261827D01*
X168111986Y-135186556D01*
X168236327Y-135117332D01*
X168544568Y-134812425D01*
X168723559Y-134392548D01*
X168778736Y-133894880D01*
X168770419Y-133824037D01*
X168275000Y-133824037D01*
X168252957Y-134151347D01*
X168158395Y-134388564D01*
X167948666Y-134636195D01*
X167916704Y-134668416D01*
X167678952Y-134884527D01*
X167489571Y-134976824D01*
X167267493Y-134978133D01*
X167182487Y-134965708D01*
X166851782Y-134870789D01*
X166562952Y-134723912D01*
X166550183Y-134714700D01*
X166180134Y-134331208D01*
X165948247Y-133860865D01*
X165857183Y-133349525D01*
X165909604Y-132843041D01*
X166108171Y-132387267D01*
X166396790Y-132071658D01*
X166712822Y-131890856D01*
X167014189Y-131883144D01*
X167345969Y-132052033D01*
X167480729Y-132156077D01*
X167896076Y-132620744D01*
X168170710Y-133188661D01*
X168274804Y-133797196D01*
X168275000Y-133824037D01*
X168770419Y-133824037D01*
X168715537Y-133356598D01*
X168539397Y-132814884D01*
X168255753Y-132306916D01*
X167870043Y-131869872D01*
X167746362Y-131766720D01*
X167463973Y-131566419D01*
X167232229Y-131473885D01*
X166952509Y-131459009D01*
X166775619Y-131470344D01*
G36*
X156370336Y-132407061D02*
G01*
X156009894Y-132530789D01*
X155731130Y-132702991D01*
X155592944Y-132895918D01*
X155590407Y-132907558D01*
X155581888Y-132996603D01*
X155618957Y-133047185D01*
X155734840Y-133059288D01*
X155962765Y-133032895D01*
X156335959Y-132967991D01*
X156662063Y-132907049D01*
X156924231Y-132895982D01*
X157131002Y-133009930D01*
X157233852Y-133112066D01*
X157411569Y-133351520D01*
X157519263Y-133634908D01*
X157565052Y-134007137D01*
X157557053Y-134513117D01*
X157538140Y-134795489D01*
X157475283Y-135610600D01*
X157733472Y-135610600D01*
X157950018Y-135557530D01*
X158049567Y-135459698D01*
X158104023Y-135217523D01*
X158145948Y-134845182D01*
X158173102Y-134405078D01*
X158183240Y-133959616D01*
X158174123Y-133571201D01*
X158143508Y-133302236D01*
X158128885Y-133251793D01*
X157912898Y-132930665D01*
X157564756Y-132644321D01*
X157155200Y-132438655D01*
X156754969Y-132359558D01*
X156753557Y-132359557D01*
X156370336Y-132407061D01*
G37*
X156370336Y-132407061D02*
X156009894Y-132530789D01*
X155731130Y-132702991D01*
X155592944Y-132895918D01*
X155590407Y-132907558D01*
X155581888Y-132996603D01*
X155618957Y-133047185D01*
X155734840Y-133059288D01*
X155962765Y-133032895D01*
X156335959Y-132967991D01*
X156662063Y-132907049D01*
X156924231Y-132895982D01*
X157131002Y-133009930D01*
X157233852Y-133112066D01*
X157411569Y-133351520D01*
X157519263Y-133634908D01*
X157565052Y-134007137D01*
X157557053Y-134513117D01*
X157538140Y-134795489D01*
X157475283Y-135610600D01*
X157733472Y-135610600D01*
X157950018Y-135557530D01*
X158049567Y-135459698D01*
X158104023Y-135217523D01*
X158145948Y-134845182D01*
X158173102Y-134405078D01*
X158183240Y-133959616D01*
X158174123Y-133571201D01*
X158143508Y-133302236D01*
X158128885Y-133251793D01*
X157912898Y-132930665D01*
X157564756Y-132644321D01*
X157155200Y-132438655D01*
X156754969Y-132359558D01*
X156753557Y-132359557D01*
X156370336Y-132407061D01*
G36*
X159865352Y-131470466D02*
G01*
X159368762Y-131585784D01*
X158959201Y-131857571D01*
X158611515Y-132304903D01*
X158500221Y-132505628D01*
X158353021Y-133002499D01*
X158370944Y-133553261D01*
X158541644Y-134112838D01*
X158852776Y-134636153D01*
X159179350Y-134985219D01*
X159392637Y-135156500D01*
X159588448Y-135252892D01*
X159838019Y-135295581D01*
X160212584Y-135305755D01*
X160257181Y-135305800D01*
X160878030Y-135257659D01*
X161336189Y-135115414D01*
X161622040Y-134882329D01*
X161654133Y-134831549D01*
X161726189Y-134745494D01*
X161779916Y-134824383D01*
X161816277Y-134968566D01*
X161971761Y-135300121D01*
X162259306Y-135629453D01*
X162616398Y-135895768D01*
X162896117Y-136018696D01*
X163197899Y-136095623D01*
X163398757Y-136104520D01*
X163590428Y-136041943D01*
X163700195Y-135988500D01*
X163912564Y-135781898D01*
X164080998Y-135428754D01*
X164183319Y-134984557D01*
X164203192Y-134729909D01*
X164229937Y-134382458D01*
X164317525Y-134197931D01*
X164509158Y-134136818D01*
X164829241Y-134157362D01*
X165129765Y-134183084D01*
X165279402Y-134159780D01*
X165326940Y-134076099D01*
X165328600Y-134041211D01*
X165229840Y-133881354D01*
X164941746Y-133705571D01*
X164820600Y-133651295D01*
X164528693Y-133520481D01*
X164377690Y-133405262D01*
X164321143Y-133242569D01*
X164312601Y-132969332D01*
X164312600Y-132961535D01*
X164292242Y-132430622D01*
X164227823Y-132083235D01*
X164114331Y-131903486D01*
X163968648Y-131871535D01*
X163853338Y-131910748D01*
X163781374Y-132017863D01*
X163736580Y-132238058D01*
X163703000Y-132613400D01*
X163652200Y-133324600D01*
X163144200Y-133351149D01*
X162640979Y-133393083D01*
X162332953Y-133453238D01*
X162221779Y-133527253D01*
X162309112Y-133610771D01*
X162596609Y-133699433D01*
X162983892Y-133773078D01*
X163333171Y-133839357D01*
X163600720Y-133909027D01*
X163720751Y-133962110D01*
X163746469Y-134099766D01*
X163730080Y-134369577D01*
X163681812Y-134707354D01*
X163611893Y-135048907D01*
X163530552Y-135330048D01*
X163486473Y-135432302D01*
X163332275Y-135581282D01*
X163226416Y-135610600D01*
X163006902Y-135537988D01*
X162734211Y-135356721D01*
X162475816Y-135121649D01*
X162299188Y-134887622D01*
X162276805Y-134838616D01*
X162140110Y-134652189D01*
X161997232Y-134594600D01*
X161894895Y-134572119D01*
X161845566Y-134474089D01*
X161838573Y-134254622D01*
X161854751Y-133981925D01*
X161859525Y-133826974D01*
X161348374Y-133826974D01*
X161318688Y-134173233D01*
X161162301Y-134504962D01*
X160886427Y-134796708D01*
X160655000Y-134933017D01*
X160362993Y-134963252D01*
X160004396Y-134890402D01*
X159673782Y-134735143D01*
X159639000Y-134710874D01*
X159267578Y-134330594D01*
X159037900Y-133867261D01*
X158949452Y-133364174D01*
X159001720Y-132864628D01*
X159194193Y-132411921D01*
X159526355Y-132049350D01*
X159671705Y-131953913D01*
X159865688Y-131865643D01*
X160036456Y-131873977D01*
X160278091Y-131985257D01*
X160298424Y-131996168D01*
X160703281Y-132315992D01*
X161032204Y-132768231D01*
X161256725Y-133292141D01*
X161348374Y-133826974D01*
X161859525Y-133826974D01*
X161866194Y-133610572D01*
X161823727Y-133311350D01*
X161707320Y-132990957D01*
X161587537Y-132737325D01*
X161219166Y-132148841D01*
X160838503Y-131766720D01*
X160555794Y-131566552D01*
X160323929Y-131473994D01*
X160044265Y-131459016D01*
X159865352Y-131470466D01*
G37*
X159865352Y-131470466D02*
X159368762Y-131585784D01*
X158959201Y-131857571D01*
X158611515Y-132304903D01*
X158500221Y-132505628D01*
X158353021Y-133002499D01*
X158370944Y-133553261D01*
X158541644Y-134112838D01*
X158852776Y-134636153D01*
X159179350Y-134985219D01*
X159392637Y-135156500D01*
X159588448Y-135252892D01*
X159838019Y-135295581D01*
X160212584Y-135305755D01*
X160257181Y-135305800D01*
X160878030Y-135257659D01*
X161336189Y-135115414D01*
X161622040Y-134882329D01*
X161654133Y-134831549D01*
X161726189Y-134745494D01*
X161779916Y-134824383D01*
X161816277Y-134968566D01*
X161971761Y-135300121D01*
X162259306Y-135629453D01*
X162616398Y-135895768D01*
X162896117Y-136018696D01*
X163197899Y-136095623D01*
X163398757Y-136104520D01*
X163590428Y-136041943D01*
X163700195Y-135988500D01*
X163912564Y-135781898D01*
X164080998Y-135428754D01*
X164183319Y-134984557D01*
X164203192Y-134729909D01*
X164229937Y-134382458D01*
X164317525Y-134197931D01*
X164509158Y-134136818D01*
X164829241Y-134157362D01*
X165129765Y-134183084D01*
X165279402Y-134159780D01*
X165326940Y-134076099D01*
X165328600Y-134041211D01*
X165229840Y-133881354D01*
X164941746Y-133705571D01*
X164820600Y-133651295D01*
X164528693Y-133520481D01*
X164377690Y-133405262D01*
X164321143Y-133242569D01*
X164312601Y-132969332D01*
X164312600Y-132961535D01*
X164292242Y-132430622D01*
X164227823Y-132083235D01*
X164114331Y-131903486D01*
X163968648Y-131871535D01*
X163853338Y-131910748D01*
X163781374Y-132017863D01*
X163736580Y-132238058D01*
X163703000Y-132613400D01*
X163652200Y-133324600D01*
X163144200Y-133351149D01*
X162640979Y-133393083D01*
X162332953Y-133453238D01*
X162221779Y-133527253D01*
X162309112Y-133610771D01*
X162596609Y-133699433D01*
X162983892Y-133773078D01*
X163333171Y-133839357D01*
X163600720Y-133909027D01*
X163720751Y-133962110D01*
X163746469Y-134099766D01*
X163730080Y-134369577D01*
X163681812Y-134707354D01*
X163611893Y-135048907D01*
X163530552Y-135330048D01*
X163486473Y-135432302D01*
X163332275Y-135581282D01*
X163226416Y-135610600D01*
X163006902Y-135537988D01*
X162734211Y-135356721D01*
X162475816Y-135121649D01*
X162299188Y-134887622D01*
X162276805Y-134838616D01*
X162140110Y-134652189D01*
X161997232Y-134594600D01*
X161894895Y-134572119D01*
X161845566Y-134474089D01*
X161838573Y-134254622D01*
X161854751Y-133981925D01*
X161859525Y-133826974D01*
X161348374Y-133826974D01*
X161318688Y-134173233D01*
X161162301Y-134504962D01*
X160886427Y-134796708D01*
X160655000Y-134933017D01*
X160362993Y-134963252D01*
X160004396Y-134890402D01*
X159673782Y-134735143D01*
X159639000Y-134710874D01*
X159267578Y-134330594D01*
X159037900Y-133867261D01*
X158949452Y-133364174D01*
X159001720Y-132864628D01*
X159194193Y-132411921D01*
X159526355Y-132049350D01*
X159671705Y-131953913D01*
X159865688Y-131865643D01*
X160036456Y-131873977D01*
X160278091Y-131985257D01*
X160298424Y-131996168D01*
X160703281Y-132315992D01*
X161032204Y-132768231D01*
X161256725Y-133292141D01*
X161348374Y-133826974D01*
X161859525Y-133826974D01*
X161866194Y-133610572D01*
X161823727Y-133311350D01*
X161707320Y-132990957D01*
X161587537Y-132737325D01*
X161219166Y-132148841D01*
X160838503Y-131766720D01*
X160555794Y-131566552D01*
X160323929Y-131473994D01*
X160044265Y-131459016D01*
X159865352Y-131470466D01*
G36*
X172397241Y-129593299D02*
G01*
X172343500Y-129910425D01*
X172340556Y-130029059D01*
X172323558Y-130345484D01*
X172279635Y-130791826D01*
X172216386Y-131313379D01*
X172141409Y-131855441D01*
X172062304Y-132363307D01*
X171986671Y-132782274D01*
X171922107Y-133057638D01*
X171918045Y-133070600D01*
X171790178Y-133410637D01*
X171625096Y-133775943D01*
X171451954Y-134109427D01*
X171299907Y-134354001D01*
X171215811Y-134445654D01*
X171036378Y-134449888D01*
X170836934Y-134260972D01*
X170622704Y-133887381D01*
X170398916Y-133337591D01*
X170245228Y-132871597D01*
X170009905Y-132107809D01*
X169823228Y-131516612D01*
X169676228Y-131075737D01*
X169559939Y-130762912D01*
X169465392Y-130555869D01*
X169383621Y-130432336D01*
X169305657Y-130370044D01*
X169228878Y-130347578D01*
X169088434Y-130358287D01*
X169008777Y-130474681D01*
X168956905Y-130745292D01*
X168956525Y-130748121D01*
X168946663Y-131008593D01*
X168960312Y-131418791D01*
X168994579Y-131926964D01*
X169046572Y-132481363D01*
X169060458Y-132607543D01*
X169122367Y-133275680D01*
X169172836Y-134052578D01*
X169206831Y-134843898D01*
X169219320Y-135555302D01*
X169219294Y-135585200D01*
X169216366Y-137134600D01*
X169452279Y-137134600D01*
X169621135Y-137094267D01*
X169716799Y-136937229D01*
X169757604Y-136764607D01*
X169776196Y-136536382D01*
X169782531Y-136149355D01*
X169777961Y-135647467D01*
X169763841Y-135074659D01*
X169741522Y-134474873D01*
X169712359Y-133892050D01*
X169677703Y-133370131D01*
X169640729Y-132969000D01*
X169619662Y-132753556D01*
X169627351Y-132685465D01*
X169673670Y-132778048D01*
X169768494Y-133044629D01*
X169828977Y-133223000D01*
X170042718Y-133812579D01*
X170237160Y-134241365D01*
X170433047Y-134547781D01*
X170651121Y-134770250D01*
X170674272Y-134788829D01*
X171024297Y-134970272D01*
X171355609Y-134950004D01*
X171667586Y-134728703D01*
X171959607Y-134307052D01*
X172231052Y-133685730D01*
X172481300Y-132865418D01*
X172501703Y-132786029D01*
X172609009Y-132371378D01*
X172699153Y-132038538D01*
X172760044Y-131831320D01*
X172777997Y-131784936D01*
X172806914Y-131866734D01*
X172864264Y-132111685D01*
X172942034Y-132483039D01*
X173032214Y-132944046D01*
X173042235Y-132996997D01*
X173177798Y-133714338D01*
X173282356Y-134256554D01*
X173362858Y-134648145D01*
X173426252Y-134913612D01*
X173479487Y-135077455D01*
X173529511Y-135164172D01*
X173583273Y-135198265D01*
X173647721Y-135204232D01*
X173668219Y-135204200D01*
X173748541Y-135198895D01*
X173805605Y-135167425D01*
X173837946Y-135086453D01*
X173844102Y-134932641D01*
X173822607Y-134682655D01*
X173772000Y-134313157D01*
X173690815Y-133800811D01*
X173577590Y-133122280D01*
X173514039Y-132746126D01*
X173365078Y-131871330D01*
X173243312Y-131175468D01*
X173143466Y-130636883D01*
X173060262Y-130233918D01*
X172988423Y-129944920D01*
X172922674Y-129748230D01*
X172857738Y-129622195D01*
X172788337Y-129545157D01*
X172723835Y-129503058D01*
X172522318Y-129459844D01*
X172397241Y-129593299D01*
G37*
X172397241Y-129593299D02*
X172343500Y-129910425D01*
X172340556Y-130029059D01*
X172323558Y-130345484D01*
X172279635Y-130791826D01*
X172216386Y-131313379D01*
X172141409Y-131855441D01*
X172062304Y-132363307D01*
X171986671Y-132782274D01*
X171922107Y-133057638D01*
X171918045Y-133070600D01*
X171790178Y-133410637D01*
X171625096Y-133775943D01*
X171451954Y-134109427D01*
X171299907Y-134354001D01*
X171215811Y-134445654D01*
X171036378Y-134449888D01*
X170836934Y-134260972D01*
X170622704Y-133887381D01*
X170398916Y-133337591D01*
X170245228Y-132871597D01*
X170009905Y-132107809D01*
X169823228Y-131516612D01*
X169676228Y-131075737D01*
X169559939Y-130762912D01*
X169465392Y-130555869D01*
X169383621Y-130432336D01*
X169305657Y-130370044D01*
X169228878Y-130347578D01*
X169088434Y-130358287D01*
X169008777Y-130474681D01*
X168956905Y-130745292D01*
X168956525Y-130748121D01*
X168946663Y-131008593D01*
X168960312Y-131418791D01*
X168994579Y-131926964D01*
X169046572Y-132481363D01*
X169060458Y-132607543D01*
X169122367Y-133275680D01*
X169172836Y-134052578D01*
X169206831Y-134843898D01*
X169219320Y-135555302D01*
X169219294Y-135585200D01*
X169216366Y-137134600D01*
X169452279Y-137134600D01*
X169621135Y-137094267D01*
X169716799Y-136937229D01*
X169757604Y-136764607D01*
X169776196Y-136536382D01*
X169782531Y-136149355D01*
X169777961Y-135647467D01*
X169763841Y-135074659D01*
X169741522Y-134474873D01*
X169712359Y-133892050D01*
X169677703Y-133370131D01*
X169640729Y-132969000D01*
X169619662Y-132753556D01*
X169627351Y-132685465D01*
X169673670Y-132778048D01*
X169768494Y-133044629D01*
X169828977Y-133223000D01*
X170042718Y-133812579D01*
X170237160Y-134241365D01*
X170433047Y-134547781D01*
X170651121Y-134770250D01*
X170674272Y-134788829D01*
X171024297Y-134970272D01*
X171355609Y-134950004D01*
X171667586Y-134728703D01*
X171959607Y-134307052D01*
X172231052Y-133685730D01*
X172481300Y-132865418D01*
X172501703Y-132786029D01*
X172609009Y-132371378D01*
X172699153Y-132038538D01*
X172760044Y-131831320D01*
X172777997Y-131784936D01*
X172806914Y-131866734D01*
X172864264Y-132111685D01*
X172942034Y-132483039D01*
X173032214Y-132944046D01*
X173042235Y-132996997D01*
X173177798Y-133714338D01*
X173282356Y-134256554D01*
X173362858Y-134648145D01*
X173426252Y-134913612D01*
X173479487Y-135077455D01*
X173529511Y-135164172D01*
X173583273Y-135198265D01*
X173647721Y-135204232D01*
X173668219Y-135204200D01*
X173748541Y-135198895D01*
X173805605Y-135167425D01*
X173837946Y-135086453D01*
X173844102Y-134932641D01*
X173822607Y-134682655D01*
X173772000Y-134313157D01*
X173690815Y-133800811D01*
X173577590Y-133122280D01*
X173514039Y-132746126D01*
X173365078Y-131871330D01*
X173243312Y-131175468D01*
X173143466Y-130636883D01*
X173060262Y-130233918D01*
X172988423Y-129944920D01*
X172922674Y-129748230D01*
X172857738Y-129622195D01*
X172788337Y-129545157D01*
X172723835Y-129503058D01*
X172522318Y-129459844D01*
X172397241Y-129593299D01*
%LPC*%
D13*
X177882500Y-136260000D03*
X179717500Y-136260000D03*
X176965000Y-137177500D03*
X178800000Y-137177500D03*
X180635000Y-137177500D03*
X177882500Y-138095000D03*
X179717500Y-138095000D03*
X176965000Y-139012500D03*
X178800000Y-139012500D03*
X180635000Y-139012500D03*
X177882500Y-139930000D03*
X179717500Y-139930000D03*
D14*
X200508000Y-118110000D03*
X200508000Y-115570000D03*
D15*
X200508000Y-113030000D03*
D14*
X115062000Y-137414000D03*
X117602000Y-137414000D03*
D15*
X120142000Y-137414000D03*
D16*
X145105000Y-145826000D03*
X138105000Y-145826000D03*
D17*
X144105000Y-143126000D03*
X139105000Y-143126000D03*
D14*
X210566000Y-127000000D03*
X213106000Y-127000000D03*
X210566000Y-129540000D03*
X213106000Y-129540000D03*
X210566000Y-132080000D03*
X213106000Y-132080000D03*
X210566000Y-134620000D03*
D15*
X213106000Y-134620000D03*
D14*
X210566000Y-112522000D03*
X213106000Y-112522000D03*
X210566000Y-115062000D03*
X213106000Y-115062000D03*
X210566000Y-117602000D03*
X213106000Y-117602000D03*
X210566000Y-120142000D03*
X213106000Y-120142000D03*
X210566000Y-122682000D03*
D15*
X213106000Y-122682000D03*
D14*
X205359000Y-89916000D03*
D15*
X205359000Y-87376000D03*
D14*
X201676000Y-89916000D03*
D15*
X201676000Y-87376000D03*
D14*
X197993000Y-89916000D03*
D15*
X197993000Y-87376000D03*
D14*
X183134000Y-89916000D03*
D15*
X183134000Y-87376000D03*
D14*
X179451000Y-89916000D03*
D15*
X179451000Y-87376000D03*
D14*
X175768000Y-89916000D03*
D15*
X175768000Y-87376000D03*
D14*
X161417000Y-89916000D03*
D15*
X161417000Y-87376000D03*
D14*
X157734000Y-89916000D03*
D15*
X157734000Y-87376000D03*
D14*
X154051000Y-89916000D03*
D15*
X154051000Y-87376000D03*
D14*
X139573000Y-89916000D03*
D15*
X139573000Y-87376000D03*
D14*
X135890000Y-89916000D03*
D15*
X135890000Y-87376000D03*
D14*
X132207000Y-89916000D03*
D15*
X132207000Y-87376000D03*
D18*
X188214000Y-83820000D03*
X190754000Y-83820000D03*
X193294000Y-83820000D03*
X195834000Y-83820000D03*
X198374000Y-83820000D03*
X200914000Y-83820000D03*
X203454000Y-83820000D03*
X205994000Y-83820000D03*
X205994000Y-96520000D03*
X203454000Y-96520000D03*
X200914000Y-96520000D03*
X198374000Y-96520000D03*
X195834000Y-96520000D03*
X193294000Y-96520000D03*
X190754000Y-96520000D03*
D19*
X188214000Y-96520000D03*
D18*
X166285000Y-83820000D03*
X168825000Y-83820000D03*
X171365000Y-83820000D03*
X173905000Y-83820000D03*
X176445000Y-83820000D03*
X178985000Y-83820000D03*
X181525000Y-83820000D03*
X184065000Y-83820000D03*
X184065000Y-96520000D03*
X181525000Y-96520000D03*
X178985000Y-96520000D03*
X176445000Y-96520000D03*
X173905000Y-96520000D03*
X171365000Y-96520000D03*
X168825000Y-96520000D03*
D19*
X166285000Y-96520000D03*
D18*
X144357000Y-83820000D03*
X146897000Y-83820000D03*
X149437000Y-83820000D03*
X151977000Y-83820000D03*
X154517000Y-83820000D03*
X157057000Y-83820000D03*
X159597000Y-83820000D03*
X162137000Y-83820000D03*
X162137000Y-96520000D03*
X159597000Y-96520000D03*
X157057000Y-96520000D03*
X154517000Y-96520000D03*
X151977000Y-96520000D03*
X149437000Y-96520000D03*
X146897000Y-96520000D03*
D19*
X144357000Y-96520000D03*
D18*
X122428000Y-83820000D03*
X124968000Y-83820000D03*
X127508000Y-83820000D03*
X130048000Y-83820000D03*
X132588000Y-83820000D03*
X135128000Y-83820000D03*
X137668000Y-83820000D03*
X140208000Y-83820000D03*
X140208000Y-96520000D03*
X137668000Y-96520000D03*
X135128000Y-96520000D03*
X132588000Y-96520000D03*
X130048000Y-96520000D03*
X127508000Y-96520000D03*
X124968000Y-96520000D03*
D19*
X122428000Y-96520000D03*
D14*
X204419000Y-102464000D03*
X204419000Y-105004000D03*
D15*
X204419000Y-107544000D03*
D14*
X117602000Y-131191000D03*
X115062000Y-131191000D03*
X117602000Y-128651000D03*
D15*
X115062000Y-128651000D03*
D14*
X117602000Y-124587000D03*
X115062000Y-124587000D03*
X117602000Y-122047000D03*
D15*
X115062000Y-122047000D03*
D20*
X211328000Y-107188000D03*
D21*
X211328000Y-102108000D03*
D14*
X196494000Y-118110000D03*
X196494000Y-115570000D03*
D15*
X196494000Y-113030000D03*
D20*
X117221000Y-112014000D03*
D21*
X117221000Y-117094000D03*
D14*
X200914000Y-79756000D03*
X198374000Y-79756000D03*
X195834000Y-79756000D03*
D15*
X193294000Y-79756000D03*
D14*
X178943000Y-79756000D03*
X176403000Y-79756000D03*
X173863000Y-79756000D03*
D15*
X171323000Y-79756000D03*
D14*
X156972000Y-79756000D03*
X154432000Y-79756000D03*
X151892000Y-79756000D03*
D15*
X149352000Y-79756000D03*
D14*
X135138000Y-79756000D03*
X132598000Y-79756000D03*
X130058000Y-79756000D03*
D15*
X127518000Y-79756000D03*
D22*
X116840000Y-81280000D03*
X212090000Y-142240000D03*
X116840000Y-142748000D03*
X211328000Y-81280000D03*
D23*
X116586000Y-86614000D03*
D24*
X116586000Y-106934000D03*
M02*
