M48
; DRILL file {KiCad (5.1.9)-1} date 11/23/21 21:03:11
; FORMAT={-:-/ absolute / metric / decimal}
; #@! TF.CreationDate,2021-11-23T21:03:11+05:30
; #@! TF.GenerationSoftware,Kicad,Pcbnew,(5.1.9)-1
; #@! TF.FileFunction,Plated,1,2,PTH
FMAT,2
METRIC
T1C0.200
T2C0.300
T3C0.400
T4C0.500
T5C0.550
T6C1.000
T7C1.020
T8C1.200
T9C1.520
T10C3.200
%
G90
G05
T1
X176.965Y-137.177
X176.965Y-139.012
X177.882Y-136.26
X177.882Y-138.095
X177.882Y-139.93
X178.8Y-137.177
X178.8Y-139.012
X179.718Y-136.26
X179.718Y-138.095
X179.718Y-139.93
X180.635Y-137.177
X180.635Y-139.012
T2
X133.201Y-116.113
X133.201Y-117.313
X134.401Y-116.113
X134.401Y-117.313
X135.701Y-116.113
X135.701Y-117.313
X136.801Y-116.113
X136.801Y-117.313
T3
X121.92Y-142.24
X121.92Y-144.78
X122.555Y-104.775
X122.555Y-106.68
X122.555Y-108.585
X122.834Y-117.958
X122.834Y-119.329
X123.19Y-135.89
X123.19Y-143.51
X124.46Y-104.775
X124.46Y-106.68
X124.46Y-108.585
X125.666Y-118.021
X128.168Y-118.199
X128.905Y-111.76
X130.175Y-114.935
X130.81Y-113.03
X132.08Y-129.54
X132.08Y-132.08
X132.715Y-109.855
X133.718Y-130.95
X135.636Y-94.234
X135.776Y-145.212
X135.865Y-100.559
X136.407Y-124.905
X136.418Y-122.375
X136.525Y-110.49
X138.176Y-94.234
X138.938Y-113.386
X138.989Y-115.164
X139.014Y-100.495
X139.065Y-110.49
X141.122Y-121.768
X143.002Y-110.084
X143.065Y-107.264
X143.332Y-134.714
X143.51Y-138.43
X143.51Y-140.97
X143.644Y-133.462
X144.78Y-139.7
X145.593Y-111.862
X145.948Y-121.361
X146.05Y-140.97
X146.685Y-128.905
X147.495Y-118.965
X147.637Y-145.288
X147.917Y-121.082
X151.765Y-120.65
X152.52Y-123.037
X153.168Y-126.297
X156.807Y-127.504
X156.845Y-121.92
X157.48Y-94.234
X157.48Y-101.6
X157.48Y-104.14
X157.722Y-134.229
X159.563Y-126.238
X159.766Y-94.234
X160.02Y-101.6
X160.02Y-106.68
X160.02Y-114.3
X161.29Y-113.03
X161.29Y-115.57
X162.458Y-125.324
X162.56Y-104.14
X162.56Y-109.22
X162.56Y-114.3
X162.56Y-116.84
X163.83Y-115.57
X164.338Y-91.694
X164.338Y-93.98
X164.338Y-96.012
X164.846Y-128.778
X165.1Y-106.68
X165.1Y-111.76
X165.1Y-116.84
X166.116Y-86.614
X166.37Y-118.11
X167.002Y-142.022
X167.292Y-144.14
X167.442Y-122.628
X167.64Y-109.22
X168.148Y-126.187
X170.18Y-101.6
X170.18Y-111.76
X172.195Y-137.514
X172.195Y-143.481
X172.413Y-117.938
X172.72Y-101.6
X172.72Y-104.14
X175.26Y-101.6
X175.26Y-106.68
X175.26Y-144.78
X175.304Y-130.83
X175.768Y-117.094
X176.041Y-120.566
X176.668Y-133.308
X177.8Y-101.6
X177.8Y-104.14
X177.8Y-106.68
X177.8Y-109.22
X177.8Y-144.78
X178.768Y-134.095
X180.34Y-94.488
X180.34Y-144.78
X182.372Y-94.488
X182.88Y-144.78
X182.951Y-125.366
X183.64Y-133.377
X183.867Y-130.836
X186.182Y-90.932
X186.182Y-93.726
X186.69Y-109.22
X186.69Y-111.76
X186.69Y-119.38
X187.503Y-124.308
X187.96Y-101.6
X187.96Y-104.14
X187.96Y-106.68
X187.965Y-130.205
X188.5Y-134.289
X189.313Y-126.754
X190.246Y-129.159
X190.5Y-101.6
X190.5Y-104.14
X190.703Y-124.308
X191.516Y-132.842
X191.516Y-134.493
X191.738Y-122.079
X191.897Y-127.508
X192.402Y-142.624
X192.405Y-138.43
X193.04Y-101.6
X193.04Y-111.76
X193.167Y-131.953
X195.58Y-109.22
X196.923Y-135.775
X197.421Y-132.777
X201.168Y-94.234
X203.708Y-94.234
X206.502Y-124.968
X207.01Y-110.236
X208.915Y-137.795
X211.455Y-137.795
X212.09Y-88.265
X212.09Y-91.44
X212.09Y-94.615
X213.995Y-137.795
T6
X115.062Y-122.047
X115.062Y-124.587
X115.062Y-128.651
X115.062Y-131.191
X115.062Y-137.414
X117.602Y-122.047
X117.602Y-124.587
X117.602Y-128.651
X117.602Y-131.191
X117.602Y-137.414
X120.142Y-137.414
X127.518Y-79.756
X130.058Y-79.756
X132.207Y-87.376
X132.207Y-89.916
X132.598Y-79.756
X135.138Y-79.756
X135.89Y-87.376
X135.89Y-89.916
X139.573Y-87.376
X139.573Y-89.916
X149.352Y-79.756
X151.892Y-79.756
X154.051Y-87.376
X154.051Y-89.916
X154.432Y-79.756
X156.972Y-79.756
X157.734Y-87.376
X157.734Y-89.916
X161.417Y-87.376
X161.417Y-89.916
X171.323Y-79.756
X173.863Y-79.756
X175.768Y-87.376
X175.768Y-89.916
X176.403Y-79.756
X178.943Y-79.756
X179.451Y-87.376
X179.451Y-89.916
X183.134Y-87.376
X183.134Y-89.916
X193.294Y-79.756
X195.834Y-79.756
X196.494Y-113.03
X196.494Y-115.57
X196.494Y-118.11
X197.993Y-87.376
X197.993Y-89.916
X198.374Y-79.756
X200.508Y-113.03
X200.508Y-115.57
X200.508Y-118.11
X200.914Y-79.756
X201.676Y-87.376
X201.676Y-89.916
X204.419Y-102.464
X204.419Y-105.004
X204.419Y-107.544
X205.359Y-87.376
X205.359Y-89.916
X210.566Y-112.522
X210.566Y-115.062
X210.566Y-117.602
X210.566Y-120.142
X210.566Y-122.682
X210.566Y-127.0
X210.566Y-129.54
X210.566Y-132.08
X210.566Y-134.62
X213.106Y-112.522
X213.106Y-115.062
X213.106Y-117.602
X213.106Y-120.142
X213.106Y-122.682
X213.106Y-127.0
X213.106Y-129.54
X213.106Y-132.08
X213.106Y-134.62
T7
X122.428Y-83.82
X122.428Y-96.52
X124.968Y-83.82
X124.968Y-96.52
X127.508Y-83.82
X127.508Y-96.52
X130.048Y-83.82
X130.048Y-96.52
X132.588Y-83.82
X132.588Y-96.52
X135.128Y-83.82
X135.128Y-96.52
X137.668Y-83.82
X137.668Y-96.52
X140.208Y-83.82
X140.208Y-96.52
X144.357Y-83.82
X144.357Y-96.52
X146.897Y-83.82
X146.897Y-96.52
X149.437Y-83.82
X149.437Y-96.52
X151.977Y-83.82
X151.977Y-96.52
X154.517Y-83.82
X154.517Y-96.52
X157.057Y-83.82
X157.057Y-96.52
X159.597Y-83.82
X159.597Y-96.52
X162.137Y-83.82
X162.137Y-96.52
X166.285Y-83.82
X166.285Y-96.52
X168.825Y-83.82
X168.825Y-96.52
X171.365Y-83.82
X171.365Y-96.52
X173.905Y-83.82
X173.905Y-96.52
X176.445Y-83.82
X176.445Y-96.52
X178.985Y-83.82
X178.985Y-96.52
X181.525Y-83.82
X181.525Y-96.52
X184.065Y-83.82
X184.065Y-96.52
X188.214Y-83.82
X188.214Y-96.52
X190.754Y-83.82
X190.754Y-96.52
X193.294Y-83.82
X193.294Y-96.52
X195.834Y-83.82
X195.834Y-96.52
X198.374Y-83.82
X198.374Y-96.52
X200.914Y-83.82
X200.914Y-96.52
X203.454Y-83.82
X203.454Y-96.52
X205.994Y-83.82
X205.994Y-96.52
T8
X116.586Y-86.614
X116.586Y-106.934
T9
X117.221Y-112.014
X117.221Y-117.094
X211.328Y-102.108
X211.328Y-107.188
T10
X116.84Y-81.28
X116.84Y-142.748
X211.328Y-81.28
X212.09Y-142.24
T4
X138.105Y-145.501G85X138.105Y-146.151
G05
X145.105Y-145.501G85X145.105Y-146.151
G05
T5
X138.955Y-143.126G85X139.255Y-143.126
G05
X143.955Y-143.126G85X144.255Y-143.126
G05
T0
M30
