%FSLAX45Y45*%
G04 Gerber Fmt 4.5, Leading zero omitted, Abs format (unit mm)*
G04 Created by KiCad (PCBNEW (5.1.9)-1) date 2021-11-23 21:03:16*
%MOMM*%
%LPD*%
G01*
G04 APERTURE LIST*
%TA.AperFunction,Profile*%
%ADD10C,0.050000*%
%TD*%
%ADD11C,0.200000*%
%ADD12C,0.300000*%
G04 APERTURE END LIST*
D10*
X11174764Y-8091626D02*
G75*
G02*
X11633200Y-7620000I509236J-36374D01*
G01*
X21183600Y-7620000D02*
G75*
G02*
X21691600Y-8128000I0J-508000D01*
G01*
X11684000Y-14732000D02*
G75*
G02*
X11176000Y-14224000I0J508000D01*
G01*
X21691600Y-14224000D02*
G75*
G02*
X21183600Y-14732000I-508000J0D01*
G01*
X11176000Y-14224000D02*
X11174764Y-8091626D01*
X21183600Y-14732000D02*
X11684000Y-14732000D01*
X21691600Y-8128000D02*
X21691600Y-14224000D01*
X11633200Y-7620000D02*
X21183600Y-7620000D01*
D11*
X17686500Y-13707750D02*
X17706500Y-13727750D01*
X17706500Y-13707750D02*
X17686500Y-13727750D01*
X17686500Y-13891250D02*
X17706500Y-13911250D01*
X17706500Y-13891250D02*
X17686500Y-13911250D01*
X17778250Y-13616000D02*
X17798250Y-13636000D01*
X17798250Y-13616000D02*
X17778250Y-13636000D01*
X17778250Y-13799500D02*
X17798250Y-13819500D01*
X17798250Y-13799500D02*
X17778250Y-13819500D01*
X17778250Y-13983000D02*
X17798250Y-14003000D01*
X17798250Y-13983000D02*
X17778250Y-14003000D01*
X17870000Y-13707750D02*
X17890000Y-13727750D01*
X17890000Y-13707750D02*
X17870000Y-13727750D01*
X17870000Y-13891250D02*
X17890000Y-13911250D01*
X17890000Y-13891250D02*
X17870000Y-13911250D01*
X17961750Y-13616000D02*
X17981750Y-13636000D01*
X17981750Y-13616000D02*
X17961750Y-13636000D01*
X17961750Y-13799500D02*
X17981750Y-13819500D01*
X17981750Y-13799500D02*
X17961750Y-13819500D01*
X17961750Y-13983000D02*
X17981750Y-14003000D01*
X17981750Y-13983000D02*
X17961750Y-14003000D01*
X18053500Y-13707750D02*
X18073500Y-13727750D01*
X18073500Y-13707750D02*
X18053500Y-13727750D01*
X18053500Y-13891250D02*
X18073500Y-13911250D01*
X18073500Y-13891250D02*
X18053500Y-13911250D01*
X13335100Y-11611300D02*
G75*
G03*
X13335100Y-11611300I-15000J0D01*
G01*
X13335100Y-11731300D02*
G75*
G03*
X13335100Y-11731300I-15000J0D01*
G01*
X13455100Y-11611300D02*
G75*
G03*
X13455100Y-11611300I-15000J0D01*
G01*
X13455100Y-11731300D02*
G75*
G03*
X13455100Y-11731300I-15000J0D01*
G01*
X13585100Y-11611300D02*
G75*
G03*
X13585100Y-11611300I-15000J0D01*
G01*
X13585100Y-11731300D02*
G75*
G03*
X13585100Y-11731300I-15000J0D01*
G01*
X13695100Y-11611300D02*
G75*
G03*
X13695100Y-11611300I-15000J0D01*
G01*
X13695100Y-11731300D02*
G75*
G03*
X13695100Y-11731300I-15000J0D01*
G01*
X12192000Y-14204000D02*
X12192000Y-14244000D01*
X12172000Y-14224000D02*
X12212000Y-14224000D01*
X12192000Y-14458000D02*
X12192000Y-14498000D01*
X12172000Y-14478000D02*
X12212000Y-14478000D01*
X12255500Y-10457500D02*
X12255500Y-10497500D01*
X12235500Y-10477500D02*
X12275500Y-10477500D01*
X12255500Y-10648000D02*
X12255500Y-10688000D01*
X12235500Y-10668000D02*
X12275500Y-10668000D01*
X12255500Y-10838500D02*
X12255500Y-10878500D01*
X12235500Y-10858500D02*
X12275500Y-10858500D01*
X12283440Y-11775760D02*
X12283440Y-11815760D01*
X12263440Y-11795760D02*
X12303440Y-11795760D01*
X12283440Y-11912920D02*
X12283440Y-11952920D01*
X12263440Y-11932920D02*
X12303440Y-11932920D01*
X12319000Y-13569000D02*
X12319000Y-13609000D01*
X12299000Y-13589000D02*
X12339000Y-13589000D01*
X12319000Y-14331000D02*
X12319000Y-14371000D01*
X12299000Y-14351000D02*
X12339000Y-14351000D01*
X12446000Y-10457500D02*
X12446000Y-10497500D01*
X12426000Y-10477500D02*
X12466000Y-10477500D01*
X12446000Y-10648000D02*
X12446000Y-10688000D01*
X12426000Y-10668000D02*
X12466000Y-10668000D01*
X12446000Y-10838500D02*
X12446000Y-10878500D01*
X12426000Y-10858500D02*
X12466000Y-10858500D01*
X12566650Y-11782110D02*
X12566650Y-11822110D01*
X12546650Y-11802110D02*
X12586650Y-11802110D01*
X12816840Y-11799890D02*
X12816840Y-11839890D01*
X12796840Y-11819890D02*
X12836840Y-11819890D01*
X12890500Y-11156000D02*
X12890500Y-11196000D01*
X12870500Y-11176000D02*
X12910500Y-11176000D01*
X13017500Y-11473500D02*
X13017500Y-11513500D01*
X12997500Y-11493500D02*
X13037500Y-11493500D01*
X13081000Y-11283000D02*
X13081000Y-11323000D01*
X13061000Y-11303000D02*
X13101000Y-11303000D01*
X13208000Y-12934000D02*
X13208000Y-12974000D01*
X13188000Y-12954000D02*
X13228000Y-12954000D01*
X13208000Y-13188000D02*
X13208000Y-13228000D01*
X13188000Y-13208000D02*
X13228000Y-13208000D01*
X13271500Y-10965500D02*
X13271500Y-11005500D01*
X13251500Y-10985500D02*
X13291500Y-10985500D01*
X13371830Y-13074970D02*
X13371830Y-13114970D01*
X13351830Y-13094970D02*
X13391830Y-13094970D01*
X13563600Y-9403400D02*
X13563600Y-9443400D01*
X13543600Y-9423400D02*
X13583600Y-9423400D01*
X13577570Y-14501180D02*
X13577570Y-14541180D01*
X13557570Y-14521180D02*
X13597570Y-14521180D01*
X13586460Y-10035860D02*
X13586460Y-10075860D01*
X13566460Y-10055860D02*
X13606460Y-10055860D01*
X13640670Y-12470480D02*
X13640670Y-12510480D01*
X13620670Y-12490480D02*
X13660670Y-12490480D01*
X13641850Y-12217540D02*
X13641850Y-12257540D01*
X13621850Y-12237540D02*
X13661850Y-12237540D01*
X13652500Y-11029000D02*
X13652500Y-11069000D01*
X13632500Y-11049000D02*
X13672500Y-11049000D01*
X13817600Y-9403400D02*
X13817600Y-9443400D01*
X13797600Y-9423400D02*
X13837600Y-9423400D01*
X13893800Y-11318560D02*
X13893800Y-11358560D01*
X13873800Y-11338560D02*
X13913800Y-11338560D01*
X13898880Y-11496360D02*
X13898880Y-11536360D01*
X13878880Y-11516360D02*
X13918880Y-11516360D01*
X13901420Y-10029510D02*
X13901420Y-10069510D01*
X13881420Y-10049510D02*
X13921420Y-10049510D01*
X13906500Y-11029000D02*
X13906500Y-11069000D01*
X13886500Y-11049000D02*
X13926500Y-11049000D01*
X14112240Y-12156760D02*
X14112240Y-12196760D01*
X14092240Y-12176760D02*
X14132240Y-12176760D01*
X14300200Y-10988360D02*
X14300200Y-11028360D01*
X14280200Y-11008360D02*
X14320200Y-11008360D01*
X14306550Y-10706420D02*
X14306550Y-10746420D01*
X14286550Y-10726420D02*
X14326550Y-10726420D01*
X14333170Y-13451400D02*
X14333170Y-13491400D01*
X14313170Y-13471400D02*
X14353170Y-13471400D01*
X14351000Y-13823000D02*
X14351000Y-13863000D01*
X14331000Y-13843000D02*
X14371000Y-13843000D01*
X14351000Y-14077000D02*
X14351000Y-14117000D01*
X14331000Y-14097000D02*
X14371000Y-14097000D01*
X14364450Y-13326190D02*
X14364450Y-13366190D01*
X14344450Y-13346190D02*
X14384450Y-13346190D01*
X14478000Y-13950000D02*
X14478000Y-13990000D01*
X14458000Y-13970000D02*
X14498000Y-13970000D01*
X14559280Y-11166160D02*
X14559280Y-11206160D01*
X14539280Y-11186160D02*
X14579280Y-11186160D01*
X14594840Y-12116120D02*
X14594840Y-12156120D01*
X14574840Y-12136120D02*
X14614840Y-12136120D01*
X14605000Y-14077000D02*
X14605000Y-14117000D01*
X14585000Y-14097000D02*
X14625000Y-14097000D01*
X14668500Y-12870500D02*
X14668500Y-12910500D01*
X14648500Y-12890500D02*
X14688500Y-12890500D01*
X14749520Y-11876520D02*
X14749520Y-11916520D01*
X14729520Y-11896520D02*
X14769520Y-11896520D01*
X14763750Y-14508800D02*
X14763750Y-14548800D01*
X14743750Y-14528800D02*
X14783750Y-14528800D01*
X14791690Y-12088180D02*
X14791690Y-12128180D01*
X14771690Y-12108180D02*
X14811690Y-12108180D01*
X15176500Y-12045000D02*
X15176500Y-12085000D01*
X15156500Y-12065000D02*
X15196500Y-12065000D01*
X15252050Y-12283680D02*
X15252050Y-12323680D01*
X15232050Y-12303680D02*
X15272050Y-12303680D01*
X15316810Y-12609670D02*
X15316810Y-12649670D01*
X15296810Y-12629670D02*
X15336810Y-12629670D01*
X15680660Y-12730450D02*
X15680660Y-12770450D01*
X15660660Y-12750450D02*
X15700660Y-12750450D01*
X15684500Y-12172000D02*
X15684500Y-12212000D01*
X15664500Y-12192000D02*
X15704500Y-12192000D01*
X15748000Y-9403400D02*
X15748000Y-9443400D01*
X15728000Y-9423400D02*
X15768000Y-9423400D01*
X15748000Y-10140000D02*
X15748000Y-10180000D01*
X15728000Y-10160000D02*
X15768000Y-10160000D01*
X15748000Y-10394000D02*
X15748000Y-10434000D01*
X15728000Y-10414000D02*
X15768000Y-10414000D01*
X15772200Y-13402870D02*
X15772200Y-13442870D01*
X15752200Y-13422870D02*
X15792200Y-13422870D01*
X15956280Y-12603800D02*
X15956280Y-12643800D01*
X15936280Y-12623800D02*
X15976280Y-12623800D01*
X15976600Y-9403400D02*
X15976600Y-9443400D01*
X15956600Y-9423400D02*
X15996600Y-9423400D01*
X16002000Y-10140000D02*
X16002000Y-10180000D01*
X15982000Y-10160000D02*
X16022000Y-10160000D01*
X16002000Y-10648000D02*
X16002000Y-10688000D01*
X15982000Y-10668000D02*
X16022000Y-10668000D01*
X16002000Y-11410000D02*
X16002000Y-11450000D01*
X15982000Y-11430000D02*
X16022000Y-11430000D01*
X16129000Y-11283000D02*
X16129000Y-11323000D01*
X16109000Y-11303000D02*
X16149000Y-11303000D01*
X16129000Y-11537000D02*
X16129000Y-11577000D01*
X16109000Y-11557000D02*
X16149000Y-11557000D01*
X16245840Y-12512360D02*
X16245840Y-12552360D01*
X16225840Y-12532360D02*
X16265840Y-12532360D01*
X16256000Y-10394000D02*
X16256000Y-10434000D01*
X16236000Y-10414000D02*
X16276000Y-10414000D01*
X16256000Y-10902000D02*
X16256000Y-10942000D01*
X16236000Y-10922000D02*
X16276000Y-10922000D01*
X16256000Y-11410000D02*
X16256000Y-11450000D01*
X16236000Y-11430000D02*
X16276000Y-11430000D01*
X16256000Y-11664000D02*
X16256000Y-11704000D01*
X16236000Y-11684000D02*
X16276000Y-11684000D01*
X16383000Y-11537000D02*
X16383000Y-11577000D01*
X16363000Y-11557000D02*
X16403000Y-11557000D01*
X16433800Y-9149400D02*
X16433800Y-9189400D01*
X16413800Y-9169400D02*
X16453800Y-9169400D01*
X16433800Y-9378000D02*
X16433800Y-9418000D01*
X16413800Y-9398000D02*
X16453800Y-9398000D01*
X16433800Y-9581200D02*
X16433800Y-9621200D01*
X16413800Y-9601200D02*
X16453800Y-9601200D01*
X16484600Y-12857800D02*
X16484600Y-12897800D01*
X16464600Y-12877800D02*
X16504600Y-12877800D01*
X16510000Y-10648000D02*
X16510000Y-10688000D01*
X16490000Y-10668000D02*
X16530000Y-10668000D01*
X16510000Y-11156000D02*
X16510000Y-11196000D01*
X16490000Y-11176000D02*
X16530000Y-11176000D01*
X16510000Y-11664000D02*
X16510000Y-11704000D01*
X16490000Y-11684000D02*
X16530000Y-11684000D01*
X16611600Y-8641400D02*
X16611600Y-8681400D01*
X16591600Y-8661400D02*
X16631600Y-8661400D01*
X16637000Y-11791000D02*
X16637000Y-11831000D01*
X16617000Y-11811000D02*
X16657000Y-11811000D01*
X16700230Y-14182250D02*
X16700230Y-14222250D01*
X16680230Y-14202250D02*
X16720230Y-14202250D01*
X16729220Y-14394000D02*
X16729220Y-14434000D01*
X16709220Y-14414000D02*
X16749220Y-14414000D01*
X16744240Y-12242780D02*
X16744240Y-12282780D01*
X16724240Y-12262780D02*
X16764240Y-12262780D01*
X16764000Y-10902000D02*
X16764000Y-10942000D01*
X16744000Y-10922000D02*
X16784000Y-10922000D01*
X16814800Y-12598720D02*
X16814800Y-12638720D01*
X16794800Y-12618720D02*
X16834800Y-12618720D01*
X17018000Y-10140000D02*
X17018000Y-10180000D01*
X16998000Y-10160000D02*
X17038000Y-10160000D01*
X17018000Y-11156000D02*
X17018000Y-11196000D01*
X16998000Y-11176000D02*
X17038000Y-11176000D01*
X17219480Y-13731420D02*
X17219480Y-13771420D01*
X17199480Y-13751420D02*
X17239480Y-13751420D01*
X17219480Y-14328130D02*
X17219480Y-14368130D01*
X17199480Y-14348130D02*
X17239480Y-14348130D01*
X17241350Y-11773760D02*
X17241350Y-11813760D01*
X17221350Y-11793760D02*
X17261350Y-11793760D01*
X17272000Y-10140000D02*
X17272000Y-10180000D01*
X17252000Y-10160000D02*
X17292000Y-10160000D01*
X17272000Y-10394000D02*
X17272000Y-10434000D01*
X17252000Y-10414000D02*
X17292000Y-10414000D01*
X17526000Y-10140000D02*
X17526000Y-10180000D01*
X17506000Y-10160000D02*
X17546000Y-10160000D01*
X17526000Y-10648000D02*
X17526000Y-10688000D01*
X17506000Y-10668000D02*
X17546000Y-10668000D01*
X17526000Y-14458000D02*
X17526000Y-14498000D01*
X17506000Y-14478000D02*
X17546000Y-14478000D01*
X17530410Y-13063030D02*
X17530410Y-13103030D01*
X17510410Y-13083030D02*
X17550410Y-13083030D01*
X17576800Y-11689400D02*
X17576800Y-11729400D01*
X17556800Y-11709400D02*
X17596800Y-11709400D01*
X17604090Y-12036560D02*
X17604090Y-12076560D01*
X17584090Y-12056560D02*
X17624090Y-12056560D01*
X17666850Y-13310770D02*
X17666850Y-13350770D01*
X17646850Y-13330770D02*
X17686850Y-13330770D01*
X17780000Y-10140000D02*
X17780000Y-10180000D01*
X17760000Y-10160000D02*
X17800000Y-10160000D01*
X17780000Y-10394000D02*
X17780000Y-10434000D01*
X17760000Y-10414000D02*
X17800000Y-10414000D01*
X17780000Y-10648000D02*
X17780000Y-10688000D01*
X17760000Y-10668000D02*
X17800000Y-10668000D01*
X17780000Y-10902000D02*
X17780000Y-10942000D01*
X17760000Y-10922000D02*
X17800000Y-10922000D01*
X17780000Y-14458000D02*
X17780000Y-14498000D01*
X17760000Y-14478000D02*
X17800000Y-14478000D01*
X17876790Y-13389470D02*
X17876790Y-13429470D01*
X17856790Y-13409470D02*
X17896790Y-13409470D01*
X18034000Y-9428800D02*
X18034000Y-9468800D01*
X18014000Y-9448800D02*
X18054000Y-9448800D01*
X18034000Y-14458000D02*
X18034000Y-14498000D01*
X18014000Y-14478000D02*
X18054000Y-14478000D01*
X18237200Y-9428800D02*
X18237200Y-9468800D01*
X18217200Y-9448800D02*
X18257200Y-9448800D01*
X18288000Y-14458000D02*
X18288000Y-14498000D01*
X18268000Y-14478000D02*
X18308000Y-14478000D01*
X18295070Y-12516560D02*
X18295070Y-12556560D01*
X18275070Y-12536560D02*
X18315070Y-12536560D01*
X18363980Y-13317670D02*
X18363980Y-13357670D01*
X18343980Y-13337670D02*
X18383980Y-13337670D01*
X18386690Y-13063640D02*
X18386690Y-13103640D01*
X18366690Y-13083640D02*
X18406690Y-13083640D01*
X18618200Y-9073200D02*
X18618200Y-9113200D01*
X18598200Y-9093200D02*
X18638200Y-9093200D01*
X18618200Y-9352600D02*
X18618200Y-9392600D01*
X18598200Y-9372600D02*
X18638200Y-9372600D01*
X18669000Y-10902000D02*
X18669000Y-10942000D01*
X18649000Y-10922000D02*
X18689000Y-10922000D01*
X18669000Y-11156000D02*
X18669000Y-11196000D01*
X18649000Y-11176000D02*
X18689000Y-11176000D01*
X18669000Y-11918000D02*
X18669000Y-11958000D01*
X18649000Y-11938000D02*
X18689000Y-11938000D01*
X18750280Y-12410760D02*
X18750280Y-12450760D01*
X18730280Y-12430760D02*
X18770280Y-12430760D01*
X18796000Y-10140000D02*
X18796000Y-10180000D01*
X18776000Y-10160000D02*
X18816000Y-10160000D01*
X18796000Y-10394000D02*
X18796000Y-10434000D01*
X18776000Y-10414000D02*
X18816000Y-10414000D01*
X18796000Y-10648000D02*
X18796000Y-10688000D01*
X18776000Y-10668000D02*
X18816000Y-10668000D01*
X18796500Y-13000500D02*
X18796500Y-13040500D01*
X18776500Y-13020500D02*
X18816500Y-13020500D01*
X18850000Y-13408900D02*
X18850000Y-13448900D01*
X18830000Y-13428900D02*
X18870000Y-13428900D01*
X18931260Y-12655400D02*
X18931260Y-12695400D01*
X18911260Y-12675400D02*
X18951260Y-12675400D01*
X19024600Y-12895900D02*
X19024600Y-12935900D01*
X19004600Y-12915900D02*
X19044600Y-12915900D01*
X19050000Y-10140000D02*
X19050000Y-10180000D01*
X19030000Y-10160000D02*
X19070000Y-10160000D01*
X19050000Y-10394000D02*
X19050000Y-10434000D01*
X19030000Y-10414000D02*
X19070000Y-10414000D01*
X19070320Y-12410760D02*
X19070320Y-12450760D01*
X19050320Y-12430760D02*
X19090320Y-12430760D01*
X19151600Y-13264200D02*
X19151600Y-13304200D01*
X19131600Y-13284200D02*
X19171600Y-13284200D01*
X19151600Y-13429300D02*
X19151600Y-13469300D01*
X19131600Y-13449300D02*
X19171600Y-13449300D01*
X19173825Y-12187875D02*
X19173825Y-12227875D01*
X19153825Y-12207875D02*
X19193825Y-12207875D01*
X19189700Y-12730800D02*
X19189700Y-12770800D01*
X19169700Y-12750800D02*
X19209700Y-12750800D01*
X19240180Y-14242400D02*
X19240180Y-14282400D01*
X19220180Y-14262400D02*
X19260180Y-14262400D01*
X19240500Y-13823000D02*
X19240500Y-13863000D01*
X19220500Y-13843000D02*
X19260500Y-13843000D01*
X19304000Y-10140000D02*
X19304000Y-10180000D01*
X19284000Y-10160000D02*
X19324000Y-10160000D01*
X19304000Y-11156000D02*
X19304000Y-11196000D01*
X19284000Y-11176000D02*
X19324000Y-11176000D01*
X19316700Y-13175300D02*
X19316700Y-13215300D01*
X19296700Y-13195300D02*
X19336700Y-13195300D01*
X19558000Y-10902000D02*
X19558000Y-10942000D01*
X19538000Y-10922000D02*
X19578000Y-10922000D01*
X19692260Y-13557460D02*
X19692260Y-13597460D01*
X19672260Y-13577460D02*
X19712260Y-13577460D01*
X19742080Y-13257700D02*
X19742080Y-13297700D01*
X19722080Y-13277700D02*
X19762080Y-13277700D01*
X20116800Y-9403400D02*
X20116800Y-9443400D01*
X20096800Y-9423400D02*
X20136800Y-9423400D01*
X20370800Y-9403400D02*
X20370800Y-9443400D01*
X20350800Y-9423400D02*
X20390800Y-9423400D01*
X20650200Y-12476800D02*
X20650200Y-12516800D01*
X20630200Y-12496800D02*
X20670200Y-12496800D01*
X20701000Y-11003600D02*
X20701000Y-11043600D01*
X20681000Y-11023600D02*
X20721000Y-11023600D01*
X20891500Y-13759500D02*
X20891500Y-13799500D01*
X20871500Y-13779500D02*
X20911500Y-13779500D01*
X21145500Y-13759500D02*
X21145500Y-13799500D01*
X21125500Y-13779500D02*
X21165500Y-13779500D01*
X21209000Y-8806500D02*
X21209000Y-8846500D01*
X21189000Y-8826500D02*
X21229000Y-8826500D01*
X21209000Y-9124000D02*
X21209000Y-9164000D01*
X21189000Y-9144000D02*
X21229000Y-9144000D01*
X21209000Y-9441500D02*
X21209000Y-9481500D01*
X21189000Y-9461500D02*
X21229000Y-9461500D01*
X21399500Y-13759500D02*
X21399500Y-13799500D01*
X21379500Y-13779500D02*
X21419500Y-13779500D01*
X13828178Y-14600278D02*
X13828178Y-14564922D01*
X13792822Y-14564922D01*
X13792822Y-14600278D01*
X13828178Y-14600278D01*
X13795500Y-14550100D02*
X13795500Y-14615100D01*
X13825500Y-14550100D02*
X13825500Y-14615100D01*
X13795500Y-14615100D02*
G75*
G03*
X13825500Y-14615100I15000J0D01*
G01*
X13825500Y-14550100D02*
G75*
G03*
X13795500Y-14550100I-15000J0D01*
G01*
X14528178Y-14600278D02*
X14528178Y-14564922D01*
X14492822Y-14564922D01*
X14492822Y-14600278D01*
X14528178Y-14600278D01*
X14495500Y-14550100D02*
X14495500Y-14615100D01*
X14525500Y-14550100D02*
X14525500Y-14615100D01*
X14495500Y-14615100D02*
G75*
G03*
X14525500Y-14615100I15000J0D01*
G01*
X14525500Y-14550100D02*
G75*
G03*
X14495500Y-14550100I-15000J0D01*
G01*
X13910500Y-14340100D02*
X13938000Y-14312600D01*
X13910500Y-14285100D01*
X13883000Y-14312600D01*
X13910500Y-14340100D01*
X13895500Y-14330100D02*
X13925500Y-14330100D01*
X13895500Y-14295100D02*
X13925500Y-14295100D01*
X13925500Y-14330100D02*
G75*
G03*
X13925500Y-14295100I0J17500D01*
G01*
X13895500Y-14295100D02*
G75*
G03*
X13895500Y-14330100I0J-17500D01*
G01*
X14410500Y-14340100D02*
X14438000Y-14312600D01*
X14410500Y-14285100D01*
X14383000Y-14312600D01*
X14410500Y-14340100D01*
X14395500Y-14330100D02*
X14425500Y-14330100D01*
X14395500Y-14295100D02*
X14425500Y-14295100D01*
X14425500Y-14330100D02*
G75*
G03*
X14425500Y-14295100I0J17500D01*
G01*
X14395500Y-14295100D02*
G75*
G03*
X14395500Y-14330100I0J-17500D01*
G01*
X11456200Y-12154700D02*
X11556200Y-12254700D01*
X11556200Y-12154700D02*
X11456200Y-12254700D01*
X11556200Y-12204700D02*
G75*
G03*
X11556200Y-12204700I-50000J0D01*
G01*
X11456200Y-12408700D02*
X11556200Y-12508700D01*
X11556200Y-12408700D02*
X11456200Y-12508700D01*
X11556200Y-12458700D02*
G75*
G03*
X11556200Y-12458700I-50000J0D01*
G01*
X11456200Y-12815100D02*
X11556200Y-12915100D01*
X11556200Y-12815100D02*
X11456200Y-12915100D01*
X11556200Y-12865100D02*
G75*
G03*
X11556200Y-12865100I-50000J0D01*
G01*
X11456200Y-13069100D02*
X11556200Y-13169100D01*
X11556200Y-13069100D02*
X11456200Y-13169100D01*
X11556200Y-13119100D02*
G75*
G03*
X11556200Y-13119100I-50000J0D01*
G01*
X11456200Y-13691400D02*
X11556200Y-13791400D01*
X11556200Y-13691400D02*
X11456200Y-13791400D01*
X11556200Y-13741400D02*
G75*
G03*
X11556200Y-13741400I-50000J0D01*
G01*
X11710200Y-12154700D02*
X11810200Y-12254700D01*
X11810200Y-12154700D02*
X11710200Y-12254700D01*
X11810200Y-12204700D02*
G75*
G03*
X11810200Y-12204700I-50000J0D01*
G01*
X11710200Y-12408700D02*
X11810200Y-12508700D01*
X11810200Y-12408700D02*
X11710200Y-12508700D01*
X11810200Y-12458700D02*
G75*
G03*
X11810200Y-12458700I-50000J0D01*
G01*
X11710200Y-12815100D02*
X11810200Y-12915100D01*
X11810200Y-12815100D02*
X11710200Y-12915100D01*
X11810200Y-12865100D02*
G75*
G03*
X11810200Y-12865100I-50000J0D01*
G01*
X11710200Y-13069100D02*
X11810200Y-13169100D01*
X11810200Y-13069100D02*
X11710200Y-13169100D01*
X11810200Y-13119100D02*
G75*
G03*
X11810200Y-13119100I-50000J0D01*
G01*
X11710200Y-13691400D02*
X11810200Y-13791400D01*
X11810200Y-13691400D02*
X11710200Y-13791400D01*
X11810200Y-13741400D02*
G75*
G03*
X11810200Y-13741400I-50000J0D01*
G01*
X11964200Y-13691400D02*
X12064200Y-13791400D01*
X12064200Y-13691400D02*
X11964200Y-13791400D01*
X12064200Y-13741400D02*
G75*
G03*
X12064200Y-13741400I-50000J0D01*
G01*
X12701800Y-7925600D02*
X12801800Y-8025600D01*
X12801800Y-7925600D02*
X12701800Y-8025600D01*
X12801800Y-7975600D02*
G75*
G03*
X12801800Y-7975600I-50000J0D01*
G01*
X12955800Y-7925600D02*
X13055800Y-8025600D01*
X13055800Y-7925600D02*
X12955800Y-8025600D01*
X13055800Y-7975600D02*
G75*
G03*
X13055800Y-7975600I-50000J0D01*
G01*
X13170700Y-8687600D02*
X13270700Y-8787600D01*
X13270700Y-8687600D02*
X13170700Y-8787600D01*
X13270700Y-8737600D02*
G75*
G03*
X13270700Y-8737600I-50000J0D01*
G01*
X13170700Y-8941600D02*
X13270700Y-9041600D01*
X13270700Y-8941600D02*
X13170700Y-9041600D01*
X13270700Y-8991600D02*
G75*
G03*
X13270700Y-8991600I-50000J0D01*
G01*
X13209800Y-7925600D02*
X13309800Y-8025600D01*
X13309800Y-7925600D02*
X13209800Y-8025600D01*
X13309800Y-7975600D02*
G75*
G03*
X13309800Y-7975600I-50000J0D01*
G01*
X13463800Y-7925600D02*
X13563800Y-8025600D01*
X13563800Y-7925600D02*
X13463800Y-8025600D01*
X13563800Y-7975600D02*
G75*
G03*
X13563800Y-7975600I-50000J0D01*
G01*
X13539000Y-8687600D02*
X13639000Y-8787600D01*
X13639000Y-8687600D02*
X13539000Y-8787600D01*
X13639000Y-8737600D02*
G75*
G03*
X13639000Y-8737600I-50000J0D01*
G01*
X13539000Y-8941600D02*
X13639000Y-9041600D01*
X13639000Y-8941600D02*
X13539000Y-9041600D01*
X13639000Y-8991600D02*
G75*
G03*
X13639000Y-8991600I-50000J0D01*
G01*
X13907300Y-8687600D02*
X14007300Y-8787600D01*
X14007300Y-8687600D02*
X13907300Y-8787600D01*
X14007300Y-8737600D02*
G75*
G03*
X14007300Y-8737600I-50000J0D01*
G01*
X13907300Y-8941600D02*
X14007300Y-9041600D01*
X14007300Y-8941600D02*
X13907300Y-9041600D01*
X14007300Y-8991600D02*
G75*
G03*
X14007300Y-8991600I-50000J0D01*
G01*
X14885200Y-7925600D02*
X14985200Y-8025600D01*
X14985200Y-7925600D02*
X14885200Y-8025600D01*
X14985200Y-7975600D02*
G75*
G03*
X14985200Y-7975600I-50000J0D01*
G01*
X15139200Y-7925600D02*
X15239200Y-8025600D01*
X15239200Y-7925600D02*
X15139200Y-8025600D01*
X15239200Y-7975600D02*
G75*
G03*
X15239200Y-7975600I-50000J0D01*
G01*
X15355100Y-8687600D02*
X15455100Y-8787600D01*
X15455100Y-8687600D02*
X15355100Y-8787600D01*
X15455100Y-8737600D02*
G75*
G03*
X15455100Y-8737600I-50000J0D01*
G01*
X15355100Y-8941600D02*
X15455100Y-9041600D01*
X15455100Y-8941600D02*
X15355100Y-9041600D01*
X15455100Y-8991600D02*
G75*
G03*
X15455100Y-8991600I-50000J0D01*
G01*
X15393200Y-7925600D02*
X15493200Y-8025600D01*
X15493200Y-7925600D02*
X15393200Y-8025600D01*
X15493200Y-7975600D02*
G75*
G03*
X15493200Y-7975600I-50000J0D01*
G01*
X15647200Y-7925600D02*
X15747200Y-8025600D01*
X15747200Y-7925600D02*
X15647200Y-8025600D01*
X15747200Y-7975600D02*
G75*
G03*
X15747200Y-7975600I-50000J0D01*
G01*
X15723400Y-8687600D02*
X15823400Y-8787600D01*
X15823400Y-8687600D02*
X15723400Y-8787600D01*
X15823400Y-8737600D02*
G75*
G03*
X15823400Y-8737600I-50000J0D01*
G01*
X15723400Y-8941600D02*
X15823400Y-9041600D01*
X15823400Y-8941600D02*
X15723400Y-9041600D01*
X15823400Y-8991600D02*
G75*
G03*
X15823400Y-8991600I-50000J0D01*
G01*
X16091700Y-8687600D02*
X16191700Y-8787600D01*
X16191700Y-8687600D02*
X16091700Y-8787600D01*
X16191700Y-8737600D02*
G75*
G03*
X16191700Y-8737600I-50000J0D01*
G01*
X16091700Y-8941600D02*
X16191700Y-9041600D01*
X16191700Y-8941600D02*
X16091700Y-9041600D01*
X16191700Y-8991600D02*
G75*
G03*
X16191700Y-8991600I-50000J0D01*
G01*
X17082300Y-7925600D02*
X17182300Y-8025600D01*
X17182300Y-7925600D02*
X17082300Y-8025600D01*
X17182300Y-7975600D02*
G75*
G03*
X17182300Y-7975600I-50000J0D01*
G01*
X17336300Y-7925600D02*
X17436300Y-8025600D01*
X17436300Y-7925600D02*
X17336300Y-8025600D01*
X17436300Y-7975600D02*
G75*
G03*
X17436300Y-7975600I-50000J0D01*
G01*
X17526800Y-8687600D02*
X17626800Y-8787600D01*
X17626800Y-8687600D02*
X17526800Y-8787600D01*
X17626800Y-8737600D02*
G75*
G03*
X17626800Y-8737600I-50000J0D01*
G01*
X17526800Y-8941600D02*
X17626800Y-9041600D01*
X17626800Y-8941600D02*
X17526800Y-9041600D01*
X17626800Y-8991600D02*
G75*
G03*
X17626800Y-8991600I-50000J0D01*
G01*
X17590300Y-7925600D02*
X17690300Y-8025600D01*
X17690300Y-7925600D02*
X17590300Y-8025600D01*
X17690300Y-7975600D02*
G75*
G03*
X17690300Y-7975600I-50000J0D01*
G01*
X17844300Y-7925600D02*
X17944300Y-8025600D01*
X17944300Y-7925600D02*
X17844300Y-8025600D01*
X17944300Y-7975600D02*
G75*
G03*
X17944300Y-7975600I-50000J0D01*
G01*
X17895100Y-8687600D02*
X17995100Y-8787600D01*
X17995100Y-8687600D02*
X17895100Y-8787600D01*
X17995100Y-8737600D02*
G75*
G03*
X17995100Y-8737600I-50000J0D01*
G01*
X17895100Y-8941600D02*
X17995100Y-9041600D01*
X17995100Y-8941600D02*
X17895100Y-9041600D01*
X17995100Y-8991600D02*
G75*
G03*
X17995100Y-8991600I-50000J0D01*
G01*
X18263400Y-8687600D02*
X18363400Y-8787600D01*
X18363400Y-8687600D02*
X18263400Y-8787600D01*
X18363400Y-8737600D02*
G75*
G03*
X18363400Y-8737600I-50000J0D01*
G01*
X18263400Y-8941600D02*
X18363400Y-9041600D01*
X18363400Y-8941600D02*
X18263400Y-9041600D01*
X18363400Y-8991600D02*
G75*
G03*
X18363400Y-8991600I-50000J0D01*
G01*
X19279400Y-7925600D02*
X19379400Y-8025600D01*
X19379400Y-7925600D02*
X19279400Y-8025600D01*
X19379400Y-7975600D02*
G75*
G03*
X19379400Y-7975600I-50000J0D01*
G01*
X19533400Y-7925600D02*
X19633400Y-8025600D01*
X19633400Y-7925600D02*
X19533400Y-8025600D01*
X19633400Y-7975600D02*
G75*
G03*
X19633400Y-7975600I-50000J0D01*
G01*
X19599400Y-11253000D02*
X19699400Y-11353000D01*
X19699400Y-11253000D02*
X19599400Y-11353000D01*
X19699400Y-11303000D02*
G75*
G03*
X19699400Y-11303000I-50000J0D01*
G01*
X19599400Y-11507000D02*
X19699400Y-11607000D01*
X19699400Y-11507000D02*
X19599400Y-11607000D01*
X19699400Y-11557000D02*
G75*
G03*
X19699400Y-11557000I-50000J0D01*
G01*
X19599400Y-11761000D02*
X19699400Y-11861000D01*
X19699400Y-11761000D02*
X19599400Y-11861000D01*
X19699400Y-11811000D02*
G75*
G03*
X19699400Y-11811000I-50000J0D01*
G01*
X19749300Y-8687600D02*
X19849300Y-8787600D01*
X19849300Y-8687600D02*
X19749300Y-8787600D01*
X19849300Y-8737600D02*
G75*
G03*
X19849300Y-8737600I-50000J0D01*
G01*
X19749300Y-8941600D02*
X19849300Y-9041600D01*
X19849300Y-8941600D02*
X19749300Y-9041600D01*
X19849300Y-8991600D02*
G75*
G03*
X19849300Y-8991600I-50000J0D01*
G01*
X19787400Y-7925600D02*
X19887400Y-8025600D01*
X19887400Y-7925600D02*
X19787400Y-8025600D01*
X19887400Y-7975600D02*
G75*
G03*
X19887400Y-7975600I-50000J0D01*
G01*
X20000800Y-11253000D02*
X20100800Y-11353000D01*
X20100800Y-11253000D02*
X20000800Y-11353000D01*
X20100800Y-11303000D02*
G75*
G03*
X20100800Y-11303000I-50000J0D01*
G01*
X20000800Y-11507000D02*
X20100800Y-11607000D01*
X20100800Y-11507000D02*
X20000800Y-11607000D01*
X20100800Y-11557000D02*
G75*
G03*
X20100800Y-11557000I-50000J0D01*
G01*
X20000800Y-11761000D02*
X20100800Y-11861000D01*
X20100800Y-11761000D02*
X20000800Y-11861000D01*
X20100800Y-11811000D02*
G75*
G03*
X20100800Y-11811000I-50000J0D01*
G01*
X20041400Y-7925600D02*
X20141400Y-8025600D01*
X20141400Y-7925600D02*
X20041400Y-8025600D01*
X20141400Y-7975600D02*
G75*
G03*
X20141400Y-7975600I-50000J0D01*
G01*
X20117600Y-8687600D02*
X20217600Y-8787600D01*
X20217600Y-8687600D02*
X20117600Y-8787600D01*
X20217600Y-8737600D02*
G75*
G03*
X20217600Y-8737600I-50000J0D01*
G01*
X20117600Y-8941600D02*
X20217600Y-9041600D01*
X20217600Y-8941600D02*
X20117600Y-9041600D01*
X20217600Y-8991600D02*
G75*
G03*
X20217600Y-8991600I-50000J0D01*
G01*
X20391900Y-10196400D02*
X20491900Y-10296400D01*
X20491900Y-10196400D02*
X20391900Y-10296400D01*
X20491900Y-10246400D02*
G75*
G03*
X20491900Y-10246400I-50000J0D01*
G01*
X20391900Y-10450400D02*
X20491900Y-10550400D01*
X20491900Y-10450400D02*
X20391900Y-10550400D01*
X20491900Y-10500400D02*
G75*
G03*
X20491900Y-10500400I-50000J0D01*
G01*
X20391900Y-10704400D02*
X20491900Y-10804400D01*
X20491900Y-10704400D02*
X20391900Y-10804400D01*
X20491900Y-10754400D02*
G75*
G03*
X20491900Y-10754400I-50000J0D01*
G01*
X20485900Y-8687600D02*
X20585900Y-8787600D01*
X20585900Y-8687600D02*
X20485900Y-8787600D01*
X20585900Y-8737600D02*
G75*
G03*
X20585900Y-8737600I-50000J0D01*
G01*
X20485900Y-8941600D02*
X20585900Y-9041600D01*
X20585900Y-8941600D02*
X20485900Y-9041600D01*
X20585900Y-8991600D02*
G75*
G03*
X20585900Y-8991600I-50000J0D01*
G01*
X21006600Y-11202200D02*
X21106600Y-11302200D01*
X21106600Y-11202200D02*
X21006600Y-11302200D01*
X21106600Y-11252200D02*
G75*
G03*
X21106600Y-11252200I-50000J0D01*
G01*
X21006600Y-11456200D02*
X21106600Y-11556200D01*
X21106600Y-11456200D02*
X21006600Y-11556200D01*
X21106600Y-11506200D02*
G75*
G03*
X21106600Y-11506200I-50000J0D01*
G01*
X21006600Y-11710200D02*
X21106600Y-11810200D01*
X21106600Y-11710200D02*
X21006600Y-11810200D01*
X21106600Y-11760200D02*
G75*
G03*
X21106600Y-11760200I-50000J0D01*
G01*
X21006600Y-11964200D02*
X21106600Y-12064200D01*
X21106600Y-11964200D02*
X21006600Y-12064200D01*
X21106600Y-12014200D02*
G75*
G03*
X21106600Y-12014200I-50000J0D01*
G01*
X21006600Y-12218200D02*
X21106600Y-12318200D01*
X21106600Y-12218200D02*
X21006600Y-12318200D01*
X21106600Y-12268200D02*
G75*
G03*
X21106600Y-12268200I-50000J0D01*
G01*
X21006600Y-12650000D02*
X21106600Y-12750000D01*
X21106600Y-12650000D02*
X21006600Y-12750000D01*
X21106600Y-12700000D02*
G75*
G03*
X21106600Y-12700000I-50000J0D01*
G01*
X21006600Y-12904000D02*
X21106600Y-13004000D01*
X21106600Y-12904000D02*
X21006600Y-13004000D01*
X21106600Y-12954000D02*
G75*
G03*
X21106600Y-12954000I-50000J0D01*
G01*
X21006600Y-13158000D02*
X21106600Y-13258000D01*
X21106600Y-13158000D02*
X21006600Y-13258000D01*
X21106600Y-13208000D02*
G75*
G03*
X21106600Y-13208000I-50000J0D01*
G01*
X21006600Y-13412000D02*
X21106600Y-13512000D01*
X21106600Y-13412000D02*
X21006600Y-13512000D01*
X21106600Y-13462000D02*
G75*
G03*
X21106600Y-13462000I-50000J0D01*
G01*
X21260600Y-11202200D02*
X21360600Y-11302200D01*
X21360600Y-11202200D02*
X21260600Y-11302200D01*
X21360600Y-11252200D02*
G75*
G03*
X21360600Y-11252200I-50000J0D01*
G01*
X21260600Y-11456200D02*
X21360600Y-11556200D01*
X21360600Y-11456200D02*
X21260600Y-11556200D01*
X21360600Y-11506200D02*
G75*
G03*
X21360600Y-11506200I-50000J0D01*
G01*
X21260600Y-11710200D02*
X21360600Y-11810200D01*
X21360600Y-11710200D02*
X21260600Y-11810200D01*
X21360600Y-11760200D02*
G75*
G03*
X21360600Y-11760200I-50000J0D01*
G01*
X21260600Y-11964200D02*
X21360600Y-12064200D01*
X21360600Y-11964200D02*
X21260600Y-12064200D01*
X21360600Y-12014200D02*
G75*
G03*
X21360600Y-12014200I-50000J0D01*
G01*
X21260600Y-12218200D02*
X21360600Y-12318200D01*
X21360600Y-12218200D02*
X21260600Y-12318200D01*
X21360600Y-12268200D02*
G75*
G03*
X21360600Y-12268200I-50000J0D01*
G01*
X21260600Y-12650000D02*
X21360600Y-12750000D01*
X21360600Y-12650000D02*
X21260600Y-12750000D01*
X21360600Y-12700000D02*
G75*
G03*
X21360600Y-12700000I-50000J0D01*
G01*
X21260600Y-12904000D02*
X21360600Y-13004000D01*
X21360600Y-12904000D02*
X21260600Y-13004000D01*
X21360600Y-12954000D02*
G75*
G03*
X21360600Y-12954000I-50000J0D01*
G01*
X21260600Y-13158000D02*
X21360600Y-13258000D01*
X21360600Y-13158000D02*
X21260600Y-13258000D01*
X21360600Y-13208000D02*
G75*
G03*
X21360600Y-13208000I-50000J0D01*
G01*
X21260600Y-13412000D02*
X21360600Y-13512000D01*
X21360600Y-13412000D02*
X21260600Y-13512000D01*
X21360600Y-13462000D02*
G75*
G03*
X21360600Y-13462000I-50000J0D01*
G01*
X12191800Y-8331000D02*
X12293800Y-8433000D01*
X12293800Y-8331000D02*
X12191800Y-8433000D01*
X12242800Y-8331000D02*
X12242800Y-8433000D01*
X12191800Y-8382000D02*
X12293800Y-8382000D01*
X12191800Y-9601000D02*
X12293800Y-9703000D01*
X12293800Y-9601000D02*
X12191800Y-9703000D01*
X12242800Y-9601000D02*
X12242800Y-9703000D01*
X12191800Y-9652000D02*
X12293800Y-9652000D01*
X12445800Y-8331000D02*
X12547800Y-8433000D01*
X12547800Y-8331000D02*
X12445800Y-8433000D01*
X12496800Y-8331000D02*
X12496800Y-8433000D01*
X12445800Y-8382000D02*
X12547800Y-8382000D01*
X12445800Y-9601000D02*
X12547800Y-9703000D01*
X12547800Y-9601000D02*
X12445800Y-9703000D01*
X12496800Y-9601000D02*
X12496800Y-9703000D01*
X12445800Y-9652000D02*
X12547800Y-9652000D01*
X12699800Y-8331000D02*
X12801800Y-8433000D01*
X12801800Y-8331000D02*
X12699800Y-8433000D01*
X12750800Y-8331000D02*
X12750800Y-8433000D01*
X12699800Y-8382000D02*
X12801800Y-8382000D01*
X12699800Y-9601000D02*
X12801800Y-9703000D01*
X12801800Y-9601000D02*
X12699800Y-9703000D01*
X12750800Y-9601000D02*
X12750800Y-9703000D01*
X12699800Y-9652000D02*
X12801800Y-9652000D01*
X12953800Y-8331000D02*
X13055800Y-8433000D01*
X13055800Y-8331000D02*
X12953800Y-8433000D01*
X13004800Y-8331000D02*
X13004800Y-8433000D01*
X12953800Y-8382000D02*
X13055800Y-8382000D01*
X12953800Y-9601000D02*
X13055800Y-9703000D01*
X13055800Y-9601000D02*
X12953800Y-9703000D01*
X13004800Y-9601000D02*
X13004800Y-9703000D01*
X12953800Y-9652000D02*
X13055800Y-9652000D01*
X13207800Y-8331000D02*
X13309800Y-8433000D01*
X13309800Y-8331000D02*
X13207800Y-8433000D01*
X13258800Y-8331000D02*
X13258800Y-8433000D01*
X13207800Y-8382000D02*
X13309800Y-8382000D01*
X13207800Y-9601000D02*
X13309800Y-9703000D01*
X13309800Y-9601000D02*
X13207800Y-9703000D01*
X13258800Y-9601000D02*
X13258800Y-9703000D01*
X13207800Y-9652000D02*
X13309800Y-9652000D01*
X13461800Y-8331000D02*
X13563800Y-8433000D01*
X13563800Y-8331000D02*
X13461800Y-8433000D01*
X13512800Y-8331000D02*
X13512800Y-8433000D01*
X13461800Y-8382000D02*
X13563800Y-8382000D01*
X13461800Y-9601000D02*
X13563800Y-9703000D01*
X13563800Y-9601000D02*
X13461800Y-9703000D01*
X13512800Y-9601000D02*
X13512800Y-9703000D01*
X13461800Y-9652000D02*
X13563800Y-9652000D01*
X13715800Y-8331000D02*
X13817800Y-8433000D01*
X13817800Y-8331000D02*
X13715800Y-8433000D01*
X13766800Y-8331000D02*
X13766800Y-8433000D01*
X13715800Y-8382000D02*
X13817800Y-8382000D01*
X13715800Y-9601000D02*
X13817800Y-9703000D01*
X13817800Y-9601000D02*
X13715800Y-9703000D01*
X13766800Y-9601000D02*
X13766800Y-9703000D01*
X13715800Y-9652000D02*
X13817800Y-9652000D01*
X13969800Y-8331000D02*
X14071800Y-8433000D01*
X14071800Y-8331000D02*
X13969800Y-8433000D01*
X14020800Y-8331000D02*
X14020800Y-8433000D01*
X13969800Y-8382000D02*
X14071800Y-8382000D01*
X13969800Y-9601000D02*
X14071800Y-9703000D01*
X14071800Y-9601000D02*
X13969800Y-9703000D01*
X14020800Y-9601000D02*
X14020800Y-9703000D01*
X13969800Y-9652000D02*
X14071800Y-9652000D01*
X14384700Y-8331000D02*
X14486700Y-8433000D01*
X14486700Y-8331000D02*
X14384700Y-8433000D01*
X14435700Y-8331000D02*
X14435700Y-8433000D01*
X14384700Y-8382000D02*
X14486700Y-8382000D01*
X14384700Y-9601000D02*
X14486700Y-9703000D01*
X14486700Y-9601000D02*
X14384700Y-9703000D01*
X14435700Y-9601000D02*
X14435700Y-9703000D01*
X14384700Y-9652000D02*
X14486700Y-9652000D01*
X14638700Y-8331000D02*
X14740700Y-8433000D01*
X14740700Y-8331000D02*
X14638700Y-8433000D01*
X14689700Y-8331000D02*
X14689700Y-8433000D01*
X14638700Y-8382000D02*
X14740700Y-8382000D01*
X14638700Y-9601000D02*
X14740700Y-9703000D01*
X14740700Y-9601000D02*
X14638700Y-9703000D01*
X14689700Y-9601000D02*
X14689700Y-9703000D01*
X14638700Y-9652000D02*
X14740700Y-9652000D01*
X14892700Y-8331000D02*
X14994700Y-8433000D01*
X14994700Y-8331000D02*
X14892700Y-8433000D01*
X14943700Y-8331000D02*
X14943700Y-8433000D01*
X14892700Y-8382000D02*
X14994700Y-8382000D01*
X14892700Y-9601000D02*
X14994700Y-9703000D01*
X14994700Y-9601000D02*
X14892700Y-9703000D01*
X14943700Y-9601000D02*
X14943700Y-9703000D01*
X14892700Y-9652000D02*
X14994700Y-9652000D01*
X15146700Y-8331000D02*
X15248700Y-8433000D01*
X15248700Y-8331000D02*
X15146700Y-8433000D01*
X15197700Y-8331000D02*
X15197700Y-8433000D01*
X15146700Y-8382000D02*
X15248700Y-8382000D01*
X15146700Y-9601000D02*
X15248700Y-9703000D01*
X15248700Y-9601000D02*
X15146700Y-9703000D01*
X15197700Y-9601000D02*
X15197700Y-9703000D01*
X15146700Y-9652000D02*
X15248700Y-9652000D01*
X15400700Y-8331000D02*
X15502700Y-8433000D01*
X15502700Y-8331000D02*
X15400700Y-8433000D01*
X15451700Y-8331000D02*
X15451700Y-8433000D01*
X15400700Y-8382000D02*
X15502700Y-8382000D01*
X15400700Y-9601000D02*
X15502700Y-9703000D01*
X15502700Y-9601000D02*
X15400700Y-9703000D01*
X15451700Y-9601000D02*
X15451700Y-9703000D01*
X15400700Y-9652000D02*
X15502700Y-9652000D01*
X15654700Y-8331000D02*
X15756700Y-8433000D01*
X15756700Y-8331000D02*
X15654700Y-8433000D01*
X15705700Y-8331000D02*
X15705700Y-8433000D01*
X15654700Y-8382000D02*
X15756700Y-8382000D01*
X15654700Y-9601000D02*
X15756700Y-9703000D01*
X15756700Y-9601000D02*
X15654700Y-9703000D01*
X15705700Y-9601000D02*
X15705700Y-9703000D01*
X15654700Y-9652000D02*
X15756700Y-9652000D01*
X15908700Y-8331000D02*
X16010700Y-8433000D01*
X16010700Y-8331000D02*
X15908700Y-8433000D01*
X15959700Y-8331000D02*
X15959700Y-8433000D01*
X15908700Y-8382000D02*
X16010700Y-8382000D01*
X15908700Y-9601000D02*
X16010700Y-9703000D01*
X16010700Y-9601000D02*
X15908700Y-9703000D01*
X15959700Y-9601000D02*
X15959700Y-9703000D01*
X15908700Y-9652000D02*
X16010700Y-9652000D01*
X16162700Y-8331000D02*
X16264700Y-8433000D01*
X16264700Y-8331000D02*
X16162700Y-8433000D01*
X16213700Y-8331000D02*
X16213700Y-8433000D01*
X16162700Y-8382000D02*
X16264700Y-8382000D01*
X16162700Y-9601000D02*
X16264700Y-9703000D01*
X16264700Y-9601000D02*
X16162700Y-9703000D01*
X16213700Y-9601000D02*
X16213700Y-9703000D01*
X16162700Y-9652000D02*
X16264700Y-9652000D01*
X16577500Y-8331000D02*
X16679500Y-8433000D01*
X16679500Y-8331000D02*
X16577500Y-8433000D01*
X16628500Y-8331000D02*
X16628500Y-8433000D01*
X16577500Y-8382000D02*
X16679500Y-8382000D01*
X16577500Y-9601000D02*
X16679500Y-9703000D01*
X16679500Y-9601000D02*
X16577500Y-9703000D01*
X16628500Y-9601000D02*
X16628500Y-9703000D01*
X16577500Y-9652000D02*
X16679500Y-9652000D01*
X16831500Y-8331000D02*
X16933500Y-8433000D01*
X16933500Y-8331000D02*
X16831500Y-8433000D01*
X16882500Y-8331000D02*
X16882500Y-8433000D01*
X16831500Y-8382000D02*
X16933500Y-8382000D01*
X16831500Y-9601000D02*
X16933500Y-9703000D01*
X16933500Y-9601000D02*
X16831500Y-9703000D01*
X16882500Y-9601000D02*
X16882500Y-9703000D01*
X16831500Y-9652000D02*
X16933500Y-9652000D01*
X17085500Y-8331000D02*
X17187500Y-8433000D01*
X17187500Y-8331000D02*
X17085500Y-8433000D01*
X17136500Y-8331000D02*
X17136500Y-8433000D01*
X17085500Y-8382000D02*
X17187500Y-8382000D01*
X17085500Y-9601000D02*
X17187500Y-9703000D01*
X17187500Y-9601000D02*
X17085500Y-9703000D01*
X17136500Y-9601000D02*
X17136500Y-9703000D01*
X17085500Y-9652000D02*
X17187500Y-9652000D01*
X17339500Y-8331000D02*
X17441500Y-8433000D01*
X17441500Y-8331000D02*
X17339500Y-8433000D01*
X17390500Y-8331000D02*
X17390500Y-8433000D01*
X17339500Y-8382000D02*
X17441500Y-8382000D01*
X17339500Y-9601000D02*
X17441500Y-9703000D01*
X17441500Y-9601000D02*
X17339500Y-9703000D01*
X17390500Y-9601000D02*
X17390500Y-9703000D01*
X17339500Y-9652000D02*
X17441500Y-9652000D01*
X17593500Y-8331000D02*
X17695500Y-8433000D01*
X17695500Y-8331000D02*
X17593500Y-8433000D01*
X17644500Y-8331000D02*
X17644500Y-8433000D01*
X17593500Y-8382000D02*
X17695500Y-8382000D01*
X17593500Y-9601000D02*
X17695500Y-9703000D01*
X17695500Y-9601000D02*
X17593500Y-9703000D01*
X17644500Y-9601000D02*
X17644500Y-9703000D01*
X17593500Y-9652000D02*
X17695500Y-9652000D01*
X17847500Y-8331000D02*
X17949500Y-8433000D01*
X17949500Y-8331000D02*
X17847500Y-8433000D01*
X17898500Y-8331000D02*
X17898500Y-8433000D01*
X17847500Y-8382000D02*
X17949500Y-8382000D01*
X17847500Y-9601000D02*
X17949500Y-9703000D01*
X17949500Y-9601000D02*
X17847500Y-9703000D01*
X17898500Y-9601000D02*
X17898500Y-9703000D01*
X17847500Y-9652000D02*
X17949500Y-9652000D01*
X18101500Y-8331000D02*
X18203500Y-8433000D01*
X18203500Y-8331000D02*
X18101500Y-8433000D01*
X18152500Y-8331000D02*
X18152500Y-8433000D01*
X18101500Y-8382000D02*
X18203500Y-8382000D01*
X18101500Y-9601000D02*
X18203500Y-9703000D01*
X18203500Y-9601000D02*
X18101500Y-9703000D01*
X18152500Y-9601000D02*
X18152500Y-9703000D01*
X18101500Y-9652000D02*
X18203500Y-9652000D01*
X18355500Y-8331000D02*
X18457500Y-8433000D01*
X18457500Y-8331000D02*
X18355500Y-8433000D01*
X18406500Y-8331000D02*
X18406500Y-8433000D01*
X18355500Y-8382000D02*
X18457500Y-8382000D01*
X18355500Y-9601000D02*
X18457500Y-9703000D01*
X18457500Y-9601000D02*
X18355500Y-9703000D01*
X18406500Y-9601000D02*
X18406500Y-9703000D01*
X18355500Y-9652000D02*
X18457500Y-9652000D01*
X18770400Y-8331000D02*
X18872400Y-8433000D01*
X18872400Y-8331000D02*
X18770400Y-8433000D01*
X18821400Y-8331000D02*
X18821400Y-8433000D01*
X18770400Y-8382000D02*
X18872400Y-8382000D01*
X18770400Y-9601000D02*
X18872400Y-9703000D01*
X18872400Y-9601000D02*
X18770400Y-9703000D01*
X18821400Y-9601000D02*
X18821400Y-9703000D01*
X18770400Y-9652000D02*
X18872400Y-9652000D01*
X19024400Y-8331000D02*
X19126400Y-8433000D01*
X19126400Y-8331000D02*
X19024400Y-8433000D01*
X19075400Y-8331000D02*
X19075400Y-8433000D01*
X19024400Y-8382000D02*
X19126400Y-8382000D01*
X19024400Y-9601000D02*
X19126400Y-9703000D01*
X19126400Y-9601000D02*
X19024400Y-9703000D01*
X19075400Y-9601000D02*
X19075400Y-9703000D01*
X19024400Y-9652000D02*
X19126400Y-9652000D01*
X19278400Y-8331000D02*
X19380400Y-8433000D01*
X19380400Y-8331000D02*
X19278400Y-8433000D01*
X19329400Y-8331000D02*
X19329400Y-8433000D01*
X19278400Y-8382000D02*
X19380400Y-8382000D01*
X19278400Y-9601000D02*
X19380400Y-9703000D01*
X19380400Y-9601000D02*
X19278400Y-9703000D01*
X19329400Y-9601000D02*
X19329400Y-9703000D01*
X19278400Y-9652000D02*
X19380400Y-9652000D01*
X19532400Y-8331000D02*
X19634400Y-8433000D01*
X19634400Y-8331000D02*
X19532400Y-8433000D01*
X19583400Y-8331000D02*
X19583400Y-8433000D01*
X19532400Y-8382000D02*
X19634400Y-8382000D01*
X19532400Y-9601000D02*
X19634400Y-9703000D01*
X19634400Y-9601000D02*
X19532400Y-9703000D01*
X19583400Y-9601000D02*
X19583400Y-9703000D01*
X19532400Y-9652000D02*
X19634400Y-9652000D01*
X19786400Y-8331000D02*
X19888400Y-8433000D01*
X19888400Y-8331000D02*
X19786400Y-8433000D01*
X19837400Y-8331000D02*
X19837400Y-8433000D01*
X19786400Y-8382000D02*
X19888400Y-8382000D01*
X19786400Y-9601000D02*
X19888400Y-9703000D01*
X19888400Y-9601000D02*
X19786400Y-9703000D01*
X19837400Y-9601000D02*
X19837400Y-9703000D01*
X19786400Y-9652000D02*
X19888400Y-9652000D01*
X20040400Y-8331000D02*
X20142400Y-8433000D01*
X20142400Y-8331000D02*
X20040400Y-8433000D01*
X20091400Y-8331000D02*
X20091400Y-8433000D01*
X20040400Y-8382000D02*
X20142400Y-8382000D01*
X20040400Y-9601000D02*
X20142400Y-9703000D01*
X20142400Y-9601000D02*
X20040400Y-9703000D01*
X20091400Y-9601000D02*
X20091400Y-9703000D01*
X20040400Y-9652000D02*
X20142400Y-9652000D01*
X20294400Y-8331000D02*
X20396400Y-8433000D01*
X20396400Y-8331000D02*
X20294400Y-8433000D01*
X20345400Y-8331000D02*
X20345400Y-8433000D01*
X20294400Y-8382000D02*
X20396400Y-8382000D01*
X20294400Y-9601000D02*
X20396400Y-9703000D01*
X20396400Y-9601000D02*
X20294400Y-9703000D01*
X20345400Y-9601000D02*
X20345400Y-9703000D01*
X20294400Y-9652000D02*
X20396400Y-9652000D01*
X20548400Y-8331000D02*
X20650400Y-8433000D01*
X20650400Y-8331000D02*
X20548400Y-8433000D01*
X20599400Y-8331000D02*
X20599400Y-8433000D01*
X20548400Y-8382000D02*
X20650400Y-8382000D01*
X20548400Y-9601000D02*
X20650400Y-9703000D01*
X20650400Y-9601000D02*
X20548400Y-9703000D01*
X20599400Y-9601000D02*
X20599400Y-9703000D01*
X20548400Y-9652000D02*
X20650400Y-9652000D01*
X11598600Y-8601400D02*
X11718600Y-8721400D01*
X11718600Y-8601400D02*
X11598600Y-8721400D01*
X11701027Y-8703827D02*
X11701027Y-8618973D01*
X11616173Y-8618973D01*
X11616173Y-8703827D01*
X11701027Y-8703827D01*
X11598600Y-10633400D02*
X11718600Y-10753400D01*
X11718600Y-10633400D02*
X11598600Y-10753400D01*
X11701027Y-10735827D02*
X11701027Y-10650973D01*
X11616173Y-10650973D01*
X11616173Y-10735827D01*
X11701027Y-10735827D01*
X11646100Y-11125400D02*
X11798100Y-11277400D01*
X11798100Y-11125400D02*
X11646100Y-11277400D01*
X11722100Y-11277400D02*
X11798100Y-11201400D01*
X11722100Y-11125400D01*
X11646100Y-11201400D01*
X11722100Y-11277400D01*
X11646100Y-11633400D02*
X11798100Y-11785400D01*
X11798100Y-11633400D02*
X11646100Y-11785400D01*
X11722100Y-11785400D02*
X11798100Y-11709400D01*
X11722100Y-11633400D01*
X11646100Y-11709400D01*
X11722100Y-11785400D01*
X21056800Y-10134800D02*
X21208800Y-10286800D01*
X21208800Y-10134800D02*
X21056800Y-10286800D01*
X21132800Y-10286800D02*
X21208800Y-10210800D01*
X21132800Y-10134800D01*
X21056800Y-10210800D01*
X21132800Y-10286800D01*
X21056800Y-10642800D02*
X21208800Y-10794800D01*
X21208800Y-10642800D02*
X21056800Y-10794800D01*
X21132800Y-10794800D02*
X21208800Y-10718800D01*
X21132800Y-10642800D01*
X21056800Y-10718800D01*
X21132800Y-10794800D01*
X11684000Y-7968000D02*
X11684000Y-8288000D01*
X11524000Y-8128000D02*
X11844000Y-8128000D01*
X11844000Y-8128000D02*
G75*
G03*
X11844000Y-8128000I-160000J0D01*
G01*
X11684000Y-14114800D02*
X11684000Y-14434800D01*
X11524000Y-14274800D02*
X11844000Y-14274800D01*
X11844000Y-14274800D02*
G75*
G03*
X11844000Y-14274800I-160000J0D01*
G01*
X21132800Y-7968000D02*
X21132800Y-8288000D01*
X20972800Y-8128000D02*
X21292800Y-8128000D01*
X21292800Y-8128000D02*
G75*
G03*
X21292800Y-8128000I-160000J0D01*
G01*
X21209000Y-14064000D02*
X21209000Y-14384000D01*
X21049000Y-14224000D02*
X21369000Y-14224000D01*
X21369000Y-14224000D02*
G75*
G03*
X21369000Y-14224000I-160000J0D01*
G01*
D12*
X11458692Y-15200214D02*
X11458692Y-14900214D01*
X11530121Y-14900214D01*
X11572978Y-14914500D01*
X11601549Y-14943071D01*
X11615835Y-14971643D01*
X11630121Y-15028786D01*
X11630121Y-15071643D01*
X11615835Y-15128786D01*
X11601549Y-15157357D01*
X11572978Y-15185929D01*
X11530121Y-15200214D01*
X11458692Y-15200214D01*
X11758692Y-15200214D02*
X11758692Y-15000214D01*
X11758692Y-15057357D02*
X11772978Y-15028786D01*
X11787264Y-15014500D01*
X11815835Y-15000214D01*
X11844407Y-15000214D01*
X11944407Y-15200214D02*
X11944407Y-15000214D01*
X11944407Y-14900214D02*
X11930121Y-14914500D01*
X11944407Y-14928786D01*
X11958692Y-14914500D01*
X11944407Y-14900214D01*
X11944407Y-14928786D01*
X12130121Y-15200214D02*
X12101549Y-15185929D01*
X12087264Y-15157357D01*
X12087264Y-14900214D01*
X12287264Y-15200214D02*
X12258692Y-15185929D01*
X12244407Y-15157357D01*
X12244407Y-14900214D01*
X12630121Y-15200214D02*
X12630121Y-14900214D01*
X12730121Y-15114500D01*
X12830121Y-14900214D01*
X12830121Y-15200214D01*
X13101549Y-15200214D02*
X13101549Y-15043071D01*
X13087264Y-15014500D01*
X13058692Y-15000214D01*
X13001549Y-15000214D01*
X12972978Y-15014500D01*
X13101549Y-15185929D02*
X13072978Y-15200214D01*
X13001549Y-15200214D01*
X12972978Y-15185929D01*
X12958692Y-15157357D01*
X12958692Y-15128786D01*
X12972978Y-15100214D01*
X13001549Y-15085929D01*
X13072978Y-15085929D01*
X13101549Y-15071643D01*
X13244407Y-15000214D02*
X13244407Y-15300214D01*
X13244407Y-15014500D02*
X13272978Y-15000214D01*
X13330121Y-15000214D01*
X13358692Y-15014500D01*
X13372978Y-15028786D01*
X13387264Y-15057357D01*
X13387264Y-15143071D01*
X13372978Y-15171643D01*
X13358692Y-15185929D01*
X13330121Y-15200214D01*
X13272978Y-15200214D01*
X13244407Y-15185929D01*
X13515835Y-15171643D02*
X13530121Y-15185929D01*
X13515835Y-15200214D01*
X13501549Y-15185929D01*
X13515835Y-15171643D01*
X13515835Y-15200214D01*
X13515835Y-15014500D02*
X13530121Y-15028786D01*
X13515835Y-15043071D01*
X13501549Y-15028786D01*
X13515835Y-15014500D01*
X13515835Y-15043071D01*
X11152264Y-15684500D02*
X11172264Y-15704500D01*
X11172264Y-15684500D02*
X11152264Y-15704500D01*
X11515835Y-15530214D02*
X11544407Y-15530214D01*
X11572978Y-15544500D01*
X11587264Y-15558786D01*
X11601549Y-15587357D01*
X11615835Y-15644500D01*
X11615835Y-15715929D01*
X11601549Y-15773071D01*
X11587264Y-15801643D01*
X11572978Y-15815929D01*
X11544407Y-15830214D01*
X11515835Y-15830214D01*
X11487264Y-15815929D01*
X11472978Y-15801643D01*
X11458692Y-15773071D01*
X11444407Y-15715929D01*
X11444407Y-15644500D01*
X11458692Y-15587357D01*
X11472978Y-15558786D01*
X11487264Y-15544500D01*
X11515835Y-15530214D01*
X11744407Y-15801643D02*
X11758692Y-15815929D01*
X11744407Y-15830214D01*
X11730121Y-15815929D01*
X11744407Y-15801643D01*
X11744407Y-15830214D01*
X11872978Y-15558786D02*
X11887264Y-15544500D01*
X11915835Y-15530214D01*
X11987264Y-15530214D01*
X12015835Y-15544500D01*
X12030121Y-15558786D01*
X12044407Y-15587357D01*
X12044407Y-15615929D01*
X12030121Y-15658786D01*
X11858692Y-15830214D01*
X12044407Y-15830214D01*
X12230121Y-15530214D02*
X12258692Y-15530214D01*
X12287264Y-15544500D01*
X12301549Y-15558786D01*
X12315835Y-15587357D01*
X12330121Y-15644500D01*
X12330121Y-15715929D01*
X12315835Y-15773071D01*
X12301549Y-15801643D01*
X12287264Y-15815929D01*
X12258692Y-15830214D01*
X12230121Y-15830214D01*
X12201549Y-15815929D01*
X12187264Y-15801643D01*
X12172978Y-15773071D01*
X12158692Y-15715929D01*
X12158692Y-15644500D01*
X12172978Y-15587357D01*
X12187264Y-15558786D01*
X12201549Y-15544500D01*
X12230121Y-15530214D01*
X12458692Y-15830214D02*
X12458692Y-15630214D01*
X12458692Y-15658786D02*
X12472978Y-15644500D01*
X12501549Y-15630214D01*
X12544407Y-15630214D01*
X12572978Y-15644500D01*
X12587264Y-15673071D01*
X12587264Y-15830214D01*
X12587264Y-15673071D02*
X12601549Y-15644500D01*
X12630121Y-15630214D01*
X12672978Y-15630214D01*
X12701549Y-15644500D01*
X12715835Y-15673071D01*
X12715835Y-15830214D01*
X12858692Y-15830214D02*
X12858692Y-15630214D01*
X12858692Y-15658786D02*
X12872978Y-15644500D01*
X12901549Y-15630214D01*
X12944407Y-15630214D01*
X12972978Y-15644500D01*
X12987264Y-15673071D01*
X12987264Y-15830214D01*
X12987264Y-15673071D02*
X13001549Y-15644500D01*
X13030121Y-15630214D01*
X13072978Y-15630214D01*
X13101549Y-15644500D01*
X13115835Y-15673071D01*
X13115835Y-15830214D01*
X13701549Y-15515929D02*
X13444407Y-15901643D01*
X14087264Y-15530214D02*
X14115835Y-15530214D01*
X14144407Y-15544500D01*
X14158692Y-15558786D01*
X14172978Y-15587357D01*
X14187264Y-15644500D01*
X14187264Y-15715929D01*
X14172978Y-15773071D01*
X14158692Y-15801643D01*
X14144407Y-15815929D01*
X14115835Y-15830214D01*
X14087264Y-15830214D01*
X14058692Y-15815929D01*
X14044407Y-15801643D01*
X14030121Y-15773071D01*
X14015835Y-15715929D01*
X14015835Y-15644500D01*
X14030121Y-15587357D01*
X14044407Y-15558786D01*
X14058692Y-15544500D01*
X14087264Y-15530214D01*
X14315835Y-15801643D02*
X14330121Y-15815929D01*
X14315835Y-15830214D01*
X14301549Y-15815929D01*
X14315835Y-15801643D01*
X14315835Y-15830214D01*
X14515835Y-15530214D02*
X14544407Y-15530214D01*
X14572978Y-15544500D01*
X14587264Y-15558786D01*
X14601549Y-15587357D01*
X14615835Y-15644500D01*
X14615835Y-15715929D01*
X14601549Y-15773071D01*
X14587264Y-15801643D01*
X14572978Y-15815929D01*
X14544407Y-15830214D01*
X14515835Y-15830214D01*
X14487264Y-15815929D01*
X14472978Y-15801643D01*
X14458692Y-15773071D01*
X14444407Y-15715929D01*
X14444407Y-15644500D01*
X14458692Y-15587357D01*
X14472978Y-15558786D01*
X14487264Y-15544500D01*
X14515835Y-15530214D01*
X14801549Y-15530214D02*
X14830121Y-15530214D01*
X14858692Y-15544500D01*
X14872978Y-15558786D01*
X14887264Y-15587357D01*
X14901549Y-15644500D01*
X14901549Y-15715929D01*
X14887264Y-15773071D01*
X14872978Y-15801643D01*
X14858692Y-15815929D01*
X14830121Y-15830214D01*
X14801549Y-15830214D01*
X14772978Y-15815929D01*
X14758692Y-15801643D01*
X14744407Y-15773071D01*
X14730121Y-15715929D01*
X14730121Y-15644500D01*
X14744407Y-15587357D01*
X14758692Y-15558786D01*
X14772978Y-15544500D01*
X14801549Y-15530214D01*
X15072978Y-15658786D02*
X15044407Y-15644500D01*
X15030121Y-15630214D01*
X15015835Y-15601643D01*
X15015835Y-15587357D01*
X15030121Y-15558786D01*
X15044407Y-15544500D01*
X15072978Y-15530214D01*
X15130121Y-15530214D01*
X15158692Y-15544500D01*
X15172978Y-15558786D01*
X15187264Y-15587357D01*
X15187264Y-15601643D01*
X15172978Y-15630214D01*
X15158692Y-15644500D01*
X15130121Y-15658786D01*
X15072978Y-15658786D01*
X15044407Y-15673071D01*
X15030121Y-15687357D01*
X15015835Y-15715929D01*
X15015835Y-15773071D01*
X15030121Y-15801643D01*
X15044407Y-15815929D01*
X15072978Y-15830214D01*
X15130121Y-15830214D01*
X15158692Y-15815929D01*
X15172978Y-15801643D01*
X15187264Y-15773071D01*
X15187264Y-15715929D01*
X15172978Y-15687357D01*
X15158692Y-15673071D01*
X15130121Y-15658786D01*
X15301549Y-15530214D02*
X15301549Y-15587357D01*
X15415835Y-15530214D02*
X15415835Y-15587357D01*
X15858692Y-15944500D02*
X15844407Y-15930214D01*
X15815835Y-15887357D01*
X15801549Y-15858786D01*
X15787264Y-15815929D01*
X15772978Y-15744500D01*
X15772978Y-15687357D01*
X15787264Y-15615929D01*
X15801549Y-15573071D01*
X15815835Y-15544500D01*
X15844407Y-15501643D01*
X15858692Y-15487357D01*
X16130121Y-15830214D02*
X15958692Y-15830214D01*
X16044407Y-15830214D02*
X16044407Y-15530214D01*
X16015835Y-15573071D01*
X15987264Y-15601643D01*
X15958692Y-15615929D01*
X16244407Y-15558786D02*
X16258692Y-15544500D01*
X16287264Y-15530214D01*
X16358692Y-15530214D01*
X16387264Y-15544500D01*
X16401549Y-15558786D01*
X16415835Y-15587357D01*
X16415835Y-15615929D01*
X16401549Y-15658786D01*
X16230121Y-15830214D01*
X16415835Y-15830214D01*
X16772978Y-15830214D02*
X16772978Y-15530214D01*
X16901550Y-15830214D02*
X16901550Y-15673071D01*
X16887264Y-15644500D01*
X16858692Y-15630214D01*
X16815835Y-15630214D01*
X16787264Y-15644500D01*
X16772978Y-15658786D01*
X17087264Y-15830214D02*
X17058692Y-15815929D01*
X17044407Y-15801643D01*
X17030121Y-15773071D01*
X17030121Y-15687357D01*
X17044407Y-15658786D01*
X17058692Y-15644500D01*
X17087264Y-15630214D01*
X17130121Y-15630214D01*
X17158692Y-15644500D01*
X17172978Y-15658786D01*
X17187264Y-15687357D01*
X17187264Y-15773071D01*
X17172978Y-15801643D01*
X17158692Y-15815929D01*
X17130121Y-15830214D01*
X17087264Y-15830214D01*
X17358692Y-15830214D02*
X17330121Y-15815929D01*
X17315835Y-15787357D01*
X17315835Y-15530214D01*
X17587264Y-15815929D02*
X17558692Y-15830214D01*
X17501550Y-15830214D01*
X17472978Y-15815929D01*
X17458692Y-15787357D01*
X17458692Y-15673071D01*
X17472978Y-15644500D01*
X17501550Y-15630214D01*
X17558692Y-15630214D01*
X17587264Y-15644500D01*
X17601550Y-15673071D01*
X17601550Y-15701643D01*
X17458692Y-15730214D01*
X17715835Y-15815929D02*
X17744407Y-15830214D01*
X17801550Y-15830214D01*
X17830121Y-15815929D01*
X17844407Y-15787357D01*
X17844407Y-15773071D01*
X17830121Y-15744500D01*
X17801550Y-15730214D01*
X17758692Y-15730214D01*
X17730121Y-15715929D01*
X17715835Y-15687357D01*
X17715835Y-15673071D01*
X17730121Y-15644500D01*
X17758692Y-15630214D01*
X17801550Y-15630214D01*
X17830121Y-15644500D01*
X17944407Y-15944500D02*
X17958692Y-15930214D01*
X17987264Y-15887357D01*
X18001550Y-15858786D01*
X18015835Y-15815929D01*
X18030121Y-15744500D01*
X18030121Y-15687357D01*
X18015835Y-15615929D01*
X18001550Y-15573071D01*
X17987264Y-15544500D01*
X17958692Y-15501643D01*
X17944407Y-15487357D01*
X11172264Y-16090500D02*
G75*
G03*
X11172264Y-16090500I-15000J0D01*
G01*
X11515835Y-15926214D02*
X11544407Y-15926214D01*
X11572978Y-15940500D01*
X11587264Y-15954786D01*
X11601549Y-15983357D01*
X11615835Y-16040500D01*
X11615835Y-16111929D01*
X11601549Y-16169071D01*
X11587264Y-16197643D01*
X11572978Y-16211929D01*
X11544407Y-16226214D01*
X11515835Y-16226214D01*
X11487264Y-16211929D01*
X11472978Y-16197643D01*
X11458692Y-16169071D01*
X11444407Y-16111929D01*
X11444407Y-16040500D01*
X11458692Y-15983357D01*
X11472978Y-15954786D01*
X11487264Y-15940500D01*
X11515835Y-15926214D01*
X11744407Y-16197643D02*
X11758692Y-16211929D01*
X11744407Y-16226214D01*
X11730121Y-16211929D01*
X11744407Y-16197643D01*
X11744407Y-16226214D01*
X11858692Y-15926214D02*
X12044407Y-15926214D01*
X11944407Y-16040500D01*
X11987264Y-16040500D01*
X12015835Y-16054786D01*
X12030121Y-16069071D01*
X12044407Y-16097643D01*
X12044407Y-16169071D01*
X12030121Y-16197643D01*
X12015835Y-16211929D01*
X11987264Y-16226214D01*
X11901549Y-16226214D01*
X11872978Y-16211929D01*
X11858692Y-16197643D01*
X12230121Y-15926214D02*
X12258692Y-15926214D01*
X12287264Y-15940500D01*
X12301549Y-15954786D01*
X12315835Y-15983357D01*
X12330121Y-16040500D01*
X12330121Y-16111929D01*
X12315835Y-16169071D01*
X12301549Y-16197643D01*
X12287264Y-16211929D01*
X12258692Y-16226214D01*
X12230121Y-16226214D01*
X12201549Y-16211929D01*
X12187264Y-16197643D01*
X12172978Y-16169071D01*
X12158692Y-16111929D01*
X12158692Y-16040500D01*
X12172978Y-15983357D01*
X12187264Y-15954786D01*
X12201549Y-15940500D01*
X12230121Y-15926214D01*
X12458692Y-16226214D02*
X12458692Y-16026214D01*
X12458692Y-16054786D02*
X12472978Y-16040500D01*
X12501549Y-16026214D01*
X12544407Y-16026214D01*
X12572978Y-16040500D01*
X12587264Y-16069071D01*
X12587264Y-16226214D01*
X12587264Y-16069071D02*
X12601549Y-16040500D01*
X12630121Y-16026214D01*
X12672978Y-16026214D01*
X12701549Y-16040500D01*
X12715835Y-16069071D01*
X12715835Y-16226214D01*
X12858692Y-16226214D02*
X12858692Y-16026214D01*
X12858692Y-16054786D02*
X12872978Y-16040500D01*
X12901549Y-16026214D01*
X12944407Y-16026214D01*
X12972978Y-16040500D01*
X12987264Y-16069071D01*
X12987264Y-16226214D01*
X12987264Y-16069071D02*
X13001549Y-16040500D01*
X13030121Y-16026214D01*
X13072978Y-16026214D01*
X13101549Y-16040500D01*
X13115835Y-16069071D01*
X13115835Y-16226214D01*
X13701549Y-15911929D02*
X13444407Y-16297643D01*
X14087264Y-15926214D02*
X14115835Y-15926214D01*
X14144407Y-15940500D01*
X14158692Y-15954786D01*
X14172978Y-15983357D01*
X14187264Y-16040500D01*
X14187264Y-16111929D01*
X14172978Y-16169071D01*
X14158692Y-16197643D01*
X14144407Y-16211929D01*
X14115835Y-16226214D01*
X14087264Y-16226214D01*
X14058692Y-16211929D01*
X14044407Y-16197643D01*
X14030121Y-16169071D01*
X14015835Y-16111929D01*
X14015835Y-16040500D01*
X14030121Y-15983357D01*
X14044407Y-15954786D01*
X14058692Y-15940500D01*
X14087264Y-15926214D01*
X14315835Y-16197643D02*
X14330121Y-16211929D01*
X14315835Y-16226214D01*
X14301549Y-16211929D01*
X14315835Y-16197643D01*
X14315835Y-16226214D01*
X14515835Y-15926214D02*
X14544407Y-15926214D01*
X14572978Y-15940500D01*
X14587264Y-15954786D01*
X14601549Y-15983357D01*
X14615835Y-16040500D01*
X14615835Y-16111929D01*
X14601549Y-16169071D01*
X14587264Y-16197643D01*
X14572978Y-16211929D01*
X14544407Y-16226214D01*
X14515835Y-16226214D01*
X14487264Y-16211929D01*
X14472978Y-16197643D01*
X14458692Y-16169071D01*
X14444407Y-16111929D01*
X14444407Y-16040500D01*
X14458692Y-15983357D01*
X14472978Y-15954786D01*
X14487264Y-15940500D01*
X14515835Y-15926214D01*
X14901549Y-16226214D02*
X14730121Y-16226214D01*
X14815835Y-16226214D02*
X14815835Y-15926214D01*
X14787264Y-15969071D01*
X14758692Y-15997643D01*
X14730121Y-16011929D01*
X15015835Y-15954786D02*
X15030121Y-15940500D01*
X15058692Y-15926214D01*
X15130121Y-15926214D01*
X15158692Y-15940500D01*
X15172978Y-15954786D01*
X15187264Y-15983357D01*
X15187264Y-16011929D01*
X15172978Y-16054786D01*
X15001549Y-16226214D01*
X15187264Y-16226214D01*
X15301549Y-15926214D02*
X15301549Y-15983357D01*
X15415835Y-15926214D02*
X15415835Y-15983357D01*
X15858692Y-16340500D02*
X15844407Y-16326214D01*
X15815835Y-16283357D01*
X15801549Y-16254786D01*
X15787264Y-16211929D01*
X15772978Y-16140500D01*
X15772978Y-16083357D01*
X15787264Y-16011929D01*
X15801549Y-15969071D01*
X15815835Y-15940500D01*
X15844407Y-15897643D01*
X15858692Y-15883357D01*
X16015835Y-16054786D02*
X15987264Y-16040500D01*
X15972978Y-16026214D01*
X15958692Y-15997643D01*
X15958692Y-15983357D01*
X15972978Y-15954786D01*
X15987264Y-15940500D01*
X16015835Y-15926214D01*
X16072978Y-15926214D01*
X16101549Y-15940500D01*
X16115835Y-15954786D01*
X16130121Y-15983357D01*
X16130121Y-15997643D01*
X16115835Y-16026214D01*
X16101549Y-16040500D01*
X16072978Y-16054786D01*
X16015835Y-16054786D01*
X15987264Y-16069071D01*
X15972978Y-16083357D01*
X15958692Y-16111929D01*
X15958692Y-16169071D01*
X15972978Y-16197643D01*
X15987264Y-16211929D01*
X16015835Y-16226214D01*
X16072978Y-16226214D01*
X16101549Y-16211929D01*
X16115835Y-16197643D01*
X16130121Y-16169071D01*
X16130121Y-16111929D01*
X16115835Y-16083357D01*
X16101549Y-16069071D01*
X16072978Y-16054786D01*
X16487264Y-16226214D02*
X16487264Y-15926214D01*
X16615835Y-16226214D02*
X16615835Y-16069071D01*
X16601549Y-16040500D01*
X16572978Y-16026214D01*
X16530121Y-16026214D01*
X16501549Y-16040500D01*
X16487264Y-16054786D01*
X16801550Y-16226214D02*
X16772978Y-16211929D01*
X16758692Y-16197643D01*
X16744407Y-16169071D01*
X16744407Y-16083357D01*
X16758692Y-16054786D01*
X16772978Y-16040500D01*
X16801550Y-16026214D01*
X16844407Y-16026214D01*
X16872978Y-16040500D01*
X16887264Y-16054786D01*
X16901550Y-16083357D01*
X16901550Y-16169071D01*
X16887264Y-16197643D01*
X16872978Y-16211929D01*
X16844407Y-16226214D01*
X16801550Y-16226214D01*
X17072978Y-16226214D02*
X17044407Y-16211929D01*
X17030121Y-16183357D01*
X17030121Y-15926214D01*
X17301550Y-16211929D02*
X17272978Y-16226214D01*
X17215835Y-16226214D01*
X17187264Y-16211929D01*
X17172978Y-16183357D01*
X17172978Y-16069071D01*
X17187264Y-16040500D01*
X17215835Y-16026214D01*
X17272978Y-16026214D01*
X17301550Y-16040500D01*
X17315835Y-16069071D01*
X17315835Y-16097643D01*
X17172978Y-16126214D01*
X17430121Y-16211929D02*
X17458692Y-16226214D01*
X17515835Y-16226214D01*
X17544407Y-16211929D01*
X17558692Y-16183357D01*
X17558692Y-16169071D01*
X17544407Y-16140500D01*
X17515835Y-16126214D01*
X17472978Y-16126214D01*
X17444407Y-16111929D01*
X17430121Y-16083357D01*
X17430121Y-16069071D01*
X17444407Y-16040500D01*
X17472978Y-16026214D01*
X17515835Y-16026214D01*
X17544407Y-16040500D01*
X17658692Y-16340500D02*
X17672978Y-16326214D01*
X17701550Y-16283357D01*
X17715835Y-16254786D01*
X17730121Y-16211929D01*
X17744407Y-16140500D01*
X17744407Y-16083357D01*
X17730121Y-16011929D01*
X17715835Y-15969071D01*
X17701550Y-15940500D01*
X17672978Y-15897643D01*
X17658692Y-15883357D01*
X11152264Y-16466500D02*
X11152264Y-16506500D01*
X11132264Y-16486500D02*
X11172264Y-16486500D01*
X11515835Y-16322214D02*
X11544407Y-16322214D01*
X11572978Y-16336500D01*
X11587264Y-16350786D01*
X11601549Y-16379357D01*
X11615835Y-16436500D01*
X11615835Y-16507929D01*
X11601549Y-16565071D01*
X11587264Y-16593643D01*
X11572978Y-16607929D01*
X11544407Y-16622214D01*
X11515835Y-16622214D01*
X11487264Y-16607929D01*
X11472978Y-16593643D01*
X11458692Y-16565071D01*
X11444407Y-16507929D01*
X11444407Y-16436500D01*
X11458692Y-16379357D01*
X11472978Y-16350786D01*
X11487264Y-16336500D01*
X11515835Y-16322214D01*
X11744407Y-16593643D02*
X11758692Y-16607929D01*
X11744407Y-16622214D01*
X11730121Y-16607929D01*
X11744407Y-16593643D01*
X11744407Y-16622214D01*
X12015835Y-16422214D02*
X12015835Y-16622214D01*
X11944407Y-16307929D02*
X11872978Y-16522214D01*
X12058692Y-16522214D01*
X12230121Y-16322214D02*
X12258692Y-16322214D01*
X12287264Y-16336500D01*
X12301549Y-16350786D01*
X12315835Y-16379357D01*
X12330121Y-16436500D01*
X12330121Y-16507929D01*
X12315835Y-16565071D01*
X12301549Y-16593643D01*
X12287264Y-16607929D01*
X12258692Y-16622214D01*
X12230121Y-16622214D01*
X12201549Y-16607929D01*
X12187264Y-16593643D01*
X12172978Y-16565071D01*
X12158692Y-16507929D01*
X12158692Y-16436500D01*
X12172978Y-16379357D01*
X12187264Y-16350786D01*
X12201549Y-16336500D01*
X12230121Y-16322214D01*
X12458692Y-16622214D02*
X12458692Y-16422214D01*
X12458692Y-16450786D02*
X12472978Y-16436500D01*
X12501549Y-16422214D01*
X12544407Y-16422214D01*
X12572978Y-16436500D01*
X12587264Y-16465071D01*
X12587264Y-16622214D01*
X12587264Y-16465071D02*
X12601549Y-16436500D01*
X12630121Y-16422214D01*
X12672978Y-16422214D01*
X12701549Y-16436500D01*
X12715835Y-16465071D01*
X12715835Y-16622214D01*
X12858692Y-16622214D02*
X12858692Y-16422214D01*
X12858692Y-16450786D02*
X12872978Y-16436500D01*
X12901549Y-16422214D01*
X12944407Y-16422214D01*
X12972978Y-16436500D01*
X12987264Y-16465071D01*
X12987264Y-16622214D01*
X12987264Y-16465071D02*
X13001549Y-16436500D01*
X13030121Y-16422214D01*
X13072978Y-16422214D01*
X13101549Y-16436500D01*
X13115835Y-16465071D01*
X13115835Y-16622214D01*
X13701549Y-16307929D02*
X13444407Y-16693643D01*
X14087264Y-16322214D02*
X14115835Y-16322214D01*
X14144407Y-16336500D01*
X14158692Y-16350786D01*
X14172978Y-16379357D01*
X14187264Y-16436500D01*
X14187264Y-16507929D01*
X14172978Y-16565071D01*
X14158692Y-16593643D01*
X14144407Y-16607929D01*
X14115835Y-16622214D01*
X14087264Y-16622214D01*
X14058692Y-16607929D01*
X14044407Y-16593643D01*
X14030121Y-16565071D01*
X14015835Y-16507929D01*
X14015835Y-16436500D01*
X14030121Y-16379357D01*
X14044407Y-16350786D01*
X14058692Y-16336500D01*
X14087264Y-16322214D01*
X14315835Y-16593643D02*
X14330121Y-16607929D01*
X14315835Y-16622214D01*
X14301549Y-16607929D01*
X14315835Y-16593643D01*
X14315835Y-16622214D01*
X14515835Y-16322214D02*
X14544407Y-16322214D01*
X14572978Y-16336500D01*
X14587264Y-16350786D01*
X14601549Y-16379357D01*
X14615835Y-16436500D01*
X14615835Y-16507929D01*
X14601549Y-16565071D01*
X14587264Y-16593643D01*
X14572978Y-16607929D01*
X14544407Y-16622214D01*
X14515835Y-16622214D01*
X14487264Y-16607929D01*
X14472978Y-16593643D01*
X14458692Y-16565071D01*
X14444407Y-16507929D01*
X14444407Y-16436500D01*
X14458692Y-16379357D01*
X14472978Y-16350786D01*
X14487264Y-16336500D01*
X14515835Y-16322214D01*
X14901549Y-16622214D02*
X14730121Y-16622214D01*
X14815835Y-16622214D02*
X14815835Y-16322214D01*
X14787264Y-16365071D01*
X14758692Y-16393643D01*
X14730121Y-16407929D01*
X15158692Y-16322214D02*
X15101549Y-16322214D01*
X15072978Y-16336500D01*
X15058692Y-16350786D01*
X15030121Y-16393643D01*
X15015835Y-16450786D01*
X15015835Y-16565071D01*
X15030121Y-16593643D01*
X15044407Y-16607929D01*
X15072978Y-16622214D01*
X15130121Y-16622214D01*
X15158692Y-16607929D01*
X15172978Y-16593643D01*
X15187264Y-16565071D01*
X15187264Y-16493643D01*
X15172978Y-16465071D01*
X15158692Y-16450786D01*
X15130121Y-16436500D01*
X15072978Y-16436500D01*
X15044407Y-16450786D01*
X15030121Y-16465071D01*
X15015835Y-16493643D01*
X15301549Y-16322214D02*
X15301549Y-16379357D01*
X15415835Y-16322214D02*
X15415835Y-16379357D01*
X15858692Y-16736500D02*
X15844407Y-16722214D01*
X15815835Y-16679357D01*
X15801549Y-16650786D01*
X15787264Y-16607929D01*
X15772978Y-16536500D01*
X15772978Y-16479357D01*
X15787264Y-16407929D01*
X15801549Y-16365071D01*
X15815835Y-16336500D01*
X15844407Y-16293643D01*
X15858692Y-16279357D01*
X16130121Y-16622214D02*
X15958692Y-16622214D01*
X16044407Y-16622214D02*
X16044407Y-16322214D01*
X16015835Y-16365071D01*
X15987264Y-16393643D01*
X15958692Y-16407929D01*
X16387264Y-16422214D02*
X16387264Y-16622214D01*
X16315835Y-16307929D02*
X16244407Y-16522214D01*
X16430121Y-16522214D01*
X16587264Y-16450786D02*
X16558692Y-16436500D01*
X16544407Y-16422214D01*
X16530121Y-16393643D01*
X16530121Y-16379357D01*
X16544407Y-16350786D01*
X16558692Y-16336500D01*
X16587264Y-16322214D01*
X16644407Y-16322214D01*
X16672978Y-16336500D01*
X16687264Y-16350786D01*
X16701549Y-16379357D01*
X16701549Y-16393643D01*
X16687264Y-16422214D01*
X16672978Y-16436500D01*
X16644407Y-16450786D01*
X16587264Y-16450786D01*
X16558692Y-16465071D01*
X16544407Y-16479357D01*
X16530121Y-16507929D01*
X16530121Y-16565071D01*
X16544407Y-16593643D01*
X16558692Y-16607929D01*
X16587264Y-16622214D01*
X16644407Y-16622214D01*
X16672978Y-16607929D01*
X16687264Y-16593643D01*
X16701549Y-16565071D01*
X16701549Y-16507929D01*
X16687264Y-16479357D01*
X16672978Y-16465071D01*
X16644407Y-16450786D01*
X17058692Y-16622214D02*
X17058692Y-16322214D01*
X17187264Y-16622214D02*
X17187264Y-16465071D01*
X17172978Y-16436500D01*
X17144407Y-16422214D01*
X17101550Y-16422214D01*
X17072978Y-16436500D01*
X17058692Y-16450786D01*
X17372978Y-16622214D02*
X17344407Y-16607929D01*
X17330121Y-16593643D01*
X17315835Y-16565071D01*
X17315835Y-16479357D01*
X17330121Y-16450786D01*
X17344407Y-16436500D01*
X17372978Y-16422214D01*
X17415835Y-16422214D01*
X17444407Y-16436500D01*
X17458692Y-16450786D01*
X17472978Y-16479357D01*
X17472978Y-16565071D01*
X17458692Y-16593643D01*
X17444407Y-16607929D01*
X17415835Y-16622214D01*
X17372978Y-16622214D01*
X17644407Y-16622214D02*
X17615835Y-16607929D01*
X17601550Y-16579357D01*
X17601550Y-16322214D01*
X17872978Y-16607929D02*
X17844407Y-16622214D01*
X17787264Y-16622214D01*
X17758692Y-16607929D01*
X17744407Y-16579357D01*
X17744407Y-16465071D01*
X17758692Y-16436500D01*
X17787264Y-16422214D01*
X17844407Y-16422214D01*
X17872978Y-16436500D01*
X17887264Y-16465071D01*
X17887264Y-16493643D01*
X17744407Y-16522214D01*
X18001550Y-16607929D02*
X18030121Y-16622214D01*
X18087264Y-16622214D01*
X18115835Y-16607929D01*
X18130121Y-16579357D01*
X18130121Y-16565071D01*
X18115835Y-16536500D01*
X18087264Y-16522214D01*
X18044407Y-16522214D01*
X18015835Y-16507929D01*
X18001550Y-16479357D01*
X18001550Y-16465071D01*
X18015835Y-16436500D01*
X18044407Y-16422214D01*
X18087264Y-16422214D01*
X18115835Y-16436500D01*
X18230121Y-16736500D02*
X18244407Y-16722214D01*
X18272978Y-16679357D01*
X18287264Y-16650786D01*
X18301550Y-16607929D01*
X18315835Y-16536500D01*
X18315835Y-16479357D01*
X18301550Y-16407929D01*
X18287264Y-16365071D01*
X18272978Y-16336500D01*
X18244407Y-16293643D01*
X18230121Y-16279357D01*
X11164942Y-16900178D02*
X11164942Y-16864822D01*
X11129586Y-16864822D01*
X11129586Y-16900178D01*
X11164942Y-16900178D01*
X11515835Y-16718214D02*
X11544407Y-16718214D01*
X11572978Y-16732500D01*
X11587264Y-16746786D01*
X11601549Y-16775357D01*
X11615835Y-16832500D01*
X11615835Y-16903929D01*
X11601549Y-16961072D01*
X11587264Y-16989643D01*
X11572978Y-17003929D01*
X11544407Y-17018214D01*
X11515835Y-17018214D01*
X11487264Y-17003929D01*
X11472978Y-16989643D01*
X11458692Y-16961072D01*
X11444407Y-16903929D01*
X11444407Y-16832500D01*
X11458692Y-16775357D01*
X11472978Y-16746786D01*
X11487264Y-16732500D01*
X11515835Y-16718214D01*
X11744407Y-16989643D02*
X11758692Y-17003929D01*
X11744407Y-17018214D01*
X11730121Y-17003929D01*
X11744407Y-16989643D01*
X11744407Y-17018214D01*
X12030121Y-16718214D02*
X11887264Y-16718214D01*
X11872978Y-16861072D01*
X11887264Y-16846786D01*
X11915835Y-16832500D01*
X11987264Y-16832500D01*
X12015835Y-16846786D01*
X12030121Y-16861072D01*
X12044407Y-16889643D01*
X12044407Y-16961072D01*
X12030121Y-16989643D01*
X12015835Y-17003929D01*
X11987264Y-17018214D01*
X11915835Y-17018214D01*
X11887264Y-17003929D01*
X11872978Y-16989643D01*
X12230121Y-16718214D02*
X12258692Y-16718214D01*
X12287264Y-16732500D01*
X12301549Y-16746786D01*
X12315835Y-16775357D01*
X12330121Y-16832500D01*
X12330121Y-16903929D01*
X12315835Y-16961072D01*
X12301549Y-16989643D01*
X12287264Y-17003929D01*
X12258692Y-17018214D01*
X12230121Y-17018214D01*
X12201549Y-17003929D01*
X12187264Y-16989643D01*
X12172978Y-16961072D01*
X12158692Y-16903929D01*
X12158692Y-16832500D01*
X12172978Y-16775357D01*
X12187264Y-16746786D01*
X12201549Y-16732500D01*
X12230121Y-16718214D01*
X12458692Y-17018214D02*
X12458692Y-16818214D01*
X12458692Y-16846786D02*
X12472978Y-16832500D01*
X12501549Y-16818214D01*
X12544407Y-16818214D01*
X12572978Y-16832500D01*
X12587264Y-16861072D01*
X12587264Y-17018214D01*
X12587264Y-16861072D02*
X12601549Y-16832500D01*
X12630121Y-16818214D01*
X12672978Y-16818214D01*
X12701549Y-16832500D01*
X12715835Y-16861072D01*
X12715835Y-17018214D01*
X12858692Y-17018214D02*
X12858692Y-16818214D01*
X12858692Y-16846786D02*
X12872978Y-16832500D01*
X12901549Y-16818214D01*
X12944407Y-16818214D01*
X12972978Y-16832500D01*
X12987264Y-16861072D01*
X12987264Y-17018214D01*
X12987264Y-16861072D02*
X13001549Y-16832500D01*
X13030121Y-16818214D01*
X13072978Y-16818214D01*
X13101549Y-16832500D01*
X13115835Y-16861072D01*
X13115835Y-17018214D01*
X13701549Y-16703929D02*
X13444407Y-17089643D01*
X14087264Y-16718214D02*
X14115835Y-16718214D01*
X14144407Y-16732500D01*
X14158692Y-16746786D01*
X14172978Y-16775357D01*
X14187264Y-16832500D01*
X14187264Y-16903929D01*
X14172978Y-16961072D01*
X14158692Y-16989643D01*
X14144407Y-17003929D01*
X14115835Y-17018214D01*
X14087264Y-17018214D01*
X14058692Y-17003929D01*
X14044407Y-16989643D01*
X14030121Y-16961072D01*
X14015835Y-16903929D01*
X14015835Y-16832500D01*
X14030121Y-16775357D01*
X14044407Y-16746786D01*
X14058692Y-16732500D01*
X14087264Y-16718214D01*
X14315835Y-16989643D02*
X14330121Y-17003929D01*
X14315835Y-17018214D01*
X14301549Y-17003929D01*
X14315835Y-16989643D01*
X14315835Y-17018214D01*
X14515835Y-16718214D02*
X14544407Y-16718214D01*
X14572978Y-16732500D01*
X14587264Y-16746786D01*
X14601549Y-16775357D01*
X14615835Y-16832500D01*
X14615835Y-16903929D01*
X14601549Y-16961072D01*
X14587264Y-16989643D01*
X14572978Y-17003929D01*
X14544407Y-17018214D01*
X14515835Y-17018214D01*
X14487264Y-17003929D01*
X14472978Y-16989643D01*
X14458692Y-16961072D01*
X14444407Y-16903929D01*
X14444407Y-16832500D01*
X14458692Y-16775357D01*
X14472978Y-16746786D01*
X14487264Y-16732500D01*
X14515835Y-16718214D01*
X14730121Y-16746786D02*
X14744407Y-16732500D01*
X14772978Y-16718214D01*
X14844407Y-16718214D01*
X14872978Y-16732500D01*
X14887264Y-16746786D01*
X14901549Y-16775357D01*
X14901549Y-16803929D01*
X14887264Y-16846786D01*
X14715835Y-17018214D01*
X14901549Y-17018214D01*
X15087264Y-16718214D02*
X15115835Y-16718214D01*
X15144407Y-16732500D01*
X15158692Y-16746786D01*
X15172978Y-16775357D01*
X15187264Y-16832500D01*
X15187264Y-16903929D01*
X15172978Y-16961072D01*
X15158692Y-16989643D01*
X15144407Y-17003929D01*
X15115835Y-17018214D01*
X15087264Y-17018214D01*
X15058692Y-17003929D01*
X15044407Y-16989643D01*
X15030121Y-16961072D01*
X15015835Y-16903929D01*
X15015835Y-16832500D01*
X15030121Y-16775357D01*
X15044407Y-16746786D01*
X15058692Y-16732500D01*
X15087264Y-16718214D01*
X15301549Y-16718214D02*
X15301549Y-16775357D01*
X15415835Y-16718214D02*
X15415835Y-16775357D01*
X15858692Y-17132500D02*
X15844407Y-17118214D01*
X15815835Y-17075357D01*
X15801549Y-17046786D01*
X15787264Y-17003929D01*
X15772978Y-16932500D01*
X15772978Y-16875357D01*
X15787264Y-16803929D01*
X15801549Y-16761071D01*
X15815835Y-16732500D01*
X15844407Y-16689643D01*
X15858692Y-16675357D01*
X16030121Y-16718214D02*
X16058692Y-16718214D01*
X16087264Y-16732500D01*
X16101549Y-16746786D01*
X16115835Y-16775357D01*
X16130121Y-16832500D01*
X16130121Y-16903929D01*
X16115835Y-16961072D01*
X16101549Y-16989643D01*
X16087264Y-17003929D01*
X16058692Y-17018214D01*
X16030121Y-17018214D01*
X16001549Y-17003929D01*
X15987264Y-16989643D01*
X15972978Y-16961072D01*
X15958692Y-16903929D01*
X15958692Y-16832500D01*
X15972978Y-16775357D01*
X15987264Y-16746786D01*
X16001549Y-16732500D01*
X16030121Y-16718214D01*
X16487264Y-17018214D02*
X16487264Y-16718214D01*
X16615835Y-17018214D02*
X16615835Y-16861072D01*
X16601549Y-16832500D01*
X16572978Y-16818214D01*
X16530121Y-16818214D01*
X16501549Y-16832500D01*
X16487264Y-16846786D01*
X16801550Y-17018214D02*
X16772978Y-17003929D01*
X16758692Y-16989643D01*
X16744407Y-16961072D01*
X16744407Y-16875357D01*
X16758692Y-16846786D01*
X16772978Y-16832500D01*
X16801550Y-16818214D01*
X16844407Y-16818214D01*
X16872978Y-16832500D01*
X16887264Y-16846786D01*
X16901550Y-16875357D01*
X16901550Y-16961072D01*
X16887264Y-16989643D01*
X16872978Y-17003929D01*
X16844407Y-17018214D01*
X16801550Y-17018214D01*
X17072978Y-17018214D02*
X17044407Y-17003929D01*
X17030121Y-16975357D01*
X17030121Y-16718214D01*
X17301550Y-17003929D02*
X17272978Y-17018214D01*
X17215835Y-17018214D01*
X17187264Y-17003929D01*
X17172978Y-16975357D01*
X17172978Y-16861072D01*
X17187264Y-16832500D01*
X17215835Y-16818214D01*
X17272978Y-16818214D01*
X17301550Y-16832500D01*
X17315835Y-16861072D01*
X17315835Y-16889643D01*
X17172978Y-16918214D01*
X17430121Y-17003929D02*
X17458692Y-17018214D01*
X17515835Y-17018214D01*
X17544407Y-17003929D01*
X17558692Y-16975357D01*
X17558692Y-16961072D01*
X17544407Y-16932500D01*
X17515835Y-16918214D01*
X17472978Y-16918214D01*
X17444407Y-16903929D01*
X17430121Y-16875357D01*
X17430121Y-16861072D01*
X17444407Y-16832500D01*
X17472978Y-16818214D01*
X17515835Y-16818214D01*
X17544407Y-16832500D01*
X17915835Y-16903929D02*
X18144407Y-16903929D01*
X18030121Y-17018214D02*
X18030121Y-16789643D01*
X18501550Y-16746786D02*
X18515835Y-16732500D01*
X18544407Y-16718214D01*
X18615835Y-16718214D01*
X18644407Y-16732500D01*
X18658692Y-16746786D01*
X18672978Y-16775357D01*
X18672978Y-16803929D01*
X18658692Y-16846786D01*
X18487264Y-17018214D01*
X18672978Y-17018214D01*
X19015835Y-17003929D02*
X19044407Y-17018214D01*
X19101550Y-17018214D01*
X19130121Y-17003929D01*
X19144407Y-16975357D01*
X19144407Y-16961072D01*
X19130121Y-16932500D01*
X19101550Y-16918214D01*
X19058692Y-16918214D01*
X19030121Y-16903929D01*
X19015835Y-16875357D01*
X19015835Y-16861072D01*
X19030121Y-16832500D01*
X19058692Y-16818214D01*
X19101550Y-16818214D01*
X19130121Y-16832500D01*
X19315835Y-17018214D02*
X19287264Y-17003929D01*
X19272978Y-16975357D01*
X19272978Y-16718214D01*
X19472978Y-17018214D02*
X19444407Y-17003929D01*
X19430121Y-16989643D01*
X19415835Y-16961072D01*
X19415835Y-16875357D01*
X19430121Y-16846786D01*
X19444407Y-16832500D01*
X19472978Y-16818214D01*
X19515835Y-16818214D01*
X19544407Y-16832500D01*
X19558692Y-16846786D01*
X19572978Y-16875357D01*
X19572978Y-16961072D01*
X19558692Y-16989643D01*
X19544407Y-17003929D01*
X19515835Y-17018214D01*
X19472978Y-17018214D01*
X19658692Y-16818214D02*
X19772978Y-16818214D01*
X19701550Y-16718214D02*
X19701550Y-16975357D01*
X19715835Y-17003929D01*
X19744407Y-17018214D01*
X19772978Y-17018214D01*
X19858692Y-17003929D02*
X19887264Y-17018214D01*
X19944407Y-17018214D01*
X19972978Y-17003929D01*
X19987264Y-16975357D01*
X19987264Y-16961072D01*
X19972978Y-16932500D01*
X19944407Y-16918214D01*
X19901550Y-16918214D01*
X19872978Y-16903929D01*
X19858692Y-16875357D01*
X19858692Y-16861072D01*
X19872978Y-16832500D01*
X19901550Y-16818214D01*
X19944407Y-16818214D01*
X19972978Y-16832500D01*
X20087264Y-17132500D02*
X20101550Y-17118214D01*
X20130121Y-17075357D01*
X20144407Y-17046786D01*
X20158692Y-17003929D01*
X20172978Y-16932500D01*
X20172978Y-16875357D01*
X20158692Y-16803929D01*
X20144407Y-16761071D01*
X20130121Y-16732500D01*
X20101550Y-16689643D01*
X20087264Y-16675357D01*
X11144764Y-17306000D02*
X11172264Y-17278500D01*
X11144764Y-17251000D01*
X11117264Y-17278500D01*
X11144764Y-17306000D01*
X11515835Y-17114214D02*
X11544407Y-17114214D01*
X11572978Y-17128500D01*
X11587264Y-17142786D01*
X11601549Y-17171357D01*
X11615835Y-17228500D01*
X11615835Y-17299929D01*
X11601549Y-17357072D01*
X11587264Y-17385643D01*
X11572978Y-17399929D01*
X11544407Y-17414214D01*
X11515835Y-17414214D01*
X11487264Y-17399929D01*
X11472978Y-17385643D01*
X11458692Y-17357072D01*
X11444407Y-17299929D01*
X11444407Y-17228500D01*
X11458692Y-17171357D01*
X11472978Y-17142786D01*
X11487264Y-17128500D01*
X11515835Y-17114214D01*
X11744407Y-17385643D02*
X11758692Y-17399929D01*
X11744407Y-17414214D01*
X11730121Y-17399929D01*
X11744407Y-17385643D01*
X11744407Y-17414214D01*
X12030121Y-17114214D02*
X11887264Y-17114214D01*
X11872978Y-17257072D01*
X11887264Y-17242786D01*
X11915835Y-17228500D01*
X11987264Y-17228500D01*
X12015835Y-17242786D01*
X12030121Y-17257072D01*
X12044407Y-17285643D01*
X12044407Y-17357072D01*
X12030121Y-17385643D01*
X12015835Y-17399929D01*
X11987264Y-17414214D01*
X11915835Y-17414214D01*
X11887264Y-17399929D01*
X11872978Y-17385643D01*
X12315835Y-17114214D02*
X12172978Y-17114214D01*
X12158692Y-17257072D01*
X12172978Y-17242786D01*
X12201549Y-17228500D01*
X12272978Y-17228500D01*
X12301549Y-17242786D01*
X12315835Y-17257072D01*
X12330121Y-17285643D01*
X12330121Y-17357072D01*
X12315835Y-17385643D01*
X12301549Y-17399929D01*
X12272978Y-17414214D01*
X12201549Y-17414214D01*
X12172978Y-17399929D01*
X12158692Y-17385643D01*
X12458692Y-17414214D02*
X12458692Y-17214214D01*
X12458692Y-17242786D02*
X12472978Y-17228500D01*
X12501549Y-17214214D01*
X12544407Y-17214214D01*
X12572978Y-17228500D01*
X12587264Y-17257072D01*
X12587264Y-17414214D01*
X12587264Y-17257072D02*
X12601549Y-17228500D01*
X12630121Y-17214214D01*
X12672978Y-17214214D01*
X12701549Y-17228500D01*
X12715835Y-17257072D01*
X12715835Y-17414214D01*
X12858692Y-17414214D02*
X12858692Y-17214214D01*
X12858692Y-17242786D02*
X12872978Y-17228500D01*
X12901549Y-17214214D01*
X12944407Y-17214214D01*
X12972978Y-17228500D01*
X12987264Y-17257072D01*
X12987264Y-17414214D01*
X12987264Y-17257072D02*
X13001549Y-17228500D01*
X13030121Y-17214214D01*
X13072978Y-17214214D01*
X13101549Y-17228500D01*
X13115835Y-17257072D01*
X13115835Y-17414214D01*
X13701549Y-17099929D02*
X13444407Y-17485643D01*
X14087264Y-17114214D02*
X14115835Y-17114214D01*
X14144407Y-17128500D01*
X14158692Y-17142786D01*
X14172978Y-17171357D01*
X14187264Y-17228500D01*
X14187264Y-17299929D01*
X14172978Y-17357072D01*
X14158692Y-17385643D01*
X14144407Y-17399929D01*
X14115835Y-17414214D01*
X14087264Y-17414214D01*
X14058692Y-17399929D01*
X14044407Y-17385643D01*
X14030121Y-17357072D01*
X14015835Y-17299929D01*
X14015835Y-17228500D01*
X14030121Y-17171357D01*
X14044407Y-17142786D01*
X14058692Y-17128500D01*
X14087264Y-17114214D01*
X14315835Y-17385643D02*
X14330121Y-17399929D01*
X14315835Y-17414214D01*
X14301549Y-17399929D01*
X14315835Y-17385643D01*
X14315835Y-17414214D01*
X14515835Y-17114214D02*
X14544407Y-17114214D01*
X14572978Y-17128500D01*
X14587264Y-17142786D01*
X14601549Y-17171357D01*
X14615835Y-17228500D01*
X14615835Y-17299929D01*
X14601549Y-17357072D01*
X14587264Y-17385643D01*
X14572978Y-17399929D01*
X14544407Y-17414214D01*
X14515835Y-17414214D01*
X14487264Y-17399929D01*
X14472978Y-17385643D01*
X14458692Y-17357072D01*
X14444407Y-17299929D01*
X14444407Y-17228500D01*
X14458692Y-17171357D01*
X14472978Y-17142786D01*
X14487264Y-17128500D01*
X14515835Y-17114214D01*
X14730121Y-17142786D02*
X14744407Y-17128500D01*
X14772978Y-17114214D01*
X14844407Y-17114214D01*
X14872978Y-17128500D01*
X14887264Y-17142786D01*
X14901549Y-17171357D01*
X14901549Y-17199929D01*
X14887264Y-17242786D01*
X14715835Y-17414214D01*
X14901549Y-17414214D01*
X15015835Y-17142786D02*
X15030121Y-17128500D01*
X15058692Y-17114214D01*
X15130121Y-17114214D01*
X15158692Y-17128500D01*
X15172978Y-17142786D01*
X15187264Y-17171357D01*
X15187264Y-17199929D01*
X15172978Y-17242786D01*
X15001549Y-17414214D01*
X15187264Y-17414214D01*
X15301549Y-17114214D02*
X15301549Y-17171357D01*
X15415835Y-17114214D02*
X15415835Y-17171357D01*
X15858692Y-17528500D02*
X15844407Y-17514214D01*
X15815835Y-17471357D01*
X15801549Y-17442786D01*
X15787264Y-17399929D01*
X15772978Y-17328500D01*
X15772978Y-17271357D01*
X15787264Y-17199929D01*
X15801549Y-17157072D01*
X15815835Y-17128500D01*
X15844407Y-17085643D01*
X15858692Y-17071357D01*
X16030121Y-17114214D02*
X16058692Y-17114214D01*
X16087264Y-17128500D01*
X16101549Y-17142786D01*
X16115835Y-17171357D01*
X16130121Y-17228500D01*
X16130121Y-17299929D01*
X16115835Y-17357072D01*
X16101549Y-17385643D01*
X16087264Y-17399929D01*
X16058692Y-17414214D01*
X16030121Y-17414214D01*
X16001549Y-17399929D01*
X15987264Y-17385643D01*
X15972978Y-17357072D01*
X15958692Y-17299929D01*
X15958692Y-17228500D01*
X15972978Y-17171357D01*
X15987264Y-17142786D01*
X16001549Y-17128500D01*
X16030121Y-17114214D01*
X16487264Y-17414214D02*
X16487264Y-17114214D01*
X16615835Y-17414214D02*
X16615835Y-17257072D01*
X16601549Y-17228500D01*
X16572978Y-17214214D01*
X16530121Y-17214214D01*
X16501549Y-17228500D01*
X16487264Y-17242786D01*
X16801550Y-17414214D02*
X16772978Y-17399929D01*
X16758692Y-17385643D01*
X16744407Y-17357072D01*
X16744407Y-17271357D01*
X16758692Y-17242786D01*
X16772978Y-17228500D01*
X16801550Y-17214214D01*
X16844407Y-17214214D01*
X16872978Y-17228500D01*
X16887264Y-17242786D01*
X16901550Y-17271357D01*
X16901550Y-17357072D01*
X16887264Y-17385643D01*
X16872978Y-17399929D01*
X16844407Y-17414214D01*
X16801550Y-17414214D01*
X17072978Y-17414214D02*
X17044407Y-17399929D01*
X17030121Y-17371357D01*
X17030121Y-17114214D01*
X17301550Y-17399929D02*
X17272978Y-17414214D01*
X17215835Y-17414214D01*
X17187264Y-17399929D01*
X17172978Y-17371357D01*
X17172978Y-17257072D01*
X17187264Y-17228500D01*
X17215835Y-17214214D01*
X17272978Y-17214214D01*
X17301550Y-17228500D01*
X17315835Y-17257072D01*
X17315835Y-17285643D01*
X17172978Y-17314214D01*
X17430121Y-17399929D02*
X17458692Y-17414214D01*
X17515835Y-17414214D01*
X17544407Y-17399929D01*
X17558692Y-17371357D01*
X17558692Y-17357072D01*
X17544407Y-17328500D01*
X17515835Y-17314214D01*
X17472978Y-17314214D01*
X17444407Y-17299929D01*
X17430121Y-17271357D01*
X17430121Y-17257072D01*
X17444407Y-17228500D01*
X17472978Y-17214214D01*
X17515835Y-17214214D01*
X17544407Y-17228500D01*
X17915835Y-17299929D02*
X18144407Y-17299929D01*
X18030121Y-17414214D02*
X18030121Y-17185643D01*
X18501550Y-17142786D02*
X18515835Y-17128500D01*
X18544407Y-17114214D01*
X18615835Y-17114214D01*
X18644407Y-17128500D01*
X18658692Y-17142786D01*
X18672978Y-17171357D01*
X18672978Y-17199929D01*
X18658692Y-17242786D01*
X18487264Y-17414214D01*
X18672978Y-17414214D01*
X19015835Y-17399929D02*
X19044407Y-17414214D01*
X19101550Y-17414214D01*
X19130121Y-17399929D01*
X19144407Y-17371357D01*
X19144407Y-17357072D01*
X19130121Y-17328500D01*
X19101550Y-17314214D01*
X19058692Y-17314214D01*
X19030121Y-17299929D01*
X19015835Y-17271357D01*
X19015835Y-17257072D01*
X19030121Y-17228500D01*
X19058692Y-17214214D01*
X19101550Y-17214214D01*
X19130121Y-17228500D01*
X19315835Y-17414214D02*
X19287264Y-17399929D01*
X19272978Y-17371357D01*
X19272978Y-17114214D01*
X19472978Y-17414214D02*
X19444407Y-17399929D01*
X19430121Y-17385643D01*
X19415835Y-17357072D01*
X19415835Y-17271357D01*
X19430121Y-17242786D01*
X19444407Y-17228500D01*
X19472978Y-17214214D01*
X19515835Y-17214214D01*
X19544407Y-17228500D01*
X19558692Y-17242786D01*
X19572978Y-17271357D01*
X19572978Y-17357072D01*
X19558692Y-17385643D01*
X19544407Y-17399929D01*
X19515835Y-17414214D01*
X19472978Y-17414214D01*
X19658692Y-17214214D02*
X19772978Y-17214214D01*
X19701550Y-17114214D02*
X19701550Y-17371357D01*
X19715835Y-17399929D01*
X19744407Y-17414214D01*
X19772978Y-17414214D01*
X19858692Y-17399929D02*
X19887264Y-17414214D01*
X19944407Y-17414214D01*
X19972978Y-17399929D01*
X19987264Y-17371357D01*
X19987264Y-17357072D01*
X19972978Y-17328500D01*
X19944407Y-17314214D01*
X19901550Y-17314214D01*
X19872978Y-17299929D01*
X19858692Y-17271357D01*
X19858692Y-17257072D01*
X19872978Y-17228500D01*
X19901550Y-17214214D01*
X19944407Y-17214214D01*
X19972978Y-17228500D01*
X20087264Y-17528500D02*
X20101550Y-17514214D01*
X20130121Y-17471357D01*
X20144407Y-17442786D01*
X20158692Y-17399929D01*
X20172978Y-17328500D01*
X20172978Y-17271357D01*
X20158692Y-17199929D01*
X20144407Y-17157072D01*
X20130121Y-17128500D01*
X20101550Y-17085643D01*
X20087264Y-17071357D01*
X11072264Y-17624500D02*
X11172264Y-17724500D01*
X11172264Y-17624500D02*
X11072264Y-17724500D01*
X11172264Y-17674500D02*
G75*
G03*
X11172264Y-17674500I-50000J0D01*
G01*
X11615835Y-17810214D02*
X11444407Y-17810214D01*
X11530121Y-17810214D02*
X11530121Y-17510214D01*
X11501549Y-17553072D01*
X11472978Y-17581643D01*
X11444407Y-17595929D01*
X11744407Y-17781643D02*
X11758692Y-17795929D01*
X11744407Y-17810214D01*
X11730121Y-17795929D01*
X11744407Y-17781643D01*
X11744407Y-17810214D01*
X11944407Y-17510214D02*
X11972978Y-17510214D01*
X12001549Y-17524500D01*
X12015835Y-17538786D01*
X12030121Y-17567357D01*
X12044407Y-17624500D01*
X12044407Y-17695929D01*
X12030121Y-17753072D01*
X12015835Y-17781643D01*
X12001549Y-17795929D01*
X11972978Y-17810214D01*
X11944407Y-17810214D01*
X11915835Y-17795929D01*
X11901549Y-17781643D01*
X11887264Y-17753072D01*
X11872978Y-17695929D01*
X11872978Y-17624500D01*
X11887264Y-17567357D01*
X11901549Y-17538786D01*
X11915835Y-17524500D01*
X11944407Y-17510214D01*
X12230121Y-17510214D02*
X12258692Y-17510214D01*
X12287264Y-17524500D01*
X12301549Y-17538786D01*
X12315835Y-17567357D01*
X12330121Y-17624500D01*
X12330121Y-17695929D01*
X12315835Y-17753072D01*
X12301549Y-17781643D01*
X12287264Y-17795929D01*
X12258692Y-17810214D01*
X12230121Y-17810214D01*
X12201549Y-17795929D01*
X12187264Y-17781643D01*
X12172978Y-17753072D01*
X12158692Y-17695929D01*
X12158692Y-17624500D01*
X12172978Y-17567357D01*
X12187264Y-17538786D01*
X12201549Y-17524500D01*
X12230121Y-17510214D01*
X12458692Y-17810214D02*
X12458692Y-17610214D01*
X12458692Y-17638786D02*
X12472978Y-17624500D01*
X12501549Y-17610214D01*
X12544407Y-17610214D01*
X12572978Y-17624500D01*
X12587264Y-17653072D01*
X12587264Y-17810214D01*
X12587264Y-17653072D02*
X12601549Y-17624500D01*
X12630121Y-17610214D01*
X12672978Y-17610214D01*
X12701549Y-17624500D01*
X12715835Y-17653072D01*
X12715835Y-17810214D01*
X12858692Y-17810214D02*
X12858692Y-17610214D01*
X12858692Y-17638786D02*
X12872978Y-17624500D01*
X12901549Y-17610214D01*
X12944407Y-17610214D01*
X12972978Y-17624500D01*
X12987264Y-17653072D01*
X12987264Y-17810214D01*
X12987264Y-17653072D02*
X13001549Y-17624500D01*
X13030121Y-17610214D01*
X13072978Y-17610214D01*
X13101549Y-17624500D01*
X13115835Y-17653072D01*
X13115835Y-17810214D01*
X13701549Y-17495929D02*
X13444407Y-17881643D01*
X14087264Y-17510214D02*
X14115835Y-17510214D01*
X14144407Y-17524500D01*
X14158692Y-17538786D01*
X14172978Y-17567357D01*
X14187264Y-17624500D01*
X14187264Y-17695929D01*
X14172978Y-17753072D01*
X14158692Y-17781643D01*
X14144407Y-17795929D01*
X14115835Y-17810214D01*
X14087264Y-17810214D01*
X14058692Y-17795929D01*
X14044407Y-17781643D01*
X14030121Y-17753072D01*
X14015835Y-17695929D01*
X14015835Y-17624500D01*
X14030121Y-17567357D01*
X14044407Y-17538786D01*
X14058692Y-17524500D01*
X14087264Y-17510214D01*
X14315835Y-17781643D02*
X14330121Y-17795929D01*
X14315835Y-17810214D01*
X14301549Y-17795929D01*
X14315835Y-17781643D01*
X14315835Y-17810214D01*
X14515835Y-17510214D02*
X14544407Y-17510214D01*
X14572978Y-17524500D01*
X14587264Y-17538786D01*
X14601549Y-17567357D01*
X14615835Y-17624500D01*
X14615835Y-17695929D01*
X14601549Y-17753072D01*
X14587264Y-17781643D01*
X14572978Y-17795929D01*
X14544407Y-17810214D01*
X14515835Y-17810214D01*
X14487264Y-17795929D01*
X14472978Y-17781643D01*
X14458692Y-17753072D01*
X14444407Y-17695929D01*
X14444407Y-17624500D01*
X14458692Y-17567357D01*
X14472978Y-17538786D01*
X14487264Y-17524500D01*
X14515835Y-17510214D01*
X14715835Y-17510214D02*
X14901549Y-17510214D01*
X14801549Y-17624500D01*
X14844407Y-17624500D01*
X14872978Y-17638786D01*
X14887264Y-17653072D01*
X14901549Y-17681643D01*
X14901549Y-17753072D01*
X14887264Y-17781643D01*
X14872978Y-17795929D01*
X14844407Y-17810214D01*
X14758692Y-17810214D01*
X14730121Y-17795929D01*
X14715835Y-17781643D01*
X15044407Y-17810214D02*
X15101549Y-17810214D01*
X15130121Y-17795929D01*
X15144407Y-17781643D01*
X15172978Y-17738786D01*
X15187264Y-17681643D01*
X15187264Y-17567357D01*
X15172978Y-17538786D01*
X15158692Y-17524500D01*
X15130121Y-17510214D01*
X15072978Y-17510214D01*
X15044407Y-17524500D01*
X15030121Y-17538786D01*
X15015835Y-17567357D01*
X15015835Y-17638786D01*
X15030121Y-17667357D01*
X15044407Y-17681643D01*
X15072978Y-17695929D01*
X15130121Y-17695929D01*
X15158692Y-17681643D01*
X15172978Y-17667357D01*
X15187264Y-17638786D01*
X15301549Y-17510214D02*
X15301549Y-17567357D01*
X15415835Y-17510214D02*
X15415835Y-17567357D01*
X15858692Y-17924500D02*
X15844407Y-17910214D01*
X15815835Y-17867357D01*
X15801549Y-17838786D01*
X15787264Y-17795929D01*
X15772978Y-17724500D01*
X15772978Y-17667357D01*
X15787264Y-17595929D01*
X15801549Y-17553072D01*
X15815835Y-17524500D01*
X15844407Y-17481643D01*
X15858692Y-17467357D01*
X15944407Y-17510214D02*
X16144407Y-17510214D01*
X16015835Y-17810214D01*
X16301549Y-17638786D02*
X16272978Y-17624500D01*
X16258692Y-17610214D01*
X16244407Y-17581643D01*
X16244407Y-17567357D01*
X16258692Y-17538786D01*
X16272978Y-17524500D01*
X16301549Y-17510214D01*
X16358692Y-17510214D01*
X16387264Y-17524500D01*
X16401549Y-17538786D01*
X16415835Y-17567357D01*
X16415835Y-17581643D01*
X16401549Y-17610214D01*
X16387264Y-17624500D01*
X16358692Y-17638786D01*
X16301549Y-17638786D01*
X16272978Y-17653072D01*
X16258692Y-17667357D01*
X16244407Y-17695929D01*
X16244407Y-17753072D01*
X16258692Y-17781643D01*
X16272978Y-17795929D01*
X16301549Y-17810214D01*
X16358692Y-17810214D01*
X16387264Y-17795929D01*
X16401549Y-17781643D01*
X16415835Y-17753072D01*
X16415835Y-17695929D01*
X16401549Y-17667357D01*
X16387264Y-17653072D01*
X16358692Y-17638786D01*
X16772978Y-17810214D02*
X16772978Y-17510214D01*
X16901550Y-17810214D02*
X16901550Y-17653072D01*
X16887264Y-17624500D01*
X16858692Y-17610214D01*
X16815835Y-17610214D01*
X16787264Y-17624500D01*
X16772978Y-17638786D01*
X17087264Y-17810214D02*
X17058692Y-17795929D01*
X17044407Y-17781643D01*
X17030121Y-17753072D01*
X17030121Y-17667357D01*
X17044407Y-17638786D01*
X17058692Y-17624500D01*
X17087264Y-17610214D01*
X17130121Y-17610214D01*
X17158692Y-17624500D01*
X17172978Y-17638786D01*
X17187264Y-17667357D01*
X17187264Y-17753072D01*
X17172978Y-17781643D01*
X17158692Y-17795929D01*
X17130121Y-17810214D01*
X17087264Y-17810214D01*
X17358692Y-17810214D02*
X17330121Y-17795929D01*
X17315835Y-17767357D01*
X17315835Y-17510214D01*
X17587264Y-17795929D02*
X17558692Y-17810214D01*
X17501550Y-17810214D01*
X17472978Y-17795929D01*
X17458692Y-17767357D01*
X17458692Y-17653072D01*
X17472978Y-17624500D01*
X17501550Y-17610214D01*
X17558692Y-17610214D01*
X17587264Y-17624500D01*
X17601550Y-17653072D01*
X17601550Y-17681643D01*
X17458692Y-17710214D01*
X17715835Y-17795929D02*
X17744407Y-17810214D01*
X17801550Y-17810214D01*
X17830121Y-17795929D01*
X17844407Y-17767357D01*
X17844407Y-17753072D01*
X17830121Y-17724500D01*
X17801550Y-17710214D01*
X17758692Y-17710214D01*
X17730121Y-17695929D01*
X17715835Y-17667357D01*
X17715835Y-17653072D01*
X17730121Y-17624500D01*
X17758692Y-17610214D01*
X17801550Y-17610214D01*
X17830121Y-17624500D01*
X17944407Y-17924500D02*
X17958692Y-17910214D01*
X17987264Y-17867357D01*
X18001550Y-17838786D01*
X18015835Y-17795929D01*
X18030121Y-17724500D01*
X18030121Y-17667357D01*
X18015835Y-17595929D01*
X18001550Y-17553072D01*
X17987264Y-17524500D01*
X17958692Y-17481643D01*
X17944407Y-17467357D01*
X11070264Y-18019500D02*
X11172264Y-18121500D01*
X11172264Y-18019500D02*
X11070264Y-18121500D01*
X11121264Y-18019500D02*
X11121264Y-18121500D01*
X11070264Y-18070500D02*
X11172264Y-18070500D01*
X11615835Y-18206214D02*
X11444407Y-18206214D01*
X11530121Y-18206214D02*
X11530121Y-17906214D01*
X11501549Y-17949072D01*
X11472978Y-17977643D01*
X11444407Y-17991929D01*
X11744407Y-18177643D02*
X11758692Y-18191929D01*
X11744407Y-18206214D01*
X11730121Y-18191929D01*
X11744407Y-18177643D01*
X11744407Y-18206214D01*
X11944407Y-17906214D02*
X11972978Y-17906214D01*
X12001549Y-17920500D01*
X12015835Y-17934786D01*
X12030121Y-17963357D01*
X12044407Y-18020500D01*
X12044407Y-18091929D01*
X12030121Y-18149072D01*
X12015835Y-18177643D01*
X12001549Y-18191929D01*
X11972978Y-18206214D01*
X11944407Y-18206214D01*
X11915835Y-18191929D01*
X11901549Y-18177643D01*
X11887264Y-18149072D01*
X11872978Y-18091929D01*
X11872978Y-18020500D01*
X11887264Y-17963357D01*
X11901549Y-17934786D01*
X11915835Y-17920500D01*
X11944407Y-17906214D01*
X12158692Y-17934786D02*
X12172978Y-17920500D01*
X12201549Y-17906214D01*
X12272978Y-17906214D01*
X12301549Y-17920500D01*
X12315835Y-17934786D01*
X12330121Y-17963357D01*
X12330121Y-17991929D01*
X12315835Y-18034786D01*
X12144407Y-18206214D01*
X12330121Y-18206214D01*
X12458692Y-18206214D02*
X12458692Y-18006214D01*
X12458692Y-18034786D02*
X12472978Y-18020500D01*
X12501549Y-18006214D01*
X12544407Y-18006214D01*
X12572978Y-18020500D01*
X12587264Y-18049072D01*
X12587264Y-18206214D01*
X12587264Y-18049072D02*
X12601549Y-18020500D01*
X12630121Y-18006214D01*
X12672978Y-18006214D01*
X12701549Y-18020500D01*
X12715835Y-18049072D01*
X12715835Y-18206214D01*
X12858692Y-18206214D02*
X12858692Y-18006214D01*
X12858692Y-18034786D02*
X12872978Y-18020500D01*
X12901549Y-18006214D01*
X12944407Y-18006214D01*
X12972978Y-18020500D01*
X12987264Y-18049072D01*
X12987264Y-18206214D01*
X12987264Y-18049072D02*
X13001549Y-18020500D01*
X13030121Y-18006214D01*
X13072978Y-18006214D01*
X13101549Y-18020500D01*
X13115835Y-18049072D01*
X13115835Y-18206214D01*
X13701549Y-17891929D02*
X13444407Y-18277643D01*
X14087264Y-17906214D02*
X14115835Y-17906214D01*
X14144407Y-17920500D01*
X14158692Y-17934786D01*
X14172978Y-17963357D01*
X14187264Y-18020500D01*
X14187264Y-18091929D01*
X14172978Y-18149072D01*
X14158692Y-18177643D01*
X14144407Y-18191929D01*
X14115835Y-18206214D01*
X14087264Y-18206214D01*
X14058692Y-18191929D01*
X14044407Y-18177643D01*
X14030121Y-18149072D01*
X14015835Y-18091929D01*
X14015835Y-18020500D01*
X14030121Y-17963357D01*
X14044407Y-17934786D01*
X14058692Y-17920500D01*
X14087264Y-17906214D01*
X14315835Y-18177643D02*
X14330121Y-18191929D01*
X14315835Y-18206214D01*
X14301549Y-18191929D01*
X14315835Y-18177643D01*
X14315835Y-18206214D01*
X14515835Y-17906214D02*
X14544407Y-17906214D01*
X14572978Y-17920500D01*
X14587264Y-17934786D01*
X14601549Y-17963357D01*
X14615835Y-18020500D01*
X14615835Y-18091929D01*
X14601549Y-18149072D01*
X14587264Y-18177643D01*
X14572978Y-18191929D01*
X14544407Y-18206214D01*
X14515835Y-18206214D01*
X14487264Y-18191929D01*
X14472978Y-18177643D01*
X14458692Y-18149072D01*
X14444407Y-18091929D01*
X14444407Y-18020500D01*
X14458692Y-17963357D01*
X14472978Y-17934786D01*
X14487264Y-17920500D01*
X14515835Y-17906214D01*
X14872978Y-18006214D02*
X14872978Y-18206214D01*
X14801549Y-17891929D02*
X14730121Y-18106214D01*
X14915835Y-18106214D01*
X15087264Y-17906214D02*
X15115835Y-17906214D01*
X15144407Y-17920500D01*
X15158692Y-17934786D01*
X15172978Y-17963357D01*
X15187264Y-18020500D01*
X15187264Y-18091929D01*
X15172978Y-18149072D01*
X15158692Y-18177643D01*
X15144407Y-18191929D01*
X15115835Y-18206214D01*
X15087264Y-18206214D01*
X15058692Y-18191929D01*
X15044407Y-18177643D01*
X15030121Y-18149072D01*
X15015835Y-18091929D01*
X15015835Y-18020500D01*
X15030121Y-17963357D01*
X15044407Y-17934786D01*
X15058692Y-17920500D01*
X15087264Y-17906214D01*
X15301549Y-17906214D02*
X15301549Y-17963357D01*
X15415835Y-17906214D02*
X15415835Y-17963357D01*
X15858692Y-18320500D02*
X15844407Y-18306214D01*
X15815835Y-18263357D01*
X15801549Y-18234786D01*
X15787264Y-18191929D01*
X15772978Y-18120500D01*
X15772978Y-18063357D01*
X15787264Y-17991929D01*
X15801549Y-17949072D01*
X15815835Y-17920500D01*
X15844407Y-17877643D01*
X15858692Y-17863357D01*
X16101549Y-17906214D02*
X16044407Y-17906214D01*
X16015835Y-17920500D01*
X16001549Y-17934786D01*
X15972978Y-17977643D01*
X15958692Y-18034786D01*
X15958692Y-18149072D01*
X15972978Y-18177643D01*
X15987264Y-18191929D01*
X16015835Y-18206214D01*
X16072978Y-18206214D01*
X16101549Y-18191929D01*
X16115835Y-18177643D01*
X16130121Y-18149072D01*
X16130121Y-18077643D01*
X16115835Y-18049072D01*
X16101549Y-18034786D01*
X16072978Y-18020500D01*
X16015835Y-18020500D01*
X15987264Y-18034786D01*
X15972978Y-18049072D01*
X15958692Y-18077643D01*
X16387264Y-18006214D02*
X16387264Y-18206214D01*
X16315835Y-17891929D02*
X16244407Y-18106214D01*
X16430121Y-18106214D01*
X16772978Y-18206214D02*
X16772978Y-17906214D01*
X16901550Y-18206214D02*
X16901550Y-18049072D01*
X16887264Y-18020500D01*
X16858692Y-18006214D01*
X16815835Y-18006214D01*
X16787264Y-18020500D01*
X16772978Y-18034786D01*
X17087264Y-18206214D02*
X17058692Y-18191929D01*
X17044407Y-18177643D01*
X17030121Y-18149072D01*
X17030121Y-18063357D01*
X17044407Y-18034786D01*
X17058692Y-18020500D01*
X17087264Y-18006214D01*
X17130121Y-18006214D01*
X17158692Y-18020500D01*
X17172978Y-18034786D01*
X17187264Y-18063357D01*
X17187264Y-18149072D01*
X17172978Y-18177643D01*
X17158692Y-18191929D01*
X17130121Y-18206214D01*
X17087264Y-18206214D01*
X17358692Y-18206214D02*
X17330121Y-18191929D01*
X17315835Y-18163357D01*
X17315835Y-17906214D01*
X17587264Y-18191929D02*
X17558692Y-18206214D01*
X17501550Y-18206214D01*
X17472978Y-18191929D01*
X17458692Y-18163357D01*
X17458692Y-18049072D01*
X17472978Y-18020500D01*
X17501550Y-18006214D01*
X17558692Y-18006214D01*
X17587264Y-18020500D01*
X17601550Y-18049072D01*
X17601550Y-18077643D01*
X17458692Y-18106214D01*
X17715835Y-18191929D02*
X17744407Y-18206214D01*
X17801550Y-18206214D01*
X17830121Y-18191929D01*
X17844407Y-18163357D01*
X17844407Y-18149072D01*
X17830121Y-18120500D01*
X17801550Y-18106214D01*
X17758692Y-18106214D01*
X17730121Y-18091929D01*
X17715835Y-18063357D01*
X17715835Y-18049072D01*
X17730121Y-18020500D01*
X17758692Y-18006214D01*
X17801550Y-18006214D01*
X17830121Y-18020500D01*
X17944407Y-18320500D02*
X17958692Y-18306214D01*
X17987264Y-18263357D01*
X18001550Y-18234786D01*
X18015835Y-18191929D01*
X18030121Y-18120500D01*
X18030121Y-18063357D01*
X18015835Y-17991929D01*
X18001550Y-17949072D01*
X17987264Y-17920500D01*
X17958692Y-17877643D01*
X17944407Y-17863357D01*
X11052264Y-18406500D02*
X11172264Y-18526500D01*
X11172264Y-18406500D02*
X11052264Y-18526500D01*
X11154691Y-18508927D02*
X11154691Y-18424073D01*
X11069837Y-18424073D01*
X11069837Y-18508927D01*
X11154691Y-18508927D01*
X11615835Y-18602214D02*
X11444407Y-18602214D01*
X11530121Y-18602214D02*
X11530121Y-18302214D01*
X11501549Y-18345072D01*
X11472978Y-18373643D01*
X11444407Y-18387929D01*
X11744407Y-18573643D02*
X11758692Y-18587929D01*
X11744407Y-18602214D01*
X11730121Y-18587929D01*
X11744407Y-18573643D01*
X11744407Y-18602214D01*
X11872978Y-18330786D02*
X11887264Y-18316500D01*
X11915835Y-18302214D01*
X11987264Y-18302214D01*
X12015835Y-18316500D01*
X12030121Y-18330786D01*
X12044407Y-18359357D01*
X12044407Y-18387929D01*
X12030121Y-18430786D01*
X11858692Y-18602214D01*
X12044407Y-18602214D01*
X12230121Y-18302214D02*
X12258692Y-18302214D01*
X12287264Y-18316500D01*
X12301549Y-18330786D01*
X12315835Y-18359357D01*
X12330121Y-18416500D01*
X12330121Y-18487929D01*
X12315835Y-18545072D01*
X12301549Y-18573643D01*
X12287264Y-18587929D01*
X12258692Y-18602214D01*
X12230121Y-18602214D01*
X12201549Y-18587929D01*
X12187264Y-18573643D01*
X12172978Y-18545072D01*
X12158692Y-18487929D01*
X12158692Y-18416500D01*
X12172978Y-18359357D01*
X12187264Y-18330786D01*
X12201549Y-18316500D01*
X12230121Y-18302214D01*
X12458692Y-18602214D02*
X12458692Y-18402214D01*
X12458692Y-18430786D02*
X12472978Y-18416500D01*
X12501549Y-18402214D01*
X12544407Y-18402214D01*
X12572978Y-18416500D01*
X12587264Y-18445072D01*
X12587264Y-18602214D01*
X12587264Y-18445072D02*
X12601549Y-18416500D01*
X12630121Y-18402214D01*
X12672978Y-18402214D01*
X12701549Y-18416500D01*
X12715835Y-18445072D01*
X12715835Y-18602214D01*
X12858692Y-18602214D02*
X12858692Y-18402214D01*
X12858692Y-18430786D02*
X12872978Y-18416500D01*
X12901549Y-18402214D01*
X12944407Y-18402214D01*
X12972978Y-18416500D01*
X12987264Y-18445072D01*
X12987264Y-18602214D01*
X12987264Y-18445072D02*
X13001549Y-18416500D01*
X13030121Y-18402214D01*
X13072978Y-18402214D01*
X13101549Y-18416500D01*
X13115835Y-18445072D01*
X13115835Y-18602214D01*
X13701549Y-18287929D02*
X13444407Y-18673643D01*
X14087264Y-18302214D02*
X14115835Y-18302214D01*
X14144407Y-18316500D01*
X14158692Y-18330786D01*
X14172978Y-18359357D01*
X14187264Y-18416500D01*
X14187264Y-18487929D01*
X14172978Y-18545072D01*
X14158692Y-18573643D01*
X14144407Y-18587929D01*
X14115835Y-18602214D01*
X14087264Y-18602214D01*
X14058692Y-18587929D01*
X14044407Y-18573643D01*
X14030121Y-18545072D01*
X14015835Y-18487929D01*
X14015835Y-18416500D01*
X14030121Y-18359357D01*
X14044407Y-18330786D01*
X14058692Y-18316500D01*
X14087264Y-18302214D01*
X14315835Y-18573643D02*
X14330121Y-18587929D01*
X14315835Y-18602214D01*
X14301549Y-18587929D01*
X14315835Y-18573643D01*
X14315835Y-18602214D01*
X14515835Y-18302214D02*
X14544407Y-18302214D01*
X14572978Y-18316500D01*
X14587264Y-18330786D01*
X14601549Y-18359357D01*
X14615835Y-18416500D01*
X14615835Y-18487929D01*
X14601549Y-18545072D01*
X14587264Y-18573643D01*
X14572978Y-18587929D01*
X14544407Y-18602214D01*
X14515835Y-18602214D01*
X14487264Y-18587929D01*
X14472978Y-18573643D01*
X14458692Y-18545072D01*
X14444407Y-18487929D01*
X14444407Y-18416500D01*
X14458692Y-18359357D01*
X14472978Y-18330786D01*
X14487264Y-18316500D01*
X14515835Y-18302214D01*
X14872978Y-18402214D02*
X14872978Y-18602214D01*
X14801549Y-18287929D02*
X14730121Y-18502214D01*
X14915835Y-18502214D01*
X15001549Y-18302214D02*
X15201549Y-18302214D01*
X15072978Y-18602214D01*
X15301549Y-18302214D02*
X15301549Y-18359357D01*
X15415835Y-18302214D02*
X15415835Y-18359357D01*
X15858692Y-18716500D02*
X15844407Y-18702214D01*
X15815835Y-18659357D01*
X15801549Y-18630786D01*
X15787264Y-18587929D01*
X15772978Y-18516500D01*
X15772978Y-18459357D01*
X15787264Y-18387929D01*
X15801549Y-18345072D01*
X15815835Y-18316500D01*
X15844407Y-18273643D01*
X15858692Y-18259357D01*
X15958692Y-18330786D02*
X15972978Y-18316500D01*
X16001549Y-18302214D01*
X16072978Y-18302214D01*
X16101549Y-18316500D01*
X16115835Y-18330786D01*
X16130121Y-18359357D01*
X16130121Y-18387929D01*
X16115835Y-18430786D01*
X15944407Y-18602214D01*
X16130121Y-18602214D01*
X16487264Y-18602214D02*
X16487264Y-18302214D01*
X16615835Y-18602214D02*
X16615835Y-18445072D01*
X16601549Y-18416500D01*
X16572978Y-18402214D01*
X16530121Y-18402214D01*
X16501549Y-18416500D01*
X16487264Y-18430786D01*
X16801550Y-18602214D02*
X16772978Y-18587929D01*
X16758692Y-18573643D01*
X16744407Y-18545072D01*
X16744407Y-18459357D01*
X16758692Y-18430786D01*
X16772978Y-18416500D01*
X16801550Y-18402214D01*
X16844407Y-18402214D01*
X16872978Y-18416500D01*
X16887264Y-18430786D01*
X16901550Y-18459357D01*
X16901550Y-18545072D01*
X16887264Y-18573643D01*
X16872978Y-18587929D01*
X16844407Y-18602214D01*
X16801550Y-18602214D01*
X17072978Y-18602214D02*
X17044407Y-18587929D01*
X17030121Y-18559357D01*
X17030121Y-18302214D01*
X17301550Y-18587929D02*
X17272978Y-18602214D01*
X17215835Y-18602214D01*
X17187264Y-18587929D01*
X17172978Y-18559357D01*
X17172978Y-18445072D01*
X17187264Y-18416500D01*
X17215835Y-18402214D01*
X17272978Y-18402214D01*
X17301550Y-18416500D01*
X17315835Y-18445072D01*
X17315835Y-18473643D01*
X17172978Y-18502214D01*
X17430121Y-18587929D02*
X17458692Y-18602214D01*
X17515835Y-18602214D01*
X17544407Y-18587929D01*
X17558692Y-18559357D01*
X17558692Y-18545072D01*
X17544407Y-18516500D01*
X17515835Y-18502214D01*
X17472978Y-18502214D01*
X17444407Y-18487929D01*
X17430121Y-18459357D01*
X17430121Y-18445072D01*
X17444407Y-18416500D01*
X17472978Y-18402214D01*
X17515835Y-18402214D01*
X17544407Y-18416500D01*
X17658692Y-18716500D02*
X17672978Y-18702214D01*
X17701550Y-18659357D01*
X17715835Y-18630786D01*
X17730121Y-18587929D01*
X17744407Y-18516500D01*
X17744407Y-18459357D01*
X17730121Y-18387929D01*
X17715835Y-18345072D01*
X17701550Y-18316500D01*
X17672978Y-18273643D01*
X17658692Y-18259357D01*
X11020264Y-18786500D02*
X11172264Y-18938500D01*
X11172264Y-18786500D02*
X11020264Y-18938500D01*
X11096264Y-18938500D02*
X11172264Y-18862500D01*
X11096264Y-18786500D01*
X11020264Y-18862500D01*
X11096264Y-18938500D01*
X11615835Y-18998214D02*
X11444407Y-18998214D01*
X11530121Y-18998214D02*
X11530121Y-18698214D01*
X11501549Y-18741072D01*
X11472978Y-18769643D01*
X11444407Y-18783929D01*
X11744407Y-18969643D02*
X11758692Y-18983929D01*
X11744407Y-18998214D01*
X11730121Y-18983929D01*
X11744407Y-18969643D01*
X11744407Y-18998214D01*
X12030121Y-18698214D02*
X11887264Y-18698214D01*
X11872978Y-18841072D01*
X11887264Y-18826786D01*
X11915835Y-18812500D01*
X11987264Y-18812500D01*
X12015835Y-18826786D01*
X12030121Y-18841072D01*
X12044407Y-18869643D01*
X12044407Y-18941072D01*
X12030121Y-18969643D01*
X12015835Y-18983929D01*
X11987264Y-18998214D01*
X11915835Y-18998214D01*
X11887264Y-18983929D01*
X11872978Y-18969643D01*
X12158692Y-18726786D02*
X12172978Y-18712500D01*
X12201549Y-18698214D01*
X12272978Y-18698214D01*
X12301549Y-18712500D01*
X12315835Y-18726786D01*
X12330121Y-18755357D01*
X12330121Y-18783929D01*
X12315835Y-18826786D01*
X12144407Y-18998214D01*
X12330121Y-18998214D01*
X12458692Y-18998214D02*
X12458692Y-18798214D01*
X12458692Y-18826786D02*
X12472978Y-18812500D01*
X12501549Y-18798214D01*
X12544407Y-18798214D01*
X12572978Y-18812500D01*
X12587264Y-18841072D01*
X12587264Y-18998214D01*
X12587264Y-18841072D02*
X12601549Y-18812500D01*
X12630121Y-18798214D01*
X12672978Y-18798214D01*
X12701549Y-18812500D01*
X12715835Y-18841072D01*
X12715835Y-18998214D01*
X12858692Y-18998214D02*
X12858692Y-18798214D01*
X12858692Y-18826786D02*
X12872978Y-18812500D01*
X12901549Y-18798214D01*
X12944407Y-18798214D01*
X12972978Y-18812500D01*
X12987264Y-18841072D01*
X12987264Y-18998214D01*
X12987264Y-18841072D02*
X13001549Y-18812500D01*
X13030121Y-18798214D01*
X13072978Y-18798214D01*
X13101549Y-18812500D01*
X13115835Y-18841072D01*
X13115835Y-18998214D01*
X13701549Y-18683929D02*
X13444407Y-19069643D01*
X14087264Y-18698214D02*
X14115835Y-18698214D01*
X14144407Y-18712500D01*
X14158692Y-18726786D01*
X14172978Y-18755357D01*
X14187264Y-18812500D01*
X14187264Y-18883929D01*
X14172978Y-18941072D01*
X14158692Y-18969643D01*
X14144407Y-18983929D01*
X14115835Y-18998214D01*
X14087264Y-18998214D01*
X14058692Y-18983929D01*
X14044407Y-18969643D01*
X14030121Y-18941072D01*
X14015835Y-18883929D01*
X14015835Y-18812500D01*
X14030121Y-18755357D01*
X14044407Y-18726786D01*
X14058692Y-18712500D01*
X14087264Y-18698214D01*
X14315835Y-18969643D02*
X14330121Y-18983929D01*
X14315835Y-18998214D01*
X14301549Y-18983929D01*
X14315835Y-18969643D01*
X14315835Y-18998214D01*
X14515835Y-18698214D02*
X14544407Y-18698214D01*
X14572978Y-18712500D01*
X14587264Y-18726786D01*
X14601549Y-18755357D01*
X14615835Y-18812500D01*
X14615835Y-18883929D01*
X14601549Y-18941072D01*
X14587264Y-18969643D01*
X14572978Y-18983929D01*
X14544407Y-18998214D01*
X14515835Y-18998214D01*
X14487264Y-18983929D01*
X14472978Y-18969643D01*
X14458692Y-18941072D01*
X14444407Y-18883929D01*
X14444407Y-18812500D01*
X14458692Y-18755357D01*
X14472978Y-18726786D01*
X14487264Y-18712500D01*
X14515835Y-18698214D01*
X14872978Y-18698214D02*
X14815835Y-18698214D01*
X14787264Y-18712500D01*
X14772978Y-18726786D01*
X14744407Y-18769643D01*
X14730121Y-18826786D01*
X14730121Y-18941072D01*
X14744407Y-18969643D01*
X14758692Y-18983929D01*
X14787264Y-18998214D01*
X14844407Y-18998214D01*
X14872978Y-18983929D01*
X14887264Y-18969643D01*
X14901549Y-18941072D01*
X14901549Y-18869643D01*
X14887264Y-18841072D01*
X14872978Y-18826786D01*
X14844407Y-18812500D01*
X14787264Y-18812500D01*
X14758692Y-18826786D01*
X14744407Y-18841072D01*
X14730121Y-18869643D01*
X15087264Y-18698214D02*
X15115835Y-18698214D01*
X15144407Y-18712500D01*
X15158692Y-18726786D01*
X15172978Y-18755357D01*
X15187264Y-18812500D01*
X15187264Y-18883929D01*
X15172978Y-18941072D01*
X15158692Y-18969643D01*
X15144407Y-18983929D01*
X15115835Y-18998214D01*
X15087264Y-18998214D01*
X15058692Y-18983929D01*
X15044407Y-18969643D01*
X15030121Y-18941072D01*
X15015835Y-18883929D01*
X15015835Y-18812500D01*
X15030121Y-18755357D01*
X15044407Y-18726786D01*
X15058692Y-18712500D01*
X15087264Y-18698214D01*
X15301549Y-18698214D02*
X15301549Y-18755357D01*
X15415835Y-18698214D02*
X15415835Y-18755357D01*
X15858692Y-19112500D02*
X15844407Y-19098214D01*
X15815835Y-19055357D01*
X15801549Y-19026786D01*
X15787264Y-18983929D01*
X15772978Y-18912500D01*
X15772978Y-18855357D01*
X15787264Y-18783929D01*
X15801549Y-18741072D01*
X15815835Y-18712500D01*
X15844407Y-18669643D01*
X15858692Y-18655357D01*
X16101549Y-18798214D02*
X16101549Y-18998214D01*
X16030121Y-18683929D02*
X15958692Y-18898214D01*
X16144407Y-18898214D01*
X16487264Y-18998214D02*
X16487264Y-18698214D01*
X16615835Y-18998214D02*
X16615835Y-18841072D01*
X16601549Y-18812500D01*
X16572978Y-18798214D01*
X16530121Y-18798214D01*
X16501549Y-18812500D01*
X16487264Y-18826786D01*
X16801550Y-18998214D02*
X16772978Y-18983929D01*
X16758692Y-18969643D01*
X16744407Y-18941072D01*
X16744407Y-18855357D01*
X16758692Y-18826786D01*
X16772978Y-18812500D01*
X16801550Y-18798214D01*
X16844407Y-18798214D01*
X16872978Y-18812500D01*
X16887264Y-18826786D01*
X16901550Y-18855357D01*
X16901550Y-18941072D01*
X16887264Y-18969643D01*
X16872978Y-18983929D01*
X16844407Y-18998214D01*
X16801550Y-18998214D01*
X17072978Y-18998214D02*
X17044407Y-18983929D01*
X17030121Y-18955357D01*
X17030121Y-18698214D01*
X17301550Y-18983929D02*
X17272978Y-18998214D01*
X17215835Y-18998214D01*
X17187264Y-18983929D01*
X17172978Y-18955357D01*
X17172978Y-18841072D01*
X17187264Y-18812500D01*
X17215835Y-18798214D01*
X17272978Y-18798214D01*
X17301550Y-18812500D01*
X17315835Y-18841072D01*
X17315835Y-18869643D01*
X17172978Y-18898214D01*
X17430121Y-18983929D02*
X17458692Y-18998214D01*
X17515835Y-18998214D01*
X17544407Y-18983929D01*
X17558692Y-18955357D01*
X17558692Y-18941072D01*
X17544407Y-18912500D01*
X17515835Y-18898214D01*
X17472978Y-18898214D01*
X17444407Y-18883929D01*
X17430121Y-18855357D01*
X17430121Y-18841072D01*
X17444407Y-18812500D01*
X17472978Y-18798214D01*
X17515835Y-18798214D01*
X17544407Y-18812500D01*
X17658692Y-19112500D02*
X17672978Y-19098214D01*
X17701550Y-19055357D01*
X17715835Y-19026786D01*
X17730121Y-18983929D01*
X17744407Y-18912500D01*
X17744407Y-18855357D01*
X17730121Y-18783929D01*
X17715835Y-18741072D01*
X17701550Y-18712500D01*
X17672978Y-18669643D01*
X17658692Y-18655357D01*
X11012264Y-19098500D02*
X11012264Y-19418500D01*
X10852264Y-19258500D02*
X11172264Y-19258500D01*
X11172264Y-19258500D02*
G75*
G03*
X11172264Y-19258500I-160000J0D01*
G01*
X11430121Y-19094214D02*
X11615835Y-19094214D01*
X11515835Y-19208500D01*
X11558692Y-19208500D01*
X11587264Y-19222786D01*
X11601549Y-19237072D01*
X11615835Y-19265643D01*
X11615835Y-19337072D01*
X11601549Y-19365643D01*
X11587264Y-19379929D01*
X11558692Y-19394214D01*
X11472978Y-19394214D01*
X11444407Y-19379929D01*
X11430121Y-19365643D01*
X11744407Y-19365643D02*
X11758692Y-19379929D01*
X11744407Y-19394214D01*
X11730121Y-19379929D01*
X11744407Y-19365643D01*
X11744407Y-19394214D01*
X11872978Y-19122786D02*
X11887264Y-19108500D01*
X11915835Y-19094214D01*
X11987264Y-19094214D01*
X12015835Y-19108500D01*
X12030121Y-19122786D01*
X12044407Y-19151357D01*
X12044407Y-19179929D01*
X12030121Y-19222786D01*
X11858692Y-19394214D01*
X12044407Y-19394214D01*
X12230121Y-19094214D02*
X12258692Y-19094214D01*
X12287264Y-19108500D01*
X12301549Y-19122786D01*
X12315835Y-19151357D01*
X12330121Y-19208500D01*
X12330121Y-19279929D01*
X12315835Y-19337072D01*
X12301549Y-19365643D01*
X12287264Y-19379929D01*
X12258692Y-19394214D01*
X12230121Y-19394214D01*
X12201549Y-19379929D01*
X12187264Y-19365643D01*
X12172978Y-19337072D01*
X12158692Y-19279929D01*
X12158692Y-19208500D01*
X12172978Y-19151357D01*
X12187264Y-19122786D01*
X12201549Y-19108500D01*
X12230121Y-19094214D01*
X12458692Y-19394214D02*
X12458692Y-19194214D01*
X12458692Y-19222786D02*
X12472978Y-19208500D01*
X12501549Y-19194214D01*
X12544407Y-19194214D01*
X12572978Y-19208500D01*
X12587264Y-19237072D01*
X12587264Y-19394214D01*
X12587264Y-19237072D02*
X12601549Y-19208500D01*
X12630121Y-19194214D01*
X12672978Y-19194214D01*
X12701549Y-19208500D01*
X12715835Y-19237072D01*
X12715835Y-19394214D01*
X12858692Y-19394214D02*
X12858692Y-19194214D01*
X12858692Y-19222786D02*
X12872978Y-19208500D01*
X12901549Y-19194214D01*
X12944407Y-19194214D01*
X12972978Y-19208500D01*
X12987264Y-19237072D01*
X12987264Y-19394214D01*
X12987264Y-19237072D02*
X13001549Y-19208500D01*
X13030121Y-19194214D01*
X13072978Y-19194214D01*
X13101549Y-19208500D01*
X13115835Y-19237072D01*
X13115835Y-19394214D01*
X13701549Y-19079929D02*
X13444407Y-19465643D01*
X14087264Y-19094214D02*
X14115835Y-19094214D01*
X14144407Y-19108500D01*
X14158692Y-19122786D01*
X14172978Y-19151357D01*
X14187264Y-19208500D01*
X14187264Y-19279929D01*
X14172978Y-19337072D01*
X14158692Y-19365643D01*
X14144407Y-19379929D01*
X14115835Y-19394214D01*
X14087264Y-19394214D01*
X14058692Y-19379929D01*
X14044407Y-19365643D01*
X14030121Y-19337072D01*
X14015835Y-19279929D01*
X14015835Y-19208500D01*
X14030121Y-19151357D01*
X14044407Y-19122786D01*
X14058692Y-19108500D01*
X14087264Y-19094214D01*
X14315835Y-19365643D02*
X14330121Y-19379929D01*
X14315835Y-19394214D01*
X14301549Y-19379929D01*
X14315835Y-19365643D01*
X14315835Y-19394214D01*
X14615835Y-19394214D02*
X14444407Y-19394214D01*
X14530121Y-19394214D02*
X14530121Y-19094214D01*
X14501549Y-19137072D01*
X14472978Y-19165643D01*
X14444407Y-19179929D01*
X14730121Y-19122786D02*
X14744407Y-19108500D01*
X14772978Y-19094214D01*
X14844407Y-19094214D01*
X14872978Y-19108500D01*
X14887264Y-19122786D01*
X14901549Y-19151357D01*
X14901549Y-19179929D01*
X14887264Y-19222786D01*
X14715835Y-19394214D01*
X14901549Y-19394214D01*
X15158692Y-19094214D02*
X15101549Y-19094214D01*
X15072978Y-19108500D01*
X15058692Y-19122786D01*
X15030121Y-19165643D01*
X15015835Y-19222786D01*
X15015835Y-19337072D01*
X15030121Y-19365643D01*
X15044407Y-19379929D01*
X15072978Y-19394214D01*
X15130121Y-19394214D01*
X15158692Y-19379929D01*
X15172978Y-19365643D01*
X15187264Y-19337072D01*
X15187264Y-19265643D01*
X15172978Y-19237072D01*
X15158692Y-19222786D01*
X15130121Y-19208500D01*
X15072978Y-19208500D01*
X15044407Y-19222786D01*
X15030121Y-19237072D01*
X15015835Y-19265643D01*
X15301549Y-19094214D02*
X15301549Y-19151357D01*
X15415835Y-19094214D02*
X15415835Y-19151357D01*
X15858692Y-19508500D02*
X15844407Y-19494214D01*
X15815835Y-19451357D01*
X15801549Y-19422786D01*
X15787264Y-19379929D01*
X15772978Y-19308500D01*
X15772978Y-19251357D01*
X15787264Y-19179929D01*
X15801549Y-19137072D01*
X15815835Y-19108500D01*
X15844407Y-19065643D01*
X15858692Y-19051357D01*
X16101549Y-19194214D02*
X16101549Y-19394214D01*
X16030121Y-19079929D02*
X15958692Y-19294214D01*
X16144407Y-19294214D01*
X16487264Y-19394214D02*
X16487264Y-19094214D01*
X16615835Y-19394214D02*
X16615835Y-19237072D01*
X16601549Y-19208500D01*
X16572978Y-19194214D01*
X16530121Y-19194214D01*
X16501549Y-19208500D01*
X16487264Y-19222786D01*
X16801550Y-19394214D02*
X16772978Y-19379929D01*
X16758692Y-19365643D01*
X16744407Y-19337072D01*
X16744407Y-19251357D01*
X16758692Y-19222786D01*
X16772978Y-19208500D01*
X16801550Y-19194214D01*
X16844407Y-19194214D01*
X16872978Y-19208500D01*
X16887264Y-19222786D01*
X16901550Y-19251357D01*
X16901550Y-19337072D01*
X16887264Y-19365643D01*
X16872978Y-19379929D01*
X16844407Y-19394214D01*
X16801550Y-19394214D01*
X17072978Y-19394214D02*
X17044407Y-19379929D01*
X17030121Y-19351357D01*
X17030121Y-19094214D01*
X17301550Y-19379929D02*
X17272978Y-19394214D01*
X17215835Y-19394214D01*
X17187264Y-19379929D01*
X17172978Y-19351357D01*
X17172978Y-19237072D01*
X17187264Y-19208500D01*
X17215835Y-19194214D01*
X17272978Y-19194214D01*
X17301550Y-19208500D01*
X17315835Y-19237072D01*
X17315835Y-19265643D01*
X17172978Y-19294214D01*
X17430121Y-19379929D02*
X17458692Y-19394214D01*
X17515835Y-19394214D01*
X17544407Y-19379929D01*
X17558692Y-19351357D01*
X17558692Y-19337072D01*
X17544407Y-19308500D01*
X17515835Y-19294214D01*
X17472978Y-19294214D01*
X17444407Y-19279929D01*
X17430121Y-19251357D01*
X17430121Y-19237072D01*
X17444407Y-19208500D01*
X17472978Y-19194214D01*
X17515835Y-19194214D01*
X17544407Y-19208500D01*
X17658692Y-19508500D02*
X17672978Y-19494214D01*
X17701550Y-19451357D01*
X17715835Y-19422786D01*
X17730121Y-19379929D01*
X17744407Y-19308500D01*
X17744407Y-19251357D01*
X17730121Y-19179929D01*
X17715835Y-19137072D01*
X17701550Y-19108500D01*
X17672978Y-19065643D01*
X17658692Y-19051357D01*
M02*
