G04 #@! TF.GenerationSoftware,KiCad,Pcbnew,(5.1.9)-1*
G04 #@! TF.CreationDate,2021-11-23T21:03:06+05:30*
G04 #@! TF.ProjectId,Onyx PCB,4f6e7978-2050-4434-922e-6b696361645f,rev?*
G04 #@! TF.SameCoordinates,Original*
G04 #@! TF.FileFunction,Soldermask,Bot*
G04 #@! TF.FilePolarity,Negative*
%FSLAX46Y46*%
G04 Gerber Fmt 4.6, Leading zero omitted, Abs format (unit mm)*
G04 Created by KiCad (PCBNEW (5.1.9)-1) date 2021-11-23 21:03:06*
%MOMM*%
%LPD*%
G01*
G04 APERTURE LIST*
%ADD10C,0.300000*%
%ADD11O,1.700000X1.700000*%
%ADD12R,1.700000X1.700000*%
%ADD13O,0.890000X1.550000*%
%ADD14O,1.250000X0.950000*%
%ADD15C,1.530000*%
%ADD16R,1.530000X1.530000*%
%ADD17C,3.000000*%
%ADD18R,3.000000X3.000000*%
%ADD19C,5.600000*%
%ADD20O,2.400000X2.400000*%
%ADD21C,2.400000*%
G04 APERTURE END LIST*
D10*
X177882500Y-136260000D03*
X179717500Y-136260000D03*
X176965000Y-137177500D03*
X178800000Y-137177500D03*
X180635000Y-137177500D03*
X177882500Y-138095000D03*
X179717500Y-138095000D03*
X176965000Y-139012500D03*
X178800000Y-139012500D03*
X180635000Y-139012500D03*
X177882500Y-139930000D03*
X179717500Y-139930000D03*
D11*
X200508000Y-118110000D03*
X200508000Y-115570000D03*
D12*
X200508000Y-113030000D03*
D11*
X115062000Y-137414000D03*
X117602000Y-137414000D03*
D12*
X120142000Y-137414000D03*
D13*
X145105000Y-145826000D03*
X138105000Y-145826000D03*
D14*
X144105000Y-143126000D03*
X139105000Y-143126000D03*
D11*
X210566000Y-127000000D03*
X213106000Y-127000000D03*
X210566000Y-129540000D03*
X213106000Y-129540000D03*
X210566000Y-132080000D03*
X213106000Y-132080000D03*
X210566000Y-134620000D03*
D12*
X213106000Y-134620000D03*
D11*
X210566000Y-112522000D03*
X213106000Y-112522000D03*
X210566000Y-115062000D03*
X213106000Y-115062000D03*
X210566000Y-117602000D03*
X213106000Y-117602000D03*
X210566000Y-120142000D03*
X213106000Y-120142000D03*
X210566000Y-122682000D03*
D12*
X213106000Y-122682000D03*
D11*
X205359000Y-89916000D03*
D12*
X205359000Y-87376000D03*
D11*
X201676000Y-89916000D03*
D12*
X201676000Y-87376000D03*
D11*
X197993000Y-89916000D03*
D12*
X197993000Y-87376000D03*
D11*
X183134000Y-89916000D03*
D12*
X183134000Y-87376000D03*
D11*
X179451000Y-89916000D03*
D12*
X179451000Y-87376000D03*
D11*
X175768000Y-89916000D03*
D12*
X175768000Y-87376000D03*
D11*
X161417000Y-89916000D03*
D12*
X161417000Y-87376000D03*
D11*
X157734000Y-89916000D03*
D12*
X157734000Y-87376000D03*
D11*
X154051000Y-89916000D03*
D12*
X154051000Y-87376000D03*
D11*
X139573000Y-89916000D03*
D12*
X139573000Y-87376000D03*
D11*
X135890000Y-89916000D03*
D12*
X135890000Y-87376000D03*
D11*
X132207000Y-89916000D03*
D12*
X132207000Y-87376000D03*
D15*
X188214000Y-83820000D03*
X190754000Y-83820000D03*
X193294000Y-83820000D03*
X195834000Y-83820000D03*
X198374000Y-83820000D03*
X200914000Y-83820000D03*
X203454000Y-83820000D03*
X205994000Y-83820000D03*
X205994000Y-96520000D03*
X203454000Y-96520000D03*
X200914000Y-96520000D03*
X198374000Y-96520000D03*
X195834000Y-96520000D03*
X193294000Y-96520000D03*
X190754000Y-96520000D03*
D16*
X188214000Y-96520000D03*
D15*
X166285000Y-83820000D03*
X168825000Y-83820000D03*
X171365000Y-83820000D03*
X173905000Y-83820000D03*
X176445000Y-83820000D03*
X178985000Y-83820000D03*
X181525000Y-83820000D03*
X184065000Y-83820000D03*
X184065000Y-96520000D03*
X181525000Y-96520000D03*
X178985000Y-96520000D03*
X176445000Y-96520000D03*
X173905000Y-96520000D03*
X171365000Y-96520000D03*
X168825000Y-96520000D03*
D16*
X166285000Y-96520000D03*
D15*
X144357000Y-83820000D03*
X146897000Y-83820000D03*
X149437000Y-83820000D03*
X151977000Y-83820000D03*
X154517000Y-83820000D03*
X157057000Y-83820000D03*
X159597000Y-83820000D03*
X162137000Y-83820000D03*
X162137000Y-96520000D03*
X159597000Y-96520000D03*
X157057000Y-96520000D03*
X154517000Y-96520000D03*
X151977000Y-96520000D03*
X149437000Y-96520000D03*
X146897000Y-96520000D03*
D16*
X144357000Y-96520000D03*
D15*
X122428000Y-83820000D03*
X124968000Y-83820000D03*
X127508000Y-83820000D03*
X130048000Y-83820000D03*
X132588000Y-83820000D03*
X135128000Y-83820000D03*
X137668000Y-83820000D03*
X140208000Y-83820000D03*
X140208000Y-96520000D03*
X137668000Y-96520000D03*
X135128000Y-96520000D03*
X132588000Y-96520000D03*
X130048000Y-96520000D03*
X127508000Y-96520000D03*
X124968000Y-96520000D03*
D16*
X122428000Y-96520000D03*
D11*
X204419000Y-102464000D03*
X204419000Y-105004000D03*
D12*
X204419000Y-107544000D03*
D11*
X117602000Y-131191000D03*
X115062000Y-131191000D03*
X117602000Y-128651000D03*
D12*
X115062000Y-128651000D03*
D11*
X117602000Y-124587000D03*
X115062000Y-124587000D03*
X117602000Y-122047000D03*
D12*
X115062000Y-122047000D03*
D17*
X211328000Y-107188000D03*
D18*
X211328000Y-102108000D03*
D11*
X196494000Y-118110000D03*
X196494000Y-115570000D03*
D12*
X196494000Y-113030000D03*
D17*
X117221000Y-112014000D03*
D18*
X117221000Y-117094000D03*
D11*
X200914000Y-79756000D03*
X198374000Y-79756000D03*
X195834000Y-79756000D03*
D12*
X193294000Y-79756000D03*
D11*
X178943000Y-79756000D03*
X176403000Y-79756000D03*
X173863000Y-79756000D03*
D12*
X171323000Y-79756000D03*
D11*
X156972000Y-79756000D03*
X154432000Y-79756000D03*
X151892000Y-79756000D03*
D12*
X149352000Y-79756000D03*
D11*
X135138000Y-79756000D03*
X132598000Y-79756000D03*
X130058000Y-79756000D03*
D12*
X127518000Y-79756000D03*
D19*
X116840000Y-81280000D03*
X212090000Y-142240000D03*
X116840000Y-142748000D03*
X211328000Y-81280000D03*
D20*
X116586000Y-86614000D03*
D21*
X116586000Y-106934000D03*
M02*
